<?xml version="1.0" encoding="UTF-8" standalone="no"?>
<!DOCTYPE svg PUBLIC "-//W3C//DTD SVG 1.1//EN" "http://www.w3.org/Graphics/SVG/1.1/DTD/svg11.dtd">
<svg xmlns="http://www.w3.org/2000/svg" version="1.1" viewBox="0.00 0.00 428.00 142.00">
<g stroke-width="2.00" fill="none" stroke-linecap="butt">
<path stroke="#858586" vector-effect="non-scaling-stroke" d="
  M 194.86 12.84
  A 0.38 0.38 0.0 0 0 194.48 12.46
  L 188.28 12.46
  A 0.38 0.38 0.0 0 0 187.90 12.84
  L 187.90 55.62
  A 0.38 0.38 0.0 0 0 188.28 56.00
  L 194.48 56.00
  A 0.38 0.38 0.0 0 0 194.86 55.62
  L 194.86 12.84"
/>
<path stroke="#858586" vector-effect="non-scaling-stroke" d="
  M 143.30 34.89
  C 143.31 48.43 151.99 57.66 165.76 56.74
  Q 178.91 55.86 181.99 41.97
  A 0.16 0.16 0.0 0 0 181.84 41.77
  L 175.28 41.77
  A 0.48 0.47 9.4 0 0 174.83 42.09
  Q 172.03 49.97 164.84 50.29
  C 155.24 50.72 150.61 43.66 150.60 34.88
  C 150.59 26.11 155.22 19.04 164.82 19.46
  Q 172.01 19.77 174.82 27.64
  A 0.48 0.47 -9.5 0 0 175.27 27.96
  L 181.83 27.95
  A 0.16 0.16 0.0 0 0 181.98 27.75
  Q 178.88 13.87 165.73 13.01
  C 151.95 12.11 143.29 21.35 143.30 34.89"
/>
<path stroke="#858586" vector-effect="non-scaling-stroke" d="
  M 210.7012 13.8432
  A 0.58 0.58 0.0 0 0 210.1232 13.2612
  L 203.7032 13.2388
  A 0.58 0.58 0.0 0 0 203.1212 13.8168
  L 203.0988 20.2368
  A 0.58 0.58 0.0 0 0 203.6768 20.8188
  L 210.0968 20.8412
  A 0.58 0.58 0.0 0 0 210.6788 20.2632
  L 210.7012 13.8432"
/>
<path stroke="#858586" vector-effect="non-scaling-stroke" d="
  M 311.66 31.21
  L 316.92 31.21
  A 0.35 0.35 0.0 0 0 317.27 30.86
  L 317.27 25.91
  A 0.38 0.37 90.0 0 0 316.90 25.53
  L 311.46 25.53
  A 0.57 0.57 0.0 0 1 310.89 24.96
  L 310.89 18.00
  A 0.42 0.41 -0.0 0 0 310.47 17.59
  L 304.25 17.59
  A 0.38 0.38 0.0 0 0 303.87 17.97
  L 303.87 25.01
  A 0.50 0.50 0.0 0 1 303.37 25.51
  L 299.79 25.51
  A 0.72 0.72 0.0 0 0 299.07 26.23
  L 299.07 30.50
  A 0.71 0.71 0.0 0 0 299.78 31.21
  L 303.20 31.21
  A 0.72 0.72 0.0 0 1 303.92 31.94
  Q 303.77 43.75 304.00 48.97
  C 304.31 56.03 310.69 57.72 316.51 56.19
  A 0.96 0.95 -7.5 0 0 317.22 55.27
  L 317.22 51.23
  A 0.67 0.67 0.0 0 0 316.40 50.58
  C 313.55 51.24 310.98 50.54 310.94 47.16
  Q 310.83 38.17 310.91 31.95
  A 0.75 0.75 0.0 0 1 311.66 31.21"
/>
<path stroke="#858586" vector-effect="non-scaling-stroke" d="
  M 287.01 51.49
  L 287.01 55.14
  A 0.88 0.88 0.0 0 0 287.89 56.02
  L 292.72 56.02
  A 1.18 1.17 -0.2 0 0 293.90 54.84
  Q 293.78 40.68 293.90 37.24
  Q 294.24 26.74 284.16 24.93
  C 276.93 23.63 269.07 26.94 268.05 34.87
  A 0.22 0.22 0.0 0 0 268.27 35.12
  L 274.57 35.12
  A 0.39 0.38 -82.0 0 0 274.94 34.84
  C 276.21 30.12 282.90 28.95 285.93 32.39
  C 287.21 33.85 287.58 36.94 285.11 37.36
  C 280.26 38.18 272.00 38.75 269.08 43.10
  C 265.49 48.48 268.30 55.16 274.71 56.35
  Q 282.39 57.79 286.58 51.37
  A 0.23 0.23 0.0 0 1 287.01 51.49"
/>
<path stroke="#858586" vector-effect="non-scaling-stroke" d="
  M 344.40 46.64
  A 0.59 0.57 -78.4 0 0 343.87 47.00
  Q 341.97 51.76 335.31 51.10
  A 6.81 6.81 0.0 0 1 330.07 47.72
  L 328.67 45.31
  A 1.97 1.97 0.0 0 1 330.38 42.36
  L 350.27 42.36
  A 0.62 0.61 1.5 0 0 350.89 41.78
  Q 351.21 36.36 349.09 31.86
  C 344.81 22.74 331.37 22.48 325.39 29.44
  Q 321.62 33.84 321.51 40.45
  C 321.35 50.16 327.71 57.33 337.61 56.84
  Q 347.74 56.35 350.55 46.88
  A 0.19 0.19 0.0 0 0 350.37 46.64
  L 344.40 46.64"
/>
<path stroke="#858586" vector-effect="non-scaling-stroke" d="
  M 226.46 28.09
  L 226.46 26.12
  A 0.61 0.61 0.0 0 0 225.85 25.51
  L 220.08 25.51
  A 0.65 0.65 0.0 0 0 219.43 26.16
  L 219.43 55.49
  A 0.50 0.50 0.0 0 0 219.93 55.99
  L 225.99 55.99
  A 0.51 0.51 0.0 0 0 226.50 55.48
  Q 226.37 43.53 226.55 37.51
  C 226.67 33.61 228.60 30.32 232.93 30.61
  C 235.87 30.81 237.02 33.40 237.04 36.02
  Q 237.11 44.59 237.07 55.44
  A 0.56 0.56 0.0 0 0 237.63 56.00
  L 243.55 56.00
  A 0.60 0.60 0.0 0 0 244.15 55.39
  Q 243.94 45.49 244.21 37.53
  C 244.35 33.56 246.24 30.27 250.61 30.62
  C 253.60 30.87 254.70 33.23 254.74 36.01
  Q 254.83 43.64 254.77 55.43
  A 0.57 0.57 0.0 0 0 255.34 56.00
  L 261.25 56.00
  A 0.55 0.55 0.0 0 0 261.80 55.45
  Q 261.84 37.28 261.77 35.75
  C 261.52 30.05 260.09 25.40 253.50 24.73
  Q 246.94 24.07 243.56 29.36
  A 0.34 0.34 0.0 0 1 242.98 29.35
  C 239.68 23.41 231.11 22.97 226.92 28.25
  A 0.26 0.26 0.0 0 1 226.46 28.09"
/>
<path stroke="#858586" vector-effect="non-scaling-stroke" d="
  M 210.42 25.91
  A 0.40 0.40 0.0 0 0 210.02 25.51
  L 203.78 25.51
  A 0.40 0.40 0.0 0 0 203.38 25.91
  L 203.38 55.59
  A 0.40 0.40 0.0 0 0 203.78 55.99
  L 210.02 55.99
  A 0.40 0.40 0.0 0 0 210.42 55.59
  L 210.42 25.91"
/>
<path stroke="#515152" vector-effect="non-scaling-stroke" d="
  M 57.52 80.31
  L 57.48 56.19
  A 2.17 2.17 0.0 0 0 55.31 54.02
  L 55.16 54.02
  A 14.12 14.09 -0.1 0 0 41.06 68.13
  L 41.06 68.41
  A 14.12 14.09 -0.1 0 0 55.20 82.48
  L 55.35 82.48
  A 2.17 2.17 0.0 0 0 57.52 80.31"
/>
<path stroke="#515152" vector-effect="non-scaling-stroke" d="
  M 62.70 82.50
  L 86.80 82.50
  A 2.12 2.12 0.0 0 0 88.92 80.38
  L 88.92 79.92
  A 14.08 13.86 -0.0 0 0 74.84 66.06
  L 74.66 66.06
  A 14.08 13.86 0.0 0 0 60.58 79.92
  L 60.58 80.38
  A 2.12 2.12 0.0 0 0 62.70 82.50"
/>
<path stroke="#515152" vector-effect="non-scaling-stroke" d="
  M 55.24 85.50
  L 31.26 85.46
  A 2.22 2.22 0.0 0 0 29.04 87.68
  L 29.04 87.81
  A 14.11 14.07 -89.9 0 0 43.09 101.94
  L 43.37 101.94
  A 14.11 14.07 -89.9 0 0 57.46 87.85
  L 57.46 87.72
  A 2.22 2.22 0.0 0 0 55.24 85.50"
/>
<path stroke="#515152" vector-effect="non-scaling-stroke" d="
  M 60.49 87.73
  L 60.49 111.77
  A 2.19 2.19 0.0 0 0 62.68 113.96
  L 62.83 113.96
  A 14.10 14.07 -0.0 0 0 76.93 99.89
  L 76.93 99.61
  A 14.10 14.07 0.0 0 0 62.83 85.54
  L 62.68 85.54
  A 2.19 2.19 0.0 0 0 60.49 87.73"
/>
<path stroke="#515152" vector-effect="non-scaling-stroke" d="
  M 240.1572 94.6891
  A 0.55 0.55 0.0 0 0 239.6091 94.1372
  L 235.4892 94.1228
  A 0.55 0.55 0.0 0 0 234.9372 94.6709
  L 234.9228 98.8109
  A 0.55 0.55 0.0 0 0 235.4709 99.3628
  L 239.5908 99.3772
  A 0.55 0.55 0.0 0 0 240.1428 98.8291
  L 240.1572 94.6891"
/>
<path stroke="#515152" vector-effect="non-scaling-stroke" d="
  M 148.94 94.98
  A 0.59 0.59 0.0 0 0 148.35 94.39
  L 144.49 94.39
  A 0.59 0.59 0.0 0 0 143.90 94.98
  L 143.90 123.42
  A 0.59 0.59 0.0 0 0 144.49 124.01
  L 148.35 124.01
  A 0.59 0.59 0.0 0 0 148.94 123.42
  L 148.94 94.98"
/>
<path stroke="#515152" vector-effect="non-scaling-stroke" d="
  M 189.70 102.67
  L 186.63 102.67
  A 0.62 0.61 0.0 0 1 186.01 102.06
  L 186.01 97.82
  A 0.70 0.70 0.0 0 0 185.31 97.12
  L 181.76 97.12
  A 0.65 0.64 -90.0 0 0 181.12 97.77
  L 181.12 102.13
  A 0.55 0.54 0.0 0 1 180.57 102.67
  L 178.33 102.67
  A 0.57 0.57 0.0 0 0 177.76 103.24
  L 177.76 106.12
  A 0.54 0.53 90.0 0 0 178.29 106.66
  L 180.34 106.66
  A 0.72 0.71 -1.7 0 1 181.06 107.33
  Q 181.13 108.60 181.11 118.27
  C 181.09 123.73 185.15 125.08 189.89 124.11
  A 0.71 0.69 84.5 0 0 190.45 123.42
  L 190.45 120.71
  A 0.47 0.47 0.0 0 0 189.98 120.24
  L 188.04 120.24
  A 2.01 2.01 0.0 0 1 186.03 118.23
  L 186.03 107.36
  A 0.69 0.68 -90.0 0 1 186.71 106.67
  L 189.75 106.67
  A 0.78 0.78 0.0 0 0 190.53 105.89
  L 190.53 103.50
  A 0.83 0.83 0.0 0 0 189.70 102.67"
/>
<path stroke="#515152" vector-effect="non-scaling-stroke" d="
  M 160.10 104.27
  L 160.10 103.41
  A 0.78 0.78 0.0 0 0 159.32 102.63
  L 155.75 102.63
  A 0.63 0.63 0.0 0 0 155.12 103.26
  L 155.12 123.31
  A 0.70 0.70 0.0 0 0 155.82 124.01
  L 159.37 124.01
  A 0.68 0.68 0.0 0 0 160.05 123.33
  L 160.05 111.17
  A 4.85 4.84 -3.6 0 1 164.30 106.37
  L 164.81 106.30
  A 4.00 3.99 -3.5 0 1 169.30 110.26
  L 169.30 123.50
  A 0.51 0.50 -90.0 0 0 169.80 124.01
  L 173.71 124.01
  A 0.50 0.50 0.0 0 0 174.21 123.48
  C 174.04 120.24 175.25 108.99 172.78 105.31
  C 170.38 101.73 163.78 100.60 160.83 104.52
  A 0.41 0.40 63.5 0 1 160.10 104.27"
/>
<path stroke="#515152" vector-effect="non-scaling-stroke" d="
  M 198.60 114.75
  A 0.26 0.26 0.0 0 1 198.86 114.46
  L 213.79 114.46
  A 0.59 0.59 0.0 0 0 214.38 113.84
  Q 214.20 109.98 213.26 107.77
  C 209.80 99.60 197.65 100.39 194.75 108.52
  C 192.18 115.74 195.32 123.99 203.68 124.55
  Q 211.49 125.06 213.93 118.10
  A 0.50 0.50 0.0 0 0 213.46 117.44
  L 210.40 117.44
  A 1.63 1.62 16.5 0 0 209.04 118.17
  Q 206.68 121.80 202.06 120.14
  C 199.77 119.32 198.84 117.08 198.60 114.75"
/>
<path stroke="#515152" vector-effect="non-scaling-stroke" d="
  M 255.7579 101.9725
  A 11.36 10.81 -88.8 0 0 244.7124 113.1036
  A 11.36 10.81 -88.8 0 0 255.2821 124.6875
  A 11.36 10.81 -88.8 0 0 266.3276 113.5564
  A 11.36 10.81 -88.8 0 0 255.7579 101.9725"
/>
<path stroke="#515152" vector-effect="non-scaling-stroke" d="
  M 224.07 105.01
  L 224.07 103.40
  A 0.77 0.76 -0.0 0 0 223.30 102.64
  L 219.84 102.64
  A 0.71 0.71 0.0 0 0 219.13 103.35
  L 219.13 123.27
  A 0.75 0.75 0.0 0 0 219.88 124.02
  L 223.25 124.02
  A 0.77 0.76 89.6 0 0 224.01 123.24
  Q 223.96 119.13 224.00 114.27
  Q 224.05 107.11 230.29 107.11
  A 0.63 0.62 90.0 0 0 230.91 106.48
  L 230.91 103.13
  A 0.69 0.69 0.0 0 0 230.26 102.44
  Q 226.55 102.24 224.70 105.19
  A 0.34 0.34 0.0 0 1 224.07 105.01"
/>
<path stroke="#515152" vector-effect="non-scaling-stroke" d="
  M 239.97 103.20
  A 0.57 0.57 0.0 0 0 239.40 102.63
  L 235.66 102.63
  A 0.57 0.57 0.0 0 0 235.09 103.20
  L 235.09 123.42
  A 0.57 0.57 0.0 0 0 235.66 123.99
  L 239.40 123.99
  A 0.57 0.57 0.0 0 0 239.97 123.42
  L 239.97 103.20"
/>
<path stroke="#515152" vector-effect="non-scaling-stroke" d="
  M 276.07 105.02
  L 276.07 103.41
  A 0.77 0.76 -0.0 0 0 275.30 102.66
  L 271.84 102.66
  A 0.71 0.71 0.0 0 0 271.13 103.37
  L 271.15 123.26
  A 0.75 0.75 0.0 0 0 271.89 124.01
  L 275.26 124.01
  A 0.77 0.76 89.6 0 0 276.02 123.23
  Q 275.97 119.12 276.00 114.27
  Q 276.05 107.12 282.28 107.12
  A 0.63 0.62 90.0 0 0 282.90 106.49
  L 282.90 103.14
  A 0.69 0.69 0.0 0 0 282.25 102.45
  Q 278.54 102.25 276.70 105.20
  A 0.34 0.34 0.0 0 1 276.07 105.02"
/>
<path stroke="#858586" vector-effect="non-scaling-stroke" d="
  M 286.36 41.34
  C 282.51 42.01 275.72 42.74 274.89 45.43
  Q 273.50 49.94 277.57 50.89
  C 283.39 52.24 286.98 47.31 286.95 41.84
  A 0.51 0.51 0.0 0 0 286.36 41.34"
/>
<path stroke="#858586" vector-effect="non-scaling-stroke" d="
  M 328.97 37.68
  L 343.93 37.60
  A 0.15 0.15 0.0 0 0 344.08 37.45
  L 344.08 37.30
  A 7.53 6.94 -0.3 0 0 336.51 30.40
  L 336.31 30.40
  A 7.53 6.94 -0.3 0 0 328.82 37.38
  L 328.82 37.53
  A 0.15 0.15 0.0 0 0 328.97 37.68"
/>
<path stroke="#515152" vector-effect="non-scaling-stroke" d="
  M 199.09 111.18
  L 209.39 111.12
  A 0.15 0.15 0.0 0 0 209.54 110.97
  L 209.54 110.90
  A 5.14 4.82 -0.3 0 0 204.38 106.11
  L 204.06 106.11
  A 5.14 4.82 -0.3 0 0 198.94 110.96
  L 198.94 111.03
  A 0.15 0.15 0.0 0 0 199.09 111.18"
/>
<path stroke="#515152" vector-effect="non-scaling-stroke" d="
  M 255.5526 106.1300
  A 7.22 5.78 -89.9 0 0 249.7600 113.3399
  A 7.22 5.78 -89.9 0 0 255.5274 120.5700
  A 7.22 5.78 -89.9 0 0 261.3200 113.3601
  A 7.22 5.78 -89.9 0 0 255.5526 106.1300"
/>
</g>
<path fill="#161719" d="
  M 428.00 0.00
  L 428.00 142.00
  L 0.00 142.00
  L 0.00 0.00
  L 428.00 0.00
  Z
  M 194.86 12.84
  A 0.38 0.38 0.0 0 0 194.48 12.46
  L 188.28 12.46
  A 0.38 0.38 0.0 0 0 187.90 12.84
  L 187.90 55.62
  A 0.38 0.38 0.0 0 0 188.28 56.00
  L 194.48 56.00
  A 0.38 0.38 0.0 0 0 194.86 55.62
  L 194.86 12.84
  Z
  M 143.30 34.89
  C 143.31 48.43 151.99 57.66 165.76 56.74
  Q 178.91 55.86 181.99 41.97
  A 0.16 0.16 0.0 0 0 181.84 41.77
  L 175.28 41.77
  A 0.48 0.47 9.4 0 0 174.83 42.09
  Q 172.03 49.97 164.84 50.29
  C 155.24 50.72 150.61 43.66 150.60 34.88
  C 150.59 26.11 155.22 19.04 164.82 19.46
  Q 172.01 19.77 174.82 27.64
  A 0.48 0.47 -9.5 0 0 175.27 27.96
  L 181.83 27.95
  A 0.16 0.16 0.0 0 0 181.98 27.75
  Q 178.88 13.87 165.73 13.01
  C 151.95 12.11 143.29 21.35 143.30 34.89
  Z
  M 210.7012 13.8432
  A 0.58 0.58 0.0 0 0 210.1232 13.2612
  L 203.7032 13.2388
  A 0.58 0.58 0.0 0 0 203.1212 13.8168
  L 203.0988 20.2368
  A 0.58 0.58 0.0 0 0 203.6768 20.8188
  L 210.0968 20.8412
  A 0.58 0.58 0.0 0 0 210.6788 20.2632
  L 210.7012 13.8432
  Z
  M 311.66 31.21
  L 316.92 31.21
  A 0.35 0.35 0.0 0 0 317.27 30.86
  L 317.27 25.91
  A 0.38 0.37 90.0 0 0 316.90 25.53
  L 311.46 25.53
  A 0.57 0.57 0.0 0 1 310.89 24.96
  L 310.89 18.00
  A 0.42 0.41 -0.0 0 0 310.47 17.59
  L 304.25 17.59
  A 0.38 0.38 0.0 0 0 303.87 17.97
  L 303.87 25.01
  A 0.50 0.50 0.0 0 1 303.37 25.51
  L 299.79 25.51
  A 0.72 0.72 0.0 0 0 299.07 26.23
  L 299.07 30.50
  A 0.71 0.71 0.0 0 0 299.78 31.21
  L 303.20 31.21
  A 0.72 0.72 0.0 0 1 303.92 31.94
  Q 303.77 43.75 304.00 48.97
  C 304.31 56.03 310.69 57.72 316.51 56.19
  A 0.96 0.95 -7.5 0 0 317.22 55.27
  L 317.22 51.23
  A 0.67 0.67 0.0 0 0 316.40 50.58
  C 313.55 51.24 310.98 50.54 310.94 47.16
  Q 310.83 38.17 310.91 31.95
  A 0.75 0.75 0.0 0 1 311.66 31.21
  Z
  M 287.01 51.49
  L 287.01 55.14
  A 0.88 0.88 0.0 0 0 287.89 56.02
  L 292.72 56.02
  A 1.18 1.17 -0.2 0 0 293.90 54.84
  Q 293.78 40.68 293.90 37.24
  Q 294.24 26.74 284.16 24.93
  C 276.93 23.63 269.07 26.94 268.05 34.87
  A 0.22 0.22 0.0 0 0 268.27 35.12
  L 274.57 35.12
  A 0.39 0.38 -82.0 0 0 274.94 34.84
  C 276.21 30.12 282.90 28.95 285.93 32.39
  C 287.21 33.85 287.58 36.94 285.11 37.36
  C 280.26 38.18 272.00 38.75 269.08 43.10
  C 265.49 48.48 268.30 55.16 274.71 56.35
  Q 282.39 57.79 286.58 51.37
  A 0.23 0.23 0.0 0 1 287.01 51.49
  Z
  M 344.40 46.64
  A 0.59 0.57 -78.4 0 0 343.87 47.00
  Q 341.97 51.76 335.31 51.10
  A 6.81 6.81 0.0 0 1 330.07 47.72
  L 328.67 45.31
  A 1.97 1.97 0.0 0 1 330.38 42.36
  L 350.27 42.36
  A 0.62 0.61 1.5 0 0 350.89 41.78
  Q 351.21 36.36 349.09 31.86
  C 344.81 22.74 331.37 22.48 325.39 29.44
  Q 321.62 33.84 321.51 40.45
  C 321.35 50.16 327.71 57.33 337.61 56.84
  Q 347.74 56.35 350.55 46.88
  A 0.19 0.19 0.0 0 0 350.37 46.64
  L 344.40 46.64
  Z
  M 226.46 28.09
  L 226.46 26.12
  A 0.61 0.61 0.0 0 0 225.85 25.51
  L 220.08 25.51
  A 0.65 0.65 0.0 0 0 219.43 26.16
  L 219.43 55.49
  A 0.50 0.50 0.0 0 0 219.93 55.99
  L 225.99 55.99
  A 0.51 0.51 0.0 0 0 226.50 55.48
  Q 226.37 43.53 226.55 37.51
  C 226.67 33.61 228.60 30.32 232.93 30.61
  C 235.87 30.81 237.02 33.40 237.04 36.02
  Q 237.11 44.59 237.07 55.44
  A 0.56 0.56 0.0 0 0 237.63 56.00
  L 243.55 56.00
  A 0.60 0.60 0.0 0 0 244.15 55.39
  Q 243.94 45.49 244.21 37.53
  C 244.35 33.56 246.24 30.27 250.61 30.62
  C 253.60 30.87 254.70 33.23 254.74 36.01
  Q 254.83 43.64 254.77 55.43
  A 0.57 0.57 0.0 0 0 255.34 56.00
  L 261.25 56.00
  A 0.55 0.55 0.0 0 0 261.80 55.45
  Q 261.84 37.28 261.77 35.75
  C 261.52 30.05 260.09 25.40 253.50 24.73
  Q 246.94 24.07 243.56 29.36
  A 0.34 0.34 0.0 0 1 242.98 29.35
  C 239.68 23.41 231.11 22.97 226.92 28.25
  A 0.26 0.26 0.0 0 1 226.46 28.09
  Z
  M 210.42 25.91
  A 0.40 0.40 0.0 0 0 210.02 25.51
  L 203.78 25.51
  A 0.40 0.40 0.0 0 0 203.38 25.91
  L 203.38 55.59
  A 0.40 0.40 0.0 0 0 203.78 55.99
  L 210.02 55.99
  A 0.40 0.40 0.0 0 0 210.42 55.59
  L 210.42 25.91
  Z
  M 57.52 80.31
  L 57.48 56.19
  A 2.17 2.17 0.0 0 0 55.31 54.02
  L 55.16 54.02
  A 14.12 14.09 -0.1 0 0 41.06 68.13
  L 41.06 68.41
  A 14.12 14.09 -0.1 0 0 55.20 82.48
  L 55.35 82.48
  A 2.17 2.17 0.0 0 0 57.52 80.31
  Z
  M 62.70 82.50
  L 86.80 82.50
  A 2.12 2.12 0.0 0 0 88.92 80.38
  L 88.92 79.92
  A 14.08 13.86 -0.0 0 0 74.84 66.06
  L 74.66 66.06
  A 14.08 13.86 0.0 0 0 60.58 79.92
  L 60.58 80.38
  A 2.12 2.12 0.0 0 0 62.70 82.50
  Z
  M 55.24 85.50
  L 31.26 85.46
  A 2.22 2.22 0.0 0 0 29.04 87.68
  L 29.04 87.81
  A 14.11 14.07 -89.9 0 0 43.09 101.94
  L 43.37 101.94
  A 14.11 14.07 -89.9 0 0 57.46 87.85
  L 57.46 87.72
  A 2.22 2.22 0.0 0 0 55.24 85.50
  Z
  M 60.49 87.73
  L 60.49 111.77
  A 2.19 2.19 0.0 0 0 62.68 113.96
  L 62.83 113.96
  A 14.10 14.07 -0.0 0 0 76.93 99.89
  L 76.93 99.61
  A 14.10 14.07 0.0 0 0 62.83 85.54
  L 62.68 85.54
  A 2.19 2.19 0.0 0 0 60.49 87.73
  Z
  M 240.1572 94.6891
  A 0.55 0.55 0.0 0 0 239.6091 94.1372
  L 235.4892 94.1228
  A 0.55 0.55 0.0 0 0 234.9372 94.6709
  L 234.9228 98.8109
  A 0.55 0.55 0.0 0 0 235.4709 99.3628
  L 239.5908 99.3772
  A 0.55 0.55 0.0 0 0 240.1428 98.8291
  L 240.1572 94.6891
  Z
  M 148.94 94.98
  A 0.59 0.59 0.0 0 0 148.35 94.39
  L 144.49 94.39
  A 0.59 0.59 0.0 0 0 143.90 94.98
  L 143.90 123.42
  A 0.59 0.59 0.0 0 0 144.49 124.01
  L 148.35 124.01
  A 0.59 0.59 0.0 0 0 148.94 123.42
  L 148.94 94.98
  Z
  M 189.70 102.67
  L 186.63 102.67
  A 0.62 0.61 0.0 0 1 186.01 102.06
  L 186.01 97.82
  A 0.70 0.70 0.0 0 0 185.31 97.12
  L 181.76 97.12
  A 0.65 0.64 -90.0 0 0 181.12 97.77
  L 181.12 102.13
  A 0.55 0.54 0.0 0 1 180.57 102.67
  L 178.33 102.67
  A 0.57 0.57 0.0 0 0 177.76 103.24
  L 177.76 106.12
  A 0.54 0.53 90.0 0 0 178.29 106.66
  L 180.34 106.66
  A 0.72 0.71 -1.7 0 1 181.06 107.33
  Q 181.13 108.60 181.11 118.27
  C 181.09 123.73 185.15 125.08 189.89 124.11
  A 0.71 0.69 84.5 0 0 190.45 123.42
  L 190.45 120.71
  A 0.47 0.47 0.0 0 0 189.98 120.24
  L 188.04 120.24
  A 2.01 2.01 0.0 0 1 186.03 118.23
  L 186.03 107.36
  A 0.69 0.68 -90.0 0 1 186.71 106.67
  L 189.75 106.67
  A 0.78 0.78 0.0 0 0 190.53 105.89
  L 190.53 103.50
  A 0.83 0.83 0.0 0 0 189.70 102.67
  Z
  M 160.10 104.27
  L 160.10 103.41
  A 0.78 0.78 0.0 0 0 159.32 102.63
  L 155.75 102.63
  A 0.63 0.63 0.0 0 0 155.12 103.26
  L 155.12 123.31
  A 0.70 0.70 0.0 0 0 155.82 124.01
  L 159.37 124.01
  A 0.68 0.68 0.0 0 0 160.05 123.33
  L 160.05 111.17
  A 4.85 4.84 -3.6 0 1 164.30 106.37
  L 164.81 106.30
  A 4.00 3.99 -3.5 0 1 169.30 110.26
  L 169.30 123.50
  A 0.51 0.50 -90.0 0 0 169.80 124.01
  L 173.71 124.01
  A 0.50 0.50 0.0 0 0 174.21 123.48
  C 174.04 120.24 175.25 108.99 172.78 105.31
  C 170.38 101.73 163.78 100.60 160.83 104.52
  A 0.41 0.40 63.5 0 1 160.10 104.27
  Z
  M 198.60 114.75
  A 0.26 0.26 0.0 0 1 198.86 114.46
  L 213.79 114.46
  A 0.59 0.59 0.0 0 0 214.38 113.84
  Q 214.20 109.98 213.26 107.77
  C 209.80 99.60 197.65 100.39 194.75 108.52
  C 192.18 115.74 195.32 123.99 203.68 124.55
  Q 211.49 125.06 213.93 118.10
  A 0.50 0.50 0.0 0 0 213.46 117.44
  L 210.40 117.44
  A 1.63 1.62 16.5 0 0 209.04 118.17
  Q 206.68 121.80 202.06 120.14
  C 199.77 119.32 198.84 117.08 198.60 114.75
  Z
  M 255.7579 101.9725
  A 11.36 10.81 -88.8 0 0 244.7124 113.1036
  A 11.36 10.81 -88.8 0 0 255.2821 124.6875
  A 11.36 10.81 -88.8 0 0 266.3276 113.5564
  A 11.36 10.81 -88.8 0 0 255.7579 101.9725
  Z
  M 224.07 105.01
  L 224.07 103.40
  A 0.77 0.76 -0.0 0 0 223.30 102.64
  L 219.84 102.64
  A 0.71 0.71 0.0 0 0 219.13 103.35
  L 219.13 123.27
  A 0.75 0.75 0.0 0 0 219.88 124.02
  L 223.25 124.02
  A 0.77 0.76 89.6 0 0 224.01 123.24
  Q 223.96 119.13 224.00 114.27
  Q 224.05 107.11 230.29 107.11
  A 0.63 0.62 90.0 0 0 230.91 106.48
  L 230.91 103.13
  A 0.69 0.69 0.0 0 0 230.26 102.44
  Q 226.55 102.24 224.70 105.19
  A 0.34 0.34 0.0 0 1 224.07 105.01
  Z
  M 239.97 103.20
  A 0.57 0.57 0.0 0 0 239.40 102.63
  L 235.66 102.63
  A 0.57 0.57 0.0 0 0 235.09 103.20
  L 235.09 123.42
  A 0.57 0.57 0.0 0 0 235.66 123.99
  L 239.40 123.99
  A 0.57 0.57 0.0 0 0 239.97 123.42
  L 239.97 103.20
  Z
  M 276.07 105.02
  L 276.07 103.41
  A 0.77 0.76 -0.0 0 0 275.30 102.66
  L 271.84 102.66
  A 0.71 0.71 0.0 0 0 271.13 103.37
  L 271.15 123.26
  A 0.75 0.75 0.0 0 0 271.89 124.01
  L 275.26 124.01
  A 0.77 0.76 89.6 0 0 276.02 123.23
  Q 275.97 119.12 276.00 114.27
  Q 276.05 107.12 282.28 107.12
  A 0.63 0.62 90.0 0 0 282.90 106.49
  L 282.90 103.14
  A 0.69 0.69 0.0 0 0 282.25 102.45
  Q 278.54 102.25 276.70 105.20
  A 0.34 0.34 0.0 0 1 276.07 105.02
  Z"
/>
<rect fill="#f3f3f3" x="187.90" y="12.46" width="6.96" height="43.54" rx="0.38"/>
<path fill="#f3f3f3" d="
  M 150.60 34.88
  C 150.61 43.66 155.24 50.72 164.84 50.29
  Q 172.03 49.97 174.83 42.09
  A 0.48 0.47 9.4 0 1 175.28 41.77
  L 181.84 41.77
  A 0.16 0.16 0.0 0 1 181.99 41.97
  Q 178.91 55.86 165.76 56.74
  C 151.99 57.66 143.31 48.43 143.30 34.89
  C 143.29 21.35 151.95 12.11 165.73 13.01
  Q 178.88 13.87 181.98 27.75
  A 0.16 0.16 0.0 0 1 181.83 27.95
  L 175.27 27.96
  A 0.48 0.47 -9.5 0 1 174.82 27.64
  Q 172.01 19.77 164.82 19.46
  C 155.22 19.04 150.59 26.11 150.60 34.88
  Z"
/>
<rect fill="#f3f3f3" x="-3.79" y="-3.79" transform="translate(206.90,17.04) rotate(0.2)" width="7.58" height="7.58" rx="0.58"/>
<path fill="#f3f3f3" d="
  M 310.91 31.95
  Q 310.83 38.17 310.94 47.16
  C 310.98 50.54 313.55 51.24 316.40 50.58
  A 0.67 0.67 0.0 0 1 317.22 51.23
  L 317.22 55.27
  A 0.96 0.95 -7.5 0 1 316.51 56.19
  C 310.69 57.72 304.31 56.03 304.00 48.97
  Q 303.77 43.75 303.92 31.94
  A 0.72 0.72 0.0 0 0 303.20 31.21
  L 299.78 31.21
  A 0.71 0.71 0.0 0 1 299.07 30.50
  L 299.07 26.23
  A 0.72 0.72 0.0 0 1 299.79 25.51
  L 303.37 25.51
  A 0.50 0.50 0.0 0 0 303.87 25.01
  L 303.87 17.97
  A 0.38 0.38 0.0 0 1 304.25 17.59
  L 310.47 17.59
  A 0.42 0.41 -0.0 0 1 310.89 18.00
  L 310.89 24.96
  A 0.57 0.57 0.0 0 0 311.46 25.53
  L 316.90 25.53
  A 0.38 0.37 90.0 0 1 317.27 25.91
  L 317.27 30.86
  A 0.35 0.35 0.0 0 1 316.92 31.21
  L 311.66 31.21
  A 0.75 0.75 0.0 0 0 310.91 31.95
  Z"
/>
<path fill="#f3f3f3" d="
  M 287.01 51.49
  A 0.23 0.23 0.0 0 0 286.58 51.37
  Q 282.39 57.79 274.71 56.35
  C 268.30 55.16 265.49 48.48 269.08 43.10
  C 272.00 38.75 280.26 38.18 285.11 37.36
  C 287.58 36.94 287.21 33.85 285.93 32.39
  C 282.90 28.95 276.21 30.12 274.94 34.84
  A 0.39 0.38 -82.0 0 1 274.57 35.12
  L 268.27 35.12
  A 0.22 0.22 0.0 0 1 268.05 34.87
  C 269.07 26.94 276.93 23.63 284.16 24.93
  Q 294.24 26.74 293.90 37.24
  Q 293.78 40.68 293.90 54.84
  A 1.18 1.17 -0.2 0 1 292.72 56.02
  L 287.89 56.02
  A 0.88 0.88 0.0 0 1 287.01 55.14
  L 287.01 51.49
  Z
  M 286.36 41.34
  C 282.51 42.01 275.72 42.74 274.89 45.43
  Q 273.50 49.94 277.57 50.89
  C 283.39 52.24 286.98 47.31 286.95 41.84
  A 0.51 0.51 0.0 0 0 286.36 41.34
  Z"
/>
<path fill="#f3f3f3" d="
  M 350.55 46.88
  Q 347.74 56.35 337.61 56.84
  C 327.71 57.33 321.35 50.16 321.51 40.45
  Q 321.62 33.84 325.39 29.44
  C 331.37 22.48 344.81 22.74 349.09 31.86
  Q 351.21 36.36 350.89 41.78
  A 0.62 0.61 1.5 0 1 350.27 42.36
  L 330.38 42.36
  A 1.97 1.97 0.0 0 0 328.67 45.31
  L 330.07 47.72
  A 6.81 6.81 0.0 0 0 335.31 51.10
  Q 341.97 51.76 343.87 47.00
  A 0.59 0.57 -78.4 0 1 344.40 46.64
  L 350.37 46.64
  A 0.19 0.19 0.0 0 1 350.55 46.88
  Z
  M 328.97 37.68
  L 343.93 37.60
  A 0.15 0.15 0.0 0 0 344.08 37.45
  L 344.08 37.30
  A 7.53 6.94 -0.3 0 0 336.51 30.40
  L 336.31 30.40
  A 7.53 6.94 -0.3 0 0 328.82 37.38
  L 328.82 37.53
  A 0.15 0.15 0.0 0 0 328.97 37.68
  Z"
/>
<path fill="#f3f3f3" d="
  M 226.46 28.09
  A 0.26 0.26 0.0 0 0 226.92 28.25
  C 231.11 22.97 239.68 23.41 242.98 29.35
  A 0.34 0.34 0.0 0 0 243.56 29.36
  Q 246.94 24.07 253.50 24.73
  C 260.09 25.40 261.52 30.05 261.77 35.75
  Q 261.84 37.28 261.80 55.45
  A 0.55 0.55 0.0 0 1 261.25 56.00
  L 255.34 56.00
  A 0.57 0.57 0.0 0 1 254.77 55.43
  Q 254.83 43.64 254.74 36.01
  C 254.70 33.23 253.60 30.87 250.61 30.62
  C 246.24 30.27 244.35 33.56 244.21 37.53
  Q 243.94 45.49 244.15 55.39
  A 0.60 0.60 0.0 0 1 243.55 56.00
  L 237.63 56.00
  A 0.56 0.56 0.0 0 1 237.07 55.44
  Q 237.11 44.59 237.04 36.02
  C 237.02 33.40 235.87 30.81 232.93 30.61
  C 228.60 30.32 226.67 33.61 226.55 37.51
  Q 226.37 43.53 226.50 55.48
  A 0.51 0.51 0.0 0 1 225.99 55.99
  L 219.93 55.99
  A 0.50 0.50 0.0 0 1 219.43 55.49
  L 219.43 26.16
  A 0.65 0.65 0.0 0 1 220.08 25.51
  L 225.85 25.51
  A 0.61 0.61 0.0 0 1 226.46 26.12
  L 226.46 28.09
  Z"
/>
<rect fill="#f3f3f3" x="203.38" y="25.51" width="7.04" height="30.48" rx="0.40"/>
<path fill="#161719" d="
  M 328.97 37.68
  A 0.15 0.15 0.0 0 1 328.82 37.53
  L 328.82 37.38
  A 7.53 6.94 -0.3 0 1 336.31 30.40
  L 336.51 30.40
  A 7.53 6.94 -0.3 0 1 344.08 37.30
  L 344.08 37.45
  A 0.15 0.15 0.0 0 1 343.93 37.60
  L 328.97 37.68
  Z"
/>
<path fill="#161719" d="
  M 286.95 41.84
  C 286.98 47.31 283.39 52.24 277.57 50.89
  Q 273.50 49.94 274.89 45.43
  C 275.72 42.74 282.51 42.01 286.36 41.34
  A 0.51 0.51 0.0 0 1 286.95 41.84
  Z"
/>
<path fill="#8b8b8b" d="
  M 57.52 80.31
  A 2.17 2.17 0.0 0 1 55.35 82.48
  L 55.20 82.48
  A 14.12 14.09 -0.1 0 1 41.06 68.41
  L 41.06 68.13
  A 14.12 14.09 -0.1 0 1 55.16 54.02
  L 55.31 54.02
  A 2.17 2.17 0.0 0 1 57.48 56.19
  L 57.52 80.31
  Z"
/>
<path fill="#8b8b8b" d="
  M 62.70 82.50
  A 2.12 2.12 0.0 0 1 60.58 80.38
  L 60.58 79.92
  A 14.08 13.86 0.0 0 1 74.66 66.06
  L 74.84 66.06
  A 14.08 13.86 -0.0 0 1 88.92 79.92
  L 88.92 80.38
  A 2.12 2.12 0.0 0 1 86.80 82.50
  L 62.70 82.50
  Z"
/>
<path fill="#8b8b8b" d="
  M 55.24 85.50
  A 2.22 2.22 0.0 0 1 57.46 87.72
  L 57.46 87.85
  A 14.11 14.07 -89.9 0 1 43.37 101.94
  L 43.09 101.94
  A 14.11 14.07 -89.9 0 1 29.04 87.81
  L 29.04 87.68
  A 2.22 2.22 0.0 0 1 31.26 85.46
  L 55.24 85.50
  Z"
/>
<path fill="#8b8b8b" d="
  M 60.49 87.73
  A 2.19 2.19 0.0 0 1 62.68 85.54
  L 62.83 85.54
  A 14.10 14.07 0.0 0 1 76.93 99.61
  L 76.93 99.89
  A 14.10 14.07 0.0 0 1 62.83 113.96
  L 62.68 113.96
  A 2.19 2.19 0.0 0 1 60.49 111.77
  L 60.49 87.73
  Z"
/>
<rect fill="#8b8b8b" x="-2.61" y="-2.62" transform="translate(237.54,96.75) rotate(0.2)" width="5.22" height="5.24" rx="0.55"/>
<rect fill="#8b8b8b" x="143.90" y="94.39" width="5.04" height="29.62" rx="0.59"/>
<path fill="#8b8b8b" d="
  M 189.70 102.67
  A 0.83 0.83 0.0 0 1 190.53 103.50
  L 190.53 105.89
  A 0.78 0.78 0.0 0 1 189.75 106.67
  L 186.71 106.67
  A 0.69 0.68 -90.0 0 0 186.03 107.36
  L 186.03 118.23
  A 2.01 2.01 0.0 0 0 188.04 120.24
  L 189.98 120.24
  A 0.47 0.47 0.0 0 1 190.45 120.71
  L 190.45 123.42
  A 0.71 0.69 84.5 0 1 189.89 124.11
  C 185.15 125.08 181.09 123.73 181.11 118.27
  Q 181.13 108.60 181.06 107.33
  A 0.72 0.71 -1.7 0 0 180.34 106.66
  L 178.29 106.66
  A 0.54 0.53 -90.0 0 1 177.76 106.12
  L 177.76 103.24
  A 0.57 0.57 0.0 0 1 178.33 102.67
  L 180.57 102.67
  A 0.55 0.54 -0.0 0 0 181.12 102.13
  L 181.12 97.77
  A 0.65 0.64 90.0 0 1 181.76 97.12
  L 185.31 97.12
  A 0.70 0.70 0.0 0 1 186.01 97.82
  L 186.01 102.06
  A 0.62 0.61 0.0 0 0 186.63 102.67
  L 189.70 102.67
  Z"
/>
<path fill="#8b8b8b" d="
  M 160.10 104.27
  A 0.41 0.40 63.5 0 0 160.83 104.52
  C 163.78 100.60 170.38 101.73 172.78 105.31
  C 175.25 108.99 174.04 120.24 174.21 123.48
  A 0.50 0.50 0.0 0 1 173.71 124.01
  L 169.80 124.01
  A 0.51 0.50 -90.0 0 1 169.30 123.50
  L 169.30 110.26
  A 4.00 3.99 -3.5 0 0 164.81 106.30
  L 164.30 106.37
  A 4.85 4.84 -3.6 0 0 160.05 111.17
  L 160.05 123.33
  A 0.68 0.68 0.0 0 1 159.37 124.01
  L 155.82 124.01
  A 0.70 0.70 0.0 0 1 155.12 123.31
  L 155.12 103.26
  A 0.63 0.63 0.0 0 1 155.75 102.63
  L 159.32 102.63
  A 0.78 0.78 0.0 0 1 160.10 103.41
  L 160.10 104.27
  Z"
/>
<path fill="#8b8b8b" d="
  M 198.60 114.75
  C 198.84 117.08 199.77 119.32 202.06 120.14
  Q 206.68 121.80 209.04 118.17
  A 1.63 1.62 16.5 0 1 210.40 117.44
  L 213.46 117.44
  A 0.50 0.50 0.0 0 1 213.93 118.10
  Q 211.49 125.06 203.68 124.55
  C 195.32 123.99 192.18 115.74 194.75 108.52
  C 197.65 100.39 209.80 99.60 213.26 107.77
  Q 214.20 109.98 214.38 113.84
  A 0.59 0.59 0.0 0 1 213.79 114.46
  L 198.86 114.46
  A 0.26 0.26 0.0 0 0 198.60 114.75
  Z
  M 199.09 111.18
  L 209.39 111.12
  A 0.15 0.15 0.0 0 0 209.54 110.97
  L 209.54 110.90
  A 5.14 4.82 -0.3 0 0 204.38 106.11
  L 204.06 106.11
  A 5.14 4.82 -0.3 0 0 198.94 110.96
  L 198.94 111.03
  A 0.15 0.15 0.0 0 0 199.09 111.18
  Z"
/>
<path fill="#8b8b8b" d="
  M 255.7579 101.9725
  A 11.36 10.81 -88.8 0 1 266.3276 113.5564
  A 11.36 10.81 -88.8 0 1 255.2821 124.6875
  A 11.36 10.81 -88.8 0 1 244.7124 113.1036
  A 11.36 10.81 -88.8 0 1 255.7579 101.9725
  Z
  M 255.5526 106.1300
  A 7.22 5.78 -89.9 0 0 249.7600 113.3399
  A 7.22 5.78 -89.9 0 0 255.5274 120.5700
  A 7.22 5.78 -89.9 0 0 261.3200 113.3601
  A 7.22 5.78 -89.9 0 0 255.5526 106.1300
  Z"
/>
<path fill="#8b8b8b" d="
  M 224.70 105.19
  Q 226.55 102.24 230.26 102.44
  A 0.69 0.69 0.0 0 1 230.91 103.13
  L 230.91 106.48
  A 0.63 0.62 -90.0 0 1 230.29 107.11
  Q 224.05 107.11 224.00 114.27
  Q 223.96 119.13 224.01 123.24
  A 0.77 0.76 89.6 0 1 223.25 124.02
  L 219.88 124.02
  A 0.75 0.75 0.0 0 1 219.13 123.27
  L 219.13 103.35
  A 0.71 0.71 0.0 0 1 219.84 102.64
  L 223.30 102.64
  A 0.77 0.76 -0.0 0 1 224.07 103.40
  L 224.07 105.01
  A 0.34 0.34 0.0 0 0 224.70 105.19
  Z"
/>
<rect fill="#8b8b8b" x="235.09" y="102.63" width="4.88" height="21.36" rx="0.57"/>
<path fill="#8b8b8b" d="
  M 276.07 105.02
  A 0.34 0.34 0.0 0 0 276.70 105.20
  Q 278.54 102.25 282.25 102.45
  A 0.69 0.69 0.0 0 1 282.90 103.14
  L 282.90 106.49
  A 0.63 0.62 90.0 0 1 282.28 107.12
  Q 276.05 107.12 276.00 114.27
  Q 275.97 119.12 276.02 123.23
  A 0.77 0.76 89.6 0 1 275.26 124.01
  L 271.89 124.01
  A 0.75 0.75 0.0 0 1 271.15 123.26
  L 271.13 103.37
  A 0.71 0.71 0.0 0 1 271.84 102.66
  L 275.30 102.66
  A 0.77 0.76 -0.0 0 1 276.07 103.41
  L 276.07 105.02
  Z"
/>
<path fill="#161719" d="
  M 199.09 111.18
  A 0.15 0.15 0.0 0 1 198.94 111.03
  L 198.94 110.96
  A 5.14 4.82 -0.3 0 1 204.06 106.11
  L 204.38 106.11
  A 5.14 4.82 -0.3 0 1 209.54 110.90
  L 209.54 110.97
  A 0.15 0.15 0.0 0 1 209.39 111.12
  L 199.09 111.18
  Z"
/>
<ellipse fill="#161719" cx="0.00" cy="0.00" transform="translate(255.54,113.35) rotate(-89.9)" rx="7.22" ry="5.78"/>
</svg>
