<?xml version="1.0" encoding="UTF-8" standalone="no"?>
<!DOCTYPE svg PUBLIC "-//W3C//DTD SVG 1.1//EN" "http://www.w3.org/Graphics/SVG/1.1/DTD/svg11.dtd">
<svg xmlns="http://www.w3.org/2000/svg" version="1.1" viewBox="0.00 0.00 105.00 105.00">
<g stroke-width="2.00" fill="none" stroke-linecap="butt">
<path stroke="#515152" vector-effect="non-scaling-stroke" d="
  M 52.01 70.47
  Q 71.17 70.47 71.61 70.49
  A 0.46 0.45 -12.4 0 1 71.99 70.73
  Q 72.41 71.54 72.43 73.25
  A 1.80 1.79 89.7 0 0 74.22 75.03
  L 79.57 75.03
  A 2.13 2.12 -88.0 0 0 81.69 73.05
  Q 82.08 67.25 82.04 60.70
  C 81.99 53.82 82.37 50.39 76.80 46.92
  A 0.34 0.34 0.0 0 1 76.92 46.30
  L 80.91 45.66
  A 1.43 1.42 -17.4 0 0 81.97 43.63
  Q 80.66 40.97 76.99 41.17
  A 0.81 0.81 0.0 0 0 76.23 41.98
  L 76.23 43.66
  A 0.51 0.50 -53.5 0 1 75.24 43.81
  C 73.45 37.79 72.36 31.27 64.78 30.63
  Q 57.38 30.01 52.02 30.01
  Q 46.65 30.01 39.25 30.63
  C 31.67 31.26 30.58 37.78 28.79 43.80
  A 0.51 0.50 53.5 0 1 27.80 43.65
  L 27.80 41.97
  A 0.81 0.81 0.0 0 0 27.04 41.16
  Q 23.37 40.96 22.06 43.62
  A 1.43 1.42 17.5 0 0 23.12 45.65
  L 27.11 46.29
  A 0.34 0.34 0.0 0 1 27.23 46.91
  C 21.66 50.38 22.03 53.81 21.98 60.69
  Q 21.94 67.24 22.33 73.04
  A 2.13 2.12 88.0 0 0 24.45 75.02
  L 29.80 75.02
  A 1.80 1.79 -89.7 0 0 31.59 73.24
  Q 31.61 71.53 32.03 70.72
  A 0.46 0.45 12.4 0 1 32.41 70.48
  Q 32.85 70.46 52.01 70.47"
/>
<path stroke="#515152" vector-effect="non-scaling-stroke" d="
  M 32.28 44.72
  L 71.72 44.72
  A 0.23 0.23 0.0 0 0 71.95 44.49
  L 71.95 44.14
  A 11.00 10.20 -90.0 0 0 61.75 33.14
  L 42.25 33.14
  A 11.00 10.20 -90.0 0 0 32.05 44.14
  L 32.05 44.49
  A 0.23 0.23 0.0 0 0 32.28 44.72"
/>
<path stroke="#515152" vector-effect="non-scaling-stroke" d="
  M 25.82 51.04
  L 24.81 54.26
  A 1.15 1.15 0.0 0 0 25.56 55.70
  L 25.72 55.75
  A 9.72 2.81 17.4 0 0 35.84 55.98
  L 35.86 55.92
  A 9.72 2.81 17.4 0 0 27.42 50.33
  L 27.26 50.28
  A 1.15 1.15 0.0 0 0 25.82 51.04"
/>
<path stroke="#515152" vector-effect="non-scaling-stroke" d="
  M 79.19 54.25
  L 78.18 51.05
  A 1.14 1.14 0.0 0 0 76.75 50.30
  L 76.57 50.36
  A 9.77 2.80 -17.4 0 0 68.09 55.95
  L 68.10 55.99
  A 9.77 2.80 -17.4 0 0 78.26 55.74
  L 78.44 55.68
  A 1.14 1.14 0.0 0 0 79.19 54.25"
/>
</g>
<path fill="#161719" d="
  M 105.00 0.00
  L 105.00 105.00
  L 0.00 105.00
  L 0.00 0.00
  L 105.00 0.00
  Z
  M 52.01 70.47
  Q 71.17 70.47 71.61 70.49
  A 0.46 0.45 -12.4 0 1 71.99 70.73
  Q 72.41 71.54 72.43 73.25
  A 1.80 1.79 89.7 0 0 74.22 75.03
  L 79.57 75.03
  A 2.13 2.12 -88.0 0 0 81.69 73.05
  Q 82.08 67.25 82.04 60.70
  C 81.99 53.82 82.37 50.39 76.80 46.92
  A 0.34 0.34 0.0 0 1 76.92 46.30
  L 80.91 45.66
  A 1.43 1.42 -17.4 0 0 81.97 43.63
  Q 80.66 40.97 76.99 41.17
  A 0.81 0.81 0.0 0 0 76.23 41.98
  L 76.23 43.66
  A 0.51 0.50 -53.5 0 1 75.24 43.81
  C 73.45 37.79 72.36 31.27 64.78 30.63
  Q 57.38 30.01 52.02 30.01
  Q 46.65 30.01 39.25 30.63
  C 31.67 31.26 30.58 37.78 28.79 43.80
  A 0.51 0.50 53.5 0 1 27.80 43.65
  L 27.80 41.97
  A 0.81 0.81 0.0 0 0 27.04 41.16
  Q 23.37 40.96 22.06 43.62
  A 1.43 1.42 17.5 0 0 23.12 45.65
  L 27.11 46.29
  A 0.34 0.34 0.0 0 1 27.23 46.91
  C 21.66 50.38 22.03 53.81 21.98 60.69
  Q 21.94 67.24 22.33 73.04
  A 2.13 2.12 88.0 0 0 24.45 75.02
  L 29.80 75.02
  A 1.80 1.79 -89.7 0 0 31.59 73.24
  Q 31.61 71.53 32.03 70.72
  A 0.46 0.45 12.4 0 1 32.41 70.48
  Q 32.85 70.46 52.01 70.47
  Z"
/>
<path fill="#8b8b8b" d="
  M 52.02 30.01
  Q 57.38 30.01 64.78 30.63
  C 72.36 31.27 73.45 37.79 75.24 43.81
  A 0.51 0.50 -53.5 0 0 76.23 43.66
  L 76.23 41.98
  A 0.81 0.81 0.0 0 1 76.99 41.17
  Q 80.66 40.97 81.97 43.63
  A 1.43 1.42 -17.4 0 1 80.91 45.66
  L 76.92 46.30
  A 0.34 0.34 0.0 0 0 76.80 46.92
  C 82.37 50.39 81.99 53.82 82.04 60.70
  Q 82.08 67.25 81.69 73.05
  A 2.13 2.12 -88.0 0 1 79.57 75.03
  L 74.22 75.03
  A 1.80 1.79 89.7 0 1 72.43 73.25
  Q 72.41 71.54 71.99 70.73
  A 0.46 0.45 -12.4 0 0 71.61 70.49
  Q 71.17 70.47 52.01 70.47
  Q 32.85 70.46 32.41 70.48
  A 0.46 0.45 12.4 0 0 32.03 70.72
  Q 31.61 71.53 31.59 73.24
  A 1.80 1.79 -89.7 0 1 29.80 75.02
  L 24.45 75.02
  A 2.13 2.12 88.0 0 1 22.33 73.04
  Q 21.94 67.24 21.98 60.69
  C 22.03 53.81 21.66 50.38 27.23 46.91
  A 0.34 0.34 0.0 0 0 27.11 46.29
  L 23.12 45.65
  A 1.43 1.42 17.5 0 1 22.06 43.62
  Q 23.37 40.96 27.04 41.16
  A 0.81 0.81 0.0 0 1 27.80 41.97
  L 27.80 43.65
  A 0.51 0.50 53.5 0 0 28.79 43.80
  C 30.58 37.78 31.67 31.26 39.25 30.63
  Q 46.65 30.01 52.02 30.01
  Z
  M 32.28 44.72
  L 71.72 44.72
  A 0.23 0.23 0.0 0 0 71.95 44.49
  L 71.95 44.14
  A 11.00 10.20 -90.0 0 0 61.75 33.14
  L 42.25 33.14
  A 11.00 10.20 -90.0 0 0 32.05 44.14
  L 32.05 44.49
  A 0.23 0.23 0.0 0 0 32.28 44.72
  Z
  M 25.82 51.04
  L 24.81 54.26
  A 1.15 1.15 0.0 0 0 25.56 55.70
  L 25.72 55.75
  A 9.72 2.81 17.4 0 0 35.84 55.98
  L 35.86 55.92
  A 9.72 2.81 17.4 0 0 27.42 50.33
  L 27.26 50.28
  A 1.15 1.15 0.0 0 0 25.82 51.04
  Z
  M 79.19 54.25
  L 78.18 51.05
  A 1.14 1.14 0.0 0 0 76.75 50.30
  L 76.57 50.36
  A 9.77 2.80 -17.4 0 0 68.09 55.95
  L 68.10 55.99
  A 9.77 2.80 -17.4 0 0 78.26 55.74
  L 78.44 55.68
  A 1.14 1.14 0.0 0 0 79.19 54.25
  Z"
/>
<path fill="#161719" d="
  M 32.28 44.72
  A 0.23 0.23 0.0 0 1 32.05 44.49
  L 32.05 44.14
  A 11.00 10.20 -90.0 0 1 42.25 33.14
  L 61.75 33.14
  A 11.00 10.20 90.0 0 1 71.95 44.14
  L 71.95 44.49
  A 0.23 0.23 0.0 0 1 71.72 44.72
  L 32.28 44.72
  Z"
/>
<path fill="#161719" d="
  M 25.82 51.04
  A 1.15 1.15 0.0 0 1 27.26 50.28
  L 27.42 50.33
  A 9.72 2.81 17.4 0 1 35.86 55.92
  L 35.84 55.98
  A 9.72 2.81 17.4 0 1 25.72 55.75
  L 25.56 55.70
  A 1.15 1.15 0.0 0 1 24.81 54.26
  L 25.82 51.04
  Z"
/>
<path fill="#161719" d="
  M 79.19 54.25
  A 1.14 1.14 0.0 0 1 78.44 55.68
  L 78.26 55.74
  A 9.77 2.80 -17.4 0 1 68.10 55.99
  L 68.09 55.95
  A 9.77 2.80 -17.4 0 1 76.57 50.36
  L 76.75 50.30
  A 1.14 1.14 0.0 0 1 78.18 51.05
  L 79.19 54.25
  Z"
/>
</svg>
