<?xml version="1.0" encoding="UTF-8" standalone="no"?>
<!DOCTYPE svg PUBLIC "-//W3C//DTD SVG 1.1//EN" "http://www.w3.org/Graphics/SVG/1.1/DTD/svg11.dtd">
<svg xmlns="http://www.w3.org/2000/svg" version="1.1" viewBox="0.00 0.00 101.00 106.00">
<g stroke-width="2.00" fill="none" stroke-linecap="butt">
<path stroke="#505152" vector-effect="non-scaling-stroke" d="
  M 45.94 82.80
  Q 73.95 82.80 74.94 82.79
  A 0.75 0.75 0.0 0 0 75.69 82.04
  L 75.69 77.77
  A 0.57 0.57 0.0 0 0 75.12 77.20
  L 69.76 77.20
  A 0.85 0.84 77.1 0 1 69.00 76.72
  L 49.21 36.52
  A 1.15 1.13 -45.6 0 1 49.21 35.51
  L 54.77 24.15
  A 0.55 0.55 0.0 0 0 54.52 23.42
  L 50.56 21.48
  A 0.48 0.48 0.0 0 0 49.92 21.69
  Q 48.21 25.13 46.32 29.07
  Q 46.15 29.44 45.94 29.44
  Q 45.73 29.44 45.56 29.07
  Q 43.67 25.13 41.96 21.69
  A 0.48 0.48 0.0 0 0 41.32 21.48
  L 37.36 23.42
  A 0.55 0.55 0.0 0 0 37.11 24.15
  L 42.67 35.51
  A 1.15 1.13 45.6 0 1 42.67 36.52
  L 22.88 76.72
  A 0.85 0.84 -77.1 0 1 22.12 77.20
  L 16.76 77.20
  A 0.57 0.57 0.0 0 0 16.19 77.77
  L 16.19 82.04
  A 0.75 0.75 0.0 0 0 16.94 82.80
  Q 17.94 82.80 45.94 82.80"
/>
<path stroke="#505152" vector-effect="non-scaling-stroke" d="
  M 42.07 77.20
  L 49.81 77.20
  A 0.37 0.37 0.0 0 0 50.18 76.83
  L 50.18 64.33
  A 4.61 4.15 90.0 0 0 46.03 59.72
  L 45.85 59.72
  A 4.61 4.15 -90.0 0 0 41.70 64.33
  L 41.70 76.83
  A 0.37 0.37 0.0 0 0 42.07 77.20"
/>
</g>
<path fill="#161718" d="
  M 101.00 0.00
  L 101.00 106.00
  L 0.00 106.00
  L 0.00 0.00
  L 101.00 0.00
  Z
  M 45.94 82.80
  Q 73.95 82.80 74.94 82.79
  A 0.75 0.75 0.0 0 0 75.69 82.04
  L 75.69 77.77
  A 0.57 0.57 0.0 0 0 75.12 77.20
  L 69.76 77.20
  A 0.85 0.84 77.1 0 1 69.00 76.72
  L 49.21 36.52
  A 1.15 1.13 -45.6 0 1 49.21 35.51
  L 54.77 24.15
  A 0.55 0.55 0.0 0 0 54.52 23.42
  L 50.56 21.48
  A 0.48 0.48 0.0 0 0 49.92 21.69
  Q 48.21 25.13 46.32 29.07
  Q 46.15 29.44 45.94 29.44
  Q 45.73 29.44 45.56 29.07
  Q 43.67 25.13 41.96 21.69
  A 0.48 0.48 0.0 0 0 41.32 21.48
  L 37.36 23.42
  A 0.55 0.55 0.0 0 0 37.11 24.15
  L 42.67 35.51
  A 1.15 1.13 45.6 0 1 42.67 36.52
  L 22.88 76.72
  A 0.85 0.84 -77.1 0 1 22.12 77.20
  L 16.76 77.20
  A 0.57 0.57 0.0 0 0 16.19 77.77
  L 16.19 82.04
  A 0.75 0.75 0.0 0 0 16.94 82.80
  Q 17.94 82.80 45.94 82.80
  Z"
/>
<path fill="#8a8b8b" d="
  M 45.94 29.44
  Q 46.15 29.44 46.32 29.07
  Q 48.21 25.13 49.92 21.69
  A 0.48 0.48 0.0 0 1 50.56 21.48
  L 54.52 23.42
  A 0.55 0.55 0.0 0 1 54.77 24.15
  L 49.21 35.51
  A 1.15 1.13 -45.6 0 0 49.21 36.52
  L 69.00 76.72
  A 0.85 0.84 77.1 0 0 69.76 77.20
  L 75.12 77.20
  A 0.57 0.57 0.0 0 1 75.69 77.77
  L 75.69 82.04
  A 0.75 0.75 0.0 0 1 74.94 82.79
  Q 73.95 82.80 45.94 82.80
  Q 17.94 82.80 16.94 82.80
  A 0.75 0.75 0.0 0 1 16.19 82.04
  L 16.19 77.77
  A 0.57 0.57 0.0 0 1 16.76 77.20
  L 22.12 77.20
  A 0.85 0.84 -77.1 0 0 22.88 76.72
  L 42.67 36.52
  A 1.15 1.13 45.6 0 0 42.67 35.51
  L 37.11 24.15
  A 0.55 0.55 0.0 0 1 37.36 23.42
  L 41.32 21.48
  A 0.48 0.48 0.0 0 1 41.96 21.69
  Q 43.67 25.13 45.56 29.07
  Q 45.73 29.44 45.94 29.44
  Z
  M 42.07 77.20
  L 49.81 77.20
  A 0.37 0.37 0.0 0 0 50.18 76.83
  L 50.18 64.33
  A 4.61 4.15 90.0 0 0 46.03 59.72
  L 45.85 59.72
  A 4.61 4.15 -90.0 0 0 41.70 64.33
  L 41.70 76.83
  A 0.37 0.37 0.0 0 0 42.07 77.20
  Z"
/>
<path fill="#161718" d="
  M 42.07 77.20
  A 0.37 0.37 0.0 0 1 41.70 76.83
  L 41.70 64.33
  A 4.61 4.15 90.0 0 1 45.85 59.72
  L 46.03 59.72
  A 4.61 4.15 90.0 0 1 50.18 64.33
  L 50.18 76.83
  A 0.37 0.37 0.0 0 1 49.81 77.20
  L 42.07 77.20
  Z"
/>
</svg>
