<?xml version="1.0" encoding="UTF-8" standalone="no"?>
<!DOCTYPE svg PUBLIC "-//W3C//DTD SVG 1.1//EN" "http://www.w3.org/Graphics/SVG/1.1/DTD/svg11.dtd">
<svg xmlns="http://www.w3.org/2000/svg" version="1.1" viewBox="0.00 0.00 175.00 176.00">
<g stroke-width="2.00" fill="none" stroke-linecap="butt">
<path stroke="#515152" vector-effect="non-scaling-stroke" d="
  M 86.31 16.26
  Q 92.40 16.26 97.10 18.19
  Q 99.65 19.24 102.33 20.21
  A 2.30 2.30 0.0 0 0 105.27 18.83
  L 105.34 18.62
  A 2.62 2.61 22.9 0 0 104.02 15.38
  Q 94.51 10.77 86.31 11.03
  Q 78.12 10.77 68.61 15.37
  A 2.62 2.61 -22.9 0 0 67.29 18.61
  L 67.36 18.82
  A 2.30 2.30 0.0 0 0 70.29 20.20
  Q 72.98 19.23 75.53 18.18
  Q 80.23 16.26 86.31 16.26"
/>
<path stroke="#515152" vector-effect="non-scaling-stroke" d="
  M 86.30 28.54
  Q 89.50 28.53 94.31 29.84
  Q 96.12 30.33 97.19 28.91
  A 2.51 2.23 -47.5 0 0 97.24 25.92
  C 95.45 23.85 88.52 23.29 86.30 23.29
  C 84.07 23.29 77.14 23.86 75.36 25.93
  A 2.51 2.23 47.4 0 0 75.41 28.92
  Q 76.48 30.34 78.30 29.85
  Q 83.10 28.54 86.30 28.54"
/>
<path stroke="#515152" vector-effect="non-scaling-stroke" d="
  M 103.81 44.33
  A 8.83 8.83 0.0 0 0 94.98 35.50
  L 77.64 35.50
  A 8.83 8.83 0.0 0 0 68.81 44.33
  L 68.81 72.17
  A 8.83 8.83 0.0 0 0 77.64 81.00
  L 94.98 81.00
  A 8.83 8.83 0.0 0 0 103.81 72.17
  L 103.81 44.33"
/>
<path stroke="#515152" vector-effect="non-scaling-stroke" d="
  M 67.60 136.82
  A 0.22 0.20 85.2 0 0 67.80 136.57
  Q 66.67 130.23 60.16 129.36
  C 56.24 128.83 51.37 129.63 49.44 133.29
  C 47.37 137.21 49.03 141.22 53.30 142.75
  Q 54.98 143.36 61.28 145.01
  C 64.83 145.94 64.44 149.84 61.49 151.08
  C 57.97 152.55 53.15 151.53 52.40 147.14
  A 0.34 0.33 84.9 0 0 52.07 146.86
  L 47.93 146.86
  A 0.22 0.22 0.0 0 0 47.71 147.11
  C 48.70 154.59 56.35 156.83 62.61 154.86
  C 67.00 153.48 69.38 149.64 68.06 145.24
  C 66.83 141.15 60.60 139.98 56.58 139.20
  C 52.62 138.44 51.80 134.21 55.94 133.20
  Q 61.65 131.81 63.27 136.54
  A 0.42 0.41 79.9 0 0 63.66 136.82
  L 67.60 136.82"
/>
<path stroke="#515152" vector-effect="non-scaling-stroke" d="
  M 80.73 151.72
  Q 77.81 152.13 77.78 149.73
  Q 77.74 146.51 77.75 140.75
  A 0.62 0.61 90.0 0 1 78.36 140.13
  L 81.09 140.13
  A 0.48 0.48 0.0 0 0 81.57 139.65
  L 81.57 137.20
  A 0.50 0.50 0.0 0 0 81.07 136.70
  L 78.33 136.70
  A 0.60 0.60 0.0 0 1 77.73 136.10
  L 77.73 132.46
  A 0.51 0.51 0.0 0 0 77.22 131.95
  L 74.04 131.95
  A 0.51 0.50 -0.0 0 0 73.53 132.45
  L 73.53 136.22
  A 0.49 0.49 0.0 0 1 73.04 136.71
  L 71.21 136.71
  A 0.59 0.58 -0.0 0 0 70.62 137.29
  L 70.62 139.61
  A 0.53 0.52 0.0 0 0 71.15 140.13
  L 72.84 140.13
  A 0.68 0.68 0.0 0 1 73.52 140.81
  Q 73.54 149.61 73.55 150.25
  C 73.61 154.82 76.77 155.66 80.70 155.23
  A 0.96 0.96 0.0 0 0 81.55 154.28
  L 81.55 152.43
  A 0.72 0.72 0.0 0 0 80.73 151.72"
/>
<path stroke="#515152" vector-effect="non-scaling-stroke" d="
  M 126.73 151.72
  Q 123.81 152.13 123.78 149.73
  Q 123.74 146.51 123.75 140.76
  A 0.62 0.61 -90.0 0 1 124.36 140.14
  L 127.09 140.14
  A 0.48 0.48 0.0 0 0 127.57 139.66
  L 127.57 137.21
  A 0.50 0.50 0.0 0 0 127.07 136.71
  L 124.33 136.71
  A 0.60 0.60 0.0 0 1 123.73 136.11
  L 123.74 132.47
  A 0.51 0.51 0.0 0 0 123.23 131.96
  L 120.05 131.96
  A 0.51 0.50 0.0 0 0 119.54 132.46
  L 119.54 136.23
  A 0.49 0.49 0.0 0 1 119.05 136.72
  L 117.22 136.72
  A 0.59 0.58 0.0 0 0 116.63 137.30
  L 116.63 139.61
  A 0.53 0.52 0.0 0 0 117.16 140.13
  L 118.85 140.13
  A 0.68 0.68 0.0 0 1 119.53 140.81
  Q 119.54 149.61 119.55 150.25
  C 119.61 154.82 122.77 155.66 126.70 155.23
  A 0.96 0.96 0.0 0 0 127.55 154.28
  L 127.55 152.43
  A 0.72 0.72 0.0 0 0 126.73 151.72"
/>
<path stroke="#515152" vector-effect="non-scaling-stroke" d="
  M 85.38 142.48
  L 88.34 142.48
  A 1.02 1.02 0.0 0 0 89.27 141.88
  Q 90.77 138.50 94.78 140.25
  Q 96.06 140.81 96.19 142.30
  A 1.38 1.38 0.0 0 1 95.04 143.79
  Q 90.86 144.48 88.83 145.08
  C 82.44 146.96 83.35 155.20 90.16 155.35
  Q 93.74 155.43 95.67 152.62
  A 0.35 0.35 0.0 0 1 96.29 152.71
  Q 96.39 153.03 96.10 154.02
  A 0.77 0.77 0.0 0 0 96.84 155.01
  L 99.43 155.01
  A 0.90 0.89 0.0 0 0 100.33 154.12
  Q 100.35 149.30 100.29 143.28
  C 100.20 134.20 86.99 133.74 84.95 141.92
  A 0.45 0.44 -82.9 0 0 85.38 142.48"
/>
<path stroke="#515152" vector-effect="non-scaling-stroke" d="
  M 109.89 138.98
  L 109.89 137.28
  A 0.58 0.58 0.0 0 0 109.31 136.70
  L 106.24 136.70
  A 0.58 0.58 0.0 0 0 105.66 137.28
  L 105.66 154.51
  A 0.51 0.51 0.0 0 0 106.17 155.02
  L 109.36 155.02
  A 0.56 0.55 89.5 0 0 109.91 154.45
  Q 109.80 147.74 109.92 145.75
  Q 110.24 140.46 115.50 140.50
  A 0.30 0.29 -90.0 0 0 115.79 140.20
  L 115.79 137.00
  A 0.37 0.36 -85.4 0 0 115.49 136.64
  Q 112.38 136.15 110.32 139.12
  A 0.24 0.23 62.6 0 1 109.89 138.98"
/>
<path stroke="#515152" vector-effect="non-scaling-stroke" d="
  M 89.79 49.50
  A 3.49 3.49 0.0 0 0 86.30 46.01
  A 3.49 3.49 0.0 0 0 82.81 49.50
  A 3.49 3.49 0.0 0 0 86.30 52.99
  A 3.49 3.49 0.0 0 0 89.79 49.50"
/>
<path stroke="#515152" vector-effect="non-scaling-stroke" d="
  M 95.17 146.31
  C 93.26 146.64 89.62 147.08 88.89 148.82
  A 2.31 2.18 21.5 0 0 90.27 151.75
  Q 94.30 153.27 96.26 147.59
  A 0.97 0.97 0.0 0 0 95.17 146.31"
/>
</g>
<path fill="#161719" d="
  M 175.00 0.00
  L 175.00 176.00
  L 0.00 176.00
  L 0.00 0.00
  L 175.00 0.00
  Z
  M 86.31 16.26
  Q 92.40 16.26 97.10 18.19
  Q 99.65 19.24 102.33 20.21
  A 2.30 2.30 0.0 0 0 105.27 18.83
  L 105.34 18.62
  A 2.62 2.61 22.9 0 0 104.02 15.38
  Q 94.51 10.77 86.31 11.03
  Q 78.12 10.77 68.61 15.37
  A 2.62 2.61 -22.9 0 0 67.29 18.61
  L 67.36 18.82
  A 2.30 2.30 0.0 0 0 70.29 20.20
  Q 72.98 19.23 75.53 18.18
  Q 80.23 16.26 86.31 16.26
  Z
  M 86.30 28.54
  Q 89.50 28.53 94.31 29.84
  Q 96.12 30.33 97.19 28.91
  A 2.51 2.23 -47.5 0 0 97.24 25.92
  C 95.45 23.85 88.52 23.29 86.30 23.29
  C 84.07 23.29 77.14 23.86 75.36 25.93
  A 2.51 2.23 47.4 0 0 75.41 28.92
  Q 76.48 30.34 78.30 29.85
  Q 83.10 28.54 86.30 28.54
  Z
  M 103.81 44.33
  A 8.83 8.83 0.0 0 0 94.98 35.50
  L 77.64 35.50
  A 8.83 8.83 0.0 0 0 68.81 44.33
  L 68.81 72.17
  A 8.83 8.83 0.0 0 0 77.64 81.00
  L 94.98 81.00
  A 8.83 8.83 0.0 0 0 103.81 72.17
  L 103.81 44.33
  Z
  M 67.60 136.82
  A 0.22 0.20 85.2 0 0 67.80 136.57
  Q 66.67 130.23 60.16 129.36
  C 56.24 128.83 51.37 129.63 49.44 133.29
  C 47.37 137.21 49.03 141.22 53.30 142.75
  Q 54.98 143.36 61.28 145.01
  C 64.83 145.94 64.44 149.84 61.49 151.08
  C 57.97 152.55 53.15 151.53 52.40 147.14
  A 0.34 0.33 84.9 0 0 52.07 146.86
  L 47.93 146.86
  A 0.22 0.22 0.0 0 0 47.71 147.11
  C 48.70 154.59 56.35 156.83 62.61 154.86
  C 67.00 153.48 69.38 149.64 68.06 145.24
  C 66.83 141.15 60.60 139.98 56.58 139.20
  C 52.62 138.44 51.80 134.21 55.94 133.20
  Q 61.65 131.81 63.27 136.54
  A 0.42 0.41 79.9 0 0 63.66 136.82
  L 67.60 136.82
  Z
  M 80.73 151.72
  Q 77.81 152.13 77.78 149.73
  Q 77.74 146.51 77.75 140.75
  A 0.62 0.61 90.0 0 1 78.36 140.13
  L 81.09 140.13
  A 0.48 0.48 0.0 0 0 81.57 139.65
  L 81.57 137.20
  A 0.50 0.50 0.0 0 0 81.07 136.70
  L 78.33 136.70
  A 0.60 0.60 0.0 0 1 77.73 136.10
  L 77.73 132.46
  A 0.51 0.51 0.0 0 0 77.22 131.95
  L 74.04 131.95
  A 0.51 0.50 -0.0 0 0 73.53 132.45
  L 73.53 136.22
  A 0.49 0.49 0.0 0 1 73.04 136.71
  L 71.21 136.71
  A 0.59 0.58 -0.0 0 0 70.62 137.29
  L 70.62 139.61
  A 0.53 0.52 0.0 0 0 71.15 140.13
  L 72.84 140.13
  A 0.68 0.68 0.0 0 1 73.52 140.81
  Q 73.54 149.61 73.55 150.25
  C 73.61 154.82 76.77 155.66 80.70 155.23
  A 0.96 0.96 0.0 0 0 81.55 154.28
  L 81.55 152.43
  A 0.72 0.72 0.0 0 0 80.73 151.72
  Z
  M 126.73 151.72
  Q 123.81 152.13 123.78 149.73
  Q 123.74 146.51 123.75 140.76
  A 0.62 0.61 -90.0 0 1 124.36 140.14
  L 127.09 140.14
  A 0.48 0.48 0.0 0 0 127.57 139.66
  L 127.57 137.21
  A 0.50 0.50 0.0 0 0 127.07 136.71
  L 124.33 136.71
  A 0.60 0.60 0.0 0 1 123.73 136.11
  L 123.74 132.47
  A 0.51 0.51 0.0 0 0 123.23 131.96
  L 120.05 131.96
  A 0.51 0.50 0.0 0 0 119.54 132.46
  L 119.54 136.23
  A 0.49 0.49 0.0 0 1 119.05 136.72
  L 117.22 136.72
  A 0.59 0.58 0.0 0 0 116.63 137.30
  L 116.63 139.61
  A 0.53 0.52 0.0 0 0 117.16 140.13
  L 118.85 140.13
  A 0.68 0.68 0.0 0 1 119.53 140.81
  Q 119.54 149.61 119.55 150.25
  C 119.61 154.82 122.77 155.66 126.70 155.23
  A 0.96 0.96 0.0 0 0 127.55 154.28
  L 127.55 152.43
  A 0.72 0.72 0.0 0 0 126.73 151.72
  Z
  M 85.38 142.48
  L 88.34 142.48
  A 1.02 1.02 0.0 0 0 89.27 141.88
  Q 90.77 138.50 94.78 140.25
  Q 96.06 140.81 96.19 142.30
  A 1.38 1.38 0.0 0 1 95.04 143.79
  Q 90.86 144.48 88.83 145.08
  C 82.44 146.96 83.35 155.20 90.16 155.35
  Q 93.74 155.43 95.67 152.62
  A 0.35 0.35 0.0 0 1 96.29 152.71
  Q 96.39 153.03 96.10 154.02
  A 0.77 0.77 0.0 0 0 96.84 155.01
  L 99.43 155.01
  A 0.90 0.89 0.0 0 0 100.33 154.12
  Q 100.35 149.30 100.29 143.28
  C 100.20 134.20 86.99 133.74 84.95 141.92
  A 0.45 0.44 -82.9 0 0 85.38 142.48
  Z
  M 109.89 138.98
  L 109.89 137.28
  A 0.58 0.58 0.0 0 0 109.31 136.70
  L 106.24 136.70
  A 0.58 0.58 0.0 0 0 105.66 137.28
  L 105.66 154.51
  A 0.51 0.51 0.0 0 0 106.17 155.02
  L 109.36 155.02
  A 0.56 0.55 89.5 0 0 109.91 154.45
  Q 109.80 147.74 109.92 145.75
  Q 110.24 140.46 115.50 140.50
  A 0.30 0.29 -90.0 0 0 115.79 140.20
  L 115.79 137.00
  A 0.37 0.36 -85.4 0 0 115.49 136.64
  Q 112.38 136.15 110.32 139.12
  A 0.24 0.23 62.6 0 1 109.89 138.98
  Z"
/>
<path fill="#8b8b8b" d="
  M 86.31 11.03
  Q 94.51 10.77 104.02 15.38
  A 2.62 2.61 22.9 0 1 105.34 18.62
  L 105.27 18.83
  A 2.30 2.30 0.0 0 1 102.33 20.21
  Q 99.65 19.24 97.10 18.19
  Q 92.40 16.26 86.31 16.26
  Q 80.23 16.26 75.53 18.18
  Q 72.98 19.23 70.29 20.20
  A 2.30 2.30 0.0 0 1 67.36 18.82
  L 67.29 18.61
  A 2.62 2.61 -22.9 0 1 68.61 15.37
  Q 78.12 10.77 86.31 11.03
  Z"
/>
<path fill="#8b8b8b" d="
  M 86.30 23.29
  C 88.52 23.29 95.45 23.85 97.24 25.92
  A 2.51 2.23 -47.5 0 1 97.19 28.91
  Q 96.12 30.33 94.31 29.84
  Q 89.50 28.53 86.30 28.54
  Q 83.10 28.54 78.30 29.85
  Q 76.48 30.34 75.41 28.92
  A 2.51 2.23 47.4 0 1 75.36 25.93
  C 77.14 23.86 84.07 23.29 86.30 23.29
  Z"
/>
<path fill="#8b8b8b" d="
  M 103.81 72.17
  A 8.83 8.83 0.0 0 1 94.98 81.00
  L 77.64 81.00
  A 8.83 8.83 0.0 0 1 68.81 72.17
  L 68.81 44.33
  A 8.83 8.83 0.0 0 1 77.64 35.50
  L 94.98 35.50
  A 8.83 8.83 0.0 0 1 103.81 44.33
  L 103.81 72.17
  Z
  M 89.79 49.50
  A 3.49 3.49 0.0 0 0 86.30 46.01
  A 3.49 3.49 0.0 0 0 82.81 49.50
  A 3.49 3.49 0.0 0 0 86.30 52.99
  A 3.49 3.49 0.0 0 0 89.79 49.50
  Z"
/>
<circle fill="#161719" cx="86.30" cy="49.50" r="3.49"/>
<path fill="#8b8b8b" d="
  M 67.60 136.82
  L 63.66 136.82
  A 0.42 0.41 79.9 0 1 63.27 136.54
  Q 61.65 131.81 55.94 133.20
  C 51.80 134.21 52.62 138.44 56.58 139.20
  C 60.60 139.98 66.83 141.15 68.06 145.24
  C 69.38 149.64 67.00 153.48 62.61 154.86
  C 56.35 156.83 48.70 154.59 47.71 147.11
  A 0.22 0.22 0.0 0 1 47.93 146.86
  L 52.07 146.86
  A 0.34 0.33 84.9 0 1 52.40 147.14
  C 53.15 151.53 57.97 152.55 61.49 151.08
  C 64.44 149.84 64.83 145.94 61.28 145.01
  Q 54.98 143.36 53.30 142.75
  C 49.03 141.22 47.37 137.21 49.44 133.29
  C 51.37 129.63 56.24 128.83 60.16 129.36
  Q 66.67 130.23 67.80 136.57
  A 0.22 0.20 85.2 0 1 67.60 136.82
  Z"
/>
<path fill="#8b8b8b" d="
  M 80.73 151.72
  A 0.72 0.72 0.0 0 1 81.55 152.43
  L 81.55 154.28
  A 0.96 0.96 0.0 0 1 80.70 155.23
  C 76.77 155.66 73.61 154.82 73.55 150.25
  Q 73.54 149.61 73.52 140.81
  A 0.68 0.68 0.0 0 0 72.84 140.13
  L 71.15 140.13
  A 0.53 0.52 0.0 0 1 70.62 139.61
  L 70.62 137.29
  A 0.59 0.58 -0.0 0 1 71.21 136.71
  L 73.04 136.71
  A 0.49 0.49 0.0 0 0 73.53 136.22
  L 73.53 132.45
  A 0.51 0.50 -0.0 0 1 74.04 131.95
  L 77.22 131.95
  A 0.51 0.51 0.0 0 1 77.73 132.46
  L 77.73 136.10
  A 0.60 0.60 0.0 0 0 78.33 136.70
  L 81.07 136.70
  A 0.50 0.50 0.0 0 1 81.57 137.20
  L 81.57 139.65
  A 0.48 0.48 0.0 0 1 81.09 140.13
  L 78.36 140.13
  A 0.62 0.61 90.0 0 0 77.75 140.75
  Q 77.74 146.51 77.78 149.73
  Q 77.81 152.13 80.73 151.72
  Z"
/>
<path fill="#8b8b8b" d="
  M 126.73 151.72
  A 0.72 0.72 0.0 0 1 127.55 152.43
  L 127.55 154.28
  A 0.96 0.96 0.0 0 1 126.70 155.23
  C 122.77 155.66 119.61 154.82 119.55 150.25
  Q 119.54 149.61 119.53 140.81
  A 0.68 0.68 0.0 0 0 118.85 140.13
  L 117.16 140.13
  A 0.53 0.52 0.0 0 1 116.63 139.61
  L 116.63 137.30
  A 0.59 0.58 0.0 0 1 117.22 136.72
  L 119.05 136.72
  A 0.49 0.49 0.0 0 0 119.54 136.23
  L 119.54 132.46
  A 0.51 0.50 0.0 0 1 120.05 131.96
  L 123.23 131.96
  A 0.51 0.51 0.0 0 1 123.74 132.47
  L 123.73 136.11
  A 0.60 0.60 0.0 0 0 124.33 136.71
  L 127.07 136.71
  A 0.50 0.50 0.0 0 1 127.57 137.21
  L 127.57 139.66
  A 0.48 0.48 0.0 0 1 127.09 140.14
  L 124.36 140.14
  A 0.62 0.61 -90.0 0 0 123.75 140.76
  Q 123.74 146.51 123.78 149.73
  Q 123.81 152.13 126.73 151.72
  Z"
/>
<path fill="#8b8b8b" d="
  M 84.95 141.92
  C 86.99 133.74 100.20 134.20 100.29 143.28
  Q 100.35 149.30 100.33 154.12
  A 0.90 0.89 0.0 0 1 99.43 155.01
  L 96.84 155.01
  A 0.77 0.77 0.0 0 1 96.10 154.02
  Q 96.39 153.03 96.29 152.71
  A 0.35 0.35 0.0 0 0 95.67 152.62
  Q 93.74 155.43 90.16 155.35
  C 83.35 155.20 82.44 146.96 88.83 145.08
  Q 90.86 144.48 95.04 143.79
  A 1.38 1.38 0.0 0 0 96.19 142.30
  Q 96.06 140.81 94.78 140.25
  Q 90.77 138.50 89.27 141.88
  A 1.02 1.02 0.0 0 1 88.34 142.48
  L 85.38 142.48
  A 0.45 0.44 -82.9 0 1 84.95 141.92
  Z
  M 95.17 146.31
  C 93.26 146.64 89.62 147.08 88.89 148.82
  A 2.31 2.18 21.5 0 0 90.27 151.75
  Q 94.30 153.27 96.26 147.59
  A 0.97 0.97 0.0 0 0 95.17 146.31
  Z"
/>
<path fill="#8b8b8b" d="
  M 109.89 138.98
  A 0.24 0.23 62.6 0 0 110.32 139.12
  Q 112.38 136.15 115.49 136.64
  A 0.37 0.36 -85.4 0 1 115.79 137.00
  L 115.79 140.20
  A 0.30 0.29 -90.0 0 1 115.50 140.50
  Q 110.24 140.46 109.92 145.75
  Q 109.80 147.74 109.91 154.45
  A 0.56 0.55 89.5 0 1 109.36 155.02
  L 106.17 155.02
  A 0.51 0.51 0.0 0 1 105.66 154.51
  L 105.66 137.28
  A 0.58 0.58 0.0 0 1 106.24 136.70
  L 109.31 136.70
  A 0.58 0.58 0.0 0 1 109.89 137.28
  L 109.89 138.98
  Z"
/>
<path fill="#161719" d="
  M 95.17 146.31
  A 0.97 0.97 0.0 0 1 96.26 147.59
  Q 94.30 153.27 90.27 151.75
  A 2.31 2.18 21.5 0 1 88.89 148.82
  C 89.62 147.08 93.26 146.64 95.17 146.31
  Z"
/>
</svg>
