<?xml version="1.0" encoding="UTF-8" standalone="no"?>
<!DOCTYPE svg PUBLIC "-//W3C//DTD SVG 1.1//EN" "http://www.w3.org/Graphics/SVG/1.1/DTD/svg11.dtd">
<svg xmlns="http://www.w3.org/2000/svg" version="1.1" viewBox="0.00 0.00 380.00 99.00">
<g stroke-width="2.00" fill="none" stroke-linecap="butt">
<path stroke="#858586" vector-effect="non-scaling-stroke" d="
  M 331.86 24.94
  A 0.47 0.47 0.0 0 0 331.39 24.47
  L 325.37 24.47
  A 0.47 0.47 0.0 0 0 324.90 24.94
  L 324.90 67.52
  A 0.47 0.47 0.0 0 0 325.37 67.99
  L 331.39 67.99
  A 0.47 0.47 0.0 0 0 331.86 67.52
  L 331.86 24.94"
/>
<path stroke="#858586" vector-effect="non-scaling-stroke" d="
  M 129.30 46.87
  C 129.31 59.97 137.38 69.10 150.73 68.80
  Q 164.30 68.50 167.92 54.58
  A 0.65 0.65 0.0 0 0 167.29 53.77
  L 161.68 53.77
  A 1.06 1.05 -81.4 0 0 160.67 54.52
  C 159.20 59.40 155.21 62.24 150.00 62.31
  C 140.90 62.43 136.61 55.13 136.61 46.87
  C 136.60 38.61 140.89 31.31 149.99 31.43
  C 155.20 31.49 159.19 34.33 160.66 39.20
  A 1.06 1.05 81.4 0 0 161.67 39.95
  L 167.28 39.95
  A 0.65 0.65 0.0 0 0 167.91 39.14
  Q 164.28 25.22 150.71 24.93
  C 137.36 24.64 129.30 33.78 129.30 46.87"
/>
<path stroke="#515152" vector-effect="non-scaling-stroke" d="
  M 45.00 65.44
  Q 64.30 65.44 64.59 65.47
  A 0.54 0.51 75.8 0 1 64.98 65.72
  Q 65.36 66.31 65.41 68.22
  A 1.85 1.85 0.0 0 0 67.26 70.03
  L 72.53 70.03
  A 2.19 2.19 0.0 0 0 74.72 67.97
  Q 75.11 60.98 75.00 51.63
  C 74.95 46.81 73.59 44.25 69.76 41.88
  A 0.31 0.30 56.3 0 1 69.87 41.32
  L 73.95 40.63
  A 1.36 1.36 0.0 0 0 74.98 38.78
  Q 73.80 35.91 69.89 36.18
  A 0.75 0.74 88.4 0 0 69.19 36.93
  L 69.19 38.59
  A 0.51 0.51 0.0 0 1 68.18 38.71
  Q 67.73 36.86 66.04 32.00
  Q 64.27 26.90 59.26 25.91
  Q 54.74 25.02 44.99 25.02
  Q 35.25 25.02 30.73 25.92
  Q 25.72 26.90 23.95 32.00
  Q 22.26 36.87 21.81 38.72
  A 0.51 0.51 0.0 0 1 20.80 38.60
  L 20.80 36.94
  A 0.75 0.74 -88.4 0 0 20.10 36.19
  Q 16.19 35.92 15.01 38.79
  A 1.36 1.36 0.0 0 0 16.04 40.64
  L 20.12 41.33
  A 0.31 0.30 -56.3 0 1 20.23 41.89
  C 16.40 44.26 15.04 46.82 14.99 51.64
  Q 14.89 60.99 15.28 67.98
  A 2.19 2.19 0.0 0 0 17.47 70.04
  L 22.74 70.04
  A 1.85 1.85 0.0 0 0 24.59 68.22
  Q 24.64 66.31 25.02 65.72
  A 0.54 0.51 -75.8 0 1 25.41 65.48
  Q 25.70 65.44 45.00 65.44"
/>
<path stroke="#858586" vector-effect="non-scaling-stroke" d="
  M 246.29 37.52
  L 242.85 37.52
  A 0.79 0.78 -0.0 0 0 242.06 38.30
  L 242.06 42.50
  A 0.73 0.72 -0.0 0 0 242.79 43.22
  L 246.23 43.22
  A 0.61 0.61 0.0 0 1 246.84 43.82
  Q 246.95 47.81 246.86 58.50
  Q 246.83 62.90 248.27 65.28
  C 250.57 69.05 256.15 69.24 259.89 68.06
  A 0.45 0.44 -9.1 0 0 260.20 67.64
  L 260.20 62.84
  A 0.32 0.32 0.0 0 0 259.83 62.52
  C 253.46 63.59 253.86 60.69 253.88 55.23
  Q 253.91 43.90 253.91 43.82
  A 0.63 0.62 -88.0 0 1 254.53 43.23
  L 259.86 43.21
  A 0.41 0.41 0.0 0 0 260.26 42.80
  L 260.26 37.89
  A 0.36 0.36 0.0 0 0 259.90 37.53
  L 254.43 37.53
  A 0.54 0.53 0.0 0 1 253.89 37.00
  L 253.89 29.99
  A 0.40 0.40 0.0 0 0 253.49 29.59
  L 247.25 29.59
  A 0.37 0.37 0.0 0 0 246.88 29.96
  L 246.88 36.93
  A 0.59 0.59 0.0 0 1 246.29 37.52"
/>
<path stroke="#858586" vector-effect="non-scaling-stroke" d="
  M 188.0894 36.4412
  A 16.32 15.54 -89.3 0 0 172.3512 52.5701
  A 16.32 15.54 -89.3 0 0 187.6906 69.0788
  A 16.32 15.54 -89.3 0 0 203.4288 52.9499
  A 16.32 15.54 -89.3 0 0 188.0894 36.4412"
/>
<path stroke="#858586" vector-effect="non-scaling-stroke" d="
  M 217.46 40.27
  L 217.46 38.14
  A 0.62 0.62 0.0 0 0 216.84 37.52
  L 211.10 37.52
  A 0.67 0.67 0.0 0 0 210.43 38.19
  L 210.43 67.51
  A 0.49 0.49 0.0 0 0 210.92 68.00
  L 216.97 68.00
  A 0.50 0.49 -90.0 0 0 217.46 67.50
  Q 217.47 56.53 217.49 52.00
  C 217.51 46.93 219.60 42.06 225.50 42.69
  Q 230.30 43.21 230.58 48.76
  Q 230.83 53.72 230.67 67.47
  A 0.52 0.52 0.0 0 0 231.19 68.00
  L 237.21 68.00
  A 0.49 0.49 0.0 0 0 237.70 67.52
  Q 237.90 55.93 237.61 48.20
  C 237.39 42.45 234.45 37.50 228.29 36.71
  Q 222.17 35.92 217.90 40.45
  A 0.26 0.26 0.0 0 1 217.46 40.27"
/>
<path stroke="#858586" vector-effect="non-scaling-stroke" d="
  M 303.0324 36.4406
  A 16.32 15.54 -89.5 0 0 287.3506 52.6244
  A 16.32 15.54 -89.5 0 0 302.7476 69.0794
  A 16.32 15.54 -89.5 0 0 318.4294 52.8956
  A 16.32 15.54 -89.5 0 0 303.0324 36.4406"
/>
<path stroke="#858586" vector-effect="non-scaling-stroke" d="
  M 363.77 45.98
  Q 362.69 39.55 356.99 37.57
  C 351.08 35.53 340.34 36.84 339.45 44.69
  Q 338.66 51.68 345.35 53.95
  Q 350.04 55.54 354.29 56.46
  C 357.90 57.24 358.92 60.56 355.57 62.59
  C 352.00 64.76 346.48 63.42 345.24 58.93
  A 0.42 0.42 0.0 0 0 344.84 58.63
  L 338.57 58.63
  A 0.20 0.20 0.0 0 0 338.37 58.86
  C 339.59 68.67 350.55 70.38 358.38 67.60
  C 366.51 64.73 367.26 53.93 358.54 50.91
  Q 354.32 49.46 349.14 48.41
  Q 347.89 48.16 346.92 47.09
  C 343.28 43.05 354.83 38.55 357.06 45.92
  A 0.42 0.42 0.0 0 0 357.46 46.22
  L 363.57 46.22
  A 0.21 0.20 85.2 0 0 363.77 45.98"
/>
<path stroke="#858586" vector-effect="non-scaling-stroke" d="
  M 274.43 41.14
  L 274.43 38.26
  A 0.76 0.75 90.0 0 0 273.68 37.50
  L 268.35 37.50
  A 0.93 0.92 -90.0 0 0 267.43 38.43
  L 267.43 67.60
  A 0.40 0.40 0.0 0 0 267.83 68.00
  L 274.10 68.00
  A 0.39 0.39 0.0 0 0 274.49 67.60
  Q 274.42 60.54 274.49 53.50
  Q 274.59 43.66 283.90 43.88
  A 0.40 0.40 0.0 0 0 284.31 43.48
  L 284.31 37.76
  A 0.45 0.44 3.7 0 0 283.92 37.32
  C 279.46 36.82 277.69 38.54 275.03 41.37
  A 0.35 0.34 -23.7 0 1 274.43 41.14"
/>
<path stroke="#515152" vector-effect="non-scaling-stroke" d="
  M 25.26 39.72
  L 64.76 39.72
  A 0.21 0.21 0.0 0 0 64.97 39.51
  L 64.97 39.20
  A 11.06 10.29 90.0 0 0 54.68 28.14
  L 35.34 28.14
  A 11.06 10.29 90.0 0 0 25.05 39.20
  L 25.05 39.51
  A 0.21 0.21 0.0 0 0 25.26 39.72"
/>
<path stroke="#515152" vector-effect="non-scaling-stroke" d="
  M 18.84 46.04
  L 17.83 49.27
  A 1.15 1.15 0.0 0 0 18.58 50.71
  L 18.75 50.76
  A 9.75 2.81 17.4 0 0 28.90 51.00
  L 28.92 50.94
  A 9.75 2.81 17.4 0 0 20.45 45.34
  L 20.28 45.29
  A 1.15 1.15 0.0 0 0 18.84 46.04"
/>
<path stroke="#515152" vector-effect="non-scaling-stroke" d="
  M 72.20 49.23
  L 71.21 46.06
  A 1.18 1.18 0.0 0 0 69.73 45.29
  L 69.55 45.34
  A 9.77 2.80 -17.4 0 0 61.06 50.94
  L 61.09 51.01
  A 9.77 2.80 -17.4 0 0 71.25 50.76
  L 71.43 50.71
  A 1.18 1.18 0.0 0 0 72.20 49.23"
/>
<path stroke="#858586" vector-effect="non-scaling-stroke" d="
  M 187.8900 42.4500
  A 10.31 8.29 -90.0 0 0 179.6000 52.7600
  A 10.31 8.29 -90.0 0 0 187.8900 63.0700
  A 10.31 8.29 -90.0 0 0 196.1800 52.7600
  A 10.31 8.29 -90.0 0 0 187.8900 42.4500"
/>
<path stroke="#858586" vector-effect="non-scaling-stroke" d="
  M 302.8900 42.4400
  A 10.32 8.28 -90.0 0 0 294.6100 52.7600
  A 10.32 8.28 -90.0 0 0 302.8900 63.0800
  A 10.32 8.28 -90.0 0 0 311.1700 52.7600
  A 10.32 8.28 -90.0 0 0 302.8900 42.4400"
/>
</g>
<path fill="#161719" d="
  M 380.00 0.00
  L 380.00 99.00
  L 0.00 99.00
  L 0.00 0.00
  L 380.00 0.00
  Z
  M 331.86 24.94
  A 0.47 0.47 0.0 0 0 331.39 24.47
  L 325.37 24.47
  A 0.47 0.47 0.0 0 0 324.90 24.94
  L 324.90 67.52
  A 0.47 0.47 0.0 0 0 325.37 67.99
  L 331.39 67.99
  A 0.47 0.47 0.0 0 0 331.86 67.52
  L 331.86 24.94
  Z
  M 129.30 46.87
  C 129.31 59.97 137.38 69.10 150.73 68.80
  Q 164.30 68.50 167.92 54.58
  A 0.65 0.65 0.0 0 0 167.29 53.77
  L 161.68 53.77
  A 1.06 1.05 -81.4 0 0 160.67 54.52
  C 159.20 59.40 155.21 62.24 150.00 62.31
  C 140.90 62.43 136.61 55.13 136.61 46.87
  C 136.60 38.61 140.89 31.31 149.99 31.43
  C 155.20 31.49 159.19 34.33 160.66 39.20
  A 1.06 1.05 81.4 0 0 161.67 39.95
  L 167.28 39.95
  A 0.65 0.65 0.0 0 0 167.91 39.14
  Q 164.28 25.22 150.71 24.93
  C 137.36 24.64 129.30 33.78 129.30 46.87
  Z
  M 45.00 65.44
  Q 64.30 65.44 64.59 65.47
  A 0.54 0.51 75.8 0 1 64.98 65.72
  Q 65.36 66.31 65.41 68.22
  A 1.85 1.85 0.0 0 0 67.26 70.03
  L 72.53 70.03
  A 2.19 2.19 0.0 0 0 74.72 67.97
  Q 75.11 60.98 75.00 51.63
  C 74.95 46.81 73.59 44.25 69.76 41.88
  A 0.31 0.30 56.3 0 1 69.87 41.32
  L 73.95 40.63
  A 1.36 1.36 0.0 0 0 74.98 38.78
  Q 73.80 35.91 69.89 36.18
  A 0.75 0.74 88.4 0 0 69.19 36.93
  L 69.19 38.59
  A 0.51 0.51 0.0 0 1 68.18 38.71
  Q 67.73 36.86 66.04 32.00
  Q 64.27 26.90 59.26 25.91
  Q 54.74 25.02 44.99 25.02
  Q 35.25 25.02 30.73 25.92
  Q 25.72 26.90 23.95 32.00
  Q 22.26 36.87 21.81 38.72
  A 0.51 0.51 0.0 0 1 20.80 38.60
  L 20.80 36.94
  A 0.75 0.74 -88.4 0 0 20.10 36.19
  Q 16.19 35.92 15.01 38.79
  A 1.36 1.36 0.0 0 0 16.04 40.64
  L 20.12 41.33
  A 0.31 0.30 -56.3 0 1 20.23 41.89
  C 16.40 44.26 15.04 46.82 14.99 51.64
  Q 14.89 60.99 15.28 67.98
  A 2.19 2.19 0.0 0 0 17.47 70.04
  L 22.74 70.04
  A 1.85 1.85 0.0 0 0 24.59 68.22
  Q 24.64 66.31 25.02 65.72
  A 0.54 0.51 -75.8 0 1 25.41 65.48
  Q 25.70 65.44 45.00 65.44
  Z
  M 246.29 37.52
  L 242.85 37.52
  A 0.79 0.78 -0.0 0 0 242.06 38.30
  L 242.06 42.50
  A 0.73 0.72 -0.0 0 0 242.79 43.22
  L 246.23 43.22
  A 0.61 0.61 0.0 0 1 246.84 43.82
  Q 246.95 47.81 246.86 58.50
  Q 246.83 62.90 248.27 65.28
  C 250.57 69.05 256.15 69.24 259.89 68.06
  A 0.45 0.44 -9.1 0 0 260.20 67.64
  L 260.20 62.84
  A 0.32 0.32 0.0 0 0 259.83 62.52
  C 253.46 63.59 253.86 60.69 253.88 55.23
  Q 253.91 43.90 253.91 43.82
  A 0.63 0.62 -88.0 0 1 254.53 43.23
  L 259.86 43.21
  A 0.41 0.41 0.0 0 0 260.26 42.80
  L 260.26 37.89
  A 0.36 0.36 0.0 0 0 259.90 37.53
  L 254.43 37.53
  A 0.54 0.53 0.0 0 1 253.89 37.00
  L 253.89 29.99
  A 0.40 0.40 0.0 0 0 253.49 29.59
  L 247.25 29.59
  A 0.37 0.37 0.0 0 0 246.88 29.96
  L 246.88 36.93
  A 0.59 0.59 0.0 0 1 246.29 37.52
  Z
  M 188.0894 36.4412
  A 16.32 15.54 -89.3 0 0 172.3512 52.5701
  A 16.32 15.54 -89.3 0 0 187.6906 69.0788
  A 16.32 15.54 -89.3 0 0 203.4288 52.9499
  A 16.32 15.54 -89.3 0 0 188.0894 36.4412
  Z
  M 217.46 40.27
  L 217.46 38.14
  A 0.62 0.62 0.0 0 0 216.84 37.52
  L 211.10 37.52
  A 0.67 0.67 0.0 0 0 210.43 38.19
  L 210.43 67.51
  A 0.49 0.49 0.0 0 0 210.92 68.00
  L 216.97 68.00
  A 0.50 0.49 -90.0 0 0 217.46 67.50
  Q 217.47 56.53 217.49 52.00
  C 217.51 46.93 219.60 42.06 225.50 42.69
  Q 230.30 43.21 230.58 48.76
  Q 230.83 53.72 230.67 67.47
  A 0.52 0.52 0.0 0 0 231.19 68.00
  L 237.21 68.00
  A 0.49 0.49 0.0 0 0 237.70 67.52
  Q 237.90 55.93 237.61 48.20
  C 237.39 42.45 234.45 37.50 228.29 36.71
  Q 222.17 35.92 217.90 40.45
  A 0.26 0.26 0.0 0 1 217.46 40.27
  Z
  M 303.0324 36.4406
  A 16.32 15.54 -89.5 0 0 287.3506 52.6244
  A 16.32 15.54 -89.5 0 0 302.7476 69.0794
  A 16.32 15.54 -89.5 0 0 318.4294 52.8956
  A 16.32 15.54 -89.5 0 0 303.0324 36.4406
  Z
  M 363.77 45.98
  Q 362.69 39.55 356.99 37.57
  C 351.08 35.53 340.34 36.84 339.45 44.69
  Q 338.66 51.68 345.35 53.95
  Q 350.04 55.54 354.29 56.46
  C 357.90 57.24 358.92 60.56 355.57 62.59
  C 352.00 64.76 346.48 63.42 345.24 58.93
  A 0.42 0.42 0.0 0 0 344.84 58.63
  L 338.57 58.63
  A 0.20 0.20 0.0 0 0 338.37 58.86
  C 339.59 68.67 350.55 70.38 358.38 67.60
  C 366.51 64.73 367.26 53.93 358.54 50.91
  Q 354.32 49.46 349.14 48.41
  Q 347.89 48.16 346.92 47.09
  C 343.28 43.05 354.83 38.55 357.06 45.92
  A 0.42 0.42 0.0 0 0 357.46 46.22
  L 363.57 46.22
  A 0.21 0.20 85.2 0 0 363.77 45.98
  Z
  M 274.43 41.14
  L 274.43 38.26
  A 0.76 0.75 90.0 0 0 273.68 37.50
  L 268.35 37.50
  A 0.93 0.92 -90.0 0 0 267.43 38.43
  L 267.43 67.60
  A 0.40 0.40 0.0 0 0 267.83 68.00
  L 274.10 68.00
  A 0.39 0.39 0.0 0 0 274.49 67.60
  Q 274.42 60.54 274.49 53.50
  Q 274.59 43.66 283.90 43.88
  A 0.40 0.40 0.0 0 0 284.31 43.48
  L 284.31 37.76
  A 0.45 0.44 3.7 0 0 283.92 37.32
  C 279.46 36.82 277.69 38.54 275.03 41.37
  A 0.35 0.34 -23.7 0 1 274.43 41.14
  Z"
/>
<rect fill="#f3f3f3" x="324.90" y="24.47" width="6.96" height="43.52" rx="0.47"/>
<path fill="#f3f3f3" d="
  M 136.61 46.87
  C 136.61 55.13 140.90 62.43 150.00 62.31
  C 155.21 62.24 159.20 59.40 160.67 54.52
  A 1.06 1.05 -81.4 0 1 161.68 53.77
  L 167.29 53.77
  A 0.65 0.65 0.0 0 1 167.92 54.58
  Q 164.30 68.50 150.73 68.80
  C 137.38 69.10 129.31 59.97 129.30 46.87
  C 129.30 33.78 137.36 24.64 150.71 24.93
  Q 164.28 25.22 167.91 39.14
  A 0.65 0.65 0.0 0 1 167.28 39.95
  L 161.67 39.95
  A 1.06 1.05 81.4 0 1 160.66 39.20
  C 159.19 34.33 155.20 31.49 149.99 31.43
  C 140.89 31.31 136.60 38.61 136.61 46.87
  Z"
/>
<path fill="#8b8b8b" d="
  M 44.99 25.02
  Q 54.74 25.02 59.26 25.91
  Q 64.27 26.90 66.04 32.00
  Q 67.73 36.86 68.18 38.71
  A 0.51 0.51 0.0 0 0 69.19 38.59
  L 69.19 36.93
  A 0.75 0.74 88.4 0 1 69.89 36.18
  Q 73.80 35.91 74.98 38.78
  A 1.36 1.36 0.0 0 1 73.95 40.63
  L 69.87 41.32
  A 0.31 0.30 56.3 0 0 69.76 41.88
  C 73.59 44.25 74.95 46.81 75.00 51.63
  Q 75.11 60.98 74.72 67.97
  A 2.19 2.19 0.0 0 1 72.53 70.03
  L 67.26 70.03
  A 1.85 1.85 0.0 0 1 65.41 68.22
  Q 65.36 66.31 64.98 65.72
  A 0.54 0.51 75.8 0 0 64.59 65.47
  Q 64.30 65.44 45.00 65.44
  Q 25.70 65.44 25.41 65.48
  A 0.54 0.51 -75.8 0 0 25.02 65.72
  Q 24.64 66.31 24.59 68.22
  A 1.85 1.85 0.0 0 1 22.74 70.04
  L 17.47 70.04
  A 2.19 2.19 0.0 0 1 15.28 67.98
  Q 14.89 60.99 14.99 51.64
  C 15.04 46.82 16.40 44.26 20.23 41.89
  A 0.31 0.30 -56.3 0 0 20.12 41.33
  L 16.04 40.64
  A 1.36 1.36 0.0 0 1 15.01 38.79
  Q 16.19 35.92 20.10 36.19
  A 0.75 0.74 -88.4 0 1 20.80 36.94
  L 20.80 38.60
  A 0.51 0.51 0.0 0 0 21.81 38.72
  Q 22.26 36.87 23.95 32.00
  Q 25.72 26.90 30.73 25.92
  Q 35.25 25.02 44.99 25.02
  Z
  M 25.26 39.72
  L 64.76 39.72
  A 0.21 0.21 0.0 0 0 64.97 39.51
  L 64.97 39.20
  A 11.06 10.29 90.0 0 0 54.68 28.14
  L 35.34 28.14
  A 11.06 10.29 90.0 0 0 25.05 39.20
  L 25.05 39.51
  A 0.21 0.21 0.0 0 0 25.26 39.72
  Z
  M 18.84 46.04
  L 17.83 49.27
  A 1.15 1.15 0.0 0 0 18.58 50.71
  L 18.75 50.76
  A 9.75 2.81 17.4 0 0 28.90 51.00
  L 28.92 50.94
  A 9.75 2.81 17.4 0 0 20.45 45.34
  L 20.28 45.29
  A 1.15 1.15 0.0 0 0 18.84 46.04
  Z
  M 72.20 49.23
  L 71.21 46.06
  A 1.18 1.18 0.0 0 0 69.73 45.29
  L 69.55 45.34
  A 9.77 2.80 -17.4 0 0 61.06 50.94
  L 61.09 51.01
  A 9.77 2.80 -17.4 0 0 71.25 50.76
  L 71.43 50.71
  A 1.18 1.18 0.0 0 0 72.20 49.23
  Z"
/>
<path fill="#161719" d="
  M 25.26 39.72
  A 0.21 0.21 0.0 0 1 25.05 39.51
  L 25.05 39.20
  A 11.06 10.29 -90.0 0 1 35.34 28.14
  L 54.68 28.14
  A 11.06 10.29 -90.0 0 1 64.97 39.20
  L 64.97 39.51
  A 0.21 0.21 0.0 0 1 64.76 39.72
  L 25.26 39.72
  Z"
/>
<path fill="#f3f3f3" d="
  M 246.88 36.93
  L 246.88 29.96
  A 0.37 0.37 0.0 0 1 247.25 29.59
  L 253.49 29.59
  A 0.40 0.40 0.0 0 1 253.89 29.99
  L 253.89 37.00
  A 0.54 0.53 -0.0 0 0 254.43 37.53
  L 259.90 37.53
  A 0.36 0.36 0.0 0 1 260.26 37.89
  L 260.26 42.80
  A 0.41 0.41 0.0 0 1 259.86 43.21
  L 254.53 43.23
  A 0.63 0.62 -88.0 0 0 253.91 43.82
  Q 253.91 43.90 253.88 55.23
  C 253.86 60.69 253.46 63.59 259.83 62.52
  A 0.32 0.32 0.0 0 1 260.20 62.84
  L 260.20 67.64
  A 0.45 0.44 -9.1 0 1 259.89 68.06
  C 256.15 69.24 250.57 69.05 248.27 65.28
  Q 246.83 62.90 246.86 58.50
  Q 246.95 47.81 246.84 43.82
  A 0.61 0.61 0.0 0 0 246.23 43.22
  L 242.79 43.22
  A 0.73 0.72 0.0 0 1 242.06 42.50
  L 242.06 38.30
  A 0.79 0.78 -0.0 0 1 242.85 37.52
  L 246.29 37.52
  A 0.59 0.59 0.0 0 0 246.88 36.93
  Z"
/>
<path fill="#f3f3f3" d="
  M 188.0894 36.4412
  A 16.32 15.54 -89.3 0 1 203.4288 52.9499
  A 16.32 15.54 -89.3 0 1 187.6906 69.0788
  A 16.32 15.54 -89.3 0 1 172.3512 52.5701
  A 16.32 15.54 -89.3 0 1 188.0894 36.4412
  Z
  M 187.8900 42.4500
  A 10.31 8.29 -90.0 0 0 179.6000 52.7600
  A 10.31 8.29 -90.0 0 0 187.8900 63.0700
  A 10.31 8.29 -90.0 0 0 196.1800 52.7600
  A 10.31 8.29 -90.0 0 0 187.8900 42.4500
  Z"
/>
<path fill="#f3f3f3" d="
  M 217.46 40.27
  A 0.26 0.26 0.0 0 0 217.90 40.45
  Q 222.17 35.92 228.29 36.71
  C 234.45 37.50 237.39 42.45 237.61 48.20
  Q 237.90 55.93 237.70 67.52
  A 0.49 0.49 0.0 0 1 237.21 68.00
  L 231.19 68.00
  A 0.52 0.52 0.0 0 1 230.67 67.47
  Q 230.83 53.72 230.58 48.76
  Q 230.30 43.21 225.50 42.69
  C 219.60 42.06 217.51 46.93 217.49 52.00
  Q 217.47 56.53 217.46 67.50
  A 0.50 0.49 -90.0 0 1 216.97 68.00
  L 210.92 68.00
  A 0.49 0.49 0.0 0 1 210.43 67.51
  L 210.43 38.19
  A 0.67 0.67 0.0 0 1 211.10 37.52
  L 216.84 37.52
  A 0.62 0.62 0.0 0 1 217.46 38.14
  L 217.46 40.27
  Z"
/>
<path fill="#f3f3f3" d="
  M 303.0324 36.4406
  A 16.32 15.54 -89.5 0 1 318.4294 52.8956
  A 16.32 15.54 -89.5 0 1 302.7476 69.0794
  A 16.32 15.54 -89.5 0 1 287.3506 52.6244
  A 16.32 15.54 -89.5 0 1 303.0324 36.4406
  Z
  M 302.8900 42.4400
  A 10.32 8.28 -90.0 0 0 294.6100 52.7600
  A 10.32 8.28 -90.0 0 0 302.8900 63.0800
  A 10.32 8.28 -90.0 0 0 311.1700 52.7600
  A 10.32 8.28 -90.0 0 0 302.8900 42.4400
  Z"
/>
<path fill="#f3f3f3" d="
  M 363.77 45.98
  A 0.21 0.20 85.2 0 1 363.57 46.22
  L 357.46 46.22
  A 0.42 0.42 0.0 0 1 357.06 45.92
  C 354.83 38.55 343.28 43.05 346.92 47.09
  Q 347.89 48.16 349.14 48.41
  Q 354.32 49.46 358.54 50.91
  C 367.26 53.93 366.51 64.73 358.38 67.60
  C 350.55 70.38 339.59 68.67 338.37 58.86
  A 0.20 0.20 0.0 0 1 338.57 58.63
  L 344.84 58.63
  A 0.42 0.42 0.0 0 1 345.24 58.93
  C 346.48 63.42 352.00 64.76 355.57 62.59
  C 358.92 60.56 357.90 57.24 354.29 56.46
  Q 350.04 55.54 345.35 53.95
  Q 338.66 51.68 339.45 44.69
  C 340.34 36.84 351.08 35.53 356.99 37.57
  Q 362.69 39.55 363.77 45.98
  Z"
/>
<path fill="#f3f3f3" d="
  M 275.03 41.37
  C 277.69 38.54 279.46 36.82 283.92 37.32
  A 0.45 0.44 3.7 0 1 284.31 37.76
  L 284.31 43.48
  A 0.40 0.40 0.0 0 1 283.90 43.88
  Q 274.59 43.66 274.49 53.50
  Q 274.42 60.54 274.49 67.60
  A 0.39 0.39 0.0 0 1 274.10 68.00
  L 267.83 68.00
  A 0.40 0.40 0.0 0 1 267.43 67.60
  L 267.43 38.43
  A 0.93 0.92 -90.0 0 1 268.35 37.50
  L 273.68 37.50
  A 0.76 0.75 90.0 0 1 274.43 38.26
  L 274.43 41.14
  A 0.35 0.34 -23.7 0 0 275.03 41.37
  Z"
/>
<ellipse fill="#161719" cx="0.00" cy="0.00" transform="translate(187.89,52.76) rotate(-90.0)" rx="10.31" ry="8.29"/>
<ellipse fill="#161719" cx="0.00" cy="0.00" transform="translate(302.89,52.76) rotate(-90.0)" rx="10.32" ry="8.28"/>
<path fill="#161719" d="
  M 18.84 46.04
  A 1.15 1.15 0.0 0 1 20.28 45.29
  L 20.45 45.34
  A 9.75 2.81 17.4 0 1 28.92 50.94
  L 28.90 51.00
  A 9.75 2.81 17.4 0 1 18.75 50.76
  L 18.58 50.71
  A 1.15 1.15 0.0 0 1 17.83 49.27
  L 18.84 46.04
  Z"
/>
<path fill="#161719" d="
  M 72.20 49.23
  A 1.18 1.18 0.0 0 1 71.43 50.71
  L 71.25 50.76
  A 9.77 2.80 -17.4 0 1 61.09 51.01
  L 61.06 50.94
  A 9.77 2.80 -17.4 0 1 69.55 45.34
  L 69.73 45.29
  A 1.18 1.18 0.0 0 1 71.21 46.06
  L 72.20 49.23
  Z"
/>
</svg>
