<?xml version="1.0" encoding="UTF-8" standalone="no"?>
<!DOCTYPE svg PUBLIC "-//W3C//DTD SVG 1.1//EN" "http://www.w3.org/Graphics/SVG/1.1/DTD/svg11.dtd">
<svg xmlns="http://www.w3.org/2000/svg" version="1.1" viewBox="0.00 0.00 109.00 72.00">
<g stroke-width="2.00" fill="none" stroke-linecap="butt">
<path stroke="#4d4d4d" vector-effect="non-scaling-stroke" d="
  M 44.28 25.49
  Q 45.13 26.69 45.51 27.25
  A 3.25 3.24 -46.9 0 1 45.62 30.68
  L 44.28 33.01
  A 2.00 2.00 0.0 0 0 44.84 35.64
  Q 46.16 36.59 46.86 36.43
  Q 47.21 36.36 48.44 34.99
  C 52.35 30.65 51.65 26.96 48.38 22.37
  Q 47.52 21.17 47.15 20.61
  A 3.25 3.24 -46.9 0 1 47.04 17.18
  L 48.38 14.85
  A 2.00 2.00 0.0 0 0 47.82 12.22
  Q 46.50 11.27 45.80 11.43
  Q 45.45 11.50 44.22 12.87
  C 40.31 17.21 41.01 20.90 44.28 25.49"
/>
<path stroke="#4d4d4d" vector-effect="non-scaling-stroke" d="
  M 56.83 11.71
  C 53.38 15.19 51.36 19.36 54.78 23.89
  Q 55.00 24.17 57.33 27.34
  A 2.75 2.73 42.2 0 1 57.49 30.35
  C 56.10 32.71 54.88 33.83 56.70 36.05
  A 1.29 1.28 52.4 0 0 58.45 36.28
  Q 61.65 33.98 62.68 29.68
  C 63.46 26.40 61.08 23.95 58.82 21.11
  A 3.20 3.18 -54.1 0 1 58.33 17.98
  C 59.20 15.68 62.04 12.57 57.62 11.49
  A 0.85 0.83 29.0 0 0 56.83 11.71"
/>
<path stroke="#4d4d4d" vector-effect="non-scaling-stroke" d="
  M 52.52 68.06
  Q 56.54 68.06 57.95 67.63
  Q 66.06 65.15 70.02 59.35
  Q 79.53 45.42 68.62 31.94
  A 1.97 1.86 53.2 0 0 66.05 31.49
  C 63.11 33.52 67.12 38.14 68.25 40.36
  A 1.23 1.09 69.4 0 1 67.59 42.07
  Q 67.47 42.10 67.01 41.96
  Q 59.53 39.68 52.50 39.69
  Q 45.47 39.69 37.99 41.98
  Q 37.53 42.12 37.41 42.09
  A 1.23 1.09 -69.5 0 1 36.74 40.39
  C 37.87 38.16 41.87 33.54 38.93 31.51
  A 1.97 1.86 -53.3 0 0 36.36 31.97
  Q 25.47 45.46 35.00 59.38
  Q 38.97 65.17 47.09 67.64
  Q 48.50 68.07 52.52 68.06"
/>
<path stroke="#4d4d4d" vector-effect="non-scaling-stroke" d="
  M 48.79 62.87
  A 0.54 0.54 0.0 0 0 49.29 62.15
  L 45.45 51.63
  A 4.16 4.15 -10.1 0 0 41.55 48.91
  L 38.16 48.91
  A 1.91 1.91 0.0 0 0 36.34 51.40
  C 37.78 55.88 43.28 62.96 48.79 62.87"
/>
<path stroke="#4d4d4d" vector-effect="non-scaling-stroke" d="
  M 56.26 62.78
  C 61.75 62.88 67.25 55.84 68.69 51.37
  A 1.90 1.90 0.0 0 0 66.88 48.89
  L 63.50 48.88
  A 4.14 4.14 0.0 0 0 59.61 51.59
  L 55.76 62.07
  A 0.54 0.54 0.0 0 0 56.26 62.78"
/>
</g>
<path fill="#999999" d="
  M 44.28 25.49
  C 41.01 20.90 40.31 17.21 44.22 12.87
  Q 45.45 11.50 45.80 11.43
  Q 46.50 11.27 47.82 12.22
  A 2.00 2.00 0.0 0 1 48.38 14.85
  L 47.04 17.18
  A 3.25 3.24 -46.9 0 0 47.15 20.61
  Q 47.52 21.17 48.38 22.37
  C 51.65 26.96 52.35 30.65 48.44 34.99
  Q 47.21 36.36 46.86 36.43
  Q 46.16 36.59 44.84 35.64
  A 2.00 2.00 0.0 0 1 44.28 33.01
  L 45.62 30.68
  A 3.25 3.24 -46.9 0 0 45.51 27.25
  Q 45.13 26.69 44.28 25.49
  Z"
/>
<path fill="#999999" d="
  M 57.62 11.49
  C 62.04 12.57 59.20 15.68 58.33 17.98
  A 3.20 3.18 -54.1 0 0 58.82 21.11
  C 61.08 23.95 63.46 26.40 62.68 29.68
  Q 61.65 33.98 58.45 36.28
  A 1.29 1.28 52.4 0 1 56.70 36.05
  C 54.88 33.83 56.10 32.71 57.49 30.35
  A 2.75 2.73 42.2 0 0 57.33 27.34
  Q 55.00 24.17 54.78 23.89
  C 51.36 19.36 53.38 15.19 56.83 11.71
  A 0.85 0.83 29.0 0 1 57.62 11.49
  Z"
/>
<path fill="#999999" d="
  M 52.50 39.69
  Q 59.53 39.68 67.01 41.96
  Q 67.47 42.10 67.59 42.07
  A 1.23 1.09 69.4 0 0 68.25 40.36
  C 67.12 38.14 63.11 33.52 66.05 31.49
  A 1.97 1.86 53.2 0 1 68.62 31.94
  Q 79.53 45.42 70.02 59.35
  Q 66.06 65.15 57.95 67.63
  Q 56.54 68.06 52.52 68.06
  Q 48.50 68.07 47.09 67.64
  Q 38.97 65.17 35.00 59.38
  Q 25.47 45.46 36.36 31.97
  A 1.97 1.86 -53.3 0 1 38.93 31.51
  C 41.87 33.54 37.87 38.16 36.74 40.39
  A 1.23 1.09 -69.5 0 0 37.41 42.09
  Q 37.53 42.12 37.99 41.98
  Q 45.47 39.69 52.50 39.69
  Z
  M 48.79 62.87
  A 0.54 0.54 0.0 0 0 49.29 62.15
  L 45.45 51.63
  A 4.16 4.15 -10.1 0 0 41.55 48.91
  L 38.16 48.91
  A 1.91 1.91 0.0 0 0 36.34 51.40
  C 37.78 55.88 43.28 62.96 48.79 62.87
  Z
  M 56.26 62.78
  C 61.75 62.88 67.25 55.84 68.69 51.37
  A 1.90 1.90 0.0 0 0 66.88 48.89
  L 63.50 48.88
  A 4.14 4.14 0.0 0 0 59.61 51.59
  L 55.76 62.07
  A 0.54 0.54 0.0 0 0 56.26 62.78
  Z"
/>
<path fill="none" d="
  M 48.79 62.87
  C 43.28 62.96 37.78 55.88 36.34 51.40
  A 1.91 1.91 0.0 0 1 38.16 48.91
  L 41.55 48.91
  A 4.16 4.15 -10.1 0 1 45.45 51.63
  L 49.29 62.15
  A 0.54 0.54 0.0 0 1 48.79 62.87
  Z"
/>
<path fill="none" d="
  M 56.26 62.78
  A 0.54 0.54 0.0 0 1 55.76 62.07
  L 59.61 51.59
  A 4.14 4.14 0.0 0 1 63.50 48.88
  L 66.88 48.89
  A 1.90 1.90 0.0 0 1 68.69 51.37
  C 67.25 55.84 61.75 62.88 56.26 62.78
  Z"
/>
</svg>
