<?xml version="1.0" encoding="UTF-8" standalone="no"?>
<!DOCTYPE svg PUBLIC "-//W3C//DTD SVG 1.1//EN" "http://www.w3.org/Graphics/SVG/1.1/DTD/svg11.dtd">
<svg xmlns="http://www.w3.org/2000/svg" version="1.1" viewBox="0.00 0.00 175.00 175.00">
<g stroke-width="2.00" fill="none" stroke-linecap="butt">
<path stroke="#3f4041" vector-effect="non-scaling-stroke" d="
  M 65.81 33.26
  Q 63.93 35.14 61.54 37.51
  C 56.72 42.29 54.07 44.34 54.20 51.46
  Q 54.44 64.89 54.26 68.48
  Q 53.93 75.02 55.36 77.39
  Q 57.61 81.10 63.26 81.17
  Q 84.93 81.43 106.78 81.11
  Q 109.12 81.07 111.29 78.91
  Q 113.46 76.74 113.51 74.40
  Q 113.91 52.55 113.73 30.88
  Q 113.68 25.23 109.98 22.97
  Q 107.61 21.53 101.07 21.84
  Q 97.48 22.00 84.05 21.72
  C 76.93 21.56 74.87 24.20 70.08 29.00
  Q 67.70 31.38 65.81 33.26"
/>
<path stroke="#3f4041" vector-effect="non-scaling-stroke" d="
  M 59.13 155.05
  Q 61.00 155.06 61.35 154.98
  A 0.75 0.74 3.6 0 0 61.89 154.51
  L 70.28 131.99
  A 0.82 0.81 -79.7 0 0 69.52 130.89
  L 67.21 130.89
  A 1.61 1.60 -79.7 0 0 65.71 131.94
  Q 62.62 140.23 59.64 148.69
  Q 59.53 148.98 59.15 148.98
  Q 58.77 148.98 58.66 148.68
  Q 55.74 140.21 52.71 131.90
  A 1.61 1.60 80.1 0 0 51.21 130.84
  L 48.90 130.82
  A 0.82 0.81 80.1 0 0 48.14 131.91
  L 56.37 154.49
  A 0.75 0.74 -3.2 0 0 56.91 154.96
  Q 57.26 155.04 59.13 155.05"
/>
<path stroke="#3f4041" vector-effect="non-scaling-stroke" d="
  M 116.48 152.12
  Q 113.99 152.17 114.03 149.09
  Q 114.11 142.87 114.14 141.63
  A 0.74 0.74 0.0 0 1 114.88 140.90
  L 116.73 140.90
  A 1.04 1.04 0.0 0 0 117.77 139.86
  L 117.77 138.74
  A 1.02 1.02 0.0 0 0 116.75 137.72
  L 114.79 137.72
  A 0.68 0.68 0.0 0 1 114.11 137.04
  L 114.11 134.17
  A 1.05 1.05 0.0 0 0 113.06 133.12
  L 111.36 133.12
  A 1.26 1.26 0.0 0 0 110.10 134.38
  L 110.10 136.87
  A 0.65 0.65 0.0 0 1 109.62 137.50
  L 107.97 137.96
  A 1.47 1.47 0.0 0 0 108.31 140.84
  Q 108.94 140.88 109.64 141.28
  A 1.14 1.13 -73.4 0 1 110.20 142.33
  Q 109.83 147.61 110.33 152.02
  Q 110.53 153.83 112.02 154.59
  Q 114.48 155.84 116.87 154.99
  A 1.50 1.43 -54.1 0 0 116.48 152.12"
/>
<path stroke="#3f4041" vector-effect="non-scaling-stroke" d="
  M 85.59 149.58
  C 82.49 149.45 82.36 151.78 79.88 152.19
  Q 76.29 152.78 74.43 148.87
  A 1.05 1.04 77.4 0 1 75.37 147.38
  L 86.14 147.38
  A 0.70 0.70 0.0 0 0 86.83 146.77
  C 88.36 134.57 70.84 134.09 70.17 145.22
  Q 69.82 150.93 72.99 153.46
  C 76.84 156.55 84.72 156.52 86.45 150.79
  A 0.95 0.94 9.8 0 0 85.59 149.58"
/>
<path stroke="#3f4041" vector-effect="non-scaling-stroke" d="
  M 93.41 154.39
  L 93.41 144.59
  A 3.83 3.83 0.0 0 1 96.84 140.78
  L 97.35 140.73
  A 3.13 3.13 0.0 0 1 100.81 143.84
  L 100.81 154.45
  A 0.60 0.60 0.0 0 0 101.41 155.05
  L 104.33 155.05
  A 0.63 0.63 0.0 0 0 104.96 154.41
  Q 104.88 149.10 104.91 146.36
  C 104.96 140.62 103.25 136.26 96.86 137.46
  C 96.01 137.62 94.93 138.37 94.30 138.62
  A 0.80 0.79 56.5 0 1 93.45 138.44
  Q 92.29 137.30 89.82 137.74
  A 0.70 0.70 0.0 0 0 89.25 138.43
  L 89.25 154.33
  A 0.71 0.71 0.0 0 0 89.96 155.04
  L 92.76 155.04
  A 0.65 0.65 0.0 0 0 93.41 154.39"
/>
<path stroke="#3f4041" vector-effect="non-scaling-stroke" d="
  M 61.34 48.48
  L 67.38 48.48
  A 3.49 3.47 -67.2 0 0 69.83 47.47
  Q 74.97 42.31 80.72 36.06
  C 82.54 34.08 84.50 34.92 86.70 34.89
  Q 99.59 34.75 105.63 35.02
  A 1.85 1.85 0.0 0 0 107.57 33.17
  L 107.57 30.38
  A 2.45 2.44 -89.8 0 0 105.15 27.93
  Q 97.41 27.86 84.51 27.92
  Q 80.41 27.94 77.29 31.04
  Q 75.92 32.39 75.24 33.02
  Q 68.45 39.25 60.85 47.36
  A 0.67 0.67 0.0 0 0 61.34 48.48"
/>
<path stroke="#3f4041" vector-effect="non-scaling-stroke" d="
  M 61.06 54.54
  A 0.56 0.55 2.5 0 0 60.46 55.08
  Q 60.33 62.00 60.43 72.54
  Q 60.45 75.04 63.26 75.04
  Q 101.67 74.98 104.77 74.96
  Q 107.52 74.94 107.47 71.82
  Q 107.38 65.56 107.50 55.49
  A 0.58 0.57 89.5 0 0 106.92 54.91
  Q 85.20 55.17 67.10 55.13
  C 64.99 55.12 62.97 54.66 61.06 54.54"
/>
<path stroke="#3f4041" vector-effect="non-scaling-stroke" d="
  M 74.71 144.44
  L 82.69 144.50
  A 0.17 0.17 0.0 0 0 82.86 144.33
  L 82.86 144.24
  A 3.97 3.62 0.4 0 0 78.91 140.59
  L 78.53 140.59
  A 3.97 3.62 0.4 0 0 74.54 144.18
  L 74.54 144.27
  A 0.17 0.17 0.0 0 0 74.71 144.44"
/>
</g>
<path fill="#161719" d="
  M 175.00 0.00
  L 175.00 175.00
  L 0.00 175.00
  L 0.00 0.00
  L 175.00 0.00
  Z
  M 65.81 33.26
  Q 63.93 35.14 61.54 37.51
  C 56.72 42.29 54.07 44.34 54.20 51.46
  Q 54.44 64.89 54.26 68.48
  Q 53.93 75.02 55.36 77.39
  Q 57.61 81.10 63.26 81.17
  Q 84.93 81.43 106.78 81.11
  Q 109.12 81.07 111.29 78.91
  Q 113.46 76.74 113.51 74.40
  Q 113.91 52.55 113.73 30.88
  Q 113.68 25.23 109.98 22.97
  Q 107.61 21.53 101.07 21.84
  Q 97.48 22.00 84.05 21.72
  C 76.93 21.56 74.87 24.20 70.08 29.00
  Q 67.70 31.38 65.81 33.26
  Z
  M 59.13 155.05
  Q 61.00 155.06 61.35 154.98
  A 0.75 0.74 3.6 0 0 61.89 154.51
  L 70.28 131.99
  A 0.82 0.81 -79.7 0 0 69.52 130.89
  L 67.21 130.89
  A 1.61 1.60 -79.7 0 0 65.71 131.94
  Q 62.62 140.23 59.64 148.69
  Q 59.53 148.98 59.15 148.98
  Q 58.77 148.98 58.66 148.68
  Q 55.74 140.21 52.71 131.90
  A 1.61 1.60 80.1 0 0 51.21 130.84
  L 48.90 130.82
  A 0.82 0.81 80.1 0 0 48.14 131.91
  L 56.37 154.49
  A 0.75 0.74 -3.2 0 0 56.91 154.96
  Q 57.26 155.04 59.13 155.05
  Z
  M 116.48 152.12
  Q 113.99 152.17 114.03 149.09
  Q 114.11 142.87 114.14 141.63
  A 0.74 0.74 0.0 0 1 114.88 140.90
  L 116.73 140.90
  A 1.04 1.04 0.0 0 0 117.77 139.86
  L 117.77 138.74
  A 1.02 1.02 0.0 0 0 116.75 137.72
  L 114.79 137.72
  A 0.68 0.68 0.0 0 1 114.11 137.04
  L 114.11 134.17
  A 1.05 1.05 0.0 0 0 113.06 133.12
  L 111.36 133.12
  A 1.26 1.26 0.0 0 0 110.10 134.38
  L 110.10 136.87
  A 0.65 0.65 0.0 0 1 109.62 137.50
  L 107.97 137.96
  A 1.47 1.47 0.0 0 0 108.31 140.84
  Q 108.94 140.88 109.64 141.28
  A 1.14 1.13 -73.4 0 1 110.20 142.33
  Q 109.83 147.61 110.33 152.02
  Q 110.53 153.83 112.02 154.59
  Q 114.48 155.84 116.87 154.99
  A 1.50 1.43 -54.1 0 0 116.48 152.12
  Z
  M 85.59 149.58
  C 82.49 149.45 82.36 151.78 79.88 152.19
  Q 76.29 152.78 74.43 148.87
  A 1.05 1.04 77.4 0 1 75.37 147.38
  L 86.14 147.38
  A 0.70 0.70 0.0 0 0 86.83 146.77
  C 88.36 134.57 70.84 134.09 70.17 145.22
  Q 69.82 150.93 72.99 153.46
  C 76.84 156.55 84.72 156.52 86.45 150.79
  A 0.95 0.94 9.8 0 0 85.59 149.58
  Z
  M 93.41 154.39
  L 93.41 144.59
  A 3.83 3.83 0.0 0 1 96.84 140.78
  L 97.35 140.73
  A 3.13 3.13 0.0 0 1 100.81 143.84
  L 100.81 154.45
  A 0.60 0.60 0.0 0 0 101.41 155.05
  L 104.33 155.05
  A 0.63 0.63 0.0 0 0 104.96 154.41
  Q 104.88 149.10 104.91 146.36
  C 104.96 140.62 103.25 136.26 96.86 137.46
  C 96.01 137.62 94.93 138.37 94.30 138.62
  A 0.80 0.79 56.5 0 1 93.45 138.44
  Q 92.29 137.30 89.82 137.74
  A 0.70 0.70 0.0 0 0 89.25 138.43
  L 89.25 154.33
  A 0.71 0.71 0.0 0 0 89.96 155.04
  L 92.76 155.04
  A 0.65 0.65 0.0 0 0 93.41 154.39
  Z"
/>
<path fill="#686868" d="
  M 111.29 78.91
  Q 109.12 81.07 106.78 81.11
  Q 84.93 81.43 63.26 81.17
  Q 57.61 81.10 55.36 77.39
  Q 53.93 75.02 54.26 68.48
  Q 54.44 64.89 54.20 51.46
  C 54.07 44.34 56.72 42.29 61.54 37.51
  Q 63.93 35.14 65.81 33.26
  Q 67.70 31.38 70.08 29.00
  C 74.87 24.20 76.93 21.56 84.05 21.72
  Q 97.48 22.00 101.07 21.84
  Q 107.61 21.53 109.98 22.97
  Q 113.68 25.23 113.73 30.88
  Q 113.91 52.55 113.51 74.40
  Q 113.46 76.74 111.29 78.91
  Z
  M 61.34 48.48
  L 67.38 48.48
  A 3.49 3.47 -67.2 0 0 69.83 47.47
  Q 74.97 42.31 80.72 36.06
  C 82.54 34.08 84.50 34.92 86.70 34.89
  Q 99.59 34.75 105.63 35.02
  A 1.85 1.85 0.0 0 0 107.57 33.17
  L 107.57 30.38
  A 2.45 2.44 -89.8 0 0 105.15 27.93
  Q 97.41 27.86 84.51 27.92
  Q 80.41 27.94 77.29 31.04
  Q 75.92 32.39 75.24 33.02
  Q 68.45 39.25 60.85 47.36
  A 0.67 0.67 0.0 0 0 61.34 48.48
  Z
  M 61.06 54.54
  A 0.56 0.55 2.5 0 0 60.46 55.08
  Q 60.33 62.00 60.43 72.54
  Q 60.45 75.04 63.26 75.04
  Q 101.67 74.98 104.77 74.96
  Q 107.52 74.94 107.47 71.82
  Q 107.38 65.56 107.50 55.49
  A 0.58 0.57 89.5 0 0 106.92 54.91
  Q 85.20 55.17 67.10 55.13
  C 64.99 55.12 62.97 54.66 61.06 54.54
  Z"
/>
<path fill="#161719" d="
  M 61.34 48.48
  A 0.67 0.67 0.0 0 1 60.85 47.36
  Q 68.45 39.25 75.24 33.02
  Q 75.92 32.39 77.29 31.04
  Q 80.41 27.94 84.51 27.92
  Q 97.41 27.86 105.15 27.93
  A 2.45 2.44 -89.8 0 1 107.57 30.38
  L 107.57 33.17
  A 1.85 1.85 0.0 0 1 105.63 35.02
  Q 99.59 34.75 86.70 34.89
  C 84.50 34.92 82.54 34.08 80.72 36.06
  Q 74.97 42.31 69.83 47.47
  A 3.49 3.47 -67.2 0 1 67.38 48.48
  L 61.34 48.48
  Z"
/>
<path fill="#161719" d="
  M 61.06 54.54
  C 62.97 54.66 64.99 55.12 67.10 55.13
  Q 85.20 55.17 106.92 54.91
  A 0.58 0.57 89.5 0 1 107.50 55.49
  Q 107.38 65.56 107.47 71.82
  Q 107.52 74.94 104.77 74.96
  Q 101.67 74.98 63.26 75.04
  Q 60.45 75.04 60.43 72.54
  Q 60.33 62.00 60.46 55.08
  A 0.56 0.55 2.5 0 1 61.06 54.54
  Z"
/>
<path fill="#686868" d="
  M 59.15 148.98
  Q 59.53 148.98 59.64 148.69
  Q 62.62 140.23 65.71 131.94
  A 1.61 1.60 -79.7 0 1 67.21 130.89
  L 69.52 130.89
  A 0.82 0.81 -79.7 0 1 70.28 131.99
  L 61.89 154.51
  A 0.75 0.74 3.6 0 1 61.35 154.98
  Q 61.00 155.06 59.13 155.05
  Q 57.26 155.04 56.91 154.96
  A 0.75 0.74 -3.2 0 1 56.37 154.49
  L 48.14 131.91
  A 0.82 0.81 80.1 0 1 48.90 130.82
  L 51.21 130.84
  A 1.61 1.60 80.1 0 1 52.71 131.90
  Q 55.74 140.21 58.66 148.68
  Q 58.77 148.98 59.15 148.98
  Z"
/>
<path fill="#686868" d="
  M 116.48 152.12
  A 1.50 1.43 -54.1 0 1 116.87 154.99
  Q 114.48 155.84 112.02 154.59
  Q 110.53 153.83 110.33 152.02
  Q 109.83 147.61 110.20 142.33
  A 1.14 1.13 -73.4 0 0 109.64 141.28
  Q 108.94 140.88 108.31 140.84
  A 1.47 1.47 0.0 0 1 107.97 137.96
  L 109.62 137.50
  A 0.65 0.65 0.0 0 0 110.10 136.87
  L 110.10 134.38
  A 1.26 1.26 0.0 0 1 111.36 133.12
  L 113.06 133.12
  A 1.05 1.05 0.0 0 1 114.11 134.17
  L 114.11 137.04
  A 0.68 0.68 0.0 0 0 114.79 137.72
  L 116.75 137.72
  A 1.02 1.02 0.0 0 1 117.77 138.74
  L 117.77 139.86
  A 1.04 1.04 0.0 0 1 116.73 140.90
  L 114.88 140.90
  A 0.74 0.74 0.0 0 0 114.14 141.63
  Q 114.11 142.87 114.03 149.09
  Q 113.99 152.17 116.48 152.12
  Z"
/>
<path fill="#686868" d="
  M 85.59 149.58
  A 0.95 0.94 9.8 0 1 86.45 150.79
  C 84.72 156.52 76.84 156.55 72.99 153.46
  Q 69.82 150.93 70.17 145.22
  C 70.84 134.09 88.36 134.57 86.83 146.77
  A 0.70 0.70 0.0 0 1 86.14 147.38
  L 75.37 147.38
  A 1.05 1.04 77.4 0 0 74.43 148.87
  Q 76.29 152.78 79.88 152.19
  C 82.36 151.78 82.49 149.45 85.59 149.58
  Z
  M 74.71 144.44
  L 82.69 144.50
  A 0.17 0.17 0.0 0 0 82.86 144.33
  L 82.86 144.24
  A 3.97 3.62 0.4 0 0 78.91 140.59
  L 78.53 140.59
  A 3.97 3.62 0.4 0 0 74.54 144.18
  L 74.54 144.27
  A 0.17 0.17 0.0 0 0 74.71 144.44
  Z"
/>
<path fill="#686868" d="
  M 93.41 154.39
  A 0.65 0.65 0.0 0 1 92.76 155.04
  L 89.96 155.04
  A 0.71 0.71 0.0 0 1 89.25 154.33
  L 89.25 138.43
  A 0.70 0.70 0.0 0 1 89.82 137.74
  Q 92.29 137.30 93.45 138.44
  A 0.80 0.79 56.5 0 0 94.30 138.62
  C 94.93 138.37 96.01 137.62 96.86 137.46
  C 103.25 136.26 104.96 140.62 104.91 146.36
  Q 104.88 149.10 104.96 154.41
  A 0.63 0.63 0.0 0 1 104.33 155.05
  L 101.41 155.05
  A 0.60 0.60 0.0 0 1 100.81 154.45
  L 100.81 143.84
  A 3.13 3.13 0.0 0 0 97.35 140.73
  L 96.84 140.78
  A 3.83 3.83 0.0 0 0 93.41 144.59
  L 93.41 154.39
  Z"
/>
<path fill="#161719" d="
  M 74.71 144.44
  A 0.17 0.17 0.0 0 1 74.54 144.27
  L 74.54 144.18
  A 3.97 3.62 0.4 0 1 78.53 140.59
  L 78.91 140.59
  A 3.97 3.62 0.4 0 1 82.86 144.24
  L 82.86 144.33
  A 0.17 0.17 0.0 0 1 82.69 144.50
  L 74.71 144.44
  Z"
/>
</svg>
