<?xml version="1.0" encoding="UTF-8" standalone="no"?>
<!DOCTYPE svg PUBLIC "-//W3C//DTD SVG 1.1//EN" "http://www.w3.org/Graphics/SVG/1.1/DTD/svg11.dtd">
<svg xmlns="http://www.w3.org/2000/svg" version="1.1" viewBox="0.00 0.00 109.00 106.00">
<g stroke-width="2.00" fill="none" stroke-linecap="butt">
<path stroke="#fd3e3c" vector-effect="non-scaling-stroke" d="
  M 44.28 25.49
  Q 45.13 26.69 45.51 27.25
  A 3.25 3.24 -46.9 0 1 45.62 30.68
  L 44.28 33.01
  A 2.00 2.00 0.0 0 0 44.84 35.64
  Q 46.16 36.59 46.86 36.43
  Q 47.21 36.36 48.44 34.99
  C 52.35 30.65 51.65 26.96 48.38 22.37
  Q 47.52 21.17 47.15 20.61
  A 3.25 3.24 -46.9 0 1 47.04 17.18
  L 48.38 14.85
  A 2.00 2.00 0.0 0 0 47.82 12.22
  Q 46.50 11.27 45.80 11.43
  Q 45.45 11.50 44.22 12.87
  C 40.31 17.21 41.01 20.90 44.28 25.49"
/>
<path stroke="#4d4d4d" vector-effect="non-scaling-stroke" d="
  M 56.83 11.71
  C 53.38 15.19 51.36 19.36 54.78 23.89
  Q 55.00 24.17 57.33 27.34
  A 2.75 2.73 42.2 0 1 57.49 30.35
  C 56.10 32.71 54.88 33.83 56.70 36.05
  A 1.29 1.28 52.4 0 0 58.45 36.28
  Q 61.65 33.98 62.68 29.68
  C 63.46 26.40 61.08 23.95 58.82 21.11
  A 3.20 3.18 -54.1 0 1 58.33 17.98
  C 59.20 15.68 62.04 12.57 57.62 11.49
  A 0.85 0.83 29.0 0 0 56.83 11.71"
/>
<path stroke="#4d4d4d" vector-effect="non-scaling-stroke" d="
  M 52.52 68.06
  Q 56.54 68.06 57.95 67.63
  Q 66.06 65.15 70.02 59.35
  Q 79.53 45.42 68.62 31.94
  A 1.97 1.86 53.2 0 0 66.05 31.49
  C 63.11 33.52 67.12 38.14 68.25 40.36
  A 1.23 1.09 69.4 0 1 67.59 42.07
  Q 67.47 42.10 67.01 41.96
  Q 59.53 39.68 52.50 39.69
  Q 45.47 39.69 37.99 41.98
  Q 37.53 42.12 37.41 42.09
  A 1.23 1.09 -69.5 0 1 36.74 40.39
  C 37.87 38.16 41.87 33.54 38.93 31.51
  A 1.97 1.86 -53.3 0 0 36.36 31.97
  Q 25.47 45.46 35.00 59.38
  Q 38.97 65.17 47.09 67.64
  Q 48.50 68.07 52.52 68.06"
/>
<path stroke="#4d4d4d" vector-effect="non-scaling-stroke" d="
  M 33.26 88.90
  Q 35.52 88.90 36.12 88.92
  A 0.91 0.91 0.0 0 1 36.95 89.53
  L 38.10 92.66
  A 0.43 0.43 0.0 0 0 38.51 92.95
  L 41.25 92.95
  A 0.26 0.26 0.0 0 0 41.50 92.60
  L 35.45 76.05
  A 1.08 1.08 0.0 0 0 34.36 75.33
  Q 33.31 75.39 33.26 75.39
  Q 33.21 75.39 32.15 75.33
  A 1.08 1.08 0.0 0 0 31.07 76.05
  L 25.01 92.60
  A 0.26 0.26 0.0 0 0 25.26 92.95
  L 28.00 92.95
  A 0.43 0.43 0.0 0 0 28.41 92.66
  L 29.57 89.53
  A 0.91 0.91 0.0 0 1 30.40 88.92
  Q 31.00 88.90 33.26 88.90"
/>
<path stroke="#4d4d4d" vector-effect="non-scaling-stroke" d="
  M 60.26 83.53
  L 60.26 90.57
  A 2.43 2.42 -90.0 0 0 62.68 93.00
  L 65.33 93.00
  A 0.64 0.64 0.0 0 0 65.97 92.36
  L 65.97 90.92
  A 0.61 0.61 0.0 0 0 65.14 90.35
  Q 64.01 90.78 63.54 90.01
  A 0.57 0.53 30.4 0 1 63.45 89.71
  L 63.45 83.61
  A 0.64 0.64 0.0 0 1 64.09 82.97
  L 65.30 82.97
  A 0.64 0.64 0.0 0 0 65.94 82.33
  L 65.94 80.85
  A 0.64 0.63 80.0 0 0 65.09 80.25
  L 64.05 80.63
  A 0.66 0.65 -10.3 0 1 63.16 80.02
  L 63.16 77.94
  A 0.82 0.82 0.0 0 0 62.34 77.12
  L 60.79 77.12
  A 0.56 0.56 0.0 0 0 60.23 77.68
  L 60.23 79.87
  A 0.71 0.71 0.0 0 1 59.33 80.55
  Q 58.87 80.42 58.81 80.38
  A 0.34 0.34 0.0 0 0 58.28 80.62
  L 58.09 82.29
  A 0.53 0.52 -86.6 0 0 58.61 82.88
  L 59.61 82.88
  A 0.65 0.65 0.0 0 1 60.26 83.53"
/>
<path stroke="#4d4d4d" vector-effect="non-scaling-stroke" d="
  M 52.16 91.52
  L 52.16 92.66
  A 0.31 0.30 -90.0 0 0 52.46 92.97
  L 54.64 92.97
  A 0.33 0.33 0.0 0 0 54.97 92.64
  L 54.97 81.01
  A 0.55 0.54 -0.0 0 0 54.42 80.47
  L 52.81 80.47
  A 0.63 0.63 0.0 0 0 52.18 81.10
  L 52.21 87.93
  A 2.55 2.54 88.6 0 1 49.78 90.49
  L 49.52 90.52
  A 2.34 2.33 87.6 0 1 47.00 88.19
  L 47.00 80.81
  A 0.37 0.37 0.0 0 0 46.63 80.44
  L 44.53 80.44
  A 0.44 0.44 0.0 0 0 44.09 80.87
  Q 43.93 85.28 44.13 89.22
  C 44.36 93.78 49.19 94.44 51.91 91.42
  A 0.15 0.14 66.3 0 1 52.16 91.52"
/>
<path stroke="#4d4d4d" vector-effect="non-scaling-stroke" d="
  M 75.8392 80.3352
  A 6.54 6.36 -81.3 0 0 68.5632 85.8380
  A 6.54 6.36 -81.3 0 0 73.8608 93.2648
  A 6.54 6.36 -81.3 0 0 81.1368 87.7620
  A 6.54 6.36 -81.3 0 0 75.8392 80.3352"
/>
<path stroke="#4d4d4d" vector-effect="non-scaling-stroke" d="
  M 48.79 62.87
  A 0.54 0.54 0.0 0 0 49.29 62.15
  L 45.45 51.63
  A 4.16 4.15 -10.1 0 0 41.55 48.91
  L 38.16 48.91
  A 1.91 1.91 0.0 0 0 36.34 51.40
  C 37.78 55.88 43.28 62.96 48.79 62.87"
/>
<path stroke="#4d4d4d" vector-effect="non-scaling-stroke" d="
  M 56.26 62.78
  C 61.75 62.88 67.25 55.84 68.69 51.37
  A 1.90 1.90 0.0 0 0 66.88 48.89
  L 63.50 48.88
  A 4.14 4.14 0.0 0 0 59.61 51.59
  L 55.76 62.07
  A 0.54 0.54 0.0 0 0 56.26 62.78"
/>
<path stroke="#4d4d4d" vector-effect="non-scaling-stroke" d="
  M 33.06 79.07
  L 30.77 85.85
  A 0.37 0.36 9.5 0 0 31.12 86.33
  L 35.26 86.33
  A 0.54 0.54 0.0 0 0 35.77 85.60
  L 33.39 79.07
  A 0.18 0.17 44.7 0 0 33.06 79.07"
/>
<path stroke="#4d4d4d" vector-effect="non-scaling-stroke" d="
  M 74.4728 82.8501
  A 3.93 3.34 -95.8 0 0 71.5471 87.0975
  A 3.93 3.34 -95.8 0 0 75.2672 90.6699
  A 3.93 3.34 -95.8 0 0 78.1929 86.4225
  A 3.93 3.34 -95.8 0 0 74.4728 82.8501"
/>
</g>
<path fill="#000000" d="
  M 109.00 0.00
  L 109.00 106.00
  L 0.00 106.00
  L 0.00 0.00
  L 109.00 0.00
  Z
  M 44.28 25.49
  Q 45.13 26.69 45.51 27.25
  A 3.25 3.24 -46.9 0 1 45.62 30.68
  L 44.28 33.01
  A 2.00 2.00 0.0 0 0 44.84 35.64
  Q 46.16 36.59 46.86 36.43
  Q 47.21 36.36 48.44 34.99
  C 52.35 30.65 51.65 26.96 48.38 22.37
  Q 47.52 21.17 47.15 20.61
  A 3.25 3.24 -46.9 0 1 47.04 17.18
  L 48.38 14.85
  A 2.00 2.00 0.0 0 0 47.82 12.22
  Q 46.50 11.27 45.80 11.43
  Q 45.45 11.50 44.22 12.87
  C 40.31 17.21 41.01 20.90 44.28 25.49
  Z
  M 56.83 11.71
  C 53.38 15.19 51.36 19.36 54.78 23.89
  Q 55.00 24.17 57.33 27.34
  A 2.75 2.73 42.2 0 1 57.49 30.35
  C 56.10 32.71 54.88 33.83 56.70 36.05
  A 1.29 1.28 52.4 0 0 58.45 36.28
  Q 61.65 33.98 62.68 29.68
  C 63.46 26.40 61.08 23.95 58.82 21.11
  A 3.20 3.18 -54.1 0 1 58.33 17.98
  C 59.20 15.68 62.04 12.57 57.62 11.49
  A 0.85 0.83 29.0 0 0 56.83 11.71
  Z
  M 52.52 68.06
  Q 56.54 68.06 57.95 67.63
  Q 66.06 65.15 70.02 59.35
  Q 79.53 45.42 68.62 31.94
  A 1.97 1.86 53.2 0 0 66.05 31.49
  C 63.11 33.52 67.12 38.14 68.25 40.36
  A 1.23 1.09 69.4 0 1 67.59 42.07
  Q 67.47 42.10 67.01 41.96
  Q 59.53 39.68 52.50 39.69
  Q 45.47 39.69 37.99 41.98
  Q 37.53 42.12 37.41 42.09
  A 1.23 1.09 -69.5 0 1 36.74 40.39
  C 37.87 38.16 41.87 33.54 38.93 31.51
  A 1.97 1.86 -53.3 0 0 36.36 31.97
  Q 25.47 45.46 35.00 59.38
  Q 38.97 65.17 47.09 67.64
  Q 48.50 68.07 52.52 68.06
  Z
  M 33.26 88.90
  Q 35.52 88.90 36.12 88.92
  A 0.91 0.91 0.0 0 1 36.95 89.53
  L 38.10 92.66
  A 0.43 0.43 0.0 0 0 38.51 92.95
  L 41.25 92.95
  A 0.26 0.26 0.0 0 0 41.50 92.60
  L 35.45 76.05
  A 1.08 1.08 0.0 0 0 34.36 75.33
  Q 33.31 75.39 33.26 75.39
  Q 33.21 75.39 32.15 75.33
  A 1.08 1.08 0.0 0 0 31.07 76.05
  L 25.01 92.60
  A 0.26 0.26 0.0 0 0 25.26 92.95
  L 28.00 92.95
  A 0.43 0.43 0.0 0 0 28.41 92.66
  L 29.57 89.53
  A 0.91 0.91 0.0 0 1 30.40 88.92
  Q 31.00 88.90 33.26 88.90
  Z
  M 60.26 83.53
  L 60.26 90.57
  A 2.43 2.42 -90.0 0 0 62.68 93.00
  L 65.33 93.00
  A 0.64 0.64 0.0 0 0 65.97 92.36
  L 65.97 90.92
  A 0.61 0.61 0.0 0 0 65.14 90.35
  Q 64.01 90.78 63.54 90.01
  A 0.57 0.53 30.4 0 1 63.45 89.71
  L 63.45 83.61
  A 0.64 0.64 0.0 0 1 64.09 82.97
  L 65.30 82.97
  A 0.64 0.64 0.0 0 0 65.94 82.33
  L 65.94 80.85
  A 0.64 0.63 80.0 0 0 65.09 80.25
  L 64.05 80.63
  A 0.66 0.65 -10.3 0 1 63.16 80.02
  L 63.16 77.94
  A 0.82 0.82 0.0 0 0 62.34 77.12
  L 60.79 77.12
  A 0.56 0.56 0.0 0 0 60.23 77.68
  L 60.23 79.87
  A 0.71 0.71 0.0 0 1 59.33 80.55
  Q 58.87 80.42 58.81 80.38
  A 0.34 0.34 0.0 0 0 58.28 80.62
  L 58.09 82.29
  A 0.53 0.52 -86.6 0 0 58.61 82.88
  L 59.61 82.88
  A 0.65 0.65 0.0 0 1 60.26 83.53
  Z
  M 52.16 91.52
  L 52.16 92.66
  A 0.31 0.30 -90.0 0 0 52.46 92.97
  L 54.64 92.97
  A 0.33 0.33 0.0 0 0 54.97 92.64
  L 54.97 81.01
  A 0.55 0.54 -0.0 0 0 54.42 80.47
  L 52.81 80.47
  A 0.63 0.63 0.0 0 0 52.18 81.10
  L 52.21 87.93
  A 2.55 2.54 88.6 0 1 49.78 90.49
  L 49.52 90.52
  A 2.34 2.33 87.6 0 1 47.00 88.19
  L 47.00 80.81
  A 0.37 0.37 0.0 0 0 46.63 80.44
  L 44.53 80.44
  A 0.44 0.44 0.0 0 0 44.09 80.87
  Q 43.93 85.28 44.13 89.22
  C 44.36 93.78 49.19 94.44 51.91 91.42
  A 0.15 0.14 66.3 0 1 52.16 91.52
  Z
  M 75.8392 80.3352
  A 6.54 6.36 -81.3 0 0 68.5632 85.8380
  A 6.54 6.36 -81.3 0 0 73.8608 93.2648
  A 6.54 6.36 -81.3 0 0 81.1368 87.7620
  A 6.54 6.36 -81.3 0 0 75.8392 80.3352
  Z"
/>
<path fill="#fd3e3c" d="
  M 44.28 25.49
  C 41.01 20.90 40.31 17.21 44.22 12.87
  Q 45.45 11.50 45.80 11.43
  Q 46.50 11.27 47.82 12.22
  A 2.00 2.00 0.0 0 1 48.38 14.85
  L 47.04 17.18
  A 3.25 3.24 -46.9 0 0 47.15 20.61
  Q 47.52 21.17 48.38 22.37
  C 51.65 26.96 52.35 30.65 48.44 34.99
  Q 47.21 36.36 46.86 36.43
  Q 46.16 36.59 44.84 35.64
  A 2.00 2.00 0.0 0 1 44.28 33.01
  L 45.62 30.68
  A 3.25 3.24 -46.9 0 0 45.51 27.25
  Q 45.13 26.69 44.28 25.49
  Z"
/>
<path fill="#999999" d="
  M 57.62 11.49
  C 62.04 12.57 59.20 15.68 58.33 17.98
  A 3.20 3.18 -54.1 0 0 58.82 21.11
  C 61.08 23.95 63.46 26.40 62.68 29.68
  Q 61.65 33.98 58.45 36.28
  A 1.29 1.28 52.4 0 1 56.70 36.05
  C 54.88 33.83 56.10 32.71 57.49 30.35
  A 2.75 2.73 42.2 0 0 57.33 27.34
  Q 55.00 24.17 54.78 23.89
  C 51.36 19.36 53.38 15.19 56.83 11.71
  A 0.85 0.83 29.0 0 1 57.62 11.49
  Z"
/>
<path fill="#999999" d="
  M 52.50 39.69
  Q 59.53 39.68 67.01 41.96
  Q 67.47 42.10 67.59 42.07
  A 1.23 1.09 69.4 0 0 68.25 40.36
  C 67.12 38.14 63.11 33.52 66.05 31.49
  A 1.97 1.86 53.2 0 1 68.62 31.94
  Q 79.53 45.42 70.02 59.35
  Q 66.06 65.15 57.95 67.63
  Q 56.54 68.06 52.52 68.06
  Q 48.50 68.07 47.09 67.64
  Q 38.97 65.17 35.00 59.38
  Q 25.47 45.46 36.36 31.97
  A 1.97 1.86 -53.3 0 1 38.93 31.51
  C 41.87 33.54 37.87 38.16 36.74 40.39
  A 1.23 1.09 -69.5 0 0 37.41 42.09
  Q 37.53 42.12 37.99 41.98
  Q 45.47 39.69 52.50 39.69
  Z
  M 48.79 62.87
  A 0.54 0.54 0.0 0 0 49.29 62.15
  L 45.45 51.63
  A 4.16 4.15 -10.1 0 0 41.55 48.91
  L 38.16 48.91
  A 1.91 1.91 0.0 0 0 36.34 51.40
  C 37.78 55.88 43.28 62.96 48.79 62.87
  Z
  M 56.26 62.78
  C 61.75 62.88 67.25 55.84 68.69 51.37
  A 1.90 1.90 0.0 0 0 66.88 48.89
  L 63.50 48.88
  A 4.14 4.14 0.0 0 0 59.61 51.59
  L 55.76 62.07
  A 0.54 0.54 0.0 0 0 56.26 62.78
  Z"
/>
<path fill="#000000" d="
  M 48.79 62.87
  C 43.28 62.96 37.78 55.88 36.34 51.40
  A 1.91 1.91 0.0 0 1 38.16 48.91
  L 41.55 48.91
  A 4.16 4.15 -10.1 0 1 45.45 51.63
  L 49.29 62.15
  A 0.54 0.54 0.0 0 1 48.79 62.87
  Z"
/>
<path fill="#000000" d="
  M 56.26 62.78
  A 0.54 0.54 0.0 0 1 55.76 62.07
  L 59.61 51.59
  A 4.14 4.14 0.0 0 1 63.50 48.88
  L 66.88 48.89
  A 1.90 1.90 0.0 0 1 68.69 51.37
  C 67.25 55.84 61.75 62.88 56.26 62.78
  Z"
/>
<path fill="#999999" d="
  M 33.26 75.39
  Q 33.31 75.39 34.36 75.33
  A 1.08 1.08 0.0 0 1 35.45 76.05
  L 41.50 92.60
  A 0.26 0.26 0.0 0 1 41.25 92.95
  L 38.51 92.95
  A 0.43 0.43 0.0 0 1 38.10 92.66
  L 36.95 89.53
  A 0.91 0.91 0.0 0 0 36.12 88.92
  Q 35.52 88.90 33.26 88.90
  Q 31.00 88.90 30.40 88.92
  A 0.91 0.91 0.0 0 0 29.57 89.53
  L 28.41 92.66
  A 0.43 0.43 0.0 0 1 28.00 92.95
  L 25.26 92.95
  A 0.26 0.26 0.0 0 1 25.01 92.60
  L 31.07 76.05
  A 1.08 1.08 0.0 0 1 32.15 75.33
  Q 33.21 75.39 33.26 75.39
  Z
  M 33.06 79.07
  L 30.77 85.85
  A 0.37 0.36 9.5 0 0 31.12 86.33
  L 35.26 86.33
  A 0.54 0.54 0.0 0 0 35.77 85.60
  L 33.39 79.07
  A 0.18 0.17 44.7 0 0 33.06 79.07
  Z"
/>
<path fill="#999999" d="
  M 59.61 82.88
  L 58.61 82.88
  A 0.53 0.52 -86.6 0 1 58.09 82.29
  L 58.28 80.62
  A 0.34 0.34 0.0 0 1 58.81 80.38
  Q 58.87 80.42 59.33 80.55
  A 0.71 0.71 0.0 0 0 60.23 79.87
  L 60.23 77.68
  A 0.56 0.56 0.0 0 1 60.79 77.12
  L 62.34 77.12
  A 0.82 0.82 0.0 0 1 63.16 77.94
  L 63.16 80.02
  A 0.66 0.65 -10.3 0 0 64.05 80.63
  L 65.09 80.25
  A 0.64 0.63 80.0 0 1 65.94 80.85
  L 65.94 82.33
  A 0.64 0.64 0.0 0 1 65.30 82.97
  L 64.09 82.97
  A 0.64 0.64 0.0 0 0 63.45 83.61
  L 63.45 89.71
  A 0.57 0.53 30.4 0 0 63.54 90.01
  Q 64.01 90.78 65.14 90.35
  A 0.61 0.61 0.0 0 1 65.97 90.92
  L 65.97 92.36
  A 0.64 0.64 0.0 0 1 65.33 93.00
  L 62.68 93.00
  A 2.43 2.42 90.0 0 1 60.26 90.57
  L 60.26 83.53
  A 0.65 0.65 0.0 0 0 59.61 82.88
  Z"
/>
<path fill="#000000" d="
  M 33.39 79.07
  L 35.77 85.60
  A 0.54 0.54 0.0 0 1 35.26 86.33
  L 31.12 86.33
  A 0.37 0.36 9.5 0 1 30.77 85.85
  L 33.06 79.07
  A 0.18 0.17 44.7 0 1 33.39 79.07
  Z"
/>
<path fill="#999999" d="
  M 52.16 91.52
  A 0.15 0.14 66.3 0 0 51.91 91.42
  C 49.19 94.44 44.36 93.78 44.13 89.22
  Q 43.93 85.28 44.09 80.87
  A 0.44 0.44 0.0 0 1 44.53 80.44
  L 46.63 80.44
  A 0.37 0.37 0.0 0 1 47.00 80.81
  L 47.00 88.19
  A 2.34 2.33 87.6 0 0 49.52 90.52
  L 49.78 90.49
  A 2.55 2.54 88.6 0 0 52.21 87.93
  L 52.18 81.10
  A 0.63 0.63 0.0 0 1 52.81 80.47
  L 54.42 80.47
  A 0.55 0.54 -0.0 0 1 54.97 81.01
  L 54.97 92.64
  A 0.33 0.33 0.0 0 1 54.64 92.97
  L 52.46 92.97
  A 0.31 0.30 90.0 0 1 52.16 92.66
  L 52.16 91.52
  Z"
/>
<path fill="#999999" d="
  M 75.8392 80.3352
  A 6.54 6.36 -81.3 0 1 81.1368 87.7620
  A 6.54 6.36 -81.3 0 1 73.8608 93.2648
  A 6.54 6.36 -81.3 0 1 68.5632 85.8380
  A 6.54 6.36 -81.3 0 1 75.8392 80.3352
  Z
  M 74.4728 82.8501
  A 3.93 3.34 -95.8 0 0 71.5471 87.0975
  A 3.93 3.34 -95.8 0 0 75.2672 90.6699
  A 3.93 3.34 -95.8 0 0 78.1929 86.4225
  A 3.93 3.34 -95.8 0 0 74.4728 82.8501
  Z"
/>
<ellipse fill="#000000" cx="0.00" cy="0.00" transform="translate(74.87,86.76) rotate(-95.8)" rx="3.93" ry="3.34"/>
</svg>
