<svg xmlns="http://www.w3.org/2000/svg" viewBox="0.00 0.00 71.00 61.00">
<g stroke-width="2.00" fill="none" stroke-linecap="butt">
<path stroke="#5a5a59" vector-effect="non-scaling-stroke" d="
  M 10.94 31.77
  C 14.95 35.77 17.32 39.72 14.00 45.26
  C 13.08 46.80 9.87 48.89 9.77 51.04
  C 9.63 54.02 13.00 56.57 15.48 54.70
  C 23.67 48.52 25.99 37.94 19.45 29.55
  Q 18.94 28.89 16.27 26.23
  C 12.25 22.24 9.88 18.29 13.20 12.74
  C 14.12 11.21 17.33 9.12 17.43 6.97
  C 17.57 3.99 14.20 1.44 11.72 3.31
  C 3.53 9.49 1.21 20.07 7.75 28.46
  Q 8.26 29.11 10.94 31.77"/>
<path stroke="#5a5a59" vector-effect="non-scaling-stroke" d="
  M 33.33 31.77
  C 37.35 35.76 39.72 39.71 36.40 45.26
  C 35.48 46.80 32.28 48.89 32.18 51.04
  C 32.04 54.02 35.41 56.56 37.89 54.69
  C 46.07 48.51 48.39 37.93 41.85 29.54
  Q 41.34 28.89 38.66 26.23
  C 34.65 22.24 32.27 18.29 35.59 12.74
  C 36.51 11.21 39.72 9.12 39.82 6.97
  C 39.96 3.99 36.59 1.44 34.11 3.31
  C 25.92 9.49 23.61 20.07 30.15 28.46
  Q 30.66 29.11 33.33 31.77"/>
<path stroke="#5a5a59" vector-effect="non-scaling-stroke" d="
  M 55.73 31.76
  C 59.74 35.76 62.11 39.71 58.79 45.26
  C 57.87 46.80 54.66 48.89 54.56 51.04
  C 54.42 54.02 57.79 56.57 60.27 54.70
  C 68.46 48.52 70.78 37.94 64.24 29.54
  Q 63.74 28.89 61.06 26.22
  C 57.05 22.23 54.68 18.28 58.00 12.73
  C 58.92 11.20 62.13 9.11 62.23 6.96
  C 62.37 3.97 59.00 1.42 56.52 3.29
  C 48.33 9.47 46.01 20.05 52.55 28.45
  Q 53.05 29.10 55.73 31.76"/>
</g>
<path fill="#999999" d="
  M 16.27 26.23
  Q 18.94 28.89 19.45 29.55
  C 25.99 37.94 23.67 48.52 15.48 54.70
  C 13.00 56.57 9.63 54.02 9.77 51.04
  C 9.87 48.89 13.08 46.80 14.00 45.26
  C 17.32 39.72 14.95 35.77 10.94 31.77
  Q 8.26 29.11 7.75 28.46
  C 1.21 20.07 3.53 9.49 11.72 3.31
  C 14.20 1.44 17.57 3.99 17.43 6.97
  C 17.33 9.12 14.12 11.21 13.20 12.74
  C 9.88 18.29 12.25 22.24 16.27 26.23
  Z"/>
<path fill="#999999" d="
  M 33.33 31.77
  Q 30.66 29.11 30.15 28.46
  C 23.61 20.07 25.92 9.49 34.11 3.31
  C 36.59 1.44 39.96 3.99 39.82 6.97
  C 39.72 9.12 36.51 11.21 35.59 12.74
  C 32.27 18.29 34.65 22.24 38.66 26.23
  Q 41.34 28.89 41.85 29.54
  C 48.39 37.93 46.07 48.51 37.89 54.69
  C 35.41 56.56 32.04 54.02 32.18 51.04
  C 32.28 48.89 35.48 46.80 36.40 45.26
  C 39.72 39.71 37.35 35.76 33.33 31.77
  Z"/>
<path fill="#999999" d="
  M 55.73 31.76
  Q 53.05 29.10 52.55 28.45
  C 46.01 20.05 48.33 9.47 56.52 3.29
  C 59.00 1.42 62.37 3.97 62.23 6.96
  C 62.13 9.11 58.92 11.20 58.00 12.73
  C 54.68 18.28 57.05 22.23 61.06 26.22
  Q 63.74 28.89 64.24 29.54
  C 70.78 37.94 68.46 48.52 60.27 54.70
  C 57.79 56.57 54.42 54.02 54.56 51.04
  C 54.66 48.89 57.87 46.80 58.79 45.26
  C 62.11 39.71 59.74 35.76 55.73 31.76
  Z"/>
</svg>
