<?xml version="1.0" encoding="UTF-8" standalone="no"?>
<!DOCTYPE svg PUBLIC "-//W3C//DTD SVG 1.1//EN" "http://www.w3.org/Graphics/SVG/1.1/DTD/svg11.dtd">
<svg xmlns="http://www.w3.org/2000/svg" version="1.1" viewBox="0.00 0.00 484.00 149.00">
<g stroke-width="2.00" fill="none" stroke-linecap="butt">
<path stroke="#858586" vector-effect="non-scaling-stroke" d="
  M 195.86 14.04
  A 0.46 0.46 0.0 0 0 195.40 13.58
  L 189.36 13.58
  A 0.46 0.46 0.0 0 0 188.90 14.04
  L 188.90 56.80
  A 0.46 0.46 0.0 0 0 189.36 57.26
  L 195.40 57.26
  A 0.46 0.46 0.0 0 0 195.86 56.80
  L 195.86 14.04"
/>
<path stroke="#858586" vector-effect="non-scaling-stroke" d="
  M 144.30 36.05
  C 144.30 50.45 153.99 59.72 168.47 57.78
  Q 180.21 56.20 182.93 43.17
  A 0.15 0.15 0.0 0 0 182.78 42.99
  L 176.21 42.99
  A 0.43 0.43 0.0 0 0 175.80 43.28
  Q 173.29 50.54 167.10 51.38
  C 157.03 52.75 151.61 45.51 151.61 36.05
  C 151.61 26.59 157.03 19.36 167.10 20.72
  Q 173.29 21.56 175.80 28.82
  A 0.43 0.43 0.0 0 0 176.21 29.11
  L 182.78 29.11
  A 0.15 0.15 0.0 0 0 182.93 28.93
  Q 180.21 15.90 168.47 14.32
  C 153.99 12.38 144.30 21.66 144.30 36.05"
/>
<path stroke="#858586" vector-effect="non-scaling-stroke" d="
  M 211.6832 14.9603
  A 0.58 0.58 0.0 0 0 211.1002 14.3833
  L 204.7203 14.4168
  A 0.58 0.58 0.0 0 0 204.1433 14.9998
  L 204.1768 21.3797
  A 0.58 0.58 0.0 0 0 204.7598 21.9567
  L 211.1397 21.9232
  A 0.58 0.58 0.0 0 0 211.7167 21.3402
  L 211.6832 14.9603"
/>
<path stroke="#858586" vector-effect="non-scaling-stroke" d="
  M 304.88 19.20
  L 304.88 26.01
  A 0.61 0.61 0.0 0 1 304.27 26.62
  L 300.87 26.62
  A 0.78 0.78 0.0 0 0 300.09 27.40
  L 300.09 31.61
  A 0.72 0.71 0.0 0 0 300.81 32.32
  L 304.35 32.32
  A 0.53 0.52 89.4 0 1 304.87 32.84
  Q 304.91 38.07 304.85 44.58
  Q 304.77 52.14 306.01 54.24
  C 308.10 57.77 312.98 58.61 317.35 57.52
  A 1.15 1.14 -7.2 0 0 318.22 56.41
  L 318.22 52.44
  A 0.77 0.77 0.0 0 0 317.29 51.69
  C 314.82 52.22 312.00 52.05 311.91 48.74
  Q 311.89 47.83 311.91 32.94
  A 0.61 0.60 0.0 0 1 312.52 32.34
  L 317.69 32.34
  A 0.58 0.58 0.0 0 0 318.27 31.76
  L 318.27 27.17
  A 0.54 0.54 0.0 0 0 317.73 26.63
  L 312.44 26.63
  A 0.56 0.56 0.0 0 1 311.88 26.07
  L 311.88 19.29
  A 0.60 0.60 0.0 0 0 311.28 18.69
  L 305.40 18.69
  A 0.52 0.51 0.0 0 0 304.88 19.20"
/>
<path stroke="#858586" vector-effect="non-scaling-stroke" d="
  M 227.50 29.24
  L 227.50 27.41
  A 0.84 0.83 -0.0 0 0 226.66 26.58
  L 221.33 26.58
  A 0.90 0.89 -0.0 0 0 220.43 27.47
  L 220.43 56.74
  A 0.52 0.52 0.0 0 0 220.95 57.26
  L 226.93 57.26
  A 0.54 0.53 90.0 0 0 227.46 56.72
  Q 227.49 42.46 227.47 41.26
  C 227.38 36.93 227.96 32.21 233.00 31.67
  C 235.98 31.35 237.94 33.74 238.00 36.54
  Q 238.14 42.38 238.06 56.75
  A 0.51 0.51 0.0 0 0 238.57 57.26
  L 244.56 57.26
  A 0.53 0.53 0.0 0 0 245.09 56.73
  Q 245.10 49.13 245.11 41.01
  C 245.12 37.12 245.53 32.71 249.74 31.80
  C 253.46 31.00 255.67 33.31 255.72 37.03
  Q 255.84 45.28 255.77 56.79
  A 0.46 0.45 -89.4 0 0 256.22 57.26
  L 262.29 57.26
  A 0.48 0.48 0.0 0 0 262.77 56.79
  Q 262.95 43.70 262.66 34.89
  C 262.32 24.65 249.99 22.71 244.64 30.32
  A 0.50 0.50 0.0 0 1 243.81 30.30
  L 242.72 28.59
  A 2.98 2.91 1.0 0 0 241.88 27.74
  Q 236.07 23.86 230.04 27.27
  C 229.32 27.68 228.46 28.99 227.93 29.44
  A 0.26 0.26 0.0 0 1 227.50 29.24"
/>
<path stroke="#858586" vector-effect="non-scaling-stroke" d="
  M 275.48 36.21
  A 0.41 0.41 0.0 0 0 275.86 35.95
  Q 278.13 29.99 284.92 32.20
  Q 288.42 33.34 287.81 36.97
  A 1.82 1.81 -90.0 0 1 286.34 38.45
  C 279.82 39.64 268.71 40.09 268.60 49.14
  C 268.54 54.24 271.89 57.25 276.98 57.75
  Q 283.97 58.43 287.44 52.71
  A 0.29 0.29 0.0 0 1 287.98 52.86
  L 287.98 56.45
  A 0.84 0.83 90.0 0 0 288.81 57.29
  L 293.71 57.29
  A 1.18 1.18 0.0 0 0 294.89 56.10
  Q 294.84 49.07 294.88 41.30
  C 294.90 36.52 295.16 31.97 291.71 29.08
  C 286.93 25.09 280.49 24.83 275.33 27.21
  Q 270.44 29.46 268.88 35.98
  A 0.19 0.18 7.2 0 0 269.06 36.21
  L 275.48 36.21"
/>
<path stroke="#858586" vector-effect="non-scaling-stroke" d="
  M 330.14 43.60
  L 351.41 43.60
  A 0.48 0.48 0.0 0 0 351.89 43.15
  C 352.47 33.07 347.21 24.93 336.20 25.80
  C 328.21 26.43 323.42 32.22 322.57 39.98
  C 321.22 52.24 331.12 61.07 343.04 57.28
  Q 349.58 55.21 351.31 48.41
  A 0.47 0.46 7.1 0 0 350.85 47.83
  L 346.09 47.83
  A 1.47 1.47 0.0 0 0 344.83 48.54
  Q 341.80 53.56 335.94 52.24
  Q 330.00 50.90 329.53 44.25
  A 0.61 0.60 -2.2 0 1 330.14 43.60"
/>
<path stroke="#858586" vector-effect="non-scaling-stroke" d="
  M 211.41 27.02
  A 0.43 0.43 0.0 0 0 210.98 26.59
  L 204.82 26.59
  A 0.43 0.43 0.0 0 0 204.39 27.02
  L 204.39 56.82
  A 0.43 0.43 0.0 0 0 204.82 57.25
  L 210.98 57.25
  A 0.43 0.43 0.0 0 0 211.41 56.82
  L 211.41 27.02"
/>
<path stroke="#515152" vector-effect="non-scaling-stroke" d="
  M 58.51 81.82
  L 58.47 57.40
  A 2.13 2.13 0.0 0 0 56.33 55.27
  L 56.20 55.27
  A 14.14 13.91 -0.1 0 0 42.09 69.20
  L 42.09 70.06
  A 14.14 13.91 -0.1 0 0 56.26 83.95
  L 56.39 83.95
  A 2.13 2.13 0.0 0 0 58.51 81.82"
/>
<path stroke="#515152" vector-effect="non-scaling-stroke" d="
  M 63.78 84.09
  L 87.72 84.05
  A 2.15 2.15 0.0 0 0 89.87 81.90
  L 89.87 81.56
  A 14.23 14.04 89.9 0 0 75.81 67.35
  L 75.65 67.35
  A 14.23 14.04 89.9 0 0 61.63 81.60
  L 61.63 81.94
  A 2.15 2.15 0.0 0 0 63.78 84.09"
/>
<path stroke="#515152" vector-effect="non-scaling-stroke" d="
  M 56.27 87.01
  L 32.23 86.97
  A 2.14 2.14 0.0 0 0 30.09 89.11
  L 30.09 89.31
  A 14.42 14.04 -89.9 0 0 44.11 103.75
  L 44.35 103.75
  A 14.42 14.04 -89.9 0 0 58.41 89.35
  L 58.41 89.15
  A 2.14 2.14 0.0 0 0 56.27 87.01"
/>
<path stroke="#515152" vector-effect="non-scaling-stroke" d="
  M 61.48 89.11
  L 61.52 113.69
  A 2.08 2.08 0.0 0 0 63.61 115.77
  L 63.76 115.77
  A 14.21 14.04 -0.1 0 0 77.94 101.71
  L 77.94 101.05
  A 14.21 14.04 -0.1 0 0 63.70 87.03
  L 63.55 87.03
  A 2.08 2.08 0.0 0 0 61.48 89.11"
/>
<path stroke="#858586" vector-effect="non-scaling-stroke" d="
  M 218.1822 96.1508
  A 0.64 0.64 0.0 0 0 217.5400 95.5130
  L 213.5400 95.5270
  A 0.64 0.64 0.0 0 0 212.9022 96.1692
  L 212.9178 100.6292
  A 0.64 0.64 0.0 0 0 213.5600 101.2670
  L 217.5600 101.2530
  A 0.64 0.64 0.0 0 0 218.1978 100.6108
  L 218.1822 96.1508"
/>
<path stroke="#515152" vector-effect="non-scaling-stroke" d="
  M 399.1817 96.2569
  A 0.76 0.76 0.0 0 0 398.4151 95.5035
  L 394.6152 95.5367
  A 0.76 0.76 0.0 0 0 393.8619 96.3033
  L 393.8983 100.4831
  A 0.76 0.76 0.0 0 0 394.6649 101.2365
  L 398.4648 101.2033
  A 0.76 0.76 0.0 0 0 399.2181 100.4367
  L 399.1817 96.2569"
/>
<path stroke="#858586" vector-effect="non-scaling-stroke" d="
  M 156.24 119.05
  Q 161.04 119.05 161.79 119.07
  A 1.21 1.20 80.1 0 1 162.89 119.85
  L 164.93 125.20
  A 0.94 0.92 79.3 0 0 165.79 125.80
  L 169.69 125.80
  A 0.54 0.54 0.0 0 0 170.19 125.07
  L 159.22 96.26
  A 0.66 0.66 0.0 0 0 158.61 95.84
  Q 157.60 95.83 156.27 95.83
  Q 154.93 95.83 153.92 95.83
  A 0.66 0.66 0.0 0 0 153.31 96.25
  L 142.28 125.04
  A 0.54 0.54 0.0 0 0 142.78 125.77
  L 146.68 125.78
  A 0.94 0.92 -79.2 0 0 147.54 125.18
  L 149.59 119.84
  A 1.21 1.20 -80.0 0 1 150.69 119.06
  Q 151.45 119.04 156.24 119.05"
/>
<path stroke="#515152" vector-effect="non-scaling-stroke" d="
  M 307.9250 96.5056
  A 0.64 0.64 0.0 0 0 307.2839 95.8667
  L 303.5039 95.8733
  A 0.64 0.64 0.0 0 0 302.8650 96.5144
  L 302.9150 125.1944
  A 0.64 0.64 0.0 0 0 303.5561 125.8333
  L 307.3361 125.8267
  A 0.64 0.64 0.0 0 0 307.9750 125.1856
  L 307.9250 96.5056"
/>
<path stroke="#858586" vector-effect="non-scaling-stroke" d="
  M 208.50 105.12
  A 0.67 0.67 0.0 0 0 207.83 104.45
  L 204.56 104.45
  A 0.54 0.53 0.0 0 1 204.03 103.92
  L 204.03 99.38
  A 0.81 0.81 0.0 0 0 203.22 98.57
  L 199.91 98.57
  A 0.81 0.81 0.0 0 0 199.10 99.38
  L 199.10 103.77
  A 0.67 0.66 0.0 0 1 198.43 104.43
  L 196.48 104.43
  A 0.74 0.73 -90.0 0 0 195.75 105.17
  L 195.75 107.78
  A 0.71 0.71 0.0 0 0 196.46 108.49
  L 198.43 108.49
  A 0.69 0.69 0.0 0 1 199.12 109.18
  Q 199.04 117.24 199.21 120.75
  C 199.44 125.80 203.44 126.80 207.63 126.02
  A 1.03 1.02 84.6 0 0 208.46 125.01
  L 208.46 122.76
  A 0.87 0.87 0.0 0 0 207.44 121.90
  Q 204.13 122.51 204.07 119.53
  Q 203.98 115.78 204.05 109.07
  A 0.58 0.58 0.0 0 1 204.63 108.49
  L 207.78 108.49
  A 0.72 0.72 0.0 0 0 208.50 107.77
  L 208.50 105.12"
/>
<path stroke="#515152" vector-effect="non-scaling-stroke" d="
  M 349.51 105.10
  A 0.67 0.67 0.0 0 0 348.84 104.43
  L 345.57 104.43
  A 0.54 0.53 -0.0 0 1 345.03 103.90
  L 345.03 99.36
  A 0.81 0.81 0.0 0 0 344.22 98.55
  L 340.91 98.55
  A 0.81 0.81 0.0 0 0 340.10 99.36
  L 340.10 103.76
  A 0.67 0.66 0.0 0 1 339.43 104.42
  L 337.48 104.42
  A 0.74 0.73 -90.0 0 0 336.75 105.16
  L 336.75 107.77
  A 0.71 0.71 0.0 0 0 337.46 108.48
  L 339.44 108.48
  A 0.69 0.69 0.0 0 1 340.13 109.17
  Q 340.05 117.23 340.22 120.74
  C 340.46 125.80 344.46 126.79 348.65 126.01
  A 1.03 1.02 84.6 0 0 349.48 125.00
  L 349.48 122.75
  A 0.87 0.87 0.0 0 0 348.46 121.89
  Q 345.15 122.50 345.08 119.52
  Q 344.99 115.77 345.06 109.05
  A 0.58 0.58 0.0 0 1 345.64 108.47
  L 348.79 108.47
  A 0.72 0.72 0.0 0 0 349.51 107.75
  L 349.51 105.10"
/>
<path stroke="#858586" vector-effect="non-scaling-stroke" d="
  M 172.80 115.03
  C 172.75 121.92 177.92 127.10 185.00 126.29
  Q 190.95 125.61 192.93 119.50
  A 0.86 0.86 0.0 0 0 192.11 118.38
  L 189.13 118.38
  A 1.47 1.46 -80.9 0 0 187.74 119.40
  Q 187.26 120.90 186.01 121.47
  C 181.19 123.70 177.81 119.73 177.85 115.06
  C 177.88 110.40 181.32 106.48 186.11 108.78
  Q 187.35 109.37 187.80 110.88
  A 1.47 1.46 81.8 0 0 189.18 111.92
  L 192.16 111.96
  A 0.86 0.86 0.0 0 0 192.99 110.86
  Q 191.11 104.72 185.17 103.95
  C 178.10 103.03 172.85 108.13 172.80 115.03"
/>
<path stroke="#858586" vector-effect="non-scaling-stroke" d="
  M 262.40 119.19
  A 1.98 1.96 12.4 0 0 260.61 120.32
  Q 259.87 121.88 258.00 122.13
  Q 251.70 122.98 250.70 117.10
  A 0.68 0.68 0.0 0 1 251.37 116.31
  L 265.69 116.31
  A 0.58 0.58 0.0 0 0 266.27 115.76
  C 266.61 109.38 263.27 103.55 256.21 103.77
  C 242.41 104.20 242.49 125.61 255.65 126.40
  C 260.42 126.69 263.87 124.83 265.77 120.39
  A 0.87 0.86 11.5 0 0 264.97 119.19
  L 262.40 119.19"
/>
<path stroke="#515152" vector-effect="non-scaling-stroke" d="
  M 318.46 125.78
  A 0.62 0.62 0.0 0 0 319.08 125.16
  Q 319.00 116.63 319.01 115.27
  C 319.04 112.45 319.77 108.60 323.04 108.18
  Q 327.74 107.57 328.15 112.30
  Q 328.39 115.12 328.28 125.22
  A 0.57 0.56 90.0 0 0 328.84 125.79
  L 332.65 125.79
  A 0.55 0.55 0.0 0 0 333.20 125.25
  Q 333.41 117.77 333.13 112.12
  Q 332.73 103.76 324.84 103.78
  Q 321.99 103.79 319.92 106.24
  A 0.33 0.33 0.0 0 1 319.36 106.14
  L 318.84 104.77
  A 0.62 0.62 0.0 0 0 318.26 104.37
  L 314.80 104.37
  A 0.70 0.69 90.0 0 0 314.11 105.07
  L 314.11 125.25
  A 0.53 0.53 0.0 0 0 314.64 125.78
  L 318.46 125.78"
/>
<path stroke="#515152" vector-effect="non-scaling-stroke" d="
  M 369.43 119.17
  A 1.99 1.97 12.1 0 0 367.65 120.31
  Q 366.92 121.87 365.05 122.14
  Q 358.74 123.03 357.71 117.15
  A 0.68 0.68 0.0 0 1 358.37 116.35
  L 372.71 116.26
  A 0.58 0.58 0.0 0 0 373.28 115.71
  C 373.59 109.32 370.21 103.50 363.14 103.77
  C 349.33 104.28 349.54 125.72 362.72 126.42
  C 367.50 126.69 370.94 124.80 372.81 120.35
  A 0.87 0.86 11.1 0 0 372.00 119.15
  L 369.43 119.17"
/>
<path stroke="#515152" vector-effect="non-scaling-stroke" d="
  M 414.5601 103.5701
  A 11.48 10.89 -89.8 0 0 403.6301 115.0120
  A 11.48 10.89 -89.8 0 0 414.4799 126.5299
  A 11.48 10.89 -89.8 0 0 425.4099 115.0880
  A 11.48 10.89 -89.8 0 0 414.5601 103.5701"
/>
<path stroke="#515152" vector-effect="non-scaling-stroke" d="
  M 435.25 106.75
  Q 434.94 106.18 435.04 105.24
  A 0.79 0.79 0.0 0 0 434.25 104.37
  L 431.01 104.37
  A 0.88 0.87 0.0 0 0 430.13 105.24
  L 430.13 125.16
  A 0.58 0.58 0.0 0 0 430.71 125.74
  L 434.46 125.74
  A 0.60 0.60 0.0 0 0 435.06 125.12
  Q 434.95 121.03 434.99 116.29
  Q 435.04 108.92 441.18 108.94
  A 0.70 0.70 0.0 0 0 441.88 108.24
  L 441.88 104.93
  A 0.71 0.71 0.0 0 0 441.19 104.22
  Q 437.52 104.11 435.81 106.77
  A 0.33 0.32 -42.8 0 1 435.25 106.75"
/>
<path stroke="#858586" vector-effect="non-scaling-stroke" d="
  M 217.9623 104.9557
  A 0.53 0.53 0.0 0 0 217.4314 104.4266
  L 213.5714 104.4334
  A 0.53 0.53 0.0 0 0 213.0423 104.9643
  L 213.0777 125.2443
  A 0.53 0.53 0.0 0 0 213.6086 125.7734
  L 217.4686 125.7666
  A 0.53 0.53 0.0 0 0 217.9977 125.2357
  L 217.9623 104.9557"
/>
<path stroke="#858586" vector-effect="non-scaling-stroke" d="
  M 232.78 125.78
  Q 234.50 125.78 234.71 125.74
  A 1.02 1.02 0.0 0 0 235.50 125.10
  L 243.42 105.21
  A 0.58 0.58 0.0 0 0 242.88 104.41
  L 239.43 104.41
  A 1.11 1.11 0.0 0 0 238.40 105.11
  Q 236.38 110.26 233.38 118.40
  Q 233.02 119.39 232.78 119.39
  Q 232.54 119.39 232.17 118.40
  Q 229.18 110.26 227.16 105.11
  A 1.11 1.11 0.0 0 0 226.13 104.41
  L 222.68 104.41
  A 0.58 0.58 0.0 0 0 222.14 105.21
  L 230.05 125.10
  A 1.02 1.02 0.0 0 0 230.85 125.74
  Q 231.06 125.78 232.78 125.78"
/>
<path stroke="#515152" vector-effect="non-scaling-stroke" d="
  M 383.25 106.75
  Q 382.94 106.18 383.04 105.23
  A 0.80 0.79 3.0 0 0 382.25 104.36
  L 379.00 104.36
  A 0.88 0.87 0.0 0 0 378.12 105.23
  L 378.11 125.21
  A 0.58 0.58 0.0 0 0 378.69 125.79
  L 382.45 125.79
  A 0.60 0.60 0.0 0 0 383.06 125.17
  Q 382.95 121.07 382.99 116.32
  Q 383.04 108.92 389.20 108.95
  A 0.70 0.70 0.0 0 0 389.90 108.25
  L 389.90 104.93
  A 0.71 0.71 0.0 0 0 389.21 104.21
  Q 385.53 104.10 383.82 106.77
  A 0.33 0.33 0.0 0 1 383.25 106.75"
/>
<path stroke="#515152" vector-effect="non-scaling-stroke" d="
  M 398.99 105.04
  A 0.60 0.60 0.0 0 0 398.39 104.44
  L 394.65 104.44
  A 0.60 0.60 0.0 0 0 394.05 105.04
  L 394.05 125.20
  A 0.60 0.60 0.0 0 0 394.65 125.80
  L 398.39 125.80
  A 0.60 0.60 0.0 0 0 398.99 125.20
  L 398.99 105.04"
/>
<path stroke="#515152" vector-effect="non-scaling-stroke" d="
  M 286.7864 108.8851
  A 0.78 0.78 0.0 0 0 286.0050 108.1065
  L 281.9450 108.1135
  A 0.78 0.78 0.0 0 0 281.1664 108.8949
  L 281.1736 113.0149
  A 0.78 0.78 0.0 0 0 281.9550 113.7935
  L 286.0150 113.7865
  A 0.78 0.78 0.0 0 0 286.7936 113.0051
  L 286.7864 108.8851"
/>
<path stroke="#858586" vector-effect="non-scaling-stroke" d="
  M 287.19 42.46
  Q 285.90 42.85 279.64 44.09
  C 272.85 45.43 275.10 54.22 281.81 52.18
  Q 288.04 50.30 287.94 43.01
  A 0.58 0.58 0.0 0 0 287.19 42.46"
/>
<path stroke="#858586" vector-effect="non-scaling-stroke" d="
  M 330.02 38.89
  L 344.88 38.79
  A 0.17 0.17 0.0 0 0 345.04 38.62
  L 345.04 38.54
  A 7.28 7.05 -0.4 0 0 337.71 31.54
  L 337.07 31.54
  A 7.28 7.05 -0.4 0 0 329.84 38.64
  L 329.84 38.72
  A 0.17 0.17 0.0 0 0 330.02 38.89"
/>
<path stroke="#858586" vector-effect="non-scaling-stroke" d="
  M 151.79 114.05
  A 0.33 0.33 0.0 0 0 152.10 114.50
  L 160.29 114.52
  A 0.33 0.33 0.0 0 0 160.60 114.08
  L 156.54 103.15
  A 0.33 0.33 0.0 0 0 155.93 103.15
  L 151.79 114.05"
/>
<path stroke="#858586" vector-effect="non-scaling-stroke" d="
  M 251.15 112.94
  L 261.33 112.82
  A 0.15 0.15 0.0 0 0 261.48 112.67
  L 261.48 112.59
  A 5.09 4.75 -0.7 0 0 256.33 107.90
  L 256.03 107.90
  A 5.09 4.75 -0.7 0 0 251.00 112.71
  L 251.00 112.79
  A 0.15 0.15 0.0 0 0 251.15 112.94"
/>
<path stroke="#515152" vector-effect="non-scaling-stroke" d="
  M 358.23 112.93
  L 368.21 112.79
  A 0.18 0.18 0.0 0 0 368.39 112.61
  L 368.39 112.53
  A 4.64 4.52 -0.8 0 0 363.69 108.07
  L 362.63 108.09
  A 4.64 4.52 -0.8 0 0 358.05 112.67
  L 358.05 112.75
  A 0.18 0.18 0.0 0 0 358.23 112.93"
/>
<path stroke="#515152" vector-effect="non-scaling-stroke" d="
  M 414.5893 108.1202
  A 7.06 5.66 -89.6 0 0 408.8801 115.1405
  A 7.06 5.66 -89.6 0 0 414.4907 122.2398
  A 7.06 5.66 -89.6 0 0 420.1999 115.2195
  A 7.06 5.66 -89.6 0 0 414.5893 108.1202"
/>
</g>
<path fill="#161719" d="
  M 484.00 0.00
  L 484.00 149.00
  L 0.00 149.00
  L 0.00 0.00
  L 484.00 0.00
  Z
  M 195.86 14.04
  A 0.46 0.46 0.0 0 0 195.40 13.58
  L 189.36 13.58
  A 0.46 0.46 0.0 0 0 188.90 14.04
  L 188.90 56.80
  A 0.46 0.46 0.0 0 0 189.36 57.26
  L 195.40 57.26
  A 0.46 0.46 0.0 0 0 195.86 56.80
  L 195.86 14.04
  Z
  M 144.30 36.05
  C 144.30 50.45 153.99 59.72 168.47 57.78
  Q 180.21 56.20 182.93 43.17
  A 0.15 0.15 0.0 0 0 182.78 42.99
  L 176.21 42.99
  A 0.43 0.43 0.0 0 0 175.80 43.28
  Q 173.29 50.54 167.10 51.38
  C 157.03 52.75 151.61 45.51 151.61 36.05
  C 151.61 26.59 157.03 19.36 167.10 20.72
  Q 173.29 21.56 175.80 28.82
  A 0.43 0.43 0.0 0 0 176.21 29.11
  L 182.78 29.11
  A 0.15 0.15 0.0 0 0 182.93 28.93
  Q 180.21 15.90 168.47 14.32
  C 153.99 12.38 144.30 21.66 144.30 36.05
  Z
  M 211.6832 14.9603
  A 0.58 0.58 0.0 0 0 211.1002 14.3833
  L 204.7203 14.4168
  A 0.58 0.58 0.0 0 0 204.1433 14.9998
  L 204.1768 21.3797
  A 0.58 0.58 0.0 0 0 204.7598 21.9567
  L 211.1397 21.9232
  A 0.58 0.58 0.0 0 0 211.7167 21.3402
  L 211.6832 14.9603
  Z
  M 304.88 19.20
  L 304.88 26.01
  A 0.61 0.61 0.0 0 1 304.27 26.62
  L 300.87 26.62
  A 0.78 0.78 0.0 0 0 300.09 27.40
  L 300.09 31.61
  A 0.72 0.71 0.0 0 0 300.81 32.32
  L 304.35 32.32
  A 0.53 0.52 89.4 0 1 304.87 32.84
  Q 304.91 38.07 304.85 44.58
  Q 304.77 52.14 306.01 54.24
  C 308.10 57.77 312.98 58.61 317.35 57.52
  A 1.15 1.14 -7.2 0 0 318.22 56.41
  L 318.22 52.44
  A 0.77 0.77 0.0 0 0 317.29 51.69
  C 314.82 52.22 312.00 52.05 311.91 48.74
  Q 311.89 47.83 311.91 32.94
  A 0.61 0.60 0.0 0 1 312.52 32.34
  L 317.69 32.34
  A 0.58 0.58 0.0 0 0 318.27 31.76
  L 318.27 27.17
  A 0.54 0.54 0.0 0 0 317.73 26.63
  L 312.44 26.63
  A 0.56 0.56 0.0 0 1 311.88 26.07
  L 311.88 19.29
  A 0.60 0.60 0.0 0 0 311.28 18.69
  L 305.40 18.69
  A 0.52 0.51 0.0 0 0 304.88 19.20
  Z
  M 227.50 29.24
  L 227.50 27.41
  A 0.84 0.83 -0.0 0 0 226.66 26.58
  L 221.33 26.58
  A 0.90 0.89 -0.0 0 0 220.43 27.47
  L 220.43 56.74
  A 0.52 0.52 0.0 0 0 220.95 57.26
  L 226.93 57.26
  A 0.54 0.53 90.0 0 0 227.46 56.72
  Q 227.49 42.46 227.47 41.26
  C 227.38 36.93 227.96 32.21 233.00 31.67
  C 235.98 31.35 237.94 33.74 238.00 36.54
  Q 238.14 42.38 238.06 56.75
  A 0.51 0.51 0.0 0 0 238.57 57.26
  L 244.56 57.26
  A 0.53 0.53 0.0 0 0 245.09 56.73
  Q 245.10 49.13 245.11 41.01
  C 245.12 37.12 245.53 32.71 249.74 31.80
  C 253.46 31.00 255.67 33.31 255.72 37.03
  Q 255.84 45.28 255.77 56.79
  A 0.46 0.45 -89.4 0 0 256.22 57.26
  L 262.29 57.26
  A 0.48 0.48 0.0 0 0 262.77 56.79
  Q 262.95 43.70 262.66 34.89
  C 262.32 24.65 249.99 22.71 244.64 30.32
  A 0.50 0.50 0.0 0 1 243.81 30.30
  L 242.72 28.59
  A 2.98 2.91 1.0 0 0 241.88 27.74
  Q 236.07 23.86 230.04 27.27
  C 229.32 27.68 228.46 28.99 227.93 29.44
  A 0.26 0.26 0.0 0 1 227.50 29.24
  Z
  M 275.48 36.21
  A 0.41 0.41 0.0 0 0 275.86 35.95
  Q 278.13 29.99 284.92 32.20
  Q 288.42 33.34 287.81 36.97
  A 1.82 1.81 -90.0 0 1 286.34 38.45
  C 279.82 39.64 268.71 40.09 268.60 49.14
  C 268.54 54.24 271.89 57.25 276.98 57.75
  Q 283.97 58.43 287.44 52.71
  A 0.29 0.29 0.0 0 1 287.98 52.86
  L 287.98 56.45
  A 0.84 0.83 90.0 0 0 288.81 57.29
  L 293.71 57.29
  A 1.18 1.18 0.0 0 0 294.89 56.10
  Q 294.84 49.07 294.88 41.30
  C 294.90 36.52 295.16 31.97 291.71 29.08
  C 286.93 25.09 280.49 24.83 275.33 27.21
  Q 270.44 29.46 268.88 35.98
  A 0.19 0.18 7.2 0 0 269.06 36.21
  L 275.48 36.21
  Z
  M 330.14 43.60
  L 351.41 43.60
  A 0.48 0.48 0.0 0 0 351.89 43.15
  C 352.47 33.07 347.21 24.93 336.20 25.80
  C 328.21 26.43 323.42 32.22 322.57 39.98
  C 321.22 52.24 331.12 61.07 343.04 57.28
  Q 349.58 55.21 351.31 48.41
  A 0.47 0.46 7.1 0 0 350.85 47.83
  L 346.09 47.83
  A 1.47 1.47 0.0 0 0 344.83 48.54
  Q 341.80 53.56 335.94 52.24
  Q 330.00 50.90 329.53 44.25
  A 0.61 0.60 -2.2 0 1 330.14 43.60
  Z
  M 211.41 27.02
  A 0.43 0.43 0.0 0 0 210.98 26.59
  L 204.82 26.59
  A 0.43 0.43 0.0 0 0 204.39 27.02
  L 204.39 56.82
  A 0.43 0.43 0.0 0 0 204.82 57.25
  L 210.98 57.25
  A 0.43 0.43 0.0 0 0 211.41 56.82
  L 211.41 27.02
  Z
  M 58.51 81.82
  L 58.47 57.40
  A 2.13 2.13 0.0 0 0 56.33 55.27
  L 56.20 55.27
  A 14.14 13.91 -0.1 0 0 42.09 69.20
  L 42.09 70.06
  A 14.14 13.91 -0.1 0 0 56.26 83.95
  L 56.39 83.95
  A 2.13 2.13 0.0 0 0 58.51 81.82
  Z
  M 63.78 84.09
  L 87.72 84.05
  A 2.15 2.15 0.0 0 0 89.87 81.90
  L 89.87 81.56
  A 14.23 14.04 89.9 0 0 75.81 67.35
  L 75.65 67.35
  A 14.23 14.04 89.9 0 0 61.63 81.60
  L 61.63 81.94
  A 2.15 2.15 0.0 0 0 63.78 84.09
  Z
  M 56.27 87.01
  L 32.23 86.97
  A 2.14 2.14 0.0 0 0 30.09 89.11
  L 30.09 89.31
  A 14.42 14.04 -89.9 0 0 44.11 103.75
  L 44.35 103.75
  A 14.42 14.04 -89.9 0 0 58.41 89.35
  L 58.41 89.15
  A 2.14 2.14 0.0 0 0 56.27 87.01
  Z
  M 61.48 89.11
  L 61.52 113.69
  A 2.08 2.08 0.0 0 0 63.61 115.77
  L 63.76 115.77
  A 14.21 14.04 -0.1 0 0 77.94 101.71
  L 77.94 101.05
  A 14.21 14.04 -0.1 0 0 63.70 87.03
  L 63.55 87.03
  A 2.08 2.08 0.0 0 0 61.48 89.11
  Z
  M 218.1822 96.1508
  A 0.64 0.64 0.0 0 0 217.5400 95.5130
  L 213.5400 95.5270
  A 0.64 0.64 0.0 0 0 212.9022 96.1692
  L 212.9178 100.6292
  A 0.64 0.64 0.0 0 0 213.5600 101.2670
  L 217.5600 101.2530
  A 0.64 0.64 0.0 0 0 218.1978 100.6108
  L 218.1822 96.1508
  Z
  M 399.1817 96.2569
  A 0.76 0.76 0.0 0 0 398.4151 95.5035
  L 394.6152 95.5367
  A 0.76 0.76 0.0 0 0 393.8619 96.3033
  L 393.8983 100.4831
  A 0.76 0.76 0.0 0 0 394.6649 101.2365
  L 398.4648 101.2033
  A 0.76 0.76 0.0 0 0 399.2181 100.4367
  L 399.1817 96.2569
  Z
  M 156.24 119.05
  Q 161.04 119.05 161.79 119.07
  A 1.21 1.20 80.1 0 1 162.89 119.85
  L 164.93 125.20
  A 0.94 0.92 79.3 0 0 165.79 125.80
  L 169.69 125.80
  A 0.54 0.54 0.0 0 0 170.19 125.07
  L 159.22 96.26
  A 0.66 0.66 0.0 0 0 158.61 95.84
  Q 157.60 95.83 156.27 95.83
  Q 154.93 95.83 153.92 95.83
  A 0.66 0.66 0.0 0 0 153.31 96.25
  L 142.28 125.04
  A 0.54 0.54 0.0 0 0 142.78 125.77
  L 146.68 125.78
  A 0.94 0.92 -79.2 0 0 147.54 125.18
  L 149.59 119.84
  A 1.21 1.20 -80.0 0 1 150.69 119.06
  Q 151.45 119.04 156.24 119.05
  Z
  M 307.9250 96.5056
  A 0.64 0.64 0.0 0 0 307.2839 95.8667
  L 303.5039 95.8733
  A 0.64 0.64 0.0 0 0 302.8650 96.5144
  L 302.9150 125.1944
  A 0.64 0.64 0.0 0 0 303.5561 125.8333
  L 307.3361 125.8267
  A 0.64 0.64 0.0 0 0 307.9750 125.1856
  L 307.9250 96.5056
  Z
  M 208.50 105.12
  A 0.67 0.67 0.0 0 0 207.83 104.45
  L 204.56 104.45
  A 0.54 0.53 0.0 0 1 204.03 103.92
  L 204.03 99.38
  A 0.81 0.81 0.0 0 0 203.22 98.57
  L 199.91 98.57
  A 0.81 0.81 0.0 0 0 199.10 99.38
  L 199.10 103.77
  A 0.67 0.66 0.0 0 1 198.43 104.43
  L 196.48 104.43
  A 0.74 0.73 -90.0 0 0 195.75 105.17
  L 195.75 107.78
  A 0.71 0.71 0.0 0 0 196.46 108.49
  L 198.43 108.49
  A 0.69 0.69 0.0 0 1 199.12 109.18
  Q 199.04 117.24 199.21 120.75
  C 199.44 125.80 203.44 126.80 207.63 126.02
  A 1.03 1.02 84.6 0 0 208.46 125.01
  L 208.46 122.76
  A 0.87 0.87 0.0 0 0 207.44 121.90
  Q 204.13 122.51 204.07 119.53
  Q 203.98 115.78 204.05 109.07
  A 0.58 0.58 0.0 0 1 204.63 108.49
  L 207.78 108.49
  A 0.72 0.72 0.0 0 0 208.50 107.77
  L 208.50 105.12
  Z
  M 349.51 105.10
  A 0.67 0.67 0.0 0 0 348.84 104.43
  L 345.57 104.43
  A 0.54 0.53 -0.0 0 1 345.03 103.90
  L 345.03 99.36
  A 0.81 0.81 0.0 0 0 344.22 98.55
  L 340.91 98.55
  A 0.81 0.81 0.0 0 0 340.10 99.36
  L 340.10 103.76
  A 0.67 0.66 0.0 0 1 339.43 104.42
  L 337.48 104.42
  A 0.74 0.73 -90.0 0 0 336.75 105.16
  L 336.75 107.77
  A 0.71 0.71 0.0 0 0 337.46 108.48
  L 339.44 108.48
  A 0.69 0.69 0.0 0 1 340.13 109.17
  Q 340.05 117.23 340.22 120.74
  C 340.46 125.80 344.46 126.79 348.65 126.01
  A 1.03 1.02 84.6 0 0 349.48 125.00
  L 349.48 122.75
  A 0.87 0.87 0.0 0 0 348.46 121.89
  Q 345.15 122.50 345.08 119.52
  Q 344.99 115.77 345.06 109.05
  A 0.58 0.58 0.0 0 1 345.64 108.47
  L 348.79 108.47
  A 0.72 0.72 0.0 0 0 349.51 107.75
  L 349.51 105.10
  Z
  M 172.80 115.03
  C 172.75 121.92 177.92 127.10 185.00 126.29
  Q 190.95 125.61 192.93 119.50
  A 0.86 0.86 0.0 0 0 192.11 118.38
  L 189.13 118.38
  A 1.47 1.46 -80.9 0 0 187.74 119.40
  Q 187.26 120.90 186.01 121.47
  C 181.19 123.70 177.81 119.73 177.85 115.06
  C 177.88 110.40 181.32 106.48 186.11 108.78
  Q 187.35 109.37 187.80 110.88
  A 1.47 1.46 81.8 0 0 189.18 111.92
  L 192.16 111.96
  A 0.86 0.86 0.0 0 0 192.99 110.86
  Q 191.11 104.72 185.17 103.95
  C 178.10 103.03 172.85 108.13 172.80 115.03
  Z
  M 262.40 119.19
  A 1.98 1.96 12.4 0 0 260.61 120.32
  Q 259.87 121.88 258.00 122.13
  Q 251.70 122.98 250.70 117.10
  A 0.68 0.68 0.0 0 1 251.37 116.31
  L 265.69 116.31
  A 0.58 0.58 0.0 0 0 266.27 115.76
  C 266.61 109.38 263.27 103.55 256.21 103.77
  C 242.41 104.20 242.49 125.61 255.65 126.40
  C 260.42 126.69 263.87 124.83 265.77 120.39
  A 0.87 0.86 11.5 0 0 264.97 119.19
  L 262.40 119.19
  Z
  M 318.46 125.78
  A 0.62 0.62 0.0 0 0 319.08 125.16
  Q 319.00 116.63 319.01 115.27
  C 319.04 112.45 319.77 108.60 323.04 108.18
  Q 327.74 107.57 328.15 112.30
  Q 328.39 115.12 328.28 125.22
  A 0.57 0.56 90.0 0 0 328.84 125.79
  L 332.65 125.79
  A 0.55 0.55 0.0 0 0 333.20 125.25
  Q 333.41 117.77 333.13 112.12
  Q 332.73 103.76 324.84 103.78
  Q 321.99 103.79 319.92 106.24
  A 0.33 0.33 0.0 0 1 319.36 106.14
  L 318.84 104.77
  A 0.62 0.62 0.0 0 0 318.26 104.37
  L 314.80 104.37
  A 0.70 0.69 90.0 0 0 314.11 105.07
  L 314.11 125.25
  A 0.53 0.53 0.0 0 0 314.64 125.78
  L 318.46 125.78
  Z
  M 369.43 119.17
  A 1.99 1.97 12.1 0 0 367.65 120.31
  Q 366.92 121.87 365.05 122.14
  Q 358.74 123.03 357.71 117.15
  A 0.68 0.68 0.0 0 1 358.37 116.35
  L 372.71 116.26
  A 0.58 0.58 0.0 0 0 373.28 115.71
  C 373.59 109.32 370.21 103.50 363.14 103.77
  C 349.33 104.28 349.54 125.72 362.72 126.42
  C 367.50 126.69 370.94 124.80 372.81 120.35
  A 0.87 0.86 11.1 0 0 372.00 119.15
  L 369.43 119.17
  Z
  M 414.5601 103.5701
  A 11.48 10.89 -89.8 0 0 403.6301 115.0120
  A 11.48 10.89 -89.8 0 0 414.4799 126.5299
  A 11.48 10.89 -89.8 0 0 425.4099 115.0880
  A 11.48 10.89 -89.8 0 0 414.5601 103.5701
  Z
  M 435.25 106.75
  Q 434.94 106.18 435.04 105.24
  A 0.79 0.79 0.0 0 0 434.25 104.37
  L 431.01 104.37
  A 0.88 0.87 0.0 0 0 430.13 105.24
  L 430.13 125.16
  A 0.58 0.58 0.0 0 0 430.71 125.74
  L 434.46 125.74
  A 0.60 0.60 0.0 0 0 435.06 125.12
  Q 434.95 121.03 434.99 116.29
  Q 435.04 108.92 441.18 108.94
  A 0.70 0.70 0.0 0 0 441.88 108.24
  L 441.88 104.93
  A 0.71 0.71 0.0 0 0 441.19 104.22
  Q 437.52 104.11 435.81 106.77
  A 0.33 0.32 -42.8 0 1 435.25 106.75
  Z
  M 217.9623 104.9557
  A 0.53 0.53 0.0 0 0 217.4314 104.4266
  L 213.5714 104.4334
  A 0.53 0.53 0.0 0 0 213.0423 104.9643
  L 213.0777 125.2443
  A 0.53 0.53 0.0 0 0 213.6086 125.7734
  L 217.4686 125.7666
  A 0.53 0.53 0.0 0 0 217.9977 125.2357
  L 217.9623 104.9557
  Z
  M 232.78 125.78
  Q 234.50 125.78 234.71 125.74
  A 1.02 1.02 0.0 0 0 235.50 125.10
  L 243.42 105.21
  A 0.58 0.58 0.0 0 0 242.88 104.41
  L 239.43 104.41
  A 1.11 1.11 0.0 0 0 238.40 105.11
  Q 236.38 110.26 233.38 118.40
  Q 233.02 119.39 232.78 119.39
  Q 232.54 119.39 232.17 118.40
  Q 229.18 110.26 227.16 105.11
  A 1.11 1.11 0.0 0 0 226.13 104.41
  L 222.68 104.41
  A 0.58 0.58 0.0 0 0 222.14 105.21
  L 230.05 125.10
  A 1.02 1.02 0.0 0 0 230.85 125.74
  Q 231.06 125.78 232.78 125.78
  Z
  M 383.25 106.75
  Q 382.94 106.18 383.04 105.23
  A 0.80 0.79 3.0 0 0 382.25 104.36
  L 379.00 104.36
  A 0.88 0.87 0.0 0 0 378.12 105.23
  L 378.11 125.21
  A 0.58 0.58 0.0 0 0 378.69 125.79
  L 382.45 125.79
  A 0.60 0.60 0.0 0 0 383.06 125.17
  Q 382.95 121.07 382.99 116.32
  Q 383.04 108.92 389.20 108.95
  A 0.70 0.70 0.0 0 0 389.90 108.25
  L 389.90 104.93
  A 0.71 0.71 0.0 0 0 389.21 104.21
  Q 385.53 104.10 383.82 106.77
  A 0.33 0.33 0.0 0 1 383.25 106.75
  Z
  M 398.99 105.04
  A 0.60 0.60 0.0 0 0 398.39 104.44
  L 394.65 104.44
  A 0.60 0.60 0.0 0 0 394.05 105.04
  L 394.05 125.20
  A 0.60 0.60 0.0 0 0 394.65 125.80
  L 398.39 125.80
  A 0.60 0.60 0.0 0 0 398.99 125.20
  L 398.99 105.04
  Z
  M 286.7864 108.8851
  A 0.78 0.78 0.0 0 0 286.0050 108.1065
  L 281.9450 108.1135
  A 0.78 0.78 0.0 0 0 281.1664 108.8949
  L 281.1736 113.0149
  A 0.78 0.78 0.0 0 0 281.9550 113.7935
  L 286.0150 113.7865
  A 0.78 0.78 0.0 0 0 286.7936 113.0051
  L 286.7864 108.8851
  Z"
/>
<rect fill="#f3f3f3" x="188.90" y="13.58" width="6.96" height="43.68" rx="0.46"/>
<path fill="#f3f3f3" d="
  M 151.61 36.05
  C 151.61 45.51 157.03 52.75 167.10 51.38
  Q 173.29 50.54 175.80 43.28
  A 0.43 0.43 0.0 0 1 176.21 42.99
  L 182.78 42.99
  A 0.15 0.15 0.0 0 1 182.93 43.17
  Q 180.21 56.20 168.47 57.78
  C 153.99 59.72 144.30 50.45 144.30 36.05
  C 144.30 21.66 153.99 12.38 168.47 14.32
  Q 180.21 15.90 182.93 28.93
  A 0.15 0.15 0.0 0 1 182.78 29.11
  L 176.21 29.11
  A 0.43 0.43 0.0 0 1 175.80 28.82
  Q 173.29 21.56 167.10 20.72
  C 157.03 19.36 151.61 26.59 151.61 36.05
  Z"
/>
<rect fill="#f3f3f3" x="-3.77" y="-3.77" transform="translate(207.93,18.17) rotate(-0.3)" width="7.54" height="7.54" rx="0.58"/>
<path fill="#f3f3f3" d="
  M 304.88 19.20
  A 0.52 0.51 -0.0 0 1 305.40 18.69
  L 311.28 18.69
  A 0.60 0.60 0.0 0 1 311.88 19.29
  L 311.88 26.07
  A 0.56 0.56 0.0 0 0 312.44 26.63
  L 317.73 26.63
  A 0.54 0.54 0.0 0 1 318.27 27.17
  L 318.27 31.76
  A 0.58 0.58 0.0 0 1 317.69 32.34
  L 312.52 32.34
  A 0.61 0.60 0.0 0 0 311.91 32.94
  Q 311.89 47.83 311.91 48.74
  C 312.00 52.05 314.82 52.22 317.29 51.69
  A 0.77 0.77 0.0 0 1 318.22 52.44
  L 318.22 56.41
  A 1.15 1.14 -7.2 0 1 317.35 57.52
  C 312.98 58.61 308.10 57.77 306.01 54.24
  Q 304.77 52.14 304.85 44.58
  Q 304.91 38.07 304.87 32.84
  A 0.53 0.52 89.4 0 0 304.35 32.32
  L 300.81 32.32
  A 0.72 0.71 -0.0 0 1 300.09 31.61
  L 300.09 27.40
  A 0.78 0.78 0.0 0 1 300.87 26.62
  L 304.27 26.62
  A 0.61 0.61 0.0 0 0 304.88 26.01
  L 304.88 19.20
  Z"
/>
<path fill="#f3f3f3" d="
  M 227.93 29.44
  C 228.46 28.99 229.32 27.68 230.04 27.27
  Q 236.07 23.86 241.88 27.74
  A 2.98 2.91 1.0 0 1 242.72 28.59
  L 243.81 30.30
  A 0.50 0.50 0.0 0 0 244.64 30.32
  C 249.99 22.71 262.32 24.65 262.66 34.89
  Q 262.95 43.70 262.77 56.79
  A 0.48 0.48 0.0 0 1 262.29 57.26
  L 256.22 57.26
  A 0.46 0.45 -89.4 0 1 255.77 56.79
  Q 255.84 45.28 255.72 37.03
  C 255.67 33.31 253.46 31.00 249.74 31.80
  C 245.53 32.71 245.12 37.12 245.11 41.01
  Q 245.10 49.13 245.09 56.73
  A 0.53 0.53 0.0 0 1 244.56 57.26
  L 238.57 57.26
  A 0.51 0.51 0.0 0 1 238.06 56.75
  Q 238.14 42.38 238.00 36.54
  C 237.94 33.74 235.98 31.35 233.00 31.67
  C 227.96 32.21 227.38 36.93 227.47 41.26
  Q 227.49 42.46 227.46 56.72
  A 0.54 0.53 90.0 0 1 226.93 57.26
  L 220.95 57.26
  A 0.52 0.52 0.0 0 1 220.43 56.74
  L 220.43 27.47
  A 0.90 0.89 -0.0 0 1 221.33 26.58
  L 226.66 26.58
  A 0.84 0.83 0.0 0 1 227.50 27.41
  L 227.50 29.24
  A 0.26 0.26 0.0 0 0 227.93 29.44
  Z"
/>
<path fill="#f3f3f3" d="
  M 275.48 36.21
  L 269.06 36.21
  A 0.19 0.18 7.2 0 1 268.88 35.98
  Q 270.44 29.46 275.33 27.21
  C 280.49 24.83 286.93 25.09 291.71 29.08
  C 295.16 31.97 294.90 36.52 294.88 41.30
  Q 294.84 49.07 294.89 56.10
  A 1.18 1.18 0.0 0 1 293.71 57.29
  L 288.81 57.29
  A 0.84 0.83 -90.0 0 1 287.98 56.45
  L 287.98 52.86
  A 0.29 0.29 0.0 0 0 287.44 52.71
  Q 283.97 58.43 276.98 57.75
  C 271.89 57.25 268.54 54.24 268.60 49.14
  C 268.71 40.09 279.82 39.64 286.34 38.45
  A 1.82 1.81 -90.0 0 0 287.81 36.97
  Q 288.42 33.34 284.92 32.20
  Q 278.13 29.99 275.86 35.95
  A 0.41 0.41 0.0 0 1 275.48 36.21
  Z
  M 287.19 42.46
  Q 285.90 42.85 279.64 44.09
  C 272.85 45.43 275.10 54.22 281.81 52.18
  Q 288.04 50.30 287.94 43.01
  A 0.58 0.58 0.0 0 0 287.19 42.46
  Z"
/>
<path fill="#f3f3f3" d="
  M 329.53 44.25
  Q 330.00 50.90 335.94 52.24
  Q 341.80 53.56 344.83 48.54
  A 1.47 1.47 0.0 0 1 346.09 47.83
  L 350.85 47.83
  A 0.47 0.46 7.1 0 1 351.31 48.41
  Q 349.58 55.21 343.04 57.28
  C 331.12 61.07 321.22 52.24 322.57 39.98
  C 323.42 32.22 328.21 26.43 336.20 25.80
  C 347.21 24.93 352.47 33.07 351.89 43.15
  A 0.48 0.48 0.0 0 1 351.41 43.60
  L 330.14 43.60
  A 0.61 0.60 -2.2 0 0 329.53 44.25
  Z
  M 330.02 38.89
  L 344.88 38.79
  A 0.17 0.17 0.0 0 0 345.04 38.62
  L 345.04 38.54
  A 7.28 7.05 -0.4 0 0 337.71 31.54
  L 337.07 31.54
  A 7.28 7.05 -0.4 0 0 329.84 38.64
  L 329.84 38.72
  A 0.17 0.17 0.0 0 0 330.02 38.89
  Z"
/>
<rect fill="#f3f3f3" x="204.39" y="26.59" width="7.02" height="30.66" rx="0.43"/>
<path fill="#161719" d="
  M 330.02 38.89
  A 0.17 0.17 0.0 0 1 329.84 38.72
  L 329.84 38.64
  A 7.28 7.05 -0.4 0 1 337.07 31.54
  L 337.71 31.54
  A 7.28 7.05 -0.4 0 1 345.04 38.54
  L 345.04 38.62
  A 0.17 0.17 0.0 0 1 344.88 38.79
  L 330.02 38.89
  Z"
/>
<path fill="#161719" d="
  M 287.94 43.01
  Q 288.04 50.30 281.81 52.18
  C 275.10 54.22 272.85 45.43 279.64 44.09
  Q 285.90 42.85 287.19 42.46
  A 0.58 0.58 0.0 0 1 287.94 43.01
  Z"
/>
<path fill="#8b8b8b" d="
  M 58.51 81.82
  A 2.13 2.13 0.0 0 1 56.39 83.95
  L 56.26 83.95
  A 14.14 13.91 -0.1 0 1 42.09 70.06
  L 42.09 69.20
  A 14.14 13.91 -0.1 0 1 56.20 55.27
  L 56.33 55.27
  A 2.13 2.13 0.0 0 1 58.47 57.40
  L 58.51 81.82
  Z"
/>
<path fill="#8b8b8b" d="
  M 63.78 84.09
  A 2.15 2.15 0.0 0 1 61.63 81.94
  L 61.63 81.60
  A 14.23 14.04 89.9 0 1 75.65 67.35
  L 75.81 67.35
  A 14.23 14.04 89.9 0 1 89.87 81.56
  L 89.87 81.90
  A 2.15 2.15 0.0 0 1 87.72 84.05
  L 63.78 84.09
  Z"
/>
<path fill="#8b8b8b" d="
  M 56.27 87.01
  A 2.14 2.14 0.0 0 1 58.41 89.15
  L 58.41 89.35
  A 14.42 14.04 -89.9 0 1 44.35 103.75
  L 44.11 103.75
  A 14.42 14.04 -89.9 0 1 30.09 89.31
  L 30.09 89.11
  A 2.14 2.14 0.0 0 1 32.23 86.97
  L 56.27 87.01
  Z"
/>
<path fill="#8b8b8b" d="
  M 61.48 89.11
  A 2.08 2.08 0.0 0 1 63.55 87.03
  L 63.70 87.03
  A 14.21 14.04 -0.1 0 1 77.94 101.05
  L 77.94 101.71
  A 14.21 14.04 -0.1 0 1 63.76 115.77
  L 63.61 115.77
  A 2.08 2.08 0.0 0 1 61.52 113.69
  L 61.48 89.11
  Z"
/>
<rect fill="#f3f3f3" x="-2.64" y="-2.87" transform="translate(215.55,98.39) rotate(-0.2)" width="5.28" height="5.74" rx="0.64"/>
<rect fill="#8b8b8b" x="-2.66" y="-2.85" transform="translate(396.54,98.37) rotate(-0.5)" width="5.32" height="5.70" rx="0.76"/>
<path fill="#f3f3f3" d="
  M 156.27 95.83
  Q 157.60 95.83 158.61 95.84
  A 0.66 0.66 0.0 0 1 159.22 96.26
  L 170.19 125.07
  A 0.54 0.54 0.0 0 1 169.69 125.80
  L 165.79 125.80
  A 0.94 0.92 79.3 0 1 164.93 125.20
  L 162.89 119.85
  A 1.21 1.20 80.1 0 0 161.79 119.07
  Q 161.04 119.05 156.24 119.05
  Q 151.45 119.04 150.69 119.06
  A 1.21 1.20 -80.0 0 0 149.59 119.84
  L 147.54 125.18
  A 0.94 0.92 -79.2 0 1 146.68 125.78
  L 142.78 125.77
  A 0.54 0.54 0.0 0 1 142.28 125.04
  L 153.31 96.25
  A 0.66 0.66 0.0 0 1 153.92 95.83
  Q 154.93 95.83 156.27 95.83
  Z
  M 151.79 114.05
  A 0.33 0.33 0.0 0 0 152.10 114.50
  L 160.29 114.52
  A 0.33 0.33 0.0 0 0 160.60 114.08
  L 156.54 103.15
  A 0.33 0.33 0.0 0 0 155.93 103.15
  L 151.79 114.05
  Z"
/>
<rect fill="#8b8b8b" x="-2.53" y="-14.98" transform="translate(305.42,110.85) rotate(-0.1)" width="5.06" height="29.96" rx="0.64"/>
<path fill="#f3f3f3" d="
  M 208.50 105.12
  L 208.50 107.77
  A 0.72 0.72 0.0 0 1 207.78 108.49
  L 204.63 108.49
  A 0.58 0.58 0.0 0 0 204.05 109.07
  Q 203.98 115.78 204.07 119.53
  Q 204.13 122.51 207.44 121.90
  A 0.87 0.87 0.0 0 1 208.46 122.76
  L 208.46 125.01
  A 1.03 1.02 84.6 0 1 207.63 126.02
  C 203.44 126.80 199.44 125.80 199.21 120.75
  Q 199.04 117.24 199.12 109.18
  A 0.69 0.69 0.0 0 0 198.43 108.49
  L 196.46 108.49
  A 0.71 0.71 0.0 0 1 195.75 107.78
  L 195.75 105.17
  A 0.74 0.73 -90.0 0 1 196.48 104.43
  L 198.43 104.43
  A 0.67 0.66 0.0 0 0 199.10 103.77
  L 199.10 99.38
  A 0.81 0.81 0.0 0 1 199.91 98.57
  L 203.22 98.57
  A 0.81 0.81 0.0 0 1 204.03 99.38
  L 204.03 103.92
  A 0.54 0.53 0.0 0 0 204.56 104.45
  L 207.83 104.45
  A 0.67 0.67 0.0 0 1 208.50 105.12
  Z"
/>
<path fill="#8b8b8b" d="
  M 348.79 108.47
  L 345.64 108.47
  A 0.58 0.58 0.0 0 0 345.06 109.05
  Q 344.99 115.77 345.08 119.52
  Q 345.15 122.50 348.46 121.89
  A 0.87 0.87 0.0 0 1 349.48 122.75
  L 349.48 125.00
  A 1.03 1.02 84.6 0 1 348.65 126.01
  C 344.46 126.79 340.46 125.80 340.22 120.74
  Q 340.05 117.23 340.13 109.17
  A 0.69 0.69 0.0 0 0 339.44 108.48
  L 337.46 108.48
  A 0.71 0.71 0.0 0 1 336.75 107.77
  L 336.75 105.16
  A 0.74 0.73 90.0 0 1 337.48 104.42
  L 339.43 104.42
  A 0.67 0.66 0.0 0 0 340.10 103.76
  L 340.10 99.36
  A 0.81 0.81 0.0 0 1 340.91 98.55
  L 344.22 98.55
  A 0.81 0.81 0.0 0 1 345.03 99.36
  L 345.03 103.90
  A 0.54 0.53 0.0 0 0 345.57 104.43
  L 348.84 104.43
  A 0.67 0.67 0.0 0 1 349.51 105.10
  L 349.51 107.75
  A 0.72 0.72 0.0 0 1 348.79 108.47
  Z"
/>
<path fill="#161719" d="
  M 151.79 114.05
  L 155.93 103.15
  A 0.33 0.33 0.0 0 1 156.54 103.15
  L 160.60 114.08
  A 0.33 0.33 0.0 0 1 160.29 114.52
  L 152.10 114.50
  A 0.33 0.33 0.0 0 1 151.79 114.05
  Z"
/>
<path fill="#f3f3f3" d="
  M 177.85 115.06
  C 177.81 119.73 181.19 123.70 186.01 121.47
  Q 187.26 120.90 187.74 119.40
  A 1.47 1.46 -80.9 0 1 189.13 118.38
  L 192.11 118.38
  A 0.86 0.86 0.0 0 1 192.93 119.50
  Q 190.95 125.61 185.00 126.29
  C 177.92 127.10 172.75 121.92 172.80 115.03
  C 172.85 108.13 178.10 103.03 185.17 103.95
  Q 191.11 104.72 192.99 110.86
  A 0.86 0.86 0.0 0 1 192.16 111.96
  L 189.18 111.92
  A 1.47 1.46 81.8 0 1 187.80 110.88
  Q 187.35 109.37 186.11 108.78
  C 181.32 106.48 177.88 110.40 177.85 115.06
  Z"
/>
<path fill="#f3f3f3" d="
  M 262.40 119.19
  L 264.97 119.19
  A 0.87 0.86 11.5 0 1 265.77 120.39
  C 263.87 124.83 260.42 126.69 255.65 126.40
  C 242.49 125.61 242.41 104.20 256.21 103.77
  C 263.27 103.55 266.61 109.38 266.27 115.76
  A 0.58 0.58 0.0 0 1 265.69 116.31
  L 251.37 116.31
  A 0.68 0.68 0.0 0 0 250.70 117.10
  Q 251.70 122.98 258.00 122.13
  Q 259.87 121.88 260.61 120.32
  A 1.98 1.96 12.4 0 1 262.40 119.19
  Z
  M 251.15 112.94
  L 261.33 112.82
  A 0.15 0.15 0.0 0 0 261.48 112.67
  L 261.48 112.59
  A 5.09 4.75 -0.7 0 0 256.33 107.90
  L 256.03 107.90
  A 5.09 4.75 -0.7 0 0 251.00 112.71
  L 251.00 112.79
  A 0.15 0.15 0.0 0 0 251.15 112.94
  Z"
/>
<path fill="#8b8b8b" d="
  M 318.46 125.78
  L 314.64 125.78
  A 0.53 0.53 0.0 0 1 314.11 125.25
  L 314.11 105.07
  A 0.70 0.69 90.0 0 1 314.80 104.37
  L 318.26 104.37
  A 0.62 0.62 0.0 0 1 318.84 104.77
  L 319.36 106.14
  A 0.33 0.33 0.0 0 0 319.92 106.24
  Q 321.99 103.79 324.84 103.78
  Q 332.73 103.76 333.13 112.12
  Q 333.41 117.77 333.20 125.25
  A 0.55 0.55 0.0 0 1 332.65 125.79
  L 328.84 125.79
  A 0.57 0.56 -90.0 0 1 328.28 125.22
  Q 328.39 115.12 328.15 112.30
  Q 327.74 107.57 323.04 108.18
  C 319.77 108.60 319.04 112.45 319.01 115.27
  Q 319.00 116.63 319.08 125.16
  A 0.62 0.62 0.0 0 1 318.46 125.78
  Z"
/>
<path fill="#8b8b8b" d="
  M 369.43 119.17
  L 372.00 119.15
  A 0.87 0.86 11.1 0 1 372.81 120.35
  C 370.94 124.80 367.50 126.69 362.72 126.42
  C 349.54 125.72 349.33 104.28 363.14 103.77
  C 370.21 103.50 373.59 109.32 373.28 115.71
  A 0.58 0.58 0.0 0 1 372.71 116.26
  L 358.37 116.35
  A 0.68 0.68 0.0 0 0 357.71 117.15
  Q 358.74 123.03 365.05 122.14
  Q 366.92 121.87 367.65 120.31
  A 1.99 1.97 12.1 0 1 369.43 119.17
  Z
  M 358.23 112.93
  L 368.21 112.79
  A 0.18 0.18 0.0 0 0 368.39 112.61
  L 368.39 112.53
  A 4.64 4.52 -0.8 0 0 363.69 108.07
  L 362.63 108.09
  A 4.64 4.52 -0.8 0 0 358.05 112.67
  L 358.05 112.75
  A 0.18 0.18 0.0 0 0 358.23 112.93
  Z"
/>
<path fill="#8b8b8b" d="
  M 414.5601 103.5701
  A 11.48 10.89 -89.8 0 1 425.4099 115.0880
  A 11.48 10.89 -89.8 0 1 414.4799 126.5299
  A 11.48 10.89 -89.8 0 1 403.6301 115.0120
  A 11.48 10.89 -89.8 0 1 414.5601 103.5701
  Z
  M 414.5893 108.1202
  A 7.06 5.66 -89.6 0 0 408.8801 115.1405
  A 7.06 5.66 -89.6 0 0 414.4907 122.2398
  A 7.06 5.66 -89.6 0 0 420.1999 115.2195
  A 7.06 5.66 -89.6 0 0 414.5893 108.1202
  Z"
/>
<path fill="#8b8b8b" d="
  M 435.81 106.77
  Q 437.52 104.11 441.19 104.22
  A 0.71 0.71 0.0 0 1 441.88 104.93
  L 441.88 108.24
  A 0.70 0.70 0.0 0 1 441.18 108.94
  Q 435.04 108.92 434.99 116.29
  Q 434.95 121.03 435.06 125.12
  A 0.60 0.60 0.0 0 1 434.46 125.74
  L 430.71 125.74
  A 0.58 0.58 0.0 0 1 430.13 125.16
  L 430.13 105.24
  A 0.88 0.87 -0.0 0 1 431.01 104.37
  L 434.25 104.37
  A 0.79 0.79 0.0 0 1 435.04 105.24
  Q 434.94 106.18 435.25 106.75
  A 0.33 0.32 -42.8 0 0 435.81 106.77
  Z"
/>
<rect fill="#f3f3f3" x="-2.46" y="-10.67" transform="translate(215.52,115.10) rotate(-0.1)" width="4.92" height="21.34" rx="0.53"/>
<path fill="#f3f3f3" d="
  M 232.78 119.39
  Q 233.02 119.39 233.38 118.40
  Q 236.38 110.26 238.40 105.11
  A 1.11 1.11 0.0 0 1 239.43 104.41
  L 242.88 104.41
  A 0.58 0.58 0.0 0 1 243.42 105.21
  L 235.50 125.10
  A 1.02 1.02 0.0 0 1 234.71 125.74
  Q 234.50 125.78 232.78 125.78
  Q 231.06 125.78 230.85 125.74
  A 1.02 1.02 0.0 0 1 230.05 125.10
  L 222.14 105.21
  A 0.58 0.58 0.0 0 1 222.68 104.41
  L 226.13 104.41
  A 1.11 1.11 0.0 0 1 227.16 105.11
  Q 229.18 110.26 232.17 118.40
  Q 232.54 119.39 232.78 119.39
  Z"
/>
<path fill="#8b8b8b" d="
  M 383.25 106.75
  A 0.33 0.33 0.0 0 0 383.82 106.77
  Q 385.53 104.10 389.21 104.21
  A 0.71 0.71 0.0 0 1 389.90 104.93
  L 389.90 108.25
  A 0.70 0.70 0.0 0 1 389.20 108.95
  Q 383.04 108.92 382.99 116.32
  Q 382.95 121.07 383.06 125.17
  A 0.60 0.60 0.0 0 1 382.45 125.79
  L 378.69 125.79
  A 0.58 0.58 0.0 0 1 378.11 125.21
  L 378.12 105.23
  A 0.88 0.87 0.0 0 1 379.00 104.36
  L 382.25 104.36
  A 0.80 0.79 3.0 0 1 383.04 105.23
  Q 382.94 106.18 383.25 106.75
  Z"
/>
<rect fill="#8b8b8b" x="394.05" y="104.44" width="4.94" height="21.36" rx="0.60"/>
<path fill="#161719" d="
  M 251.15 112.94
  A 0.15 0.15 0.0 0 1 251.00 112.79
  L 251.00 112.71
  A 5.09 4.75 -0.7 0 1 256.03 107.90
  L 256.33 107.90
  A 5.09 4.75 -0.7 0 1 261.48 112.59
  L 261.48 112.67
  A 0.15 0.15 0.0 0 1 261.33 112.82
  L 251.15 112.94
  Z"
/>
<rect fill="#8b8b8b" x="-2.81" y="-2.84" transform="translate(283.98,110.95) rotate(-0.1)" width="5.62" height="5.68" rx="0.78"/>
<path fill="#161719" d="
  M 358.23 112.93
  A 0.18 0.18 0.0 0 1 358.05 112.75
  L 358.05 112.67
  A 4.64 4.52 -0.8 0 1 362.63 108.09
  L 363.69 108.07
  A 4.64 4.52 -0.8 0 1 368.39 112.53
  L 368.39 112.61
  A 0.18 0.18 0.0 0 1 368.21 112.79
  L 358.23 112.93
  Z"
/>
<ellipse fill="#161719" cx="0.00" cy="0.00" transform="translate(414.54,115.18) rotate(-89.6)" rx="7.06" ry="5.66"/>
</svg>
