<?xml version="1.0" encoding="UTF-8" standalone="no"?>
<!DOCTYPE svg PUBLIC "-//W3C//DTD SVG 1.1//EN" "http://www.w3.org/Graphics/SVG/1.1/DTD/svg11.dtd">
<svg xmlns="http://www.w3.org/2000/svg" version="1.1" viewBox="0.00 0.00 105.00 105.00">
<path stroke="#515152" stroke-width="2.00" fill="none" stroke-linecap="butt" vector-effect="non-scaling-stroke" d="
  M 52.68 87.48
  Q 60.94 73.71 75.46 48.55
  A 1.25 1.19 -58.3 0 0 75.11 46.91
  C 74.04 46.21 62.96 46.63 54.96 46.65
  A 1.30 1.30 0.0 0 1 53.66 45.35
  Q 53.62 23.82 53.69 20.00
  Q 53.71 18.85 53.25 18.38
  A 1.30 1.30 0.0 0 0 51.20 18.63
  Q 45.64 28.16 28.59 57.33
  A 1.38 1.33 -59.7 0 0 29.04 59.19
  Q 29.31 59.35 29.75 59.36
  Q 32.91 59.40 49.06 59.37
  A 1.31 1.30 89.8 0 1 50.37 60.68
  Q 50.37 72.26 50.36 86.67
  C 50.36 87.55 51.08 88.15 51.98 87.97
  A 1.05 1.05 0.0 0 0 52.68 87.48"
/>
<path fill="#161719" d="
  M 105.00 0.00
  L 105.00 105.00
  L 0.00 105.00
  L 0.00 0.00
  L 105.00 0.00
  Z
  M 52.68 87.48
  Q 60.94 73.71 75.46 48.55
  A 1.25 1.19 -58.3 0 0 75.11 46.91
  C 74.04 46.21 62.96 46.63 54.96 46.65
  A 1.30 1.30 0.0 0 1 53.66 45.35
  Q 53.62 23.82 53.69 20.00
  Q 53.71 18.85 53.25 18.38
  A 1.30 1.30 0.0 0 0 51.20 18.63
  Q 45.64 28.16 28.59 57.33
  A 1.38 1.33 -59.7 0 0 29.04 59.19
  Q 29.31 59.35 29.75 59.36
  Q 32.91 59.40 49.06 59.37
  A 1.31 1.30 89.8 0 1 50.37 60.68
  Q 50.37 72.26 50.36 86.67
  C 50.36 87.55 51.08 88.15 51.98 87.97
  A 1.05 1.05 0.0 0 0 52.68 87.48
  Z"
/>
<path fill="#8b8b8b" d="
  M 51.98 87.97
  C 51.08 88.15 50.36 87.55 50.36 86.67
  Q 50.37 72.26 50.37 60.68
  A 1.31 1.30 89.8 0 0 49.06 59.37
  Q 32.91 59.40 29.75 59.36
  Q 29.31 59.35 29.04 59.19
  A 1.38 1.33 -59.7 0 1 28.59 57.33
  Q 45.64 28.16 51.20 18.63
  A 1.30 1.30 0.0 0 1 53.25 18.38
  Q 53.71 18.85 53.69 20.00
  Q 53.62 23.82 53.66 45.35
  A 1.30 1.30 0.0 0 0 54.96 46.65
  C 62.96 46.63 74.04 46.21 75.11 46.91
  A 1.25 1.19 -58.3 0 1 75.46 48.55
  Q 60.94 73.71 52.68 87.48
  A 1.05 1.05 0.0 0 1 51.98 87.97
  Z"
/>
</svg>
