<?xml version="1.0" encoding="UTF-8" standalone="no"?>
<!DOCTYPE svg PUBLIC "-//W3C//DTD SVG 1.1//EN" "http://www.w3.org/Graphics/SVG/1.1/DTD/svg11.dtd">
<svg xmlns="http://www.w3.org/2000/svg" version="1.1" viewBox="0.00 0.00 116.00 112.00">
<g stroke-width="2.00" fill="none" stroke-linecap="butt">
<path stroke="#ffffff" vector-effect="non-scaling-stroke" d="
  M 69.0383 24.8420
  A 11.03 7.85 -91.1 0 0 61.4014 36.0207
  A 11.03 7.85 -91.1 0 0 69.4617 46.8980
  A 11.03 7.85 -91.1 0 0 77.0986 35.7193
  A 11.03 7.85 -91.1 0 0 69.0383 24.8420"
/>
<path stroke="#ffffff" vector-effect="non-scaling-stroke" d="
  M 51.40 46.15
  C 60.61 45.74 62.03 25.02 50.47 25.54
  C 38.92 26.06 42.18 46.57 51.40 46.15"
/>
<path stroke="#ffffff" vector-effect="non-scaling-stroke" d="
  M 36.3290 41.4789
  A 8.67 6.67 -99.5 0 0 31.1815 51.1309
  A 8.67 6.67 -99.5 0 0 39.1910 58.5811
  A 8.67 6.67 -99.5 0 0 44.3385 48.9291
  A 8.67 6.67 -99.5 0 0 36.3290 41.4789"
/>
<path stroke="#ffffff" vector-effect="non-scaling-stroke" d="
  M 83.9210 41.4689
  A 8.67 6.68 -80.5 0 0 75.9016 48.9175
  A 8.67 6.68 -80.5 0 0 81.0590 58.5711
  A 8.67 6.68 -80.5 0 0 89.0784 51.1225
  A 8.67 6.68 -80.5 0 0 83.9210 41.4689"
/>
<path stroke="#ffffff" vector-effect="non-scaling-stroke" d="
  M 57.90 51.94
  C 44.72 53.25 39.15 64.51 43.05 76.50
  C 44.35 80.50 47.20 82.31 51.04 79.76
  C 53.26 78.28 56.07 72.87 59.93 72.49
  C 63.79 72.11 67.60 76.87 70.07 77.88
  C 74.33 79.63 76.77 77.29 77.26 73.11
  C 78.75 60.59 71.08 50.64 57.90 51.94"
/>
</g>
<path fill="#161718" d="
  M 116.00 0.00
  L 116.00 112.00
  L 0.00 112.00
  L 0.00 0.00
  L 116.00 0.00
  Z
  M 69.0383 24.8420
  A 11.03 7.85 -91.1 0 0 61.4014 36.0207
  A 11.03 7.85 -91.1 0 0 69.4617 46.8980
  A 11.03 7.85 -91.1 0 0 77.0986 35.7193
  A 11.03 7.85 -91.1 0 0 69.0383 24.8420
  Z
  M 51.40 46.15
  C 60.61 45.74 62.03 25.02 50.47 25.54
  C 38.92 26.06 42.18 46.57 51.40 46.15
  Z
  M 36.3290 41.4789
  A 8.67 6.67 -99.5 0 0 31.1815 51.1309
  A 8.67 6.67 -99.5 0 0 39.1910 58.5811
  A 8.67 6.67 -99.5 0 0 44.3385 48.9291
  A 8.67 6.67 -99.5 0 0 36.3290 41.4789
  Z
  M 83.9210 41.4689
  A 8.67 6.68 -80.5 0 0 75.9016 48.9175
  A 8.67 6.68 -80.5 0 0 81.0590 58.5711
  A 8.67 6.68 -80.5 0 0 89.0784 51.1225
  A 8.67 6.68 -80.5 0 0 83.9210 41.4689
  Z
  M 57.90 51.94
  C 44.72 53.25 39.15 64.51 43.05 76.50
  C 44.35 80.50 47.20 82.31 51.04 79.76
  C 53.26 78.28 56.07 72.87 59.93 72.49
  C 63.79 72.11 67.60 76.87 70.07 77.88
  C 74.33 79.63 76.77 77.29 77.26 73.11
  C 78.75 60.59 71.08 50.64 57.90 51.94
  Z"
/>
<ellipse fill="#ffffff" cx="0.00" cy="0.00" transform="translate(69.25,35.87) rotate(-91.1)" rx="11.03" ry="7.85"/>
<path fill="#ffffff" d="
  M 50.47 25.54
  C 62.03 25.02 60.61 45.74 51.40 46.15
  C 42.18 46.57 38.92 26.06 50.47 25.54
  Z"
/>
<ellipse fill="#ffffff" cx="0.00" cy="0.00" transform="translate(37.76,50.03) rotate(-99.5)" rx="8.67" ry="6.67"/>
<ellipse fill="#ffffff" cx="0.00" cy="0.00" transform="translate(82.49,50.02) rotate(-80.5)" rx="8.67" ry="6.68"/>
<path fill="#ffffff" d="
  M 59.93 72.49
  C 56.07 72.87 53.26 78.28 51.04 79.76
  C 47.20 82.31 44.35 80.50 43.05 76.50
  C 39.15 64.51 44.72 53.25 57.90 51.94
  C 71.08 50.64 78.75 60.59 77.26 73.11
  C 76.77 77.29 74.33 79.63 70.07 77.88
  C 67.60 76.87 63.79 72.11 59.93 72.49
  Z"
/>
</svg>
