<?xml version="1.0" encoding="UTF-8" standalone="no"?>
<!DOCTYPE svg PUBLIC "-//W3C//DTD SVG 1.1//EN" "http://www.w3.org/Graphics/SVG/1.1/DTD/svg11.dtd">
<svg xmlns="http://www.w3.org/2000/svg" version="1.1" viewBox="0.00 0.00 105.00 105.00">
<g stroke-width="2.00" fill="none" stroke-linecap="butt">
<path stroke="#515253" vector-effect="non-scaling-stroke" d="
  M 57.60 39.39
  Q 39.42 39.43 21.28 47.69
  Q 17.13 49.58 17.05 53.52
  Q 16.99 56.20 16.96 65.88
  C 16.95 70.49 18.38 74.49 23.00 74.99
  Q 27.86 75.51 32.60 75.96
  A 1.82 1.80 75.4 0 1 33.92 76.74
  C 39.97 85.69 52.86 85.55 59.32 77.22
  A 1.83 1.83 0.0 0 1 60.76 76.52
  L 83.57 76.52
  A 3.31 3.30 -90.0 0 0 86.87 73.21
  L 86.87 72.86
  A 3.35 3.35 0.0 0 0 83.52 69.51
  L 63.04 69.51
  A 0.61 0.61 0.0 0 1 62.43 68.87
  C 62.88 59.09 54.99 51.04 45.32 52.13
  C 37.84 52.97 30.58 59.22 31.13 67.73
  A 0.70 0.69 -1.9 0 1 30.43 68.47
  L 25.04 68.47
  A 1.06 1.06 0.0 0 1 23.98 67.41
  L 23.98 54.88
  A 1.03 1.00 -13.2 0 1 24.56 53.97
  Q 40.33 46.44 58.00 46.44
  Q 60.14 46.44 65.29 46.62
  A 5.11 5.10 -56.9 0 0 67.74 46.10
  L 85.10 37.61
  A 3.28 3.28 0.0 0 0 86.61 33.22
  L 86.44 32.88
  A 3.33 3.33 0.0 0 0 81.99 31.35
  L 68.29 38.05
  A 0.91 0.90 -35.3 0 1 67.26 37.88
  Q 52.49 23.32 30.78 19.70
  A 3.37 3.37 0.0 0 0 26.89 22.53
  L 26.86 22.70
  A 3.50 3.50 0.0 0 0 29.79 26.68
  Q 45.54 29.12 57.81 38.78
  A 0.34 0.34 0.0 0 1 57.60 39.39"
/>
<path stroke="#515253" vector-effect="non-scaling-stroke" d="
  M 55.46 67.77
  A 8.72 8.72 0.0 0 0 46.74 59.05
  A 8.72 8.72 0.0 0 0 38.02 67.77
  A 8.72 8.72 0.0 0 0 46.74 76.49
  A 8.72 8.72 0.0 0 0 55.46 67.77"
/>
</g>
<path fill="#161719" d="
  M 105.00 0.00
  L 105.00 105.00
  L 0.00 105.00
  L 0.00 0.00
  L 105.00 0.00
  Z
  M 57.60 39.39
  Q 39.42 39.43 21.28 47.69
  Q 17.13 49.58 17.05 53.52
  Q 16.99 56.20 16.96 65.88
  C 16.95 70.49 18.38 74.49 23.00 74.99
  Q 27.86 75.51 32.60 75.96
  A 1.82 1.80 75.4 0 1 33.92 76.74
  C 39.97 85.69 52.86 85.55 59.32 77.22
  A 1.83 1.83 0.0 0 1 60.76 76.52
  L 83.57 76.52
  A 3.31 3.30 -90.0 0 0 86.87 73.21
  L 86.87 72.86
  A 3.35 3.35 0.0 0 0 83.52 69.51
  L 63.04 69.51
  A 0.61 0.61 0.0 0 1 62.43 68.87
  C 62.88 59.09 54.99 51.04 45.32 52.13
  C 37.84 52.97 30.58 59.22 31.13 67.73
  A 0.70 0.69 -1.9 0 1 30.43 68.47
  L 25.04 68.47
  A 1.06 1.06 0.0 0 1 23.98 67.41
  L 23.98 54.88
  A 1.03 1.00 -13.2 0 1 24.56 53.97
  Q 40.33 46.44 58.00 46.44
  Q 60.14 46.44 65.29 46.62
  A 5.11 5.10 -56.9 0 0 67.74 46.10
  L 85.10 37.61
  A 3.28 3.28 0.0 0 0 86.61 33.22
  L 86.44 32.88
  A 3.33 3.33 0.0 0 0 81.99 31.35
  L 68.29 38.05
  A 0.91 0.90 -35.3 0 1 67.26 37.88
  Q 52.49 23.32 30.78 19.70
  A 3.37 3.37 0.0 0 0 26.89 22.53
  L 26.86 22.70
  A 3.50 3.50 0.0 0 0 29.79 26.68
  Q 45.54 29.12 57.81 38.78
  A 0.34 0.34 0.0 0 1 57.60 39.39
  Z"
/>
<path fill="#8c8c8c" d="
  M 57.60 39.39
  A 0.34 0.34 0.0 0 0 57.81 38.78
  Q 45.54 29.12 29.79 26.68
  A 3.50 3.50 0.0 0 1 26.86 22.70
  L 26.89 22.53
  A 3.37 3.37 0.0 0 1 30.78 19.70
  Q 52.49 23.32 67.26 37.88
  A 0.91 0.90 -35.3 0 0 68.29 38.05
  L 81.99 31.35
  A 3.33 3.33 0.0 0 1 86.44 32.88
  L 86.61 33.22
  A 3.28 3.28 0.0 0 1 85.10 37.61
  L 67.74 46.10
  A 5.11 5.10 -56.9 0 1 65.29 46.62
  Q 60.14 46.44 58.00 46.44
  Q 40.33 46.44 24.56 53.97
  A 1.03 1.00 -13.2 0 0 23.98 54.88
  L 23.98 67.41
  A 1.06 1.06 0.0 0 0 25.04 68.47
  L 30.43 68.47
  A 0.70 0.69 -1.9 0 0 31.13 67.73
  C 30.58 59.22 37.84 52.97 45.32 52.13
  C 54.99 51.04 62.88 59.09 62.43 68.87
  A 0.61 0.61 0.0 0 0 63.04 69.51
  L 83.52 69.51
  A 3.35 3.35 0.0 0 1 86.87 72.86
  L 86.87 73.21
  A 3.31 3.30 -90.0 0 1 83.57 76.52
  L 60.76 76.52
  A 1.83 1.83 0.0 0 0 59.32 77.22
  C 52.86 85.55 39.97 85.69 33.92 76.74
  A 1.82 1.80 75.4 0 0 32.60 75.96
  Q 27.86 75.51 23.00 74.99
  C 18.38 74.49 16.95 70.49 16.96 65.88
  Q 16.99 56.20 17.05 53.52
  Q 17.13 49.58 21.28 47.69
  Q 39.42 39.43 57.60 39.39
  Z
  M 55.46 67.77
  A 8.72 8.72 0.0 0 0 46.74 59.05
  A 8.72 8.72 0.0 0 0 38.02 67.77
  A 8.72 8.72 0.0 0 0 46.74 76.49
  A 8.72 8.72 0.0 0 0 55.46 67.77
  Z"
/>
<circle fill="#161719" cx="46.74" cy="67.77" r="8.72"/>
</svg>
