<?xml version="1.0" encoding="UTF-8" standalone="no"?>
<!DOCTYPE svg PUBLIC "-//W3C//DTD SVG 1.1//EN" "http://www.w3.org/Graphics/SVG/1.1/DTD/svg11.dtd">
<svg xmlns="http://www.w3.org/2000/svg" version="1.1" viewBox="0.00 0.00 130.00 130.00">
<g stroke-width="2.00" fill="none" stroke-linecap="butt">
<path stroke="#1c1d1f" vector-effect="non-scaling-stroke" d="
  M 119.0473 26.4943
  A 15.38 15.38 0.0 0 0 103.6941 11.0875
  L 26.4943 10.9527
  A 15.38 15.38 0.0 0 0 11.0874 26.3058
  L 10.9527 103.4857
  A 15.38 15.38 0.0 0 0 26.3059 118.8925
  L 103.5057 119.0273
  A 15.38 15.38 0.0 0 0 118.9126 103.6742
  L 119.0473 26.4943"
/>
<path stroke="#919192" vector-effect="non-scaling-stroke" d="
  M 54.38 66.79
  Q 54.38 68.09 55.84 69.75
  Q 64.11 79.12 69.66 85.29
  A 3.27 3.27 0.0 0 0 74.31 85.50
  L 74.44 85.38
  A 3.37 3.37 0.0 0 0 74.68 80.67
  C 68.77 73.99 62.64 67.30 62.64 66.79
  C 62.64 66.28 68.78 59.60 74.68 52.92
  A 3.37 3.37 0.0 0 0 74.45 48.21
  L 74.32 48.09
  A 3.27 3.27 0.0 0 0 69.67 48.30
  Q 64.12 54.47 55.84 63.84
  Q 54.38 65.49 54.38 66.79"
/>
</g>
<path fill="#161719" d="
  M 130.00 0.00
  L 130.00 130.00
  L 0.00 130.00
  L 0.00 0.00
  L 130.00 0.00
  Z
  M 119.0473 26.4943
  A 15.38 15.38 0.0 0 0 103.6941 11.0875
  L 26.4943 10.9527
  A 15.38 15.38 0.0 0 0 11.0874 26.3058
  L 10.9527 103.4857
  A 15.38 15.38 0.0 0 0 26.3059 118.8925
  L 103.5057 119.0273
  A 15.38 15.38 0.0 0 0 118.9126 103.6742
  L 119.0473 26.4943
  Z"
/>
<path fill="#222325" d="
  M 118.9126 103.6742
  A 15.38 15.38 0.0 0 1 103.5057 119.0273
  L 26.3059 118.8925
  A 15.38 15.38 0.0 0 1 10.9527 103.4857
  L 11.0874 26.3058
  A 15.38 15.38 0.0 0 1 26.4943 10.9527
  L 103.6941 11.0875
  A 15.38 15.38 0.0 0 1 119.0473 26.4943
  L 118.9126 103.6742
  Z
  M 54.38 66.79
  Q 54.38 68.09 55.84 69.75
  Q 64.11 79.12 69.66 85.29
  A 3.27 3.27 0.0 0 0 74.31 85.50
  L 74.44 85.38
  A 3.37 3.37 0.0 0 0 74.68 80.67
  C 68.77 73.99 62.64 67.30 62.64 66.79
  C 62.64 66.28 68.78 59.60 74.68 52.92
  A 3.37 3.37 0.0 0 0 74.45 48.21
  L 74.32 48.09
  A 3.27 3.27 0.0 0 0 69.67 48.30
  Q 64.12 54.47 55.84 63.84
  Q 54.38 65.49 54.38 66.79
  Z"
/>
<path fill="#ffffff" d="
  M 62.64 66.79
  C 62.64 67.30 68.77 73.99 74.68 80.67
  A 3.37 3.37 0.0 0 1 74.44 85.38
  L 74.31 85.50
  A 3.27 3.27 0.0 0 1 69.66 85.29
  Q 64.11 79.12 55.84 69.75
  Q 54.38 68.09 54.38 66.79
  Q 54.38 65.49 55.84 63.84
  Q 64.12 54.47 69.67 48.30
  A 3.27 3.27 0.0 0 1 74.32 48.09
  L 74.45 48.21
  A 3.37 3.37 0.0 0 1 74.68 52.92
  C 68.78 59.60 62.64 66.28 62.64 66.79
  Z"
/>
</svg>
