<?xml version="1.0" encoding="UTF-8" standalone="no"?>
<!DOCTYPE svg PUBLIC "-//W3C//DTD SVG 1.1//EN" "http://www.w3.org/Graphics/SVG/1.1/DTD/svg11.dtd">
<svg xmlns="http://www.w3.org/2000/svg" version="1.1" viewBox="0.00 0.00 175.00 176.00">
<g stroke-width="2.00" fill="none" stroke-linecap="butt">
<path stroke="#515152" vector-effect="non-scaling-stroke" d="
  M 78.22 49.92
  Q 75.04 57.72 80.33 63.35
  C 84.78 68.09 90.87 66.90 96.06 67.02
  C 101.89 67.15 106.19 65.64 108.89 60.60
  Q 111.67 55.41 108.66 49.24
  A 0.45 0.44 77.1 0 1 109.06 48.60
  L 113.07 48.60
  A 0.68 0.67 87.2 0 1 113.74 49.21
  Q 114.00 51.82 116.01 52.08
  A 2.59 2.47 5.4 0 0 118.93 49.78
  Q 119.11 46.14 118.90 41.96
  A 1.64 1.60 -66.7 0 0 118.55 41.04
  C 116.61 38.61 113.83 40.19 113.66 42.96
  A 0.47 0.47 0.0 0 1 113.18 43.40
  Q 100.17 43.29 90.70 43.42
  Q 80.81 43.56 76.45 41.98
  Q 67.61 38.78 62.40 30.32
  C 61.39 28.68 60.54 25.60 59.59 24.40
  Q 56.68 20.71 53.42 21.67
  Q 49.08 22.95 49.05 26.80
  Q 48.90 51.71 49.08 65.49
  Q 49.13 69.65 53.06 70.37
  C 58.43 71.35 59.21 65.34 61.08 62.13
  Q 66.93 52.07 77.79 49.43
  A 0.37 0.37 0.0 0 1 78.22 49.92"
/>
<path stroke="#515152" vector-effect="non-scaling-stroke" d="
  M 44.36 142.21
  Q 44.36 153.62 44.37 154.20
  A 0.72 0.72 0.0 0 0 45.09 154.90
  L 48.00 154.90
  A 0.67 0.67 0.0 0 0 48.67 154.23
  L 48.67 144.81
  A 0.68 0.67 -0.9 0 1 49.33 144.14
  Q 50.13 144.12 55.03 144.11
  Q 59.93 144.11 60.73 144.13
  A 0.68 0.67 0.9 0 1 61.38 144.81
  L 61.39 154.23
  A 0.67 0.67 0.0 0 0 62.06 154.89
  L 64.97 154.89
  A 0.72 0.72 0.0 0 0 65.69 154.19
  Q 65.70 153.61 65.69 142.20
  Q 65.69 130.80 65.68 130.22
  A 0.72 0.72 0.0 0 0 64.96 129.52
  L 62.05 129.52
  A 0.67 0.67 0.0 0 0 61.38 130.19
  L 61.38 139.61
  A 0.68 0.67 -0.9 0 1 60.72 140.28
  Q 59.92 140.30 55.02 140.30
  Q 50.12 140.30 49.32 140.28
  A 0.68 0.67 0.9 0 1 48.67 139.61
  L 48.66 130.19
  A 0.67 0.67 0.0 0 0 47.99 129.52
  L 45.08 129.52
  A 0.72 0.72 0.0 0 0 44.36 130.23
  Q 44.35 130.81 44.36 142.21"
/>
<path stroke="#515152" vector-effect="non-scaling-stroke" d="
  M 79.8316 136.1605
  A 9.70 9.24 -89.4 0 0 70.4905 145.7632
  A 9.70 9.24 -89.4 0 0 79.6284 155.5595
  A 9.70 9.24 -89.4 0 0 88.9695 145.9568
  A 9.70 9.24 -89.4 0 0 79.8316 136.1605"
/>
<path stroke="#515152" vector-effect="non-scaling-stroke" d="
  M 110.89 137.61
  Q 110.88 137.43 110.87 137.38
  A 0.97 0.96 81.8 0 0 109.93 136.67
  L 107.26 136.71
  A 0.62 0.62 0.0 0 0 106.64 137.33
  L 106.64 154.38
  A 0.64 0.63 -90.0 0 0 107.27 155.02
  L 110.32 155.02
  A 0.61 0.60 -90.0 0 0 110.92 154.41
  L 110.92 144.13
  A 4.25 4.25 0.0 0 1 114.54 139.93
  L 114.99 139.87
  A 3.34 3.33 -4.2 0 1 118.82 143.16
  L 118.82 154.53
  A 0.48 0.47 -90.0 0 0 119.29 155.01
  L 122.59 155.01
  A 0.48 0.47 90.0 0 0 123.06 154.53
  Q 123.02 148.89 123.08 146.67
  C 123.25 140.08 121.39 134.50 113.53 136.76
  C 112.39 137.09 112.29 137.92 111.75 138.14
  A 0.63 0.62 -13.0 0 1 110.89 137.61"
/>
<path stroke="#515152" vector-effect="non-scaling-stroke" d="
  M 97.91 138.83
  L 97.91 137.29
  A 0.60 0.59 -0.0 0 0 97.31 136.70
  L 94.27 136.70
  A 0.64 0.63 -0.0 0 0 93.63 137.33
  L 93.63 154.32
  A 0.71 0.70 0.0 0 0 94.34 155.02
  L 97.23 155.02
  A 0.70 0.70 0.0 0 0 97.93 154.31
  Q 97.88 150.98 97.90 146.50
  Q 97.91 140.52 103.40 140.50
  A 0.38 0.38 0.0 0 0 103.78 140.12
  L 103.78 137.01
  A 0.40 0.39 3.3 0 0 103.42 136.62
  Q 100.10 136.28 98.54 139.00
  A 0.34 0.34 0.0 0 1 97.91 138.83"
/>
<path stroke="#515152" vector-effect="non-scaling-stroke" d="
  M 104.89 54.83
  A 6.14 6.14 0.0 0 0 98.75 48.69
  L 88.51 48.69
  A 6.14 6.14 0.0 0 0 82.37 54.83
  L 82.37 55.55
  A 6.14 6.14 0.0 0 0 88.51 61.69
  L 98.75 61.69
  A 6.14 6.14 0.0 0 0 104.89 55.55
  L 104.89 54.83"
/>
<path stroke="#515152" vector-effect="non-scaling-stroke" d="
  M 79.7076 139.6701
  A 6.19 4.96 -90.3 0 0 74.7801 145.8860
  A 6.19 4.96 -90.3 0 0 79.7724 152.0499
  A 6.19 4.96 -90.3 0 0 84.6999 145.8340
  A 6.19 4.96 -90.3 0 0 79.7076 139.6701"
/>
</g>
<path fill="#161719" d="
  M 175.00 0.00
  L 175.00 176.00
  L 0.00 176.00
  L 0.00 0.00
  L 175.00 0.00
  Z
  M 78.22 49.92
  Q 75.04 57.72 80.33 63.35
  C 84.78 68.09 90.87 66.90 96.06 67.02
  C 101.89 67.15 106.19 65.64 108.89 60.60
  Q 111.67 55.41 108.66 49.24
  A 0.45 0.44 77.1 0 1 109.06 48.60
  L 113.07 48.60
  A 0.68 0.67 87.2 0 1 113.74 49.21
  Q 114.00 51.82 116.01 52.08
  A 2.59 2.47 5.4 0 0 118.93 49.78
  Q 119.11 46.14 118.90 41.96
  A 1.64 1.60 -66.7 0 0 118.55 41.04
  C 116.61 38.61 113.83 40.19 113.66 42.96
  A 0.47 0.47 0.0 0 1 113.18 43.40
  Q 100.17 43.29 90.70 43.42
  Q 80.81 43.56 76.45 41.98
  Q 67.61 38.78 62.40 30.32
  C 61.39 28.68 60.54 25.60 59.59 24.40
  Q 56.68 20.71 53.42 21.67
  Q 49.08 22.95 49.05 26.80
  Q 48.90 51.71 49.08 65.49
  Q 49.13 69.65 53.06 70.37
  C 58.43 71.35 59.21 65.34 61.08 62.13
  Q 66.93 52.07 77.79 49.43
  A 0.37 0.37 0.0 0 1 78.22 49.92
  Z
  M 44.36 142.21
  Q 44.36 153.62 44.37 154.20
  A 0.72 0.72 0.0 0 0 45.09 154.90
  L 48.00 154.90
  A 0.67 0.67 0.0 0 0 48.67 154.23
  L 48.67 144.81
  A 0.68 0.67 -0.9 0 1 49.33 144.14
  Q 50.13 144.12 55.03 144.11
  Q 59.93 144.11 60.73 144.13
  A 0.68 0.67 0.9 0 1 61.38 144.81
  L 61.39 154.23
  A 0.67 0.67 0.0 0 0 62.06 154.89
  L 64.97 154.89
  A 0.72 0.72 0.0 0 0 65.69 154.19
  Q 65.70 153.61 65.69 142.20
  Q 65.69 130.80 65.68 130.22
  A 0.72 0.72 0.0 0 0 64.96 129.52
  L 62.05 129.52
  A 0.67 0.67 0.0 0 0 61.38 130.19
  L 61.38 139.61
  A 0.68 0.67 -0.9 0 1 60.72 140.28
  Q 59.92 140.30 55.02 140.30
  Q 50.12 140.30 49.32 140.28
  A 0.68 0.67 0.9 0 1 48.67 139.61
  L 48.66 130.19
  A 0.67 0.67 0.0 0 0 47.99 129.52
  L 45.08 129.52
  A 0.72 0.72 0.0 0 0 44.36 130.23
  Q 44.35 130.81 44.36 142.21
  Z
  M 79.8316 136.1605
  A 9.70 9.24 -89.4 0 0 70.4905 145.7632
  A 9.70 9.24 -89.4 0 0 79.6284 155.5595
  A 9.70 9.24 -89.4 0 0 88.9695 145.9568
  A 9.70 9.24 -89.4 0 0 79.8316 136.1605
  Z
  M 110.89 137.61
  Q 110.88 137.43 110.87 137.38
  A 0.97 0.96 81.8 0 0 109.93 136.67
  L 107.26 136.71
  A 0.62 0.62 0.0 0 0 106.64 137.33
  L 106.64 154.38
  A 0.64 0.63 -90.0 0 0 107.27 155.02
  L 110.32 155.02
  A 0.61 0.60 -90.0 0 0 110.92 154.41
  L 110.92 144.13
  A 4.25 4.25 0.0 0 1 114.54 139.93
  L 114.99 139.87
  A 3.34 3.33 -4.2 0 1 118.82 143.16
  L 118.82 154.53
  A 0.48 0.47 -90.0 0 0 119.29 155.01
  L 122.59 155.01
  A 0.48 0.47 90.0 0 0 123.06 154.53
  Q 123.02 148.89 123.08 146.67
  C 123.25 140.08 121.39 134.50 113.53 136.76
  C 112.39 137.09 112.29 137.92 111.75 138.14
  A 0.63 0.62 -13.0 0 1 110.89 137.61
  Z
  M 97.91 138.83
  L 97.91 137.29
  A 0.60 0.59 -0.0 0 0 97.31 136.70
  L 94.27 136.70
  A 0.64 0.63 -0.0 0 0 93.63 137.33
  L 93.63 154.32
  A 0.71 0.70 0.0 0 0 94.34 155.02
  L 97.23 155.02
  A 0.70 0.70 0.0 0 0 97.93 154.31
  Q 97.88 150.98 97.90 146.50
  Q 97.91 140.52 103.40 140.50
  A 0.38 0.38 0.0 0 0 103.78 140.12
  L 103.78 137.01
  A 0.40 0.39 3.3 0 0 103.42 136.62
  Q 100.10 136.28 98.54 139.00
  A 0.34 0.34 0.0 0 1 97.91 138.83
  Z"
/>
<path fill="#8b8b8b" d="
  M 77.79 49.43
  Q 66.93 52.07 61.08 62.13
  C 59.21 65.34 58.43 71.35 53.06 70.37
  Q 49.13 69.65 49.08 65.49
  Q 48.90 51.71 49.05 26.80
  Q 49.08 22.95 53.42 21.67
  Q 56.68 20.71 59.59 24.40
  C 60.54 25.60 61.39 28.68 62.40 30.32
  Q 67.61 38.78 76.45 41.98
  Q 80.81 43.56 90.70 43.42
  Q 100.17 43.29 113.18 43.40
  A 0.47 0.47 0.0 0 0 113.66 42.96
  C 113.83 40.19 116.61 38.61 118.55 41.04
  A 1.64 1.60 -66.7 0 1 118.90 41.96
  Q 119.11 46.14 118.93 49.78
  A 2.59 2.47 5.4 0 1 116.01 52.08
  Q 114.00 51.82 113.74 49.21
  A 0.68 0.67 87.2 0 0 113.07 48.60
  L 109.06 48.60
  A 0.45 0.44 77.1 0 0 108.66 49.24
  Q 111.67 55.41 108.89 60.60
  C 106.19 65.64 101.89 67.15 96.06 67.02
  C 90.87 66.90 84.78 68.09 80.33 63.35
  Q 75.04 57.72 78.22 49.92
  A 0.37 0.37 0.0 0 0 77.79 49.43
  Z
  M 104.89 54.83
  A 6.14 6.14 0.0 0 0 98.75 48.69
  L 88.51 48.69
  A 6.14 6.14 0.0 0 0 82.37 54.83
  L 82.37 55.55
  A 6.14 6.14 0.0 0 0 88.51 61.69
  L 98.75 61.69
  A 6.14 6.14 0.0 0 0 104.89 55.55
  L 104.89 54.83
  Z"
/>
<rect fill="#161719" x="82.37" y="48.69" width="22.52" height="13.00" rx="6.14"/>
<path fill="#8b8b8b" d="
  M 55.02 140.30
  Q 59.92 140.30 60.72 140.28
  A 0.68 0.67 -0.9 0 0 61.38 139.61
  L 61.38 130.19
  A 0.67 0.67 0.0 0 1 62.05 129.52
  L 64.96 129.52
  A 0.72 0.72 0.0 0 1 65.68 130.22
  Q 65.69 130.80 65.69 142.20
  Q 65.70 153.61 65.69 154.19
  A 0.72 0.72 0.0 0 1 64.97 154.89
  L 62.06 154.89
  A 0.67 0.67 0.0 0 1 61.39 154.23
  L 61.38 144.81
  A 0.68 0.67 0.9 0 0 60.73 144.13
  Q 59.93 144.11 55.03 144.11
  Q 50.13 144.12 49.33 144.14
  A 0.68 0.67 -0.9 0 0 48.67 144.81
  L 48.67 154.23
  A 0.67 0.67 0.0 0 1 48.00 154.90
  L 45.09 154.90
  A 0.72 0.72 0.0 0 1 44.37 154.20
  Q 44.36 153.62 44.36 142.21
  Q 44.35 130.81 44.36 130.23
  A 0.72 0.72 0.0 0 1 45.08 129.52
  L 47.99 129.52
  A 0.67 0.67 0.0 0 1 48.66 130.19
  L 48.67 139.61
  A 0.68 0.67 0.9 0 0 49.32 140.28
  Q 50.12 140.30 55.02 140.30
  Z"
/>
<path fill="#8b8b8b" d="
  M 79.8316 136.1605
  A 9.70 9.24 -89.4 0 1 88.9695 145.9568
  A 9.70 9.24 -89.4 0 1 79.6284 155.5595
  A 9.70 9.24 -89.4 0 1 70.4905 145.7632
  A 9.70 9.24 -89.4 0 1 79.8316 136.1605
  Z
  M 79.7076 139.6701
  A 6.19 4.96 -90.3 0 0 74.7801 145.8860
  A 6.19 4.96 -90.3 0 0 79.7724 152.0499
  A 6.19 4.96 -90.3 0 0 84.6999 145.8340
  A 6.19 4.96 -90.3 0 0 79.7076 139.6701
  Z"
/>
<path fill="#8b8b8b" d="
  M 111.75 138.14
  C 112.29 137.92 112.39 137.09 113.53 136.76
  C 121.39 134.50 123.25 140.08 123.08 146.67
  Q 123.02 148.89 123.06 154.53
  A 0.48 0.47 -90.0 0 1 122.59 155.01
  L 119.29 155.01
  A 0.48 0.47 -90.0 0 1 118.82 154.53
  L 118.82 143.16
  A 3.34 3.33 -4.2 0 0 114.99 139.87
  L 114.54 139.93
  A 4.25 4.25 0.0 0 0 110.92 144.13
  L 110.92 154.41
  A 0.61 0.60 -90.0 0 1 110.32 155.02
  L 107.27 155.02
  A 0.64 0.63 -90.0 0 1 106.64 154.38
  L 106.64 137.33
  A 0.62 0.62 0.0 0 1 107.26 136.71
  L 109.93 136.67
  A 0.97 0.96 81.8 0 1 110.87 137.38
  Q 110.88 137.43 110.89 137.61
  A 0.63 0.62 -13.0 0 0 111.75 138.14
  Z"
/>
<path fill="#8b8b8b" d="
  M 97.91 138.83
  A 0.34 0.34 0.0 0 0 98.54 139.00
  Q 100.10 136.28 103.42 136.62
  A 0.40 0.39 3.3 0 1 103.78 137.01
  L 103.78 140.12
  A 0.38 0.38 0.0 0 1 103.40 140.50
  Q 97.91 140.52 97.90 146.50
  Q 97.88 150.98 97.93 154.31
  A 0.70 0.70 0.0 0 1 97.23 155.02
  L 94.34 155.02
  A 0.71 0.70 0.0 0 1 93.63 154.32
  L 93.63 137.33
  A 0.64 0.63 0.0 0 1 94.27 136.70
  L 97.31 136.70
  A 0.60 0.59 -0.0 0 1 97.91 137.29
  L 97.91 138.83
  Z"
/>
<ellipse fill="#161719" cx="0.00" cy="0.00" transform="translate(79.74,145.86) rotate(-90.3)" rx="6.19" ry="4.96"/>
</svg>
