<?xml version="1.0" encoding="UTF-8" standalone="no"?>
<!DOCTYPE svg PUBLIC "-//W3C//DTD SVG 1.1//EN" "http://www.w3.org/Graphics/SVG/1.1/DTD/svg11.dtd">
<svg xmlns="http://www.w3.org/2000/svg" version="1.1" viewBox="0.00 0.00 209.00 58.00">
<g stroke-width="2.00" fill="none" stroke-linecap="butt">
<path stroke="#5a5a5a" vector-effect="non-scaling-stroke" d="
  M 29.13 15.49
  Q 29.65 16.65 29.71 16.89
  A 3.33 3.25 -44.6 0 1 29.68 18.40
  L 29.10 20.66
  A 0.55 0.55 0.0 0 0 30.08 21.12
  C 31.67 18.88 31.48 17.22 30.44 14.90
  Q 29.91 13.74 29.86 13.51
  A 3.33 3.25 -44.6 0 1 29.89 11.99
  L 30.47 9.73
  A 0.55 0.55 0.0 0 0 29.48 9.28
  C 27.90 11.51 28.08 13.18 29.13 15.49"
/>
<path stroke="#5a5a5a" vector-effect="non-scaling-stroke" d="
  M 23.44 15.54
  Q 23.95 16.69 24.00 16.93
  A 3.30 3.22 -44.2 0 1 23.96 18.43
  L 23.37 20.66
  A 0.55 0.55 0.0 0 0 24.34 21.12
  C 25.93 18.92 25.76 17.26 24.74 14.96
  Q 24.23 13.81 24.18 13.57
  A 3.30 3.22 -44.2 0 1 24.22 12.08
  L 24.81 9.84
  A 0.55 0.55 0.0 0 0 23.84 9.38
  C 22.25 11.59 22.42 13.24 23.44 15.54"
/>
<path stroke="#5a5a5a" vector-effect="non-scaling-stroke" d="
  M 34.71 15.51
  Q 35.22 16.66 35.28 16.90
  A 3.30 3.23 -44.6 0 1 35.25 18.40
  L 34.67 20.64
  A 0.55 0.55 0.0 0 0 35.65 21.09
  C 37.22 18.88 37.04 17.22 36.00 14.93
  Q 35.48 13.78 35.43 13.54
  A 3.30 3.23 -44.6 0 1 35.45 12.04
  L 36.03 9.80
  A 0.55 0.55 0.0 0 0 35.06 9.35
  C 33.49 11.57 33.67 13.22 34.71 15.51"
/>
<path stroke="#5a5a5a" vector-effect="non-scaling-stroke" d="
  M 108.51 28.51
  Q 109.22 28.62 109.94 28.31
  A 0.79 0.79 0.0 0 0 109.76 26.81
  L 108.17 26.56
  A 0.50 0.50 0.0 0 1 107.82 25.81
  Q 108.70 24.33 110.02 23.85
  A 0.64 0.63 42.3 0 0 109.96 22.64
  C 107.29 21.93 106.04 23.77 105.94 26.16
  A 0.66 0.66 0.0 0 1 105.28 26.79
  L 104.68 26.79
  A 0.64 0.64 0.0 0 0 104.36 27.99
  L 105.39 28.59
  A 1.23 1.22 -75.5 0 1 106.01 29.66
  L 106.01 36.00
  A 0.76 0.76 0.0 0 0 106.77 36.76
  L 107.33 36.76
  A 0.77 0.77 0.0 0 0 108.10 35.99
  L 108.10 28.87
  A 0.36 0.36 0.0 0 1 108.51 28.51"
/>
<path stroke="#5a5a5a" vector-effect="non-scaling-stroke" d="
  M 79.79 23.47
  L 79.75 36.07
  A 0.56 0.56 0.0 0 0 80.31 36.63
  L 84.76 36.65
  A 6.51 6.35 0.2 0 0 91.29 30.32
  L 91.29 29.30
  A 6.51 6.35 0.2 0 0 84.80 22.93
  L 80.35 22.91
  A 0.56 0.56 0.0 0 0 79.79 23.47"
/>
<path stroke="#5a5a5a" vector-effect="non-scaling-stroke" d="
  M 152.96 29.85
  C 152.99 34.23 155.68 37.24 160.21 36.78
  Q 163.84 36.42 164.89 32.87
  A 0.71 0.71 0.0 0 0 163.66 32.21
  L 161.92 34.31
  A 1.27 1.23 9.3 0 1 161.33 34.72
  C 157.26 36.08 155.09 33.65 155.06 29.83
  C 155.03 26.01 157.15 23.55 161.25 24.84
  A 1.27 1.23 -10.2 0 1 161.84 25.24
  L 163.62 27.31
  A 0.71 0.71 0.0 0 0 164.84 26.63
  Q 163.73 23.09 160.09 22.79
  C 155.56 22.41 152.92 25.47 152.96 29.85"
/>
<path stroke="#5a5a5a" vector-effect="non-scaling-stroke" d="
  M 144.36 28.42
  Q 145.10 28.62 145.42 28.50
  Q 146.25 28.18 145.87 27.28
  Q 145.65 26.74 144.86 26.62
  A 0.78 0.78 0.0 0 1 144.23 26.01
  Q 144.01 24.96 143.44 24.20
  A 0.76 0.75 32.3 0 0 142.09 24.50
  Q 141.76 26.14 140.77 27.06
  A 0.55 0.55 0.0 0 0 140.76 27.87
  Q 141.38 28.49 141.69 29.52
  A 2.36 2.25 37.9 0 1 141.79 30.19
  L 141.79 34.58
  A 1.14 1.12 29.0 0 0 141.97 35.19
  Q 143.28 37.25 145.37 36.89
  A 0.80 0.80 0.0 0 0 145.63 35.41
  L 144.58 34.81
  A 1.18 1.18 0.0 0 1 143.99 33.69
  Q 144.23 30.33 143.77 29.06
  A 0.49 0.49 0.0 0 1 144.36 28.42"
/>
<path stroke="#505251" vector-effect="non-scaling-stroke" d="
  M 29.92 41.42
  Q 36.63 41.42 36.65 41.42
  A 8.15 7.91 59.1 0 1 38.55 41.93
  L 40.93 42.88
  A 1.45 1.45 0.0 0 0 42.91 41.66
  Q 43.17 38.43 42.99 33.90
  C 42.92 32.33 42.29 31.77 41.12 30.96
  A 0.48 0.48 0.0 0 1 41.13 30.17
  Q 41.37 30.02 42.24 29.90
  A 0.48 0.47 -3.4 0 0 42.66 29.43
  L 42.66 29.14
  A 0.48 0.48 0.0 0 0 42.18 28.66
  L 40.32 28.66
  A 0.78 0.77 -8.7 0 1 39.58 28.12
  Q 38.80 25.62 36.98 25.03
  Q 35.18 24.44 29.91 24.45
  Q 24.65 24.45 22.85 25.03
  Q 21.02 25.63 20.24 28.13
  A 0.78 0.77 8.6 0 1 19.50 28.67
  L 17.64 28.67
  A 0.48 0.48 0.0 0 0 17.17 29.15
  L 17.17 29.44
  A 0.48 0.47 3.4 0 0 17.59 29.91
  Q 18.46 30.03 18.70 30.18
  A 0.48 0.48 0.0 0 1 18.71 30.97
  C 17.54 31.78 16.91 32.34 16.84 33.91
  Q 16.66 38.44 16.92 41.67
  A 1.45 1.45 0.0 0 0 18.90 42.89
  L 21.28 41.94
  A 8.15 7.91 -59.1 0 1 23.18 41.43
  Q 23.21 41.42 29.92 41.42"
/>
<path stroke="#5a5a5a" vector-effect="non-scaling-stroke" d="
  M 101.77 33.91
  C 99.78 35.20 96.58 36.18 95.37 33.30
  A 0.90 0.90 0.0 0 1 96.20 32.05
  L 102.17 32.05
  A 0.74 0.74 0.0 0 0 102.89 31.12
  C 102.47 29.50 101.58 27.23 99.66 26.80
  C 95.51 25.89 93.26 28.51 93.66 32.51
  Q 94.10 36.84 98.31 36.82
  Q 101.19 36.82 102.42 34.51
  A 0.46 0.46 0.0 0 0 101.77 33.91"
/>
<path stroke="#5a5a5a" vector-effect="non-scaling-stroke" d="
  M 114.19 27.61
  Q 113.26 25.88 112.65 26.92
  A 0.65 0.62 61.6 0 0 112.57 27.25
  L 112.46 35.89
  A 0.91 0.91 0.0 0 0 113.22 36.79
  L 113.28 36.80
  A 0.68 0.68 0.0 0 0 114.07 36.15
  C 114.15 33.75 113.45 28.97 116.78 28.71
  A 1.14 1.11 -29.6 0 0 117.37 26.68
  Q 116.81 26.30 115.16 27.78
  A 0.62 0.62 0.0 0 1 114.19 27.61"
/>
<path stroke="#5a5a5a" vector-effect="non-scaling-stroke" d="
  M 124.0467 26.5504
  A 5.18 4.85 -90.7 0 0 119.2604 31.7893
  A 5.18 4.85 -90.7 0 0 124.1733 36.9096
  A 5.18 4.85 -90.7 0 0 128.9596 31.6707
  A 5.18 4.85 -90.7 0 0 124.0467 26.5504"
/>
<path stroke="#5a5a5a" vector-effect="non-scaling-stroke" d="
  M 131.11 34.17
  C 131.55 36.88 135.49 37.39 137.45 36.45
  C 139.36 35.54 140.34 32.48 137.64 31.56
  Q 135.54 30.84 133.89 30.37
  A 1.09 1.09 0.0 0 1 133.28 28.71
  L 133.32 28.64
  A 1.65 1.64 -59.9 0 1 135.45 28.07
  L 138.05 29.41
  A 0.31 0.31 0.0 0 0 138.46 29.29
  L 138.58 29.07
  A 0.90 0.89 -55.6 0 0 138.37 27.92
  Q 135.83 25.84 132.95 26.98
  A 2.74 2.70 68.3 0 0 131.45 30.53
  C 132.05 32.02 135.27 32.52 136.67 32.90
  A 0.99 0.99 0.0 0 1 137.25 34.38
  C 135.72 36.83 133.75 34.98 131.81 33.71
  A 0.46 0.46 0.0 0 0 131.11 34.17"
/>
<path stroke="#5a5a5a" vector-effect="non-scaling-stroke" d="
  M 168.00 29.03
  A 0.52 0.51 82.4 0 0 168.78 29.63
  Q 171.02 28.01 172.70 28.13
  A 1.36 1.36 0.0 0 1 173.96 29.36
  L 173.97 29.45
  A 1.20 1.20 0.0 0 1 172.92 30.75
  C 170.64 31.01 167.47 31.17 167.94 34.73
  A 2.33 2.18 86.1 0 0 170.12 36.76
  Q 171.26 36.76 172.87 36.15
  A 1.36 1.31 48.2 0 1 173.97 36.23
  Q 174.86 36.72 175.44 36.69
  A 0.54 0.54 0.0 0 0 175.96 36.14
  L 175.91 29.76
  A 1.26 1.12 -55.7 0 0 175.87 29.45
  C 174.91 25.81 169.25 25.59 168.00 29.03"
/>
<path stroke="#5a5a5a" vector-effect="non-scaling-stroke" d="
  M 180.87 27.64
  Q 179.94 25.90 179.33 26.94
  A 0.66 0.62 61.8 0 0 179.24 27.27
  L 179.10 35.95
  A 0.91 0.91 0.0 0 0 179.86 36.86
  L 179.92 36.87
  A 0.68 0.68 0.0 0 0 180.71 36.22
  C 180.80 33.81 180.12 29.00 183.47 28.76
  A 1.14 1.11 -29.3 0 0 184.07 26.72
  Q 183.51 26.34 181.84 27.82
  A 0.63 0.63 0.0 0 1 180.87 27.64"
/>
<path stroke="#5a5a5a" vector-effect="non-scaling-stroke" d="
  M 82.01 25.29
  L 82.07 34.31
  A 0.59 0.59 0.0 0 0 82.67 34.89
  L 84.63 34.88
  A 4.65 4.37 -0.4 0 0 89.25 30.47
  L 89.23 29.01
  A 4.65 4.37 -0.4 0 0 84.55 24.68
  L 82.59 24.69
  A 0.59 0.59 0.0 0 0 82.01 25.29"
/>
<path stroke="#505251" vector-effect="non-scaling-stroke" d="
  M 21.32 29.42
  L 38.56 29.42
  A 0.13 0.13 0.0 0 0 38.69 29.29
  L 38.69 29.24
  A 4.29 3.28 0.0 0 0 34.40 25.96
  L 25.48 25.96
  A 4.29 3.28 0.0 0 0 21.19 29.24
  L 21.19 29.29
  A 0.13 0.13 0.0 0 0 21.32 29.42"
/>
<path stroke="#505251" vector-effect="non-scaling-stroke" d="
  M 42.0905 33.5165
  A 2.90 1.00 -10.6 0 0 39.0560 33.0671
  A 2.90 1.00 -10.6 0 0 36.3895 34.5835
  A 2.90 1.00 -10.6 0 0 39.4240 35.0329
  A 2.90 1.00 -10.6 0 0 42.0905 33.5165"
/>
<path stroke="#505251" vector-effect="non-scaling-stroke" d="
  M 18.0105 33.5660
  A 2.85 0.98 -169.2 0 0 20.6264 35.0626
  A 2.85 0.98 -169.2 0 0 23.6095 34.6340
  A 2.85 0.98 -169.2 0 0 20.9936 33.1374
  A 2.85 0.98 -169.2 0 0 18.0105 33.5660"
/>
<path stroke="#5a5a5a" vector-effect="non-scaling-stroke" d="
  M 96.15 30.84
  L 100.17 30.76
  A 0.49 0.49 0.0 0 0 100.65 30.26
  L 100.64 30.03
  A 2.02 1.92 -1.2 0 0 98.58 28.15
  L 97.62 28.17
  A 2.02 1.92 -1.2 0 0 95.64 30.13
  L 95.65 30.36
  A 0.49 0.49 0.0 0 0 96.15 30.84"
/>
<path stroke="#5a5a5a" vector-effect="non-scaling-stroke" d="
  M 126.8854 30.6944
  A 2.54 2.54 0.0 0 0 124.3587 28.1411
  L 123.9587 28.1390
  A 2.54 2.54 0.0 0 0 121.4054 30.6657
  L 121.3946 32.7256
  A 2.54 2.54 0.0 0 0 123.9213 35.2789
  L 124.3213 35.2810
  A 2.54 2.54 0.0 0 0 126.8746 32.7543
  L 126.8854 30.6944"
/>
<path stroke="#5a5a5a" vector-effect="non-scaling-stroke" d="
  M 174.0769 32.7214
  A 2.47 1.56 -19.6 0 0 171.2267 32.0804
  A 2.47 1.56 -19.6 0 0 169.4231 34.3786
  A 2.47 1.56 -19.6 0 0 172.2733 35.0196
  A 2.47 1.56 -19.6 0 0 174.0769 32.7214"
/>
</g>
<path fill="#161817" d="
  M 209.00 0.00
  L 209.00 58.00
  L 0.00 58.00
  L 0.00 0.00
  L 209.00 0.00
  Z
  M 29.13 15.49
  Q 29.65 16.65 29.71 16.89
  A 3.33 3.25 -44.6 0 1 29.68 18.40
  L 29.10 20.66
  A 0.55 0.55 0.0 0 0 30.08 21.12
  C 31.67 18.88 31.48 17.22 30.44 14.90
  Q 29.91 13.74 29.86 13.51
  A 3.33 3.25 -44.6 0 1 29.89 11.99
  L 30.47 9.73
  A 0.55 0.55 0.0 0 0 29.48 9.28
  C 27.90 11.51 28.08 13.18 29.13 15.49
  Z
  M 23.44 15.54
  Q 23.95 16.69 24.00 16.93
  A 3.30 3.22 -44.2 0 1 23.96 18.43
  L 23.37 20.66
  A 0.55 0.55 0.0 0 0 24.34 21.12
  C 25.93 18.92 25.76 17.26 24.74 14.96
  Q 24.23 13.81 24.18 13.57
  A 3.30 3.22 -44.2 0 1 24.22 12.08
  L 24.81 9.84
  A 0.55 0.55 0.0 0 0 23.84 9.38
  C 22.25 11.59 22.42 13.24 23.44 15.54
  Z
  M 34.71 15.51
  Q 35.22 16.66 35.28 16.90
  A 3.30 3.23 -44.6 0 1 35.25 18.40
  L 34.67 20.64
  A 0.55 0.55 0.0 0 0 35.65 21.09
  C 37.22 18.88 37.04 17.22 36.00 14.93
  Q 35.48 13.78 35.43 13.54
  A 3.30 3.23 -44.6 0 1 35.45 12.04
  L 36.03 9.80
  A 0.55 0.55 0.0 0 0 35.06 9.35
  C 33.49 11.57 33.67 13.22 34.71 15.51
  Z
  M 108.51 28.51
  Q 109.22 28.62 109.94 28.31
  A 0.79 0.79 0.0 0 0 109.76 26.81
  L 108.17 26.56
  A 0.50 0.50 0.0 0 1 107.82 25.81
  Q 108.70 24.33 110.02 23.85
  A 0.64 0.63 42.3 0 0 109.96 22.64
  C 107.29 21.93 106.04 23.77 105.94 26.16
  A 0.66 0.66 0.0 0 1 105.28 26.79
  L 104.68 26.79
  A 0.64 0.64 0.0 0 0 104.36 27.99
  L 105.39 28.59
  A 1.23 1.22 -75.5 0 1 106.01 29.66
  L 106.01 36.00
  A 0.76 0.76 0.0 0 0 106.77 36.76
  L 107.33 36.76
  A 0.77 0.77 0.0 0 0 108.10 35.99
  L 108.10 28.87
  A 0.36 0.36 0.0 0 1 108.51 28.51
  Z
  M 79.79 23.47
  L 79.75 36.07
  A 0.56 0.56 0.0 0 0 80.31 36.63
  L 84.76 36.65
  A 6.51 6.35 0.2 0 0 91.29 30.32
  L 91.29 29.30
  A 6.51 6.35 0.2 0 0 84.80 22.93
  L 80.35 22.91
  A 0.56 0.56 0.0 0 0 79.79 23.47
  Z
  M 152.96 29.85
  C 152.99 34.23 155.68 37.24 160.21 36.78
  Q 163.84 36.42 164.89 32.87
  A 0.71 0.71 0.0 0 0 163.66 32.21
  L 161.92 34.31
  A 1.27 1.23 9.3 0 1 161.33 34.72
  C 157.26 36.08 155.09 33.65 155.06 29.83
  C 155.03 26.01 157.15 23.55 161.25 24.84
  A 1.27 1.23 -10.2 0 1 161.84 25.24
  L 163.62 27.31
  A 0.71 0.71 0.0 0 0 164.84 26.63
  Q 163.73 23.09 160.09 22.79
  C 155.56 22.41 152.92 25.47 152.96 29.85
  Z
  M 144.36 28.42
  Q 145.10 28.62 145.42 28.50
  Q 146.25 28.18 145.87 27.28
  Q 145.65 26.74 144.86 26.62
  A 0.78 0.78 0.0 0 1 144.23 26.01
  Q 144.01 24.96 143.44 24.20
  A 0.76 0.75 32.3 0 0 142.09 24.50
  Q 141.76 26.14 140.77 27.06
  A 0.55 0.55 0.0 0 0 140.76 27.87
  Q 141.38 28.49 141.69 29.52
  A 2.36 2.25 37.9 0 1 141.79 30.19
  L 141.79 34.58
  A 1.14 1.12 29.0 0 0 141.97 35.19
  Q 143.28 37.25 145.37 36.89
  A 0.80 0.80 0.0 0 0 145.63 35.41
  L 144.58 34.81
  A 1.18 1.18 0.0 0 1 143.99 33.69
  Q 144.23 30.33 143.77 29.06
  A 0.49 0.49 0.0 0 1 144.36 28.42
  Z
  M 29.92 41.42
  Q 36.63 41.42 36.65 41.42
  A 8.15 7.91 59.1 0 1 38.55 41.93
  L 40.93 42.88
  A 1.45 1.45 0.0 0 0 42.91 41.66
  Q 43.17 38.43 42.99 33.90
  C 42.92 32.33 42.29 31.77 41.12 30.96
  A 0.48 0.48 0.0 0 1 41.13 30.17
  Q 41.37 30.02 42.24 29.90
  A 0.48 0.47 -3.4 0 0 42.66 29.43
  L 42.66 29.14
  A 0.48 0.48 0.0 0 0 42.18 28.66
  L 40.32 28.66
  A 0.78 0.77 -8.7 0 1 39.58 28.12
  Q 38.80 25.62 36.98 25.03
  Q 35.18 24.44 29.91 24.45
  Q 24.65 24.45 22.85 25.03
  Q 21.02 25.63 20.24 28.13
  A 0.78 0.77 8.6 0 1 19.50 28.67
  L 17.64 28.67
  A 0.48 0.48 0.0 0 0 17.17 29.15
  L 17.17 29.44
  A 0.48 0.47 3.4 0 0 17.59 29.91
  Q 18.46 30.03 18.70 30.18
  A 0.48 0.48 0.0 0 1 18.71 30.97
  C 17.54 31.78 16.91 32.34 16.84 33.91
  Q 16.66 38.44 16.92 41.67
  A 1.45 1.45 0.0 0 0 18.90 42.89
  L 21.28 41.94
  A 8.15 7.91 -59.1 0 1 23.18 41.43
  Q 23.21 41.42 29.92 41.42
  Z
  M 101.77 33.91
  C 99.78 35.20 96.58 36.18 95.37 33.30
  A 0.90 0.90 0.0 0 1 96.20 32.05
  L 102.17 32.05
  A 0.74 0.74 0.0 0 0 102.89 31.12
  C 102.47 29.50 101.58 27.23 99.66 26.80
  C 95.51 25.89 93.26 28.51 93.66 32.51
  Q 94.10 36.84 98.31 36.82
  Q 101.19 36.82 102.42 34.51
  A 0.46 0.46 0.0 0 0 101.77 33.91
  Z
  M 114.19 27.61
  Q 113.26 25.88 112.65 26.92
  A 0.65 0.62 61.6 0 0 112.57 27.25
  L 112.46 35.89
  A 0.91 0.91 0.0 0 0 113.22 36.79
  L 113.28 36.80
  A 0.68 0.68 0.0 0 0 114.07 36.15
  C 114.15 33.75 113.45 28.97 116.78 28.71
  A 1.14 1.11 -29.6 0 0 117.37 26.68
  Q 116.81 26.30 115.16 27.78
  A 0.62 0.62 0.0 0 1 114.19 27.61
  Z
  M 124.0467 26.5504
  A 5.18 4.85 -90.7 0 0 119.2604 31.7893
  A 5.18 4.85 -90.7 0 0 124.1733 36.9096
  A 5.18 4.85 -90.7 0 0 128.9596 31.6707
  A 5.18 4.85 -90.7 0 0 124.0467 26.5504
  Z
  M 131.11 34.17
  C 131.55 36.88 135.49 37.39 137.45 36.45
  C 139.36 35.54 140.34 32.48 137.64 31.56
  Q 135.54 30.84 133.89 30.37
  A 1.09 1.09 0.0 0 1 133.28 28.71
  L 133.32 28.64
  A 1.65 1.64 -59.9 0 1 135.45 28.07
  L 138.05 29.41
  A 0.31 0.31 0.0 0 0 138.46 29.29
  L 138.58 29.07
  A 0.90 0.89 -55.6 0 0 138.37 27.92
  Q 135.83 25.84 132.95 26.98
  A 2.74 2.70 68.3 0 0 131.45 30.53
  C 132.05 32.02 135.27 32.52 136.67 32.90
  A 0.99 0.99 0.0 0 1 137.25 34.38
  C 135.72 36.83 133.75 34.98 131.81 33.71
  A 0.46 0.46 0.0 0 0 131.11 34.17
  Z
  M 168.00 29.03
  A 0.52 0.51 82.4 0 0 168.78 29.63
  Q 171.02 28.01 172.70 28.13
  A 1.36 1.36 0.0 0 1 173.96 29.36
  L 173.97 29.45
  A 1.20 1.20 0.0 0 1 172.92 30.75
  C 170.64 31.01 167.47 31.17 167.94 34.73
  A 2.33 2.18 86.1 0 0 170.12 36.76
  Q 171.26 36.76 172.87 36.15
  A 1.36 1.31 48.2 0 1 173.97 36.23
  Q 174.86 36.72 175.44 36.69
  A 0.54 0.54 0.0 0 0 175.96 36.14
  L 175.91 29.76
  A 1.26 1.12 -55.7 0 0 175.87 29.45
  C 174.91 25.81 169.25 25.59 168.00 29.03
  Z
  M 180.87 27.64
  Q 179.94 25.90 179.33 26.94
  A 0.66 0.62 61.8 0 0 179.24 27.27
  L 179.10 35.95
  A 0.91 0.91 0.0 0 0 179.86 36.86
  L 179.92 36.87
  A 0.68 0.68 0.0 0 0 180.71 36.22
  C 180.80 33.81 180.12 29.00 183.47 28.76
  A 1.14 1.11 -29.3 0 0 184.07 26.72
  Q 183.51 26.34 181.84 27.82
  A 0.63 0.63 0.0 0 1 180.87 27.64
  Z"
/>
<path fill="#9d9c9c" d="
  M 29.13 15.49
  C 28.08 13.18 27.90 11.51 29.48 9.28
  A 0.55 0.55 0.0 0 1 30.47 9.73
  L 29.89 11.99
  A 3.33 3.25 -44.6 0 0 29.86 13.51
  Q 29.91 13.74 30.44 14.90
  C 31.48 17.22 31.67 18.88 30.08 21.12
  A 0.55 0.55 0.0 0 1 29.10 20.66
  L 29.68 18.40
  A 3.33 3.25 -44.6 0 0 29.71 16.89
  Q 29.65 16.65 29.13 15.49
  Z"
/>
<path fill="#9d9c9c" d="
  M 23.44 15.54
  C 22.42 13.24 22.25 11.59 23.84 9.38
  A 0.55 0.55 0.0 0 1 24.81 9.84
  L 24.22 12.08
  A 3.30 3.22 -44.2 0 0 24.18 13.57
  Q 24.23 13.81 24.74 14.96
  C 25.76 17.26 25.93 18.92 24.34 21.12
  A 0.55 0.55 0.0 0 1 23.37 20.66
  L 23.96 18.43
  A 3.30 3.22 -44.2 0 0 24.00 16.93
  Q 23.95 16.69 23.44 15.54
  Z"
/>
<path fill="#9d9c9c" d="
  M 34.71 15.51
  C 33.67 13.22 33.49 11.57 35.06 9.35
  A 0.55 0.55 0.0 0 1 36.03 9.80
  L 35.45 12.04
  A 3.30 3.23 -44.6 0 0 35.43 13.54
  Q 35.48 13.78 36.00 14.93
  C 37.04 17.22 37.22 18.88 35.65 21.09
  A 0.55 0.55 0.0 0 1 34.67 20.64
  L 35.25 18.40
  A 3.30 3.23 -44.6 0 0 35.28 16.90
  Q 35.22 16.66 34.71 15.51
  Z"
/>
<path fill="#9d9c9c" d="
  M 108.10 28.87
  L 108.10 35.99
  A 0.77 0.77 0.0 0 1 107.33 36.76
  L 106.77 36.76
  A 0.76 0.76 0.0 0 1 106.01 36.00
  L 106.01 29.66
  A 1.23 1.22 -75.5 0 0 105.39 28.59
  L 104.36 27.99
  A 0.64 0.64 0.0 0 1 104.68 26.79
  L 105.28 26.79
  A 0.66 0.66 0.0 0 0 105.94 26.16
  C 106.04 23.77 107.29 21.93 109.96 22.64
  A 0.64 0.63 42.3 0 1 110.02 23.85
  Q 108.70 24.33 107.82 25.81
  A 0.50 0.50 0.0 0 0 108.17 26.56
  L 109.76 26.81
  A 0.79 0.79 0.0 0 1 109.94 28.31
  Q 109.22 28.62 108.51 28.51
  A 0.36 0.36 0.0 0 0 108.10 28.87
  Z"
/>
<path fill="#9d9c9c" d="
  M 79.79 23.47
  A 0.56 0.56 0.0 0 1 80.35 22.91
  L 84.80 22.93
  A 6.51 6.35 0.2 0 1 91.29 29.30
  L 91.29 30.32
  A 6.51 6.35 0.2 0 1 84.76 36.65
  L 80.31 36.63
  A 0.56 0.56 0.0 0 1 79.75 36.07
  L 79.79 23.47
  Z
  M 82.01 25.29
  L 82.07 34.31
  A 0.59 0.59 0.0 0 0 82.67 34.89
  L 84.63 34.88
  A 4.65 4.37 -0.4 0 0 89.25 30.47
  L 89.23 29.01
  A 4.65 4.37 -0.4 0 0 84.55 24.68
  L 82.59 24.69
  A 0.59 0.59 0.0 0 0 82.01 25.29
  Z"
/>
<path fill="#9d9c9c" d="
  M 155.06 29.83
  C 155.09 33.65 157.26 36.08 161.33 34.72
  A 1.27 1.23 9.3 0 0 161.92 34.31
  L 163.66 32.21
  A 0.71 0.71 0.0 0 1 164.89 32.87
  Q 163.84 36.42 160.21 36.78
  C 155.68 37.24 152.99 34.23 152.96 29.85
  C 152.92 25.47 155.56 22.41 160.09 22.79
  Q 163.73 23.09 164.84 26.63
  A 0.71 0.71 0.0 0 1 163.62 27.31
  L 161.84 25.24
  A 1.27 1.23 -10.2 0 0 161.25 24.84
  C 157.15 23.55 155.03 26.01 155.06 29.83
  Z"
/>
<path fill="#9d9c9c" d="
  M 143.77 29.06
  Q 144.23 30.33 143.99 33.69
  A 1.18 1.18 0.0 0 0 144.58 34.81
  L 145.63 35.41
  A 0.80 0.80 0.0 0 1 145.37 36.89
  Q 143.28 37.25 141.97 35.19
  A 1.14 1.12 29.0 0 1 141.79 34.58
  L 141.79 30.19
  A 2.36 2.25 37.9 0 0 141.69 29.52
  Q 141.38 28.49 140.76 27.87
  A 0.55 0.55 0.0 0 1 140.77 27.06
  Q 141.76 26.14 142.09 24.50
  A 0.76 0.75 32.3 0 1 143.44 24.20
  Q 144.01 24.96 144.23 26.01
  A 0.78 0.78 0.0 0 0 144.86 26.62
  Q 145.65 26.74 145.87 27.28
  Q 146.25 28.18 145.42 28.50
  Q 145.10 28.62 144.36 28.42
  A 0.49 0.49 0.0 0 0 143.77 29.06
  Z"
/>
<path fill="#8a8c8b" d="
  M 29.91 24.45
  Q 35.18 24.44 36.98 25.03
  Q 38.80 25.62 39.58 28.12
  A 0.78 0.77 -8.7 0 0 40.32 28.66
  L 42.18 28.66
  A 0.48 0.48 0.0 0 1 42.66 29.14
  L 42.66 29.43
  A 0.48 0.47 -3.4 0 1 42.24 29.90
  Q 41.37 30.02 41.13 30.17
  A 0.48 0.48 0.0 0 0 41.12 30.96
  C 42.29 31.77 42.92 32.33 42.99 33.90
  Q 43.17 38.43 42.91 41.66
  A 1.45 1.45 0.0 0 1 40.93 42.88
  L 38.55 41.93
  A 8.15 7.91 59.1 0 0 36.65 41.42
  Q 36.63 41.42 29.92 41.42
  Q 23.21 41.42 23.18 41.43
  A 8.15 7.91 -59.1 0 0 21.28 41.94
  L 18.90 42.89
  A 1.45 1.45 0.0 0 1 16.92 41.67
  Q 16.66 38.44 16.84 33.91
  C 16.91 32.34 17.54 31.78 18.71 30.97
  A 0.48 0.48 0.0 0 0 18.70 30.18
  Q 18.46 30.03 17.59 29.91
  A 0.48 0.47 3.4 0 1 17.17 29.44
  L 17.17 29.15
  A 0.48 0.48 0.0 0 1 17.64 28.67
  L 19.50 28.67
  A 0.78 0.77 8.6 0 0 20.24 28.13
  Q 21.02 25.63 22.85 25.03
  Q 24.65 24.45 29.91 24.45
  Z
  M 21.32 29.42
  L 38.56 29.42
  A 0.13 0.13 0.0 0 0 38.69 29.29
  L 38.69 29.24
  A 4.29 3.28 0.0 0 0 34.40 25.96
  L 25.48 25.96
  A 4.29 3.28 0.0 0 0 21.19 29.24
  L 21.19 29.29
  A 0.13 0.13 0.0 0 0 21.32 29.42
  Z
  M 42.0905 33.5165
  A 2.90 1.00 -10.6 0 0 39.0560 33.0671
  A 2.90 1.00 -10.6 0 0 36.3895 34.5835
  A 2.90 1.00 -10.6 0 0 39.4240 35.0329
  A 2.90 1.00 -10.6 0 0 42.0905 33.5165
  Z
  M 18.0105 33.5660
  A 2.85 0.98 -169.2 0 0 20.6264 35.0626
  A 2.85 0.98 -169.2 0 0 23.6095 34.6340
  A 2.85 0.98 -169.2 0 0 20.9936 33.1374
  A 2.85 0.98 -169.2 0 0 18.0105 33.5660
  Z"
/>
<path fill="#161817" d="
  M 82.01 25.29
  A 0.59 0.59 0.0 0 1 82.59 24.69
  L 84.55 24.68
  A 4.65 4.37 -0.4 0 1 89.23 29.01
  L 89.25 30.47
  A 4.65 4.37 -0.4 0 1 84.63 34.88
  L 82.67 34.89
  A 0.59 0.59 0.0 0 1 82.07 34.31
  L 82.01 25.29
  Z"
/>
<path fill="#161817" d="
  M 21.32 29.42
  A 0.13 0.13 0.0 0 1 21.19 29.29
  L 21.19 29.24
  A 4.29 3.28 0.0 0 1 25.48 25.96
  L 34.40 25.96
  A 4.29 3.28 -0.0 0 1 38.69 29.24
  L 38.69 29.29
  A 0.13 0.13 0.0 0 1 38.56 29.42
  L 21.32 29.42
  Z"
/>
<path fill="#9d9c9c" d="
  M 101.77 33.91
  A 0.46 0.46 0.0 0 1 102.42 34.51
  Q 101.19 36.82 98.31 36.82
  Q 94.10 36.84 93.66 32.51
  C 93.26 28.51 95.51 25.89 99.66 26.80
  C 101.58 27.23 102.47 29.50 102.89 31.12
  A 0.74 0.74 0.0 0 1 102.17 32.05
  L 96.20 32.05
  A 0.90 0.90 0.0 0 0 95.37 33.30
  C 96.58 36.18 99.78 35.20 101.77 33.91
  Z
  M 96.15 30.84
  L 100.17 30.76
  A 0.49 0.49 0.0 0 0 100.65 30.26
  L 100.64 30.03
  A 2.02 1.92 -1.2 0 0 98.58 28.15
  L 97.62 28.17
  A 2.02 1.92 -1.2 0 0 95.64 30.13
  L 95.65 30.36
  A 0.49 0.49 0.0 0 0 96.15 30.84
  Z"
/>
<path fill="#9d9c9c" d="
  M 114.19 27.61
  A 0.62 0.62 0.0 0 0 115.16 27.78
  Q 116.81 26.30 117.37 26.68
  A 1.14 1.11 -29.6 0 1 116.78 28.71
  C 113.45 28.97 114.15 33.75 114.07 36.15
  A 0.68 0.68 0.0 0 1 113.28 36.80
  L 113.22 36.79
  A 0.91 0.91 0.0 0 1 112.46 35.89
  L 112.57 27.25
  A 0.65 0.62 61.6 0 1 112.65 26.92
  Q 113.26 25.88 114.19 27.61
  Z"
/>
<path fill="#9d9c9c" d="
  M 124.0467 26.5504
  A 5.18 4.85 -90.7 0 1 128.9596 31.6707
  A 5.18 4.85 -90.7 0 1 124.1733 36.9096
  A 5.18 4.85 -90.7 0 1 119.2604 31.7893
  A 5.18 4.85 -90.7 0 1 124.0467 26.5504
  Z
  M 126.8854 30.6944
  A 2.54 2.54 0.0 0 0 124.3587 28.1411
  L 123.9587 28.1390
  A 2.54 2.54 0.0 0 0 121.4054 30.6657
  L 121.3946 32.7256
  A 2.54 2.54 0.0 0 0 123.9213 35.2789
  L 124.3213 35.2810
  A 2.54 2.54 0.0 0 0 126.8746 32.7543
  L 126.8854 30.6944
  Z"
/>
<path fill="#9d9c9c" d="
  M 131.11 34.17
  A 0.46 0.46 0.0 0 1 131.81 33.71
  C 133.75 34.98 135.72 36.83 137.25 34.38
  A 0.99 0.99 0.0 0 0 136.67 32.90
  C 135.27 32.52 132.05 32.02 131.45 30.53
  A 2.74 2.70 68.3 0 1 132.95 26.98
  Q 135.83 25.84 138.37 27.92
  A 0.90 0.89 -55.6 0 1 138.58 29.07
  L 138.46 29.29
  A 0.31 0.31 0.0 0 1 138.05 29.41
  L 135.45 28.07
  A 1.65 1.64 -59.9 0 0 133.32 28.64
  L 133.28 28.71
  A 1.09 1.09 0.0 0 0 133.89 30.37
  Q 135.54 30.84 137.64 31.56
  C 140.34 32.48 139.36 35.54 137.45 36.45
  C 135.49 37.39 131.55 36.88 131.11 34.17
  Z"
/>
<path fill="#9d9c9c" d="
  M 168.00 29.03
  C 169.25 25.59 174.91 25.81 175.87 29.45
  A 1.26 1.12 -55.7 0 1 175.91 29.76
  L 175.96 36.14
  A 0.54 0.54 0.0 0 1 175.44 36.69
  Q 174.86 36.72 173.97 36.23
  A 1.36 1.31 48.2 0 0 172.87 36.15
  Q 171.26 36.76 170.12 36.76
  A 2.33 2.18 86.1 0 1 167.94 34.73
  C 167.47 31.17 170.64 31.01 172.92 30.75
  A 1.20 1.20 0.0 0 0 173.97 29.45
  L 173.96 29.36
  A 1.36 1.36 0.0 0 0 172.70 28.13
  Q 171.02 28.01 168.78 29.63
  A 0.52 0.51 82.4 0 1 168.00 29.03
  Z
  M 174.0769 32.7214
  A 2.47 1.56 -19.6 0 0 171.2267 32.0804
  A 2.47 1.56 -19.6 0 0 169.4231 34.3786
  A 2.47 1.56 -19.6 0 0 172.2733 35.0196
  A 2.47 1.56 -19.6 0 0 174.0769 32.7214
  Z"
/>
<path fill="#9d9c9c" d="
  M 180.87 27.64
  A 0.63 0.63 0.0 0 0 181.84 27.82
  Q 183.51 26.34 184.07 26.72
  A 1.14 1.11 -29.3 0 1 183.47 28.76
  C 180.12 29.00 180.80 33.81 180.71 36.22
  A 0.68 0.68 0.0 0 1 179.92 36.87
  L 179.86 36.86
  A 0.91 0.91 0.0 0 1 179.10 35.95
  L 179.24 27.27
  A 0.66 0.62 61.8 0 1 179.33 26.94
  Q 179.94 25.90 180.87 27.64
  Z"
/>
<path fill="#161817" d="
  M 96.15 30.84
  A 0.49 0.49 0.0 0 1 95.65 30.36
  L 95.64 30.13
  A 2.02 1.92 -1.2 0 1 97.62 28.17
  L 98.58 28.15
  A 2.02 1.92 -1.2 0 1 100.64 30.03
  L 100.65 30.26
  A 0.49 0.49 0.0 0 1 100.17 30.76
  L 96.15 30.84
  Z"
/>
<rect fill="#161817" x="-2.74" y="-3.57" transform="translate(124.14,31.71) rotate(0.3)" width="5.48" height="7.14" rx="2.54"/>
<ellipse fill="#161817" cx="0.00" cy="0.00" transform="translate(171.75,33.55) rotate(-19.6)" rx="2.47" ry="1.56"/>
<ellipse fill="#161817" cx="0.00" cy="0.00" transform="translate(39.24,34.05) rotate(-10.6)" rx="2.90" ry="1.00"/>
<ellipse fill="#161817" cx="0.00" cy="0.00" transform="translate(20.81,34.10) rotate(-169.2)" rx="2.85" ry="0.98"/>
</svg>
