<?xml version="1.0" encoding="UTF-8" standalone="no"?>
<!DOCTYPE svg PUBLIC "-//W3C//DTD SVG 1.1//EN" "http://www.w3.org/Graphics/SVG/1.1/DTD/svg11.dtd">
<svg xmlns="http://www.w3.org/2000/svg" version="1.1" viewBox="0.00 0.00 105.00 105.00">
<path stroke="#858586" stroke-width="2.00" fill="none" stroke-linecap="butt" vector-effect="non-scaling-stroke" d="
  M 51.01 87.78
  Q 52.29 88.43 53.16 86.88
  Q 55.89 82.01 75.46 48.64
  A 1.33 1.32 15.1 0 0 74.31 46.65
  L 54.90 46.65
  A 1.25 1.25 0.0 0 1 53.65 45.40
  Q 53.64 40.75 53.64 19.35
  A 1.33 1.33 0.0 0 0 51.62 18.22
  Q 51.34 18.39 50.98 19.00
  Q 45.62 28.22 28.55 57.42
  A 1.29 1.29 0.0 0 0 29.66 59.36
  L 49.24 59.36
  A 1.13 1.12 -0.0 0 1 50.37 60.48
  L 50.37 86.73
  A 1.18 1.18 0.0 0 0 51.01 87.78"
/>
<path fill="#161719" d="
  M 105.00 0.00
  L 105.00 105.00
  L 0.00 105.00
  L 0.00 0.00
  L 105.00 0.00
  Z
  M 51.01 87.78
  Q 52.29 88.43 53.16 86.88
  Q 55.89 82.01 75.46 48.64
  A 1.33 1.32 15.1 0 0 74.31 46.65
  L 54.90 46.65
  A 1.25 1.25 0.0 0 1 53.65 45.40
  Q 53.64 40.75 53.64 19.35
  A 1.33 1.33 0.0 0 0 51.62 18.22
  Q 51.34 18.39 50.98 19.00
  Q 45.62 28.22 28.55 57.42
  A 1.29 1.29 0.0 0 0 29.66 59.36
  L 49.24 59.36
  A 1.13 1.12 -0.0 0 1 50.37 60.48
  L 50.37 86.73
  A 1.18 1.18 0.0 0 0 51.01 87.78
  Z"
/>
<path fill="#f3f3f3" d="
  M 51.01 87.78
  A 1.18 1.18 0.0 0 1 50.37 86.73
  L 50.37 60.48
  A 1.13 1.12 -0.0 0 0 49.24 59.36
  L 29.66 59.36
  A 1.29 1.29 0.0 0 1 28.55 57.42
  Q 45.62 28.22 50.98 19.00
  Q 51.34 18.39 51.62 18.22
  A 1.33 1.33 0.0 0 1 53.64 19.35
  Q 53.64 40.75 53.65 45.40
  A 1.25 1.25 0.0 0 0 54.90 46.65
  L 74.31 46.65
  A 1.33 1.32 15.1 0 1 75.46 48.64
  Q 55.89 82.01 53.16 86.88
  Q 52.29 88.43 51.01 87.78
  Z"
/>
</svg>
