<?xml version="1.0" encoding="UTF-8" standalone="no"?>
<!DOCTYPE svg PUBLIC "-//W3C//DTD SVG 1.1//EN" "http://www.w3.org/Graphics/SVG/1.1/DTD/svg11.dtd">
<svg xmlns="http://www.w3.org/2000/svg" version="1.1" viewBox="0.00 0.00 105.00 105.00">
<g stroke-width="2.00" fill="none" stroke-linecap="butt">
<path stroke="#858586" vector-effect="non-scaling-stroke" d="
  M 57.79 39.34
  Q 38.56 39.68 21.86 47.46
  C 19.22 48.69 17.23 50.25 17.07 53.04
  Q 16.93 55.37 17.03 68.26
  C 17.07 73.04 20.96 75.04 25.71 75.29
  Q 26.41 75.32 32.58 75.95
  A 1.66 1.64 74.8 0 1 33.77 76.64
  C 40.31 85.79 52.81 85.66 59.62 76.85
  A 0.88 0.87 18.1 0 1 60.32 76.50
  L 83.64 76.50
  A 3.20 3.20 0.0 0 0 86.84 73.30
  L 86.84 72.83
  A 3.33 3.33 0.0 0 0 83.51 69.50
  L 63.06 69.50
  A 0.57 0.57 0.0 0 1 62.49 68.91
  Q 62.68 60.78 56.96 55.79
  C 53.25 52.55 47.23 51.07 42.75 52.52
  Q 31.34 56.18 30.93 68.49
  A 0.25 0.25 0.0 0 1 30.65 68.73
  L 24.34 68.12
  A 0.37 0.37 0.0 0 1 24.00 67.75
  L 24.00 54.81
  A 1.05 1.04 -12.4 0 1 24.61 53.86
  Q 44.11 44.94 64.71 46.71
  A 5.57 5.52 34.1 0 0 67.63 46.16
  L 85.07 37.63
  A 3.41 3.41 0.0 0 0 86.67 33.15
  L 86.62 33.04
  A 3.44 3.43 64.9 0 0 81.97 31.35
  L 68.32 38.05
  A 0.92 0.91 53.8 0 1 67.27 37.88
  Q 52.58 23.40 30.83 19.69
  A 3.40 3.40 0.0 0 0 26.91 22.47
  L 26.87 22.69
  A 3.44 3.44 0.0 0 0 29.73 26.66
  Q 45.63 29.14 57.95 38.87
  A 0.26 0.26 0.0 0 1 57.79 39.34"
/>
<path stroke="#858586" vector-effect="non-scaling-stroke" d="
  M 55.47 67.75
  A 8.72 8.72 0.0 0 0 46.75 59.03
  A 8.72 8.72 0.0 0 0 38.03 67.75
  A 8.72 8.72 0.0 0 0 46.75 76.47
  A 8.72 8.72 0.0 0 0 55.47 67.75"
/>
</g>
<path fill="#161719" d="
  M 105.00 0.00
  L 105.00 105.00
  L 0.00 105.00
  L 0.00 0.00
  L 105.00 0.00
  Z
  M 57.79 39.34
  Q 38.56 39.68 21.86 47.46
  C 19.22 48.69 17.23 50.25 17.07 53.04
  Q 16.93 55.37 17.03 68.26
  C 17.07 73.04 20.96 75.04 25.71 75.29
  Q 26.41 75.32 32.58 75.95
  A 1.66 1.64 74.8 0 1 33.77 76.64
  C 40.31 85.79 52.81 85.66 59.62 76.85
  A 0.88 0.87 18.1 0 1 60.32 76.50
  L 83.64 76.50
  A 3.20 3.20 0.0 0 0 86.84 73.30
  L 86.84 72.83
  A 3.33 3.33 0.0 0 0 83.51 69.50
  L 63.06 69.50
  A 0.57 0.57 0.0 0 1 62.49 68.91
  Q 62.68 60.78 56.96 55.79
  C 53.25 52.55 47.23 51.07 42.75 52.52
  Q 31.34 56.18 30.93 68.49
  A 0.25 0.25 0.0 0 1 30.65 68.73
  L 24.34 68.12
  A 0.37 0.37 0.0 0 1 24.00 67.75
  L 24.00 54.81
  A 1.05 1.04 -12.4 0 1 24.61 53.86
  Q 44.11 44.94 64.71 46.71
  A 5.57 5.52 34.1 0 0 67.63 46.16
  L 85.07 37.63
  A 3.41 3.41 0.0 0 0 86.67 33.15
  L 86.62 33.04
  A 3.44 3.43 64.9 0 0 81.97 31.35
  L 68.32 38.05
  A 0.92 0.91 53.8 0 1 67.27 37.88
  Q 52.58 23.40 30.83 19.69
  A 3.40 3.40 0.0 0 0 26.91 22.47
  L 26.87 22.69
  A 3.44 3.44 0.0 0 0 29.73 26.66
  Q 45.63 29.14 57.95 38.87
  A 0.26 0.26 0.0 0 1 57.79 39.34
  Z"
/>
<path fill="#f3f3f3" d="
  M 57.79 39.34
  A 0.26 0.26 0.0 0 0 57.95 38.87
  Q 45.63 29.14 29.73 26.66
  A 3.44 3.44 0.0 0 1 26.87 22.69
  L 26.91 22.47
  A 3.40 3.40 0.0 0 1 30.83 19.69
  Q 52.58 23.40 67.27 37.88
  A 0.92 0.91 53.8 0 0 68.32 38.05
  L 81.97 31.35
  A 3.44 3.43 64.9 0 1 86.62 33.04
  L 86.67 33.15
  A 3.41 3.41 0.0 0 1 85.07 37.63
  L 67.63 46.16
  A 5.57 5.52 34.1 0 1 64.71 46.71
  Q 44.11 44.94 24.61 53.86
  A 1.05 1.04 -12.4 0 0 24.00 54.81
  L 24.00 67.75
  A 0.37 0.37 0.0 0 0 24.34 68.12
  L 30.65 68.73
  A 0.25 0.25 0.0 0 0 30.93 68.49
  Q 31.34 56.18 42.75 52.52
  C 47.23 51.07 53.25 52.55 56.96 55.79
  Q 62.68 60.78 62.49 68.91
  A 0.57 0.57 0.0 0 0 63.06 69.50
  L 83.51 69.50
  A 3.33 3.33 0.0 0 1 86.84 72.83
  L 86.84 73.30
  A 3.20 3.20 0.0 0 1 83.64 76.50
  L 60.32 76.50
  A 0.88 0.87 18.1 0 0 59.62 76.85
  C 52.81 85.66 40.31 85.79 33.77 76.64
  A 1.66 1.64 74.8 0 0 32.58 75.95
  Q 26.41 75.32 25.71 75.29
  C 20.96 75.04 17.07 73.04 17.03 68.26
  Q 16.93 55.37 17.07 53.04
  C 17.23 50.25 19.22 48.69 21.86 47.46
  Q 38.56 39.68 57.79 39.34
  Z
  M 55.47 67.75
  A 8.72 8.72 0.0 0 0 46.75 59.03
  A 8.72 8.72 0.0 0 0 38.03 67.75
  A 8.72 8.72 0.0 0 0 46.75 76.47
  A 8.72 8.72 0.0 0 0 55.47 67.75
  Z"
/>
<circle fill="#161719" cx="46.75" cy="67.75" r="8.72"/>
</svg>
