<svg xmlns="http://www.w3.org/2000/svg" viewBox="0.00 0.00 71.00 61.00">
<g stroke-width="2.00" fill="none" stroke-linecap="butt">
<path stroke="#8e2f2c" vector-effect="non-scaling-stroke" d="
  M 10.95 31.77
  C 14.74 35.54 17.15 39.27 14.39 44.56
  C 13.43 46.39 11.48 47.91 10.42 49.28
  A 2.43 2.40 -20.9 0 0 9.95 50.31
  C 9.26 53.66 12.71 56.82 15.62 54.61
  C 23.77 48.42 25.91 37.88 19.45 29.54
  Q 18.94 28.89 16.27 26.23
  C 12.48 22.47 10.06 18.73 12.83 13.44
  C 13.79 11.61 15.74 10.09 16.80 8.72
  A 2.43 2.40 -20.9 0 0 17.27 7.69
  C 17.96 4.34 14.51 1.18 11.60 3.39
  C 3.45 9.58 1.31 20.12 7.77 28.46
  Q 8.27 29.12 10.95 31.77"/>
<path stroke="#5c5c5b" vector-effect="non-scaling-stroke" d="
  M 33.34 31.77
  C 37.13 35.54 39.54 39.27 36.78 44.57
  C 35.82 46.39 33.87 47.91 32.81 49.28
  A 2.43 2.40 -20.9 0 0 32.34 50.31
  C 31.65 53.66 35.10 56.82 38.01 54.61
  C 46.16 48.42 48.30 37.88 41.84 29.55
  Q 41.33 28.89 38.66 26.23
  C 34.88 22.47 32.46 18.73 35.23 13.44
  C 36.18 11.62 38.13 10.10 39.19 8.73
  A 2.43 2.40 -20.9 0 0 39.66 7.70
  C 40.35 4.35 36.90 1.19 33.99 3.40
  C 25.84 9.58 23.70 20.12 30.16 28.46
  Q 30.67 29.12 33.34 31.77"/>
<path stroke="#5c5c5b" vector-effect="non-scaling-stroke" d="
  M 55.74 31.77
  C 59.53 35.54 61.95 39.28 59.18 44.57
  C 58.22 46.40 56.27 47.92 55.21 49.29
  A 2.43 2.40 -20.8 0 0 54.74 50.32
  C 54.05 53.67 57.50 56.83 60.41 54.62
  C 68.56 48.43 70.71 37.89 64.25 29.54
  Q 63.74 28.89 61.07 26.23
  C 57.28 22.47 54.86 18.73 57.63 13.43
  C 58.59 11.61 60.54 10.09 61.60 8.72
  A 2.43 2.40 -20.8 0 0 62.07 7.69
  C 62.76 4.34 59.31 1.17 56.40 3.38
  C 48.25 9.57 46.10 20.12 52.56 28.46
  Q 53.07 29.11 55.74 31.77"/>
</g>
<path fill="#fd3e3c" d="
  M 16.27 26.23
  Q 18.94 28.89 19.45 29.54
  C 25.91 37.88 23.77 48.42 15.62 54.61
  C 12.71 56.82 9.26 53.66 9.95 50.31
  A 2.43 2.40 -20.9 0 1 10.42 49.28
  C 11.48 47.91 13.43 46.39 14.39 44.56
  C 17.15 39.27 14.74 35.54 10.95 31.77
  Q 8.27 29.12 7.77 28.46
  C 1.31 20.12 3.45 9.58 11.60 3.39
  C 14.51 1.18 17.96 4.34 17.27 7.69
  A 2.43 2.40 -20.9 0 1 16.80 8.72
  C 15.74 10.09 13.79 11.61 12.83 13.44
  C 10.06 18.73 12.48 22.47 16.27 26.23
  Z"/>
<path fill="#999999" d="
  M 33.34 31.77
  Q 30.67 29.12 30.16 28.46
  C 23.70 20.12 25.84 9.58 33.99 3.40
  C 36.90 1.19 40.35 4.35 39.66 7.70
  A 2.43 2.40 -20.9 0 1 39.19 8.73
  C 38.13 10.10 36.18 11.62 35.23 13.44
  C 32.46 18.73 34.88 22.47 38.66 26.23
  Q 41.33 28.89 41.84 29.55
  C 48.30 37.88 46.16 48.42 38.01 54.61
  C 35.10 56.82 31.65 53.66 32.34 50.31
  A 2.43 2.40 -20.9 0 1 32.81 49.28
  C 33.87 47.91 35.82 46.39 36.78 44.57
  C 39.54 39.27 37.13 35.54 33.34 31.77
  Z"/>
<path fill="#999999" d="
  M 55.74 31.77
  Q 53.07 29.11 52.56 28.46
  C 46.10 20.12 48.25 9.57 56.40 3.38
  C 59.31 1.17 62.76 4.34 62.07 7.69
  A 2.43 2.40 -20.8 0 1 61.60 8.72
  C 60.54 10.09 58.59 11.61 57.63 13.43
  C 54.86 18.73 57.28 22.47 61.07 26.23
  Q 63.74 28.89 64.25 29.54
  C 70.71 37.89 68.56 48.43 60.41 54.62
  C 57.50 56.83 54.05 53.67 54.74 50.32
  A 2.43 2.40 -20.8 0 1 55.21 49.29
  C 56.27 47.92 58.22 46.40 59.18 44.57
  C 61.95 39.28 59.53 35.54 55.74 31.77
  Z"/>
</svg>
