<svg xmlns="http://www.w3.org/2000/svg" viewBox="0.00 0.00 71.00 61.00">
<g stroke-width="2.00" fill="none" stroke-linecap="butt">
<path stroke="#8f2f2c" vector-effect="non-scaling-stroke" d="
  M 10.94 31.77
  C 14.52 35.31 16.78 38.47 14.79 43.79
  Q 14.24 45.23 10.71 48.97
  A 3.57 3.57 0.0 0 0 10.89 54.05
  L 10.95 54.11
  A 3.99 3.97 -45.0 0 0 16.36 54.10
  Q 27.67 43.64 20.50 30.97
  Q 19.79 29.71 16.27 26.23
  C 12.70 22.69 10.43 19.52 12.43 14.20
  Q 12.97 12.76 16.50 9.02
  A 3.57 3.57 0.0 0 0 16.32 3.94
  L 16.26 3.88
  A 3.99 3.97 -45.0 0 0 10.85 3.89
  Q -0.46 14.35 6.71 27.02
  Q 7.42 28.28 10.94 31.77"/>
<path stroke="#8f2f2c" vector-effect="non-scaling-stroke" d="
  M 33.35 31.78
  C 36.93 35.32 39.19 38.48 37.20 43.80
  Q 36.65 45.24 33.12 48.98
  A 3.57 3.57 0.0 0 0 33.30 54.07
  L 33.36 54.13
  A 3.99 3.97 -45.0 0 0 38.77 54.12
  Q 50.08 43.65 42.92 30.98
  Q 42.20 29.72 38.68 26.24
  C 35.11 22.70 32.84 19.53 34.84 14.21
  Q 35.38 12.77 38.91 9.03
  A 3.57 3.57 0.0 0 0 38.73 3.95
  L 38.67 3.89
  A 3.99 3.97 -45.0 0 0 33.26 3.90
  Q 21.95 14.36 29.12 27.03
  Q 29.83 28.29 33.35 31.78"/>
<path stroke="#5d5c5b" vector-effect="non-scaling-stroke" d="
  M 55.73 31.76
  C 59.31 35.31 61.57 38.48 59.58 43.80
  Q 59.03 45.25 55.49 48.99
  A 3.58 3.58 0.0 0 0 55.67 54.08
  L 55.73 54.14
  A 3.99 3.98 -45.0 0 0 61.15 54.13
  Q 72.48 43.66 65.31 30.97
  Q 64.59 29.71 61.07 26.21
  C 57.49 22.67 55.23 19.50 57.22 14.17
  Q 57.77 12.73 61.31 8.98
  A 3.58 3.58 0.0 0 0 61.13 3.90
  L 61.07 3.84
  A 3.99 3.98 -45.0 0 0 55.65 3.85
  Q 44.32 14.32 51.49 27.01
  Q 52.20 28.27 55.73 31.76"/>
</g>
<path fill="#fe3e3c" d="
  M 16.27 26.23
  Q 19.79 29.71 20.50 30.97
  Q 27.67 43.64 16.36 54.10
  A 3.99 3.97 -45.0 0 1 10.95 54.11
  L 10.89 54.05
  A 3.57 3.57 0.0 0 1 10.71 48.97
  Q 14.24 45.23 14.79 43.79
  C 16.78 38.47 14.52 35.31 10.94 31.77
  Q 7.42 28.28 6.71 27.02
  Q -0.46 14.35 10.85 3.89
  A 3.99 3.97 -45.0 0 1 16.26 3.88
  L 16.32 3.94
  A 3.57 3.57 0.0 0 1 16.50 9.02
  Q 12.97 12.76 12.43 14.20
  C 10.43 19.52 12.70 22.69 16.27 26.23
  Z"/>
<path fill="#fe3e3c" d="
  M 33.35 31.78
  Q 29.83 28.29 29.12 27.03
  Q 21.95 14.36 33.26 3.90
  A 3.99 3.97 -45.0 0 1 38.67 3.89
  L 38.73 3.95
  A 3.57 3.57 0.0 0 1 38.91 9.03
  Q 35.38 12.77 34.84 14.21
  C 32.84 19.53 35.11 22.70 38.68 26.24
  Q 42.20 29.72 42.92 30.98
  Q 50.08 43.65 38.77 54.12
  A 3.99 3.97 -45.0 0 1 33.36 54.13
  L 33.30 54.07
  A 3.57 3.57 0.0 0 1 33.12 48.98
  Q 36.65 45.24 37.20 43.80
  C 39.19 38.48 36.93 35.32 33.35 31.78
  Z"/>
<path fill="#99999a" d="
  M 55.73 31.76
  Q 52.20 28.27 51.49 27.01
  Q 44.32 14.32 55.65 3.85
  A 3.99 3.98 -45.0 0 1 61.07 3.84
  L 61.13 3.90
  A 3.58 3.58 0.0 0 1 61.31 8.98
  Q 57.77 12.73 57.22 14.17
  C 55.23 19.50 57.49 22.67 61.07 26.21
  Q 64.59 29.71 65.31 30.97
  Q 72.48 43.66 61.15 54.13
  A 3.99 3.98 -45.0 0 1 55.73 54.14
  L 55.67 54.08
  A 3.58 3.58 0.0 0 1 55.49 48.99
  Q 59.03 45.25 59.58 43.80
  C 61.57 38.48 59.31 35.31 55.73 31.76
  Z"/>
</svg>
