<?xml version="1.0" encoding="UTF-8" standalone="no"?>
<!DOCTYPE svg PUBLIC "-//W3C//DTD SVG 1.1//EN" "http://www.w3.org/Graphics/SVG/1.1/DTD/svg11.dtd">
<svg xmlns="http://www.w3.org/2000/svg" version="1.1" viewBox="0.00 0.00 105.00 105.00">
<g stroke-width="2.00" fill="none" stroke-linecap="butt">
<path stroke="#515152" vector-effect="non-scaling-stroke" d="
  M 52.28 46.51
  L 52.24 18.73
  A 2.65 2.65 0.0 0 0 49.58 16.09
  L 49.36 16.09
  A 16.41 16.35 89.9 0 0 33.04 32.53
  L 33.04 32.79
  A 16.41 16.35 89.9 0 0 49.42 49.17
  L 49.64 49.17
  A 2.65 2.65 0.0 0 0 52.28 46.51"
/>
<path stroke="#515152" vector-effect="non-scaling-stroke" d="
  M 58.31 49.25
  L 86.43 49.25
  A 2.46 2.46 0.0 0 0 88.89 46.79
  L 88.89 46.36
  A 16.41 16.33 0.0 0 0 72.48 30.03
  L 72.26 30.03
  A 16.41 16.33 0.0 0 0 55.85 46.36
  L 55.85 46.79
  A 2.46 2.46 0.0 0 0 58.31 49.25"
/>
<path stroke="#515152" vector-effect="non-scaling-stroke" d="
  M 49.59 52.73
  L 21.63 52.77
  A 2.55 2.55 0.0 0 0 19.09 55.33
  L 19.09 55.65
  A 16.42 16.35 -0.1 0 0 35.54 71.97
  L 35.76 71.97
  A 16.42 16.35 -0.1 0 0 52.15 55.59
  L 52.15 55.27
  A 2.55 2.55 0.0 0 0 49.59 52.73"
/>
<path stroke="#515152" vector-effect="non-scaling-stroke" d="
  M 55.72 55.47
  L 55.76 83.33
  A 2.62 2.62 0.0 0 0 58.39 85.94
  L 58.61 85.94
  A 16.45 16.38 89.9 0 0 74.96 69.46
  L 74.96 69.26
  A 16.45 16.38 89.9 0 0 58.55 52.84
  L 58.33 52.84
  A 2.62 2.62 0.0 0 0 55.72 55.47"
/>
</g>
<path fill="#161719" d="
  M 105.00 0.00
  L 105.00 105.00
  L 0.00 105.00
  L 0.00 0.00
  L 105.00 0.00
  Z
  M 52.28 46.51
  L 52.24 18.73
  A 2.65 2.65 0.0 0 0 49.58 16.09
  L 49.36 16.09
  A 16.41 16.35 89.9 0 0 33.04 32.53
  L 33.04 32.79
  A 16.41 16.35 89.9 0 0 49.42 49.17
  L 49.64 49.17
  A 2.65 2.65 0.0 0 0 52.28 46.51
  Z
  M 58.31 49.25
  L 86.43 49.25
  A 2.46 2.46 0.0 0 0 88.89 46.79
  L 88.89 46.36
  A 16.41 16.33 0.0 0 0 72.48 30.03
  L 72.26 30.03
  A 16.41 16.33 0.0 0 0 55.85 46.36
  L 55.85 46.79
  A 2.46 2.46 0.0 0 0 58.31 49.25
  Z
  M 49.59 52.73
  L 21.63 52.77
  A 2.55 2.55 0.0 0 0 19.09 55.33
  L 19.09 55.65
  A 16.42 16.35 -0.1 0 0 35.54 71.97
  L 35.76 71.97
  A 16.42 16.35 -0.1 0 0 52.15 55.59
  L 52.15 55.27
  A 2.55 2.55 0.0 0 0 49.59 52.73
  Z
  M 55.72 55.47
  L 55.76 83.33
  A 2.62 2.62 0.0 0 0 58.39 85.94
  L 58.61 85.94
  A 16.45 16.38 89.9 0 0 74.96 69.46
  L 74.96 69.26
  A 16.45 16.38 89.9 0 0 58.55 52.84
  L 58.33 52.84
  A 2.62 2.62 0.0 0 0 55.72 55.47
  Z"
/>
<path fill="#8b8b8b" d="
  M 52.28 46.51
  A 2.65 2.65 0.0 0 1 49.64 49.17
  L 49.42 49.17
  A 16.41 16.35 89.9 0 1 33.04 32.79
  L 33.04 32.53
  A 16.41 16.35 89.9 0 1 49.36 16.09
  L 49.58 16.09
  A 2.65 2.65 0.0 0 1 52.24 18.73
  L 52.28 46.51
  Z"
/>
<path fill="#8b8b8b" d="
  M 58.31 49.25
  A 2.46 2.46 0.0 0 1 55.85 46.79
  L 55.85 46.36
  A 16.41 16.33 0.0 0 1 72.26 30.03
  L 72.48 30.03
  A 16.41 16.33 -0.0 0 1 88.89 46.36
  L 88.89 46.79
  A 2.46 2.46 0.0 0 1 86.43 49.25
  L 58.31 49.25
  Z"
/>
<path fill="#8b8b8b" d="
  M 49.59 52.73
  A 2.55 2.55 0.0 0 1 52.15 55.27
  L 52.15 55.59
  A 16.42 16.35 -0.1 0 1 35.76 71.97
  L 35.54 71.97
  A 16.42 16.35 -0.1 0 1 19.09 55.65
  L 19.09 55.33
  A 2.55 2.55 0.0 0 1 21.63 52.77
  L 49.59 52.73
  Z"
/>
<path fill="#8b8b8b" d="
  M 55.72 55.47
  A 2.62 2.62 0.0 0 1 58.33 52.84
  L 58.55 52.84
  A 16.45 16.38 89.9 0 1 74.96 69.26
  L 74.96 69.46
  A 16.45 16.38 89.9 0 1 58.61 85.94
  L 58.39 85.94
  A 2.62 2.62 0.0 0 1 55.76 83.33
  L 55.72 55.47
  Z"
/>
</svg>
