<?xml version="1.0" encoding="UTF-8" standalone="no"?>
<!DOCTYPE svg PUBLIC "-//W3C//DTD SVG 1.1//EN" "http://www.w3.org/Graphics/SVG/1.1/DTD/svg11.dtd">
<svg xmlns="http://www.w3.org/2000/svg" version="1.1" viewBox="0.00 0.00 105.00 105.00">
<path stroke="#858586" stroke-width="2.00" fill="none" stroke-linecap="butt" vector-effect="non-scaling-stroke" d="
  M 40.40 38.59
  Q 40.36 34.85 40.40 30.78
  C 40.59 12.29 14.89 9.87 11.12 28.42
  Q 10.72 30.40 11.06 39.05
  A 2.32 2.32 0.0 0 0 13.48 41.28
  L 13.62 41.27
  A 2.49 2.47 -0.7 0 0 16.00 38.84
  C 16.11 32.12 14.37 23.96 22.61 21.05
  C 29.36 18.67 35.69 23.94 35.58 31.01
  C 35.55 33.00 35.62 35.47 35.64 38.32
  A 0.61 0.61 0.0 0 1 35.06 38.93
  C 28.68 39.34 27.42 43.04 27.45 49.16
  Q 27.53 65.87 27.49 69.49
  Q 27.43 74.12 30.42 76.22
  Q 32.31 77.55 37.81 77.54
  Q 67.64 77.47 69.25 77.49
  C 75.03 77.57 76.72 72.91 76.54 67.41
  Q 76.48 65.49 76.49 46.01
  C 76.50 40.38 71.80 38.79 66.45 38.97
  Q 65.09 39.02 40.79 38.98
  A 0.39 0.39 0.0 0 1 40.40 38.59"
/>
<path fill="#161719" d="
  M 105.00 0.00
  L 105.00 105.00
  L 0.00 105.00
  L 0.00 0.00
  L 105.00 0.00
  Z
  M 40.40 38.59
  Q 40.36 34.85 40.40 30.78
  C 40.59 12.29 14.89 9.87 11.12 28.42
  Q 10.72 30.40 11.06 39.05
  A 2.32 2.32 0.0 0 0 13.48 41.28
  L 13.62 41.27
  A 2.49 2.47 -0.7 0 0 16.00 38.84
  C 16.11 32.12 14.37 23.96 22.61 21.05
  C 29.36 18.67 35.69 23.94 35.58 31.01
  C 35.55 33.00 35.62 35.47 35.64 38.32
  A 0.61 0.61 0.0 0 1 35.06 38.93
  C 28.68 39.34 27.42 43.04 27.45 49.16
  Q 27.53 65.87 27.49 69.49
  Q 27.43 74.12 30.42 76.22
  Q 32.31 77.55 37.81 77.54
  Q 67.64 77.47 69.25 77.49
  C 75.03 77.57 76.72 72.91 76.54 67.41
  Q 76.48 65.49 76.49 46.01
  C 76.50 40.38 71.80 38.79 66.45 38.97
  Q 65.09 39.02 40.79 38.98
  A 0.39 0.39 0.0 0 1 40.40 38.59
  Z"
/>
<path fill="#f3f3f3" d="
  M 40.40 38.59
  A 0.39 0.39 0.0 0 0 40.79 38.98
  Q 65.09 39.02 66.45 38.97
  C 71.80 38.79 76.50 40.38 76.49 46.01
  Q 76.48 65.49 76.54 67.41
  C 76.72 72.91 75.03 77.57 69.25 77.49
  Q 67.64 77.47 37.81 77.54
  Q 32.31 77.55 30.42 76.22
  Q 27.43 74.12 27.49 69.49
  Q 27.53 65.87 27.45 49.16
  C 27.42 43.04 28.68 39.34 35.06 38.93
  A 0.61 0.61 0.0 0 0 35.64 38.32
  C 35.62 35.47 35.55 33.00 35.58 31.01
  C 35.69 23.94 29.36 18.67 22.61 21.05
  C 14.37 23.96 16.11 32.12 16.00 38.84
  A 2.49 2.47 -0.7 0 1 13.62 41.27
  L 13.48 41.28
  A 2.32 2.32 0.0 0 1 11.06 39.05
  Q 10.72 30.40 11.12 28.42
  C 14.89 9.87 40.59 12.29 40.40 30.78
  Q 40.36 34.85 40.40 38.59
  Z"
/>
</svg>
