<?xml version="1.0" encoding="UTF-8" standalone="no"?>
<!DOCTYPE svg PUBLIC "-//W3C//DTD SVG 1.1//EN" "http://www.w3.org/Graphics/SVG/1.1/DTD/svg11.dtd">
<svg xmlns="http://www.w3.org/2000/svg" version="1.1" viewBox="0.00 0.00 175.00 175.00">
<g stroke-width="2.00" fill="none" stroke-linecap="butt">
<path stroke="#515152" vector-effect="non-scaling-stroke" d="
  M 83.1937 22.5311
  A 2.56 2.56 0.0 0 0 80.9747 19.6704
  L 59.9220 17.0109
  A 2.56 2.56 0.0 0 0 57.0614 19.2298
  L 57.0463 19.3489
  A 2.56 2.56 0.0 0 0 59.2653 22.2096
  L 80.3180 24.8691
  A 2.56 2.56 0.0 0 0 83.1786 22.6502
  L 83.1937 22.5311"
/>
<path stroke="#515152" vector-effect="non-scaling-stroke" d="
  M 88.50 29.24
  L 88.50 59.00
  A 8.62 8.62 0.0 0 0 97.12 67.62
  L 101.77 67.62
  A 25.21 23.14 0.0 0 0 126.98 44.48
  L 126.98 43.76
  A 25.21 23.14 0.0 0 0 101.77 20.62
  L 97.12 20.62
  A 8.62 8.62 0.0 0 0 88.50 29.24"
/>
<path stroke="#515152" vector-effect="non-scaling-stroke" d="
  M 83.2214 37.1682
  A 2.55 2.55 0.0 0 0 80.7805 34.5137
  L 59.7190 33.6309
  A 2.55 2.55 0.0 0 0 57.0644 36.0719
  L 57.0586 36.2118
  A 2.55 2.55 0.0 0 0 59.4995 38.8663
  L 80.5610 39.7491
  A 2.55 2.55 0.0 0 0 83.2156 37.3081
  L 83.2214 37.1682"
/>
<path stroke="#515152" vector-effect="non-scaling-stroke" d="
  M 83.1960 51.8319
  A 2.55 2.55 0.0 0 0 80.5415 49.3909
  L 59.4799 50.2737
  A 2.55 2.55 0.0 0 0 57.0390 52.9282
  L 57.0440 53.0481
  A 2.55 2.55 0.0 0 0 59.6985 55.4891
  L 80.7601 54.6063
  A 2.55 2.55 0.0 0 0 83.2010 51.9518
  L 83.1960 51.8319"
/>
<path stroke="#515152" vector-effect="non-scaling-stroke" d="
  M 83.1804 65.6139
  A 2.55 2.55 0.0 0 0 80.3348 63.3987
  L 59.2775 66.0215
  A 2.55 2.55 0.0 0 0 57.0623 68.8671
  L 57.0796 69.0061
  A 2.55 2.55 0.0 0 0 59.9252 71.2213
  L 80.9825 68.5985
  A 2.55 2.55 0.0 0 0 83.1977 65.7529
  L 83.1804 65.6139"
/>
<path stroke="#515152" vector-effect="non-scaling-stroke" d="
  M 74.53 128.28
  A 0.39 0.39 0.0 0 0 74.14 127.89
  L 70.74 127.89
  A 0.39 0.39 0.0 0 0 70.35 128.28
  L 70.35 153.60
  A 0.39 0.39 0.0 0 0 70.74 153.99
  L 74.14 153.99
  A 0.39 0.39 0.0 0 0 74.53 153.60
  L 74.53 128.28"
/>
<path stroke="#515152" vector-effect="non-scaling-stroke" d="
  M 121.80 137.17
  L 121.80 128.35
  A 0.45 0.44 -0.0 0 0 121.35 127.91
  L 118.12 127.91
  A 0.46 0.45 -0.0 0 0 117.66 128.36
  L 117.66 153.53
  A 0.47 0.47 0.0 0 0 118.13 154.00
  L 121.35 154.00
  A 0.48 0.47 90.0 0 0 121.82 153.52
  L 121.82 143.06
  A 4.25 4.25 0.0 0 1 125.58 138.84
  L 125.96 138.79
  A 3.40 3.39 -3.3 0 1 129.75 142.16
  L 129.75 153.50
  A 0.51 0.50 90.0 0 0 130.25 154.01
  L 133.50 154.01
  A 0.47 0.46 90.0 0 0 133.96 153.54
  Q 133.98 149.96 133.93 143.00
  C 133.89 136.99 130.02 133.74 124.00 136.00
  Q 123.58 136.15 123.16 136.64
  Q 122.68 137.21 122.30 137.45
  A 0.33 0.32 73.9 0 1 121.80 137.17"
/>
<path stroke="#515152" vector-effect="non-scaling-stroke" d="
  M 52.67 143.93
  A 0.33 0.33 0.0 0 1 53.00 143.60
  L 64.38 143.60
  A 0.33 0.33 0.0 0 0 64.71 143.27
  L 64.71 140.12
  A 0.33 0.33 0.0 0 0 64.38 139.79
  L 53.00 139.79
  A 0.33 0.33 0.0 0 1 52.67 139.46
  L 52.67 132.79
  A 0.33 0.33 0.0 0 1 53.00 132.46
  L 65.92 132.46
  A 0.33 0.33 0.0 0 0 66.25 132.13
  L 66.25 128.99
  A 0.33 0.33 0.0 0 0 65.92 128.66
  L 48.69 128.66
  A 0.33 0.33 0.0 0 0 48.36 128.99
  L 48.36 153.66
  A 0.33 0.33 0.0 0 0 48.69 153.99
  L 52.34 153.99
  A 0.33 0.33 0.0 0 0 52.67 153.66
  L 52.67 143.93"
/>
<path stroke="#515152" vector-effect="non-scaling-stroke" d="
  M 79.39 141.48
  L 82.41 141.48
  A 0.89 0.88 -78.3 0 0 83.22 140.94
  Q 84.65 137.59 88.62 139.15
  Q 89.98 139.69 90.17 141.20
  A 1.46 1.37 82.7 0 1 89.00 142.82
  C 84.90 143.40 78.84 144.04 78.57 148.75
  C 78.21 155.23 86.62 156.00 89.69 151.60
  A 0.34 0.34 0.0 0 1 90.29 151.69
  Q 90.41 152.06 90.10 153.01
  A 0.75 0.75 0.0 0 0 90.81 154.00
  L 93.47 154.00
  A 0.86 0.86 0.0 0 0 94.33 153.14
  Q 94.32 142.14 94.26 141.49
  C 93.44 133.12 80.71 133.10 78.94 140.91
  A 0.47 0.46 -83.5 0 0 79.39 141.48"
/>
<path stroke="#515152" vector-effect="non-scaling-stroke" d="
  M 113.71 140.67
  Q 112.47 135.43 106.76 135.23
  C 102.11 135.07 97.63 137.72 99.44 142.91
  C 100.39 145.64 105.33 146.42 108.62 147.27
  A 1.76 1.74 20.1 0 1 109.77 149.71
  Q 109.25 150.78 107.89 151.10
  Q 103.80 152.04 102.54 148.64
  A 0.42 0.41 -10.1 0 0 102.15 148.37
  L 98.62 148.37
  A 0.24 0.23 85.7 0 0 98.39 148.64
  C 99.30 154.04 105.05 155.32 109.60 154.07
  C 115.17 152.53 116.13 145.15 109.96 143.54
  Q 105.25 142.32 104.48 142.07
  A 1.79 1.54 15.1 0 1 103.24 140.24
  Q 103.45 139.15 104.78 138.76
  Q 108.38 137.72 109.46 140.65
  A 0.43 0.41 -9.7 0 0 109.86 140.92
  L 113.51 140.92
  A 0.21 0.20 -6.7 0 0 113.71 140.67"
/>
<path stroke="#515152" vector-effect="non-scaling-stroke" d="
  M 89.61 145.21
  C 86.68 145.82 83.84 146.14 82.97 147.54
  C 82.12 148.92 83.26 150.64 84.84 150.94
  C 88.12 151.55 90.14 148.72 90.20 145.70
  A 0.49 0.49 0.0 0 0 89.61 145.21"
/>
</g>
<path fill="#161719" d="
  M 175.00 0.00
  L 175.00 175.00
  L 0.00 175.00
  L 0.00 0.00
  L 175.00 0.00
  Z
  M 83.1937 22.5311
  A 2.56 2.56 0.0 0 0 80.9747 19.6704
  L 59.9220 17.0109
  A 2.56 2.56 0.0 0 0 57.0614 19.2298
  L 57.0463 19.3489
  A 2.56 2.56 0.0 0 0 59.2653 22.2096
  L 80.3180 24.8691
  A 2.56 2.56 0.0 0 0 83.1786 22.6502
  L 83.1937 22.5311
  Z
  M 88.50 29.24
  L 88.50 59.00
  A 8.62 8.62 0.0 0 0 97.12 67.62
  L 101.77 67.62
  A 25.21 23.14 0.0 0 0 126.98 44.48
  L 126.98 43.76
  A 25.21 23.14 0.0 0 0 101.77 20.62
  L 97.12 20.62
  A 8.62 8.62 0.0 0 0 88.50 29.24
  Z
  M 83.2214 37.1682
  A 2.55 2.55 0.0 0 0 80.7805 34.5137
  L 59.7190 33.6309
  A 2.55 2.55 0.0 0 0 57.0644 36.0719
  L 57.0586 36.2118
  A 2.55 2.55 0.0 0 0 59.4995 38.8663
  L 80.5610 39.7491
  A 2.55 2.55 0.0 0 0 83.2156 37.3081
  L 83.2214 37.1682
  Z
  M 83.1960 51.8319
  A 2.55 2.55 0.0 0 0 80.5415 49.3909
  L 59.4799 50.2737
  A 2.55 2.55 0.0 0 0 57.0390 52.9282
  L 57.0440 53.0481
  A 2.55 2.55 0.0 0 0 59.6985 55.4891
  L 80.7601 54.6063
  A 2.55 2.55 0.0 0 0 83.2010 51.9518
  L 83.1960 51.8319
  Z
  M 83.1804 65.6139
  A 2.55 2.55 0.0 0 0 80.3348 63.3987
  L 59.2775 66.0215
  A 2.55 2.55 0.0 0 0 57.0623 68.8671
  L 57.0796 69.0061
  A 2.55 2.55 0.0 0 0 59.9252 71.2213
  L 80.9825 68.5985
  A 2.55 2.55 0.0 0 0 83.1977 65.7529
  L 83.1804 65.6139
  Z
  M 74.53 128.28
  A 0.39 0.39 0.0 0 0 74.14 127.89
  L 70.74 127.89
  A 0.39 0.39 0.0 0 0 70.35 128.28
  L 70.35 153.60
  A 0.39 0.39 0.0 0 0 70.74 153.99
  L 74.14 153.99
  A 0.39 0.39 0.0 0 0 74.53 153.60
  L 74.53 128.28
  Z
  M 121.80 137.17
  L 121.80 128.35
  A 0.45 0.44 -0.0 0 0 121.35 127.91
  L 118.12 127.91
  A 0.46 0.45 -0.0 0 0 117.66 128.36
  L 117.66 153.53
  A 0.47 0.47 0.0 0 0 118.13 154.00
  L 121.35 154.00
  A 0.48 0.47 90.0 0 0 121.82 153.52
  L 121.82 143.06
  A 4.25 4.25 0.0 0 1 125.58 138.84
  L 125.96 138.79
  A 3.40 3.39 -3.3 0 1 129.75 142.16
  L 129.75 153.50
  A 0.51 0.50 90.0 0 0 130.25 154.01
  L 133.50 154.01
  A 0.47 0.46 90.0 0 0 133.96 153.54
  Q 133.98 149.96 133.93 143.00
  C 133.89 136.99 130.02 133.74 124.00 136.00
  Q 123.58 136.15 123.16 136.64
  Q 122.68 137.21 122.30 137.45
  A 0.33 0.32 73.9 0 1 121.80 137.17
  Z
  M 52.67 143.93
  A 0.33 0.33 0.0 0 1 53.00 143.60
  L 64.38 143.60
  A 0.33 0.33 0.0 0 0 64.71 143.27
  L 64.71 140.12
  A 0.33 0.33 0.0 0 0 64.38 139.79
  L 53.00 139.79
  A 0.33 0.33 0.0 0 1 52.67 139.46
  L 52.67 132.79
  A 0.33 0.33 0.0 0 1 53.00 132.46
  L 65.92 132.46
  A 0.33 0.33 0.0 0 0 66.25 132.13
  L 66.25 128.99
  A 0.33 0.33 0.0 0 0 65.92 128.66
  L 48.69 128.66
  A 0.33 0.33 0.0 0 0 48.36 128.99
  L 48.36 153.66
  A 0.33 0.33 0.0 0 0 48.69 153.99
  L 52.34 153.99
  A 0.33 0.33 0.0 0 0 52.67 153.66
  L 52.67 143.93
  Z
  M 79.39 141.48
  L 82.41 141.48
  A 0.89 0.88 -78.3 0 0 83.22 140.94
  Q 84.65 137.59 88.62 139.15
  Q 89.98 139.69 90.17 141.20
  A 1.46 1.37 82.7 0 1 89.00 142.82
  C 84.90 143.40 78.84 144.04 78.57 148.75
  C 78.21 155.23 86.62 156.00 89.69 151.60
  A 0.34 0.34 0.0 0 1 90.29 151.69
  Q 90.41 152.06 90.10 153.01
  A 0.75 0.75 0.0 0 0 90.81 154.00
  L 93.47 154.00
  A 0.86 0.86 0.0 0 0 94.33 153.14
  Q 94.32 142.14 94.26 141.49
  C 93.44 133.12 80.71 133.10 78.94 140.91
  A 0.47 0.46 -83.5 0 0 79.39 141.48
  Z
  M 113.71 140.67
  Q 112.47 135.43 106.76 135.23
  C 102.11 135.07 97.63 137.72 99.44 142.91
  C 100.39 145.64 105.33 146.42 108.62 147.27
  A 1.76 1.74 20.1 0 1 109.77 149.71
  Q 109.25 150.78 107.89 151.10
  Q 103.80 152.04 102.54 148.64
  A 0.42 0.41 -10.1 0 0 102.15 148.37
  L 98.62 148.37
  A 0.24 0.23 85.7 0 0 98.39 148.64
  C 99.30 154.04 105.05 155.32 109.60 154.07
  C 115.17 152.53 116.13 145.15 109.96 143.54
  Q 105.25 142.32 104.48 142.07
  A 1.79 1.54 15.1 0 1 103.24 140.24
  Q 103.45 139.15 104.78 138.76
  Q 108.38 137.72 109.46 140.65
  A 0.43 0.41 -9.7 0 0 109.86 140.92
  L 113.51 140.92
  A 0.21 0.20 -6.7 0 0 113.71 140.67
  Z"
/>
<rect fill="#8b8b8b" x="-13.17" y="-2.62" transform="translate(70.12,20.94) rotate(7.2)" width="26.34" height="5.24" rx="2.56"/>
<path fill="#8b8b8b" d="
  M 88.50 29.24
  A 8.62 8.62 0.0 0 1 97.12 20.62
  L 101.77 20.62
  A 25.21 23.14 -0.0 0 1 126.98 43.76
  L 126.98 44.48
  A 25.21 23.14 -0.0 0 1 101.77 67.62
  L 97.12 67.62
  A 8.62 8.62 0.0 0 1 88.50 59.00
  L 88.50 29.24
  Z"
/>
<rect fill="#8b8b8b" x="-13.09" y="-2.62" transform="translate(70.14,36.69) rotate(2.4)" width="26.18" height="5.24" rx="2.55"/>
<rect fill="#8b8b8b" x="-13.09" y="-2.61" transform="translate(70.12,52.44) rotate(-2.4)" width="26.18" height="5.22" rx="2.55"/>
<rect fill="#8b8b8b" x="-13.16" y="-2.62" transform="translate(70.13,67.31) rotate(-7.1)" width="26.32" height="5.24" rx="2.55"/>
<rect fill="#8b8b8b" x="70.35" y="127.89" width="4.18" height="26.10" rx="0.39"/>
<path fill="#8b8b8b" d="
  M 122.30 137.45
  Q 122.68 137.21 123.16 136.64
  Q 123.58 136.15 124.00 136.00
  C 130.02 133.74 133.89 136.99 133.93 143.00
  Q 133.98 149.96 133.96 153.54
  A 0.47 0.46 -90.0 0 1 133.50 154.01
  L 130.25 154.01
  A 0.51 0.50 90.0 0 1 129.75 153.50
  L 129.75 142.16
  A 3.40 3.39 -3.3 0 0 125.96 138.79
  L 125.58 138.84
  A 4.25 4.25 0.0 0 0 121.82 143.06
  L 121.82 153.52
  A 0.48 0.47 -90.0 0 1 121.35 154.00
  L 118.13 154.00
  A 0.47 0.47 0.0 0 1 117.66 153.53
  L 117.66 128.36
  A 0.46 0.45 0.0 0 1 118.12 127.91
  L 121.35 127.91
  A 0.45 0.44 0.0 0 1 121.80 128.35
  L 121.80 137.17
  A 0.33 0.32 73.9 0 0 122.30 137.45
  Z"
/>
<path fill="#8b8b8b" d="
  M 52.67 143.93
  L 52.67 153.66
  A 0.33 0.33 0.0 0 1 52.34 153.99
  L 48.69 153.99
  A 0.33 0.33 0.0 0 1 48.36 153.66
  L 48.36 128.99
  A 0.33 0.33 0.0 0 1 48.69 128.66
  L 65.92 128.66
  A 0.33 0.33 0.0 0 1 66.25 128.99
  L 66.25 132.13
  A 0.33 0.33 0.0 0 1 65.92 132.46
  L 53.00 132.46
  A 0.33 0.33 0.0 0 0 52.67 132.79
  L 52.67 139.46
  A 0.33 0.33 0.0 0 0 53.00 139.79
  L 64.38 139.79
  A 0.33 0.33 0.0 0 1 64.71 140.12
  L 64.71 143.27
  A 0.33 0.33 0.0 0 1 64.38 143.60
  L 53.00 143.60
  A 0.33 0.33 0.0 0 0 52.67 143.93
  Z"
/>
<path fill="#8b8b8b" d="
  M 78.94 140.91
  C 80.71 133.10 93.44 133.12 94.26 141.49
  Q 94.32 142.14 94.33 153.14
  A 0.86 0.86 0.0 0 1 93.47 154.00
  L 90.81 154.00
  A 0.75 0.75 0.0 0 1 90.10 153.01
  Q 90.41 152.06 90.29 151.69
  A 0.34 0.34 0.0 0 0 89.69 151.60
  C 86.62 156.00 78.21 155.23 78.57 148.75
  C 78.84 144.04 84.90 143.40 89.00 142.82
  A 1.46 1.37 82.7 0 0 90.17 141.20
  Q 89.98 139.69 88.62 139.15
  Q 84.65 137.59 83.22 140.94
  A 0.89 0.88 -78.3 0 1 82.41 141.48
  L 79.39 141.48
  A 0.47 0.46 -83.5 0 1 78.94 140.91
  Z
  M 89.61 145.21
  C 86.68 145.82 83.84 146.14 82.97 147.54
  C 82.12 148.92 83.26 150.64 84.84 150.94
  C 88.12 151.55 90.14 148.72 90.20 145.70
  A 0.49 0.49 0.0 0 0 89.61 145.21
  Z"
/>
<path fill="#8b8b8b" d="
  M 113.71 140.67
  A 0.21 0.20 -6.7 0 1 113.51 140.92
  L 109.86 140.92
  A 0.43 0.41 -9.7 0 1 109.46 140.65
  Q 108.38 137.72 104.78 138.76
  Q 103.45 139.15 103.24 140.24
  A 1.79 1.54 15.1 0 0 104.48 142.07
  Q 105.25 142.32 109.96 143.54
  C 116.13 145.15 115.17 152.53 109.60 154.07
  C 105.05 155.32 99.30 154.04 98.39 148.64
  A 0.24 0.23 85.7 0 1 98.62 148.37
  L 102.15 148.37
  A 0.42 0.41 -10.1 0 1 102.54 148.64
  Q 103.80 152.04 107.89 151.10
  Q 109.25 150.78 109.77 149.71
  A 1.76 1.74 20.1 0 0 108.62 147.27
  C 105.33 146.42 100.39 145.64 99.44 142.91
  C 97.63 137.72 102.11 135.07 106.76 135.23
  Q 112.47 135.43 113.71 140.67
  Z"
/>
<path fill="#161719" d="
  M 90.20 145.70
  C 90.14 148.72 88.12 151.55 84.84 150.94
  C 83.26 150.64 82.12 148.92 82.97 147.54
  C 83.84 146.14 86.68 145.82 89.61 145.21
  A 0.49 0.49 0.0 0 1 90.20 145.70
  Z"
/>
</svg>
