<?xml version="1.0" encoding="UTF-8" standalone="no"?>
<!DOCTYPE svg PUBLIC "-//W3C//DTD SVG 1.1//EN" "http://www.w3.org/Graphics/SVG/1.1/DTD/svg11.dtd">
<svg xmlns="http://www.w3.org/2000/svg" version="1.1" viewBox="0.00 0.00 134.00 124.00">
<g stroke-width="2.00" fill="none" stroke-linecap="butt">
<path stroke="#565757" vector-effect="non-scaling-stroke" d="
  M 63.99 100.29
  Q 78.74 100.30 93.75 100.37
  Q 99.41 100.39 101.84 96.24
  Q 103.53 93.35 103.44 86.98
  Q 103.30 76.56 103.36 67.97
  A 4.42 4.22 39.3 0 0 103.23 66.92
  Q 101.40 59.39 93.46 59.12
  A 0.77 0.77 0.0 0 1 92.84 57.92
  L 93.65 56.71
  A 1.58 1.57 -27.5 0 0 93.94 55.80
  L 93.94 51.20
  A 0.96 0.96 0.0 0 0 93.80 50.70
  Q 91.99 47.70 92.65 44.48
  A 0.47 0.46 39.6 0 0 92.62 44.17
  L 90.65 39.68
  A 0.45 0.44 5.8 0 0 90.50 39.50
  Q 87.78 37.68 87.08 34.45
  A 1.00 0.99 -73.2 0 0 86.83 33.98
  L 83.58 30.73
  A 1.27 1.26 -16.1 0 0 82.96 30.39
  Q 80.00 29.73 78.15 27.21
  A 1.76 1.69 81.8 0 0 77.42 26.64
  L 73.38 24.96
  A 0.54 0.47 48.9 0 0 73.16 24.93
  Q 69.58 25.26 68.01 24.35
  C 66.53 23.49 65.67 23.53 64.02 23.52
  C 62.37 23.52 61.51 23.49 60.03 24.34
  Q 58.45 25.26 54.87 24.92
  A 0.54 0.47 -48.8 0 0 54.65 24.95
  L 50.61 26.63
  A 1.76 1.69 -81.7 0 0 49.88 27.20
  Q 48.03 29.72 45.07 30.38
  A 1.27 1.26 16.1 0 0 44.45 30.72
  L 41.20 33.96
  A 1.00 0.99 73.2 0 0 40.94 34.43
  Q 40.24 37.66 37.52 39.48
  A 0.45 0.44 -5.7 0 0 37.37 39.66
  L 35.40 44.15
  A 0.47 0.46 -39.6 0 0 35.37 44.46
  Q 36.03 47.68 34.21 50.68
  A 0.96 0.96 0.0 0 0 34.07 51.18
  L 34.07 55.78
  A 1.58 1.57 27.6 0 0 34.36 56.69
  L 35.17 57.90
  A 0.77 0.77 0.0 0 1 34.55 59.10
  Q 26.61 59.36 24.77 66.89
  A 4.42 4.22 -39.2 0 0 24.64 67.94
  Q 24.70 76.53 24.55 86.95
  Q 24.45 93.32 26.14 96.21
  Q 28.57 100.36 34.23 100.35
  Q 49.24 100.29 63.99 100.29"
/>
<path stroke="#565757" vector-effect="non-scaling-stroke" d="
  M 64.00 35.55
  Q 65.40 35.55 66.03 35.66
  A 0.71 0.71 0.0 0 1 66.62 36.30
  Q 67.39 43.66 67.39 43.68
  C 67.48 46.69 69.40 47.68 72.24 46.89
  Q 72.42 46.84 79.28 45.37
  A 0.79 0.79 0.0 0 1 80.16 45.82
  L 81.63 49.17
  A 0.77 0.77 0.0 0 1 81.23 50.19
  L 73.18 53.72
  A 2.38 2.36 -78.9 0 0 72.50 54.18
  Q 70.50 56.11 72.24 58.70
  A 1.00 0.97 -16.6 0 0 73.06 59.13
  L 82.13 59.13
  A 0.78 0.77 -83.4 0 0 82.88 58.53
  C 85.71 46.10 77.12 34.03 64.00 34.03
  C 50.88 34.03 42.30 46.09 45.12 58.53
  A 0.78 0.77 83.4 0 0 45.87 59.13
  L 54.94 59.13
  A 1.00 0.97 16.6 0 0 55.76 58.70
  Q 57.50 56.11 55.50 54.18
  A 2.38 2.36 78.9 0 0 54.82 53.72
  L 46.77 50.19
  A 0.77 0.77 0.0 0 1 46.38 49.17
  L 47.85 45.82
  A 0.79 0.79 0.0 0 1 48.73 45.37
  Q 55.59 46.84 55.77 46.89
  C 58.61 47.68 60.53 46.69 60.62 43.68
  Q 60.62 43.66 61.39 36.30
  A 0.71 0.71 0.0 0 1 61.98 35.66
  Q 62.61 35.55 64.00 35.55"
/>
<path stroke="#565757" vector-effect="non-scaling-stroke" d="
  M 66.98 53.50
  A 2.98 2.98 0.0 0 0 64.00 50.52
  A 2.98 2.98 0.0 0 0 61.02 53.50
  A 2.98 2.98 0.0 0 0 64.00 56.48
  A 2.98 2.98 0.0 0 0 66.98 53.50"
/>
<path stroke="#565757" vector-effect="non-scaling-stroke" d="
  M 99.62 68.55
  A 5.68 5.68 0.0 0 0 93.94 62.87
  L 34.06 62.87
  A 5.68 5.68 0.0 0 0 28.38 68.55
  L 28.38 90.95
  A 5.68 5.68 0.0 0 0 34.06 96.63
  L 93.94 96.63
  A 5.68 5.68 0.0 0 0 99.62 90.95
  L 99.62 68.55"
/>
</g>
<path fill="#161718" d="
  M 134.00 0.00
  L 134.00 124.00
  L 0.00 124.00
  L 0.00 0.00
  L 134.00 0.00
  Z
  M 63.99 100.29
  Q 78.74 100.30 93.75 100.37
  Q 99.41 100.39 101.84 96.24
  Q 103.53 93.35 103.44 86.98
  Q 103.30 76.56 103.36 67.97
  A 4.42 4.22 39.3 0 0 103.23 66.92
  Q 101.40 59.39 93.46 59.12
  A 0.77 0.77 0.0 0 1 92.84 57.92
  L 93.65 56.71
  A 1.58 1.57 -27.5 0 0 93.94 55.80
  L 93.94 51.20
  A 0.96 0.96 0.0 0 0 93.80 50.70
  Q 91.99 47.70 92.65 44.48
  A 0.47 0.46 39.6 0 0 92.62 44.17
  L 90.65 39.68
  A 0.45 0.44 5.8 0 0 90.50 39.50
  Q 87.78 37.68 87.08 34.45
  A 1.00 0.99 -73.2 0 0 86.83 33.98
  L 83.58 30.73
  A 1.27 1.26 -16.1 0 0 82.96 30.39
  Q 80.00 29.73 78.15 27.21
  A 1.76 1.69 81.8 0 0 77.42 26.64
  L 73.38 24.96
  A 0.54 0.47 48.9 0 0 73.16 24.93
  Q 69.58 25.26 68.01 24.35
  C 66.53 23.49 65.67 23.53 64.02 23.52
  C 62.37 23.52 61.51 23.49 60.03 24.34
  Q 58.45 25.26 54.87 24.92
  A 0.54 0.47 -48.8 0 0 54.65 24.95
  L 50.61 26.63
  A 1.76 1.69 -81.7 0 0 49.88 27.20
  Q 48.03 29.72 45.07 30.38
  A 1.27 1.26 16.1 0 0 44.45 30.72
  L 41.20 33.96
  A 1.00 0.99 73.2 0 0 40.94 34.43
  Q 40.24 37.66 37.52 39.48
  A 0.45 0.44 -5.7 0 0 37.37 39.66
  L 35.40 44.15
  A 0.47 0.46 -39.6 0 0 35.37 44.46
  Q 36.03 47.68 34.21 50.68
  A 0.96 0.96 0.0 0 0 34.07 51.18
  L 34.07 55.78
  A 1.58 1.57 27.6 0 0 34.36 56.69
  L 35.17 57.90
  A 0.77 0.77 0.0 0 1 34.55 59.10
  Q 26.61 59.36 24.77 66.89
  A 4.42 4.22 -39.2 0 0 24.64 67.94
  Q 24.70 76.53 24.55 86.95
  Q 24.45 93.32 26.14 96.21
  Q 28.57 100.36 34.23 100.35
  Q 49.24 100.29 63.99 100.29
  Z"
/>
<path fill="#969696" d="
  M 64.02 23.52
  C 65.67 23.53 66.53 23.49 68.01 24.35
  Q 69.58 25.26 73.16 24.93
  A 0.54 0.47 48.9 0 1 73.38 24.96
  L 77.42 26.64
  A 1.76 1.69 81.8 0 1 78.15 27.21
  Q 80.00 29.73 82.96 30.39
  A 1.27 1.26 -16.1 0 1 83.58 30.73
  L 86.83 33.98
  A 1.00 0.99 -73.2 0 1 87.08 34.45
  Q 87.78 37.68 90.50 39.50
  A 0.45 0.44 5.8 0 1 90.65 39.68
  L 92.62 44.17
  A 0.47 0.46 39.6 0 1 92.65 44.48
  Q 91.99 47.70 93.80 50.70
  A 0.96 0.96 0.0 0 1 93.94 51.20
  L 93.94 55.80
  A 1.58 1.57 -27.5 0 1 93.65 56.71
  L 92.84 57.92
  A 0.77 0.77 0.0 0 0 93.46 59.12
  Q 101.40 59.39 103.23 66.92
  A 4.42 4.22 39.3 0 1 103.36 67.97
  Q 103.30 76.56 103.44 86.98
  Q 103.53 93.35 101.84 96.24
  Q 99.41 100.39 93.75 100.37
  Q 78.74 100.30 63.99 100.29
  Q 49.24 100.29 34.23 100.35
  Q 28.57 100.36 26.14 96.21
  Q 24.45 93.32 24.55 86.95
  Q 24.70 76.53 24.64 67.94
  A 4.42 4.22 -39.2 0 1 24.77 66.89
  Q 26.61 59.36 34.55 59.10
  A 0.77 0.77 0.0 0 0 35.17 57.90
  L 34.36 56.69
  A 1.58 1.57 27.6 0 1 34.07 55.78
  L 34.07 51.18
  A 0.96 0.96 0.0 0 1 34.21 50.68
  Q 36.03 47.68 35.37 44.46
  A 0.47 0.46 -39.6 0 1 35.40 44.15
  L 37.37 39.66
  A 0.45 0.44 -5.7 0 1 37.52 39.48
  Q 40.24 37.66 40.94 34.43
  A 1.00 0.99 73.2 0 1 41.20 33.96
  L 44.45 30.72
  A 1.27 1.26 16.1 0 1 45.07 30.38
  Q 48.03 29.72 49.88 27.20
  A 1.76 1.69 -81.7 0 1 50.61 26.63
  L 54.65 24.95
  A 0.54 0.47 -48.8 0 1 54.87 24.92
  Q 58.45 25.26 60.03 24.34
  C 61.51 23.49 62.37 23.52 64.02 23.52
  Z
  M 64.00 35.55
  Q 65.40 35.55 66.03 35.66
  A 0.71 0.71 0.0 0 1 66.62 36.30
  Q 67.39 43.66 67.39 43.68
  C 67.48 46.69 69.40 47.68 72.24 46.89
  Q 72.42 46.84 79.28 45.37
  A 0.79 0.79 0.0 0 1 80.16 45.82
  L 81.63 49.17
  A 0.77 0.77 0.0 0 1 81.23 50.19
  L 73.18 53.72
  A 2.38 2.36 -78.9 0 0 72.50 54.18
  Q 70.50 56.11 72.24 58.70
  A 1.00 0.97 -16.6 0 0 73.06 59.13
  L 82.13 59.13
  A 0.78 0.77 -83.4 0 0 82.88 58.53
  C 85.71 46.10 77.12 34.03 64.00 34.03
  C 50.88 34.03 42.30 46.09 45.12 58.53
  A 0.78 0.77 83.4 0 0 45.87 59.13
  L 54.94 59.13
  A 1.00 0.97 16.6 0 0 55.76 58.70
  Q 57.50 56.11 55.50 54.18
  A 2.38 2.36 78.9 0 0 54.82 53.72
  L 46.77 50.19
  A 0.77 0.77 0.0 0 1 46.38 49.17
  L 47.85 45.82
  A 0.79 0.79 0.0 0 1 48.73 45.37
  Q 55.59 46.84 55.77 46.89
  C 58.61 47.68 60.53 46.69 60.62 43.68
  Q 60.62 43.66 61.39 36.30
  A 0.71 0.71 0.0 0 1 61.98 35.66
  Q 62.61 35.55 64.00 35.55
  Z
  M 66.98 53.50
  A 2.98 2.98 0.0 0 0 64.00 50.52
  A 2.98 2.98 0.0 0 0 61.02 53.50
  A 2.98 2.98 0.0 0 0 64.00 56.48
  A 2.98 2.98 0.0 0 0 66.98 53.50
  Z
  M 99.62 68.55
  A 5.68 5.68 0.0 0 0 93.94 62.87
  L 34.06 62.87
  A 5.68 5.68 0.0 0 0 28.38 68.55
  L 28.38 90.95
  A 5.68 5.68 0.0 0 0 34.06 96.63
  L 93.94 96.63
  A 5.68 5.68 0.0 0 0 99.62 90.95
  L 99.62 68.55
  Z"
/>
<path fill="#161718" d="
  M 64.00 34.03
  C 77.12 34.03 85.71 46.10 82.88 58.53
  A 0.78 0.77 -83.4 0 1 82.13 59.13
  L 73.06 59.13
  A 1.00 0.97 -16.6 0 1 72.24 58.70
  Q 70.50 56.11 72.50 54.18
  A 2.38 2.36 -78.9 0 1 73.18 53.72
  L 81.23 50.19
  A 0.77 0.77 0.0 0 0 81.63 49.17
  L 80.16 45.82
  A 0.79 0.79 0.0 0 0 79.28 45.37
  Q 72.42 46.84 72.24 46.89
  C 69.40 47.68 67.48 46.69 67.39 43.68
  Q 67.39 43.66 66.62 36.30
  A 0.71 0.71 0.0 0 0 66.03 35.66
  Q 65.40 35.55 64.00 35.55
  Q 62.61 35.55 61.98 35.66
  A 0.71 0.71 0.0 0 0 61.39 36.30
  Q 60.62 43.66 60.62 43.68
  C 60.53 46.69 58.61 47.68 55.77 46.89
  Q 55.59 46.84 48.73 45.37
  A 0.79 0.79 0.0 0 0 47.85 45.82
  L 46.38 49.17
  A 0.77 0.77 0.0 0 0 46.77 50.19
  L 54.82 53.72
  A 2.38 2.36 78.9 0 1 55.50 54.18
  Q 57.50 56.11 55.76 58.70
  A 1.00 0.97 16.6 0 1 54.94 59.13
  L 45.87 59.13
  A 0.78 0.77 83.4 0 1 45.12 58.53
  C 42.30 46.09 50.88 34.03 64.00 34.03
  Z"
/>
<circle fill="#161718" cx="64.00" cy="53.50" r="2.98"/>
<rect fill="#161718" x="28.38" y="62.87" width="71.24" height="33.76" rx="5.68"/>
</svg>
