<?xml version="1.0" encoding="UTF-8" standalone="no"?>
<!DOCTYPE svg PUBLIC "-//W3C//DTD SVG 1.1//EN" "http://www.w3.org/Graphics/SVG/1.1/DTD/svg11.dtd">
<svg xmlns="http://www.w3.org/2000/svg" version="1.1" viewBox="0.00 0.00 105.00 105.00">
<g stroke-width="2.00" fill="none" stroke-linecap="butt">
<path stroke="#515152" vector-effect="non-scaling-stroke" d="
  M 50.99 77.50
  Q 57.83 77.51 64.65 77.48
  Q 70.63 77.45 72.13 76.54
  Q 75.34 74.60 75.50 69.97
  Q 75.51 69.54 75.53 49.12
  Q 75.53 44.58 74.78 42.99
  C 73.19 39.67 71.02 39.64 67.91 38.89
  A 0.67 0.67 0.0 0 1 67.40 38.23
  Q 67.40 35.66 67.39 32.00
  C 67.36 22.81 60.29 15.63 51.01 15.62
  C 41.74 15.62 34.65 22.80 34.62 31.99
  Q 34.61 35.65 34.60 38.22
  A 0.67 0.67 0.0 0 1 34.09 38.88
  C 30.98 39.63 28.81 39.65 27.22 42.97
  Q 26.47 44.56 26.47 49.10
  Q 26.47 69.52 26.48 69.95
  Q 26.64 74.58 29.85 76.52
  Q 31.35 77.44 37.32 77.47
  Q 44.15 77.50 50.99 77.50"
/>
<path stroke="#515152" vector-effect="non-scaling-stroke" d="
  M 39.95 39.00
  L 62.05 39.00
  A 0.57 0.57 0.0 0 0 62.62 38.43
  L 62.62 32.80
  A 12.30 11.49 90.0 0 0 51.13 20.50
  L 50.87 20.50
  A 12.30 11.49 -90.0 0 0 39.38 32.80
  L 39.38 38.43
  A 0.57 0.57 0.0 0 0 39.95 39.00"
/>
</g>
<path fill="#161719" d="
  M 105.00 0.00
  L 105.00 105.00
  L 0.00 105.00
  L 0.00 0.00
  L 105.00 0.00
  Z
  M 50.99 77.50
  Q 57.83 77.51 64.65 77.48
  Q 70.63 77.45 72.13 76.54
  Q 75.34 74.60 75.50 69.97
  Q 75.51 69.54 75.53 49.12
  Q 75.53 44.58 74.78 42.99
  C 73.19 39.67 71.02 39.64 67.91 38.89
  A 0.67 0.67 0.0 0 1 67.40 38.23
  Q 67.40 35.66 67.39 32.00
  C 67.36 22.81 60.29 15.63 51.01 15.62
  C 41.74 15.62 34.65 22.80 34.62 31.99
  Q 34.61 35.65 34.60 38.22
  A 0.67 0.67 0.0 0 1 34.09 38.88
  C 30.98 39.63 28.81 39.65 27.22 42.97
  Q 26.47 44.56 26.47 49.10
  Q 26.47 69.52 26.48 69.95
  Q 26.64 74.58 29.85 76.52
  Q 31.35 77.44 37.32 77.47
  Q 44.15 77.50 50.99 77.50
  Z"
/>
<path fill="#8b8b8b" d="
  M 51.01 15.62
  C 60.29 15.63 67.36 22.81 67.39 32.00
  Q 67.40 35.66 67.40 38.23
  A 0.67 0.67 0.0 0 0 67.91 38.89
  C 71.02 39.64 73.19 39.67 74.78 42.99
  Q 75.53 44.58 75.53 49.12
  Q 75.51 69.54 75.50 69.97
  Q 75.34 74.60 72.13 76.54
  Q 70.63 77.45 64.65 77.48
  Q 57.83 77.51 50.99 77.50
  Q 44.15 77.50 37.32 77.47
  Q 31.35 77.44 29.85 76.52
  Q 26.64 74.58 26.48 69.95
  Q 26.47 69.52 26.47 49.10
  Q 26.47 44.56 27.22 42.97
  C 28.81 39.65 30.98 39.63 34.09 38.88
  A 0.67 0.67 0.0 0 0 34.60 38.22
  Q 34.61 35.65 34.62 31.99
  C 34.65 22.80 41.74 15.62 51.01 15.62
  Z
  M 39.95 39.00
  L 62.05 39.00
  A 0.57 0.57 0.0 0 0 62.62 38.43
  L 62.62 32.80
  A 12.30 11.49 90.0 0 0 51.13 20.50
  L 50.87 20.50
  A 12.30 11.49 -90.0 0 0 39.38 32.80
  L 39.38 38.43
  A 0.57 0.57 0.0 0 0 39.95 39.00
  Z"
/>
<path fill="#161719" d="
  M 39.95 39.00
  A 0.57 0.57 0.0 0 1 39.38 38.43
  L 39.38 32.80
  A 12.30 11.49 -90.0 0 1 50.87 20.50
  L 51.13 20.50
  A 12.30 11.49 -90.0 0 1 62.62 32.80
  L 62.62 38.43
  A 0.57 0.57 0.0 0 1 62.05 39.00
  L 39.95 39.00
  Z"
/>
</svg>
