<?xml version="1.0" encoding="UTF-8" standalone="no"?>
<!DOCTYPE svg PUBLIC "-//W3C//DTD SVG 1.1//EN" "http://www.w3.org/Graphics/SVG/1.1/DTD/svg11.dtd">
<svg xmlns="http://www.w3.org/2000/svg" version="1.1" viewBox="0.00 0.00 76.00 83.00">
<g stroke-width="2.00" fill="none" stroke-linecap="butt">
<path stroke="#505150" vector-effect="non-scaling-stroke" d="
  M 38.8088 9.4528
  A 1.39 1.39 0.0 0 0 37.4212 8.0604
  L 37.0012 8.0596
  A 1.39 1.39 0.0 0 0 35.6088 9.4472
  L 35.5912 19.5272
  A 1.39 1.39 0.0 0 0 36.9788 20.9196
  L 37.3988 20.9204
  A 1.39 1.39 0.0 0 0 38.7912 19.5328
  L 38.8088 9.4528"
/>
<path stroke="#505150" vector-effect="non-scaling-stroke" d="
  M 37.26 39.13
  C 52.13 39.08 57.48 19.62 45.03 11.71
  Q 44.12 11.13 43.35 11.16
  A 1.45 1.45 0.0 0 0 42.52 13.76
  Q 44.37 15.19 45.53 16.37
  C 52.45 23.48 47.33 35.66 37.25 35.69
  C 27.17 35.72 21.99 23.57 28.86 16.42
  Q 30.01 15.23 31.86 13.79
  A 1.45 1.45 0.0 0 0 31.01 11.20
  Q 30.24 11.17 29.33 11.76
  C 16.93 19.75 22.39 39.17 37.26 39.13"
/>
<path stroke="#5d5d5d" vector-effect="non-scaling-stroke" d="
  M 46.99 74.70
  L 46.99 68.87
  A 0.58 0.58 0.0 0 1 47.57 68.29
  L 48.26 68.29
  A 0.62 0.62 0.0 0 0 48.30 67.06
  Q 46.42 66.94 46.82 65.66
  A 0.68 0.65 84.9 0 1 47.14 65.26
  L 48.44 64.51
  A 0.74 0.74 0.0 0 0 47.97 63.14
  Q 45.54 63.48 45.23 66.38
  A 0.92 0.91 82.7 0 1 44.65 67.14
  Q 43.32 67.67 40.93 66.67
  A 0.51 0.51 0.0 0 1 40.73 65.88
  Q 41.37 65.06 42.51 64.37
  A 0.64 0.63 -61.7 0 0 42.16 63.19
  Q 39.25 63.33 39.48 65.80
  A 0.86 0.86 0.0 0 1 39.04 66.63
  Q 38.76 66.79 38.46 66.86
  A 0.80 0.77 55.7 0 0 38.22 68.27
  Q 38.87 68.74 39.01 68.82
  A 0.59 0.58 15.0 0 1 39.31 69.33
  L 39.34 74.63
  A 0.69 0.69 0.0 0 0 40.03 75.31
  L 40.35 75.31
  A 0.61 0.60 0.0 0 0 40.96 74.71
  L 40.96 69.22
  A 1.09 1.08 90.0 0 1 42.04 68.13
  L 44.25 68.13
  A 1.09 1.08 -90.0 0 1 45.33 69.22
  L 45.33 74.84
  A 0.61 0.61 0.0 0 0 45.94 75.45
  L 46.24 75.45
  A 0.75 0.75 0.0 0 0 46.99 74.70"
/>
<path stroke="#5d5d5d" vector-effect="non-scaling-stroke" d="
  M 30.2214 63.3816
  A 6.11 5.76 -91.3 0 0 24.6015 69.6207
  A 6.11 5.76 -91.3 0 0 30.4986 75.5984
  A 6.11 5.76 -91.3 0 0 36.1185 69.3593
  A 6.11 5.76 -91.3 0 0 30.2214 63.3816"
/>
<path stroke="#5d5d5d" vector-effect="non-scaling-stroke" d="
  M 30.2823 64.9108
  A 4.57 4.02 -91.1 0 0 26.3507 69.5572
  A 4.57 4.02 -91.1 0 0 30.4577 74.0492
  A 4.57 4.02 -91.1 0 0 34.3893 69.4028
  A 4.57 4.02 -91.1 0 0 30.2823 64.9108"
/>
</g>
<path fill="#161817" d="
  M 76.00 0.00
  L 76.00 83.00
  L 0.00 83.00
  L 0.00 0.00
  L 76.00 0.00
  Z
  M 38.8088 9.4528
  A 1.39 1.39 0.0 0 0 37.4212 8.0604
  L 37.0012 8.0596
  A 1.39 1.39 0.0 0 0 35.6088 9.4472
  L 35.5912 19.5272
  A 1.39 1.39 0.0 0 0 36.9788 20.9196
  L 37.3988 20.9204
  A 1.39 1.39 0.0 0 0 38.7912 19.5328
  L 38.8088 9.4528
  Z
  M 37.26 39.13
  C 52.13 39.08 57.48 19.62 45.03 11.71
  Q 44.12 11.13 43.35 11.16
  A 1.45 1.45 0.0 0 0 42.52 13.76
  Q 44.37 15.19 45.53 16.37
  C 52.45 23.48 47.33 35.66 37.25 35.69
  C 27.17 35.72 21.99 23.57 28.86 16.42
  Q 30.01 15.23 31.86 13.79
  A 1.45 1.45 0.0 0 0 31.01 11.20
  Q 30.24 11.17 29.33 11.76
  C 16.93 19.75 22.39 39.17 37.26 39.13
  Z
  M 46.99 74.70
  L 46.99 68.87
  A 0.58 0.58 0.0 0 1 47.57 68.29
  L 48.26 68.29
  A 0.62 0.62 0.0 0 0 48.30 67.06
  Q 46.42 66.94 46.82 65.66
  A 0.68 0.65 84.9 0 1 47.14 65.26
  L 48.44 64.51
  A 0.74 0.74 0.0 0 0 47.97 63.14
  Q 45.54 63.48 45.23 66.38
  A 0.92 0.91 82.7 0 1 44.65 67.14
  Q 43.32 67.67 40.93 66.67
  A 0.51 0.51 0.0 0 1 40.73 65.88
  Q 41.37 65.06 42.51 64.37
  A 0.64 0.63 -61.7 0 0 42.16 63.19
  Q 39.25 63.33 39.48 65.80
  A 0.86 0.86 0.0 0 1 39.04 66.63
  Q 38.76 66.79 38.46 66.86
  A 0.80 0.77 55.7 0 0 38.22 68.27
  Q 38.87 68.74 39.01 68.82
  A 0.59 0.58 15.0 0 1 39.31 69.33
  L 39.34 74.63
  A 0.69 0.69 0.0 0 0 40.03 75.31
  L 40.35 75.31
  A 0.61 0.60 0.0 0 0 40.96 74.71
  L 40.96 69.22
  A 1.09 1.08 90.0 0 1 42.04 68.13
  L 44.25 68.13
  A 1.09 1.08 -90.0 0 1 45.33 69.22
  L 45.33 74.84
  A 0.61 0.61 0.0 0 0 45.94 75.45
  L 46.24 75.45
  A 0.75 0.75 0.0 0 0 46.99 74.70
  Z
  M 30.2214 63.3816
  A 6.11 5.76 -91.3 0 0 24.6015 69.6207
  A 6.11 5.76 -91.3 0 0 30.4986 75.5984
  A 6.11 5.76 -91.3 0 0 36.1185 69.3593
  A 6.11 5.76 -91.3 0 0 30.2214 63.3816
  Z"
/>
<rect fill="#898a89" x="-1.60" y="-6.43" transform="translate(37.20,14.49) rotate(0.1)" width="3.20" height="12.86" rx="1.39"/>
<path fill="#898a89" d="
  M 37.25 35.69
  C 47.33 35.66 52.45 23.48 45.53 16.37
  Q 44.37 15.19 42.52 13.76
  A 1.45 1.45 0.0 0 1 43.35 11.16
  Q 44.12 11.13 45.03 11.71
  C 57.48 19.62 52.13 39.08 37.26 39.13
  C 22.39 39.17 16.93 19.75 29.33 11.76
  Q 30.24 11.17 31.01 11.20
  A 1.45 1.45 0.0 0 1 31.86 13.79
  Q 30.01 15.23 28.86 16.42
  C 21.99 23.57 27.17 35.72 37.25 35.69
  Z"
/>
<path fill="#a4a2a3" d="
  M 46.99 74.70
  A 0.75 0.75 0.0 0 1 46.24 75.45
  L 45.94 75.45
  A 0.61 0.61 0.0 0 1 45.33 74.84
  L 45.33 69.22
  A 1.09 1.08 -90.0 0 0 44.25 68.13
  L 42.04 68.13
  A 1.09 1.08 90.0 0 0 40.96 69.22
  L 40.96 74.71
  A 0.61 0.60 -0.0 0 1 40.35 75.31
  L 40.03 75.31
  A 0.69 0.69 0.0 0 1 39.34 74.63
  L 39.31 69.33
  A 0.59 0.58 15.0 0 0 39.01 68.82
  Q 38.87 68.74 38.22 68.27
  A 0.80 0.77 55.7 0 1 38.46 66.86
  Q 38.76 66.79 39.04 66.63
  A 0.86 0.86 0.0 0 0 39.48 65.80
  Q 39.25 63.33 42.16 63.19
  A 0.64 0.63 -61.7 0 1 42.51 64.37
  Q 41.37 65.06 40.73 65.88
  A 0.51 0.51 0.0 0 0 40.93 66.67
  Q 43.32 67.67 44.65 67.14
  A 0.92 0.91 82.7 0 0 45.23 66.38
  Q 45.54 63.48 47.97 63.14
  A 0.74 0.74 0.0 0 1 48.44 64.51
  L 47.14 65.26
  A 0.68 0.65 84.9 0 0 46.82 65.66
  Q 46.42 66.94 48.30 67.06
  A 0.62 0.62 0.0 0 1 48.26 68.29
  L 47.57 68.29
  A 0.58 0.58 0.0 0 0 46.99 68.87
  L 46.99 74.70
  Z"
/>
<path fill="#a4a2a3" d="
  M 30.2214 63.3816
  A 6.11 5.76 -91.3 0 1 36.1185 69.3593
  A 6.11 5.76 -91.3 0 1 30.4986 75.5984
  A 6.11 5.76 -91.3 0 1 24.6015 69.6207
  A 6.11 5.76 -91.3 0 1 30.2214 63.3816
  Z
  M 30.2823 64.9108
  A 4.57 4.02 -91.1 0 0 26.3507 69.5572
  A 4.57 4.02 -91.1 0 0 30.4577 74.0492
  A 4.57 4.02 -91.1 0 0 34.3893 69.4028
  A 4.57 4.02 -91.1 0 0 30.2823 64.9108
  Z"
/>
<ellipse fill="#161817" cx="0.00" cy="0.00" transform="translate(30.37,69.48) rotate(-91.1)" rx="4.57" ry="4.02"/>
</svg>
