<svg xmlns="http://www.w3.org/2000/svg" viewBox="0.00 0.00 71.00 61.00">
<g stroke-width="2.00" fill="none" stroke-linecap="butt">
<path stroke="#8f2e2c" vector-effect="non-scaling-stroke" d="
  M 10.93 31.75
  C 14.49 35.28 16.97 38.83 14.66 43.94
  C 13.72 46.01 11.96 47.53 10.55 49.15
  A 2.69 2.62 75.6 0 0 10.03 50.06
  Q 9.05 53.04 11.86 54.77
  A 3.25 3.21 42.7 0 0 15.45 54.65
  Q 23.02 49.14 23.20 40.26
  C 23.32 34.17 20.30 30.22 16.27 26.23
  C 12.72 22.70 10.24 19.15 12.55 14.04
  C 13.49 11.97 15.25 10.45 16.66 8.83
  A 2.69 2.62 75.6 0 0 17.18 7.92
  Q 18.16 4.94 15.35 3.21
  A 3.25 3.21 42.7 0 0 11.76 3.33
  Q 4.19 8.84 4.01 17.72
  C 3.89 23.81 6.91 27.76 10.93 31.75"/>
<path stroke="#8f2e2c" vector-effect="non-scaling-stroke" d="
  M 33.34 31.77
  C 36.89 35.29 39.37 38.84 37.06 43.95
  C 36.12 46.02 34.36 47.54 32.95 49.16
  A 2.69 2.62 75.6 0 0 32.43 50.07
  Q 31.45 53.05 34.26 54.78
  A 3.25 3.21 42.7 0 0 37.85 54.66
  Q 45.42 49.15 45.60 40.27
  C 45.72 34.18 42.70 30.23 38.67 26.24
  C 35.12 22.71 32.64 19.17 34.95 14.06
  C 35.89 11.99 37.65 10.47 39.06 8.85
  A 2.69 2.62 75.6 0 0 39.58 7.94
  Q 40.56 4.96 37.75 3.23
  A 3.25 3.21 42.7 0 0 34.16 3.35
  Q 26.59 8.86 26.41 17.73
  C 26.29 23.83 29.31 27.78 33.34 31.77"/>
<path stroke="#8f2e2c" vector-effect="non-scaling-stroke" d="
  M 55.73 31.74
  C 59.28 35.27 61.77 38.81 59.46 43.92
  C 58.52 45.99 56.76 47.51 55.35 49.13
  A 2.69 2.62 75.6 0 0 54.83 50.04
  Q 53.85 53.02 56.66 54.75
  A 3.25 3.21 42.7 0 0 60.24 54.63
  Q 67.81 49.12 67.99 40.24
  C 68.12 34.15 65.09 30.20 61.07 26.21
  C 57.52 22.69 55.04 19.14 57.35 14.03
  C 58.29 11.96 60.05 10.44 61.46 8.82
  A 2.69 2.62 75.6 0 0 61.98 7.91
  Q 62.96 4.94 60.15 3.21
  A 3.25 3.21 42.7 0 0 56.56 3.32
  Q 48.99 8.83 48.81 17.71
  C 48.69 23.80 51.71 27.75 55.73 31.74"/>
</g>
<path fill="#fd3e3c" d="
  M 16.27 26.23
  C 20.30 30.22 23.32 34.17 23.20 40.26
  Q 23.02 49.14 15.45 54.65
  A 3.25 3.21 42.7 0 1 11.86 54.77
  Q 9.05 53.04 10.03 50.06
  A 2.69 2.62 75.6 0 1 10.55 49.15
  C 11.96 47.53 13.72 46.01 14.66 43.94
  C 16.97 38.83 14.49 35.28 10.93 31.75
  C 6.91 27.76 3.89 23.81 4.01 17.72
  Q 4.19 8.84 11.76 3.33
  A 3.25 3.21 42.7 0 1 15.35 3.21
  Q 18.16 4.94 17.18 7.92
  A 2.69 2.62 75.6 0 1 16.66 8.83
  C 15.25 10.45 13.49 11.97 12.55 14.04
  C 10.24 19.15 12.72 22.70 16.27 26.23
  Z"/>
<path fill="#fd3e3c" d="
  M 33.34 31.77
  C 29.31 27.78 26.29 23.83 26.41 17.73
  Q 26.59 8.86 34.16 3.35
  A 3.25 3.21 42.7 0 1 37.75 3.23
  Q 40.56 4.96 39.58 7.94
  A 2.69 2.62 75.6 0 1 39.06 8.85
  C 37.65 10.47 35.89 11.99 34.95 14.06
  C 32.64 19.17 35.12 22.71 38.67 26.24
  C 42.70 30.23 45.72 34.18 45.60 40.27
  Q 45.42 49.15 37.85 54.66
  A 3.25 3.21 42.7 0 1 34.26 54.78
  Q 31.45 53.05 32.43 50.07
  A 2.69 2.62 75.6 0 1 32.95 49.16
  C 34.36 47.54 36.12 46.02 37.06 43.95
  C 39.37 38.84 36.89 35.29 33.34 31.77
  Z"/>
<path fill="#fd3e3c" d="
  M 55.73 31.74
  C 51.71 27.75 48.69 23.80 48.81 17.71
  Q 48.99 8.83 56.56 3.32
  A 3.25 3.21 42.7 0 1 60.15 3.21
  Q 62.96 4.94 61.98 7.91
  A 2.69 2.62 75.6 0 1 61.46 8.82
  C 60.05 10.44 58.29 11.96 57.35 14.03
  C 55.04 19.14 57.52 22.69 61.07 26.21
  C 65.09 30.20 68.12 34.15 67.99 40.24
  Q 67.81 49.12 60.24 54.63
  A 3.25 3.21 42.7 0 1 56.66 54.75
  Q 53.85 53.02 54.83 50.04
  A 2.69 2.62 75.6 0 1 55.35 49.13
  C 56.76 47.51 58.52 45.99 59.46 43.92
  C 61.77 38.81 59.28 35.27 55.73 31.74
  Z"/>
</svg>
