<?xml version="1.0" encoding="UTF-8" standalone="no"?>
<!DOCTYPE svg PUBLIC "-//W3C//DTD SVG 1.1//EN" "http://www.w3.org/Graphics/SVG/1.1/DTD/svg11.dtd">
<svg xmlns="http://www.w3.org/2000/svg" version="1.1" viewBox="0.00 0.00 105.00 105.00">
<g stroke-width="2.00" fill="none" stroke-linecap="butt">
<path stroke="#222224" vector-effect="non-scaling-stroke" d="
  M 29.65 22.46
  C 10.84 38.65 11.27 67.32 32.69 81.06
  C 51.75 93.28 74.76 88.30 85.61 68.02
  C 94.69 51.05 89.54 31.36 73.78 20.87
  C 60.77 12.20 42.02 11.82 29.65 22.46"
/>
<path stroke="#8d8d8e" vector-effect="non-scaling-stroke" d="
  M 52.27 46.50
  L 52.23 18.72
  A 2.65 2.65 0.0 0 0 49.57 16.08
  L 49.36 16.08
  A 16.43 16.36 89.9 0 0 33.03 32.54
  L 33.03 32.76
  A 16.43 16.36 89.9 0 0 49.42 49.16
  L 49.63 49.16
  A 2.65 2.65 0.0 0 0 52.27 46.50"
/>
<path stroke="#8d8d8e" vector-effect="non-scaling-stroke" d="
  M 58.37 49.25
  L 86.39 49.25
  A 2.53 2.53 0.0 0 0 88.92 46.72
  L 88.92 46.39
  A 16.42 16.36 0.0 0 0 72.50 30.03
  L 72.26 30.03
  A 16.42 16.36 0.0 0 0 55.84 46.39
  L 55.84 46.72
  A 2.53 2.53 0.0 0 0 58.37 49.25"
/>
<path stroke="#8d8d8e" vector-effect="non-scaling-stroke" d="
  M 49.55 52.72
  L 21.69 52.76
  A 2.62 2.62 0.0 0 0 19.08 55.39
  L 19.08 55.62
  A 16.44 16.37 -0.1 0 0 35.55 71.96
  L 35.77 71.96
  A 16.44 16.37 -0.1 0 0 52.18 55.56
  L 52.18 55.33
  A 2.62 2.62 0.0 0 0 49.55 52.72"
/>
<path stroke="#8d8d8e" vector-effect="non-scaling-stroke" d="
  M 55.72 55.36
  L 55.76 83.38
  A 2.53 2.53 0.0 0 0 58.30 85.90
  L 58.62 85.90
  A 16.44 16.37 89.9 0 0 74.96 69.43
  L 74.96 69.23
  A 16.44 16.37 89.9 0 0 58.56 52.82
  L 58.24 52.82
  A 2.53 2.53 0.0 0 0 55.72 55.36"
/>
</g>
<path fill="#1d1d1f" d="
  M 105.00 0.00
  L 105.00 105.00
  L 0.00 105.00
  L 0.00 0.00
  L 105.00 0.00
  Z
  M 29.65 22.46
  C 10.84 38.65 11.27 67.32 32.69 81.06
  C 51.75 93.28 74.76 88.30 85.61 68.02
  C 94.69 51.05 89.54 31.36 73.78 20.87
  C 60.77 12.20 42.02 11.82 29.65 22.46
  Z"
/>
<path fill="#262628" d="
  M 32.69 81.06
  C 11.27 67.32 10.84 38.65 29.65 22.46
  C 42.02 11.82 60.77 12.20 73.78 20.87
  C 89.54 31.36 94.69 51.05 85.61 68.02
  C 74.76 88.30 51.75 93.28 32.69 81.06
  Z
  M 52.27 46.50
  L 52.23 18.72
  A 2.65 2.65 0.0 0 0 49.57 16.08
  L 49.36 16.08
  A 16.43 16.36 89.9 0 0 33.03 32.54
  L 33.03 32.76
  A 16.43 16.36 89.9 0 0 49.42 49.16
  L 49.63 49.16
  A 2.65 2.65 0.0 0 0 52.27 46.50
  Z
  M 58.37 49.25
  L 86.39 49.25
  A 2.53 2.53 0.0 0 0 88.92 46.72
  L 88.92 46.39
  A 16.42 16.36 0.0 0 0 72.50 30.03
  L 72.26 30.03
  A 16.42 16.36 0.0 0 0 55.84 46.39
  L 55.84 46.72
  A 2.53 2.53 0.0 0 0 58.37 49.25
  Z
  M 49.55 52.72
  L 21.69 52.76
  A 2.62 2.62 0.0 0 0 19.08 55.39
  L 19.08 55.62
  A 16.44 16.37 -0.1 0 0 35.55 71.96
  L 35.77 71.96
  A 16.44 16.37 -0.1 0 0 52.18 55.56
  L 52.18 55.33
  A 2.62 2.62 0.0 0 0 49.55 52.72
  Z
  M 55.72 55.36
  L 55.76 83.38
  A 2.53 2.53 0.0 0 0 58.30 85.90
  L 58.62 85.90
  A 16.44 16.37 89.9 0 0 74.96 69.43
  L 74.96 69.23
  A 16.44 16.37 89.9 0 0 58.56 52.82
  L 58.24 52.82
  A 2.53 2.53 0.0 0 0 55.72 55.36
  Z"
/>
<path fill="#f3f3f3" d="
  M 52.27 46.50
  A 2.65 2.65 0.0 0 1 49.63 49.16
  L 49.42 49.16
  A 16.43 16.36 89.9 0 1 33.03 32.76
  L 33.03 32.54
  A 16.43 16.36 89.9 0 1 49.36 16.08
  L 49.57 16.08
  A 2.65 2.65 0.0 0 1 52.23 18.72
  L 52.27 46.50
  Z"
/>
<path fill="#f3f3f3" d="
  M 58.37 49.25
  A 2.53 2.53 0.0 0 1 55.84 46.72
  L 55.84 46.39
  A 16.42 16.36 -0.0 0 1 72.26 30.03
  L 72.50 30.03
  A 16.42 16.36 0.0 0 1 88.92 46.39
  L 88.92 46.72
  A 2.53 2.53 0.0 0 1 86.39 49.25
  L 58.37 49.25
  Z"
/>
<path fill="#f3f3f3" d="
  M 49.55 52.72
  A 2.62 2.62 0.0 0 1 52.18 55.33
  L 52.18 55.56
  A 16.44 16.37 -0.1 0 1 35.77 71.96
  L 35.55 71.96
  A 16.44 16.37 -0.1 0 1 19.08 55.62
  L 19.08 55.39
  A 2.62 2.62 0.0 0 1 21.69 52.76
  L 49.55 52.72
  Z"
/>
<path fill="#f3f3f3" d="
  M 55.72 55.36
  A 2.53 2.53 0.0 0 1 58.24 52.82
  L 58.56 52.82
  A 16.44 16.37 89.9 0 1 74.96 69.23
  L 74.96 69.43
  A 16.44 16.37 89.9 0 1 58.62 85.90
  L 58.30 85.90
  A 2.53 2.53 0.0 0 1 55.76 83.38
  L 55.72 55.36
  Z"
/>
</svg>
