<?xml version="1.0" encoding="UTF-8" standalone="no"?>
<!DOCTYPE svg PUBLIC "-//W3C//DTD SVG 1.1//EN" "http://www.w3.org/Graphics/SVG/1.1/DTD/svg11.dtd">
<svg xmlns="http://www.w3.org/2000/svg" version="1.1" viewBox="0.00 0.00 175.00 175.00">
<g stroke-width="2.00" fill="none" stroke-linecap="butt">
<path stroke="#636465" vector-effect="non-scaling-stroke" d="
  M 65.67 33.15
  Q 64.80 34.02 63.93 34.86
  Q 61.57 37.15 57.67 41.19
  Q 54.32 44.66 54.30 49.50
  Q 54.24 66.54 54.19 71.59
  Q 54.16 74.97 54.89 76.43
  C 56.97 80.63 59.91 81.20 65.02 81.23
  Q 95.78 81.41 106.78 81.13
  Q 109.11 81.07 111.27 78.92
  Q 113.43 76.78 113.49 74.45
  Q 113.82 63.45 113.76 32.69
  C 113.75 27.58 113.19 24.63 109.00 22.54
  Q 107.54 21.80 104.16 21.82
  Q 99.11 21.85 82.07 21.84
  Q 77.23 21.84 73.75 25.18
  Q 69.69 29.06 67.39 31.41
  Q 66.55 32.28 65.67 33.15"
/>
<path stroke="#636465" vector-effect="non-scaling-stroke" d="
  M 41.13 142.89
  C 41.06 152.71 50.06 158.80 58.81 153.96
  Q 61.77 152.32 62.98 147.82
  A 0.77 0.76 7.8 0 0 62.24 146.85
  L 59.89 146.85
  A 1.19 1.19 0.0 0 0 58.79 147.59
  C 56.93 152.10 51.98 152.80 48.45 150.15
  C 46.28 148.53 45.51 145.71 45.53 142.93
  C 45.55 140.15 46.37 137.33 48.56 135.74
  C 52.13 133.15 57.06 133.92 58.86 138.46
  A 1.19 1.19 0.0 0 0 59.95 139.22
  L 62.30 139.25
  A 0.77 0.76 -6.9 0 0 63.05 138.29
  Q 61.91 133.78 58.97 132.09
  C 50.29 127.13 41.20 133.08 41.13 142.89"
/>
<path stroke="#636465" vector-effect="non-scaling-stroke" d="
  M 69.37 130.92
  A 0.73 0.73 0.0 0 0 68.64 130.19
  L 65.92 130.19
  A 0.73 0.73 0.0 0 0 65.19 130.92
  L 65.19 154.32
  A 0.73 0.73 0.0 0 0 65.92 155.05
  L 68.64 155.05
  A 0.73 0.73 0.0 0 0 69.37 154.32
  L 69.37 130.92"
/>
<path stroke="#636465" vector-effect="non-scaling-stroke" d="
  M 80.8923 137.1001
  A 9.26 8.89 -89.8 0 0 71.9701 146.3290
  A 9.26 8.89 -89.8 0 0 80.8277 155.6199
  A 9.26 8.89 -89.8 0 0 89.7499 146.3910
  A 9.26 8.89 -89.8 0 0 80.8923 137.1001"
/>
<path stroke="#636465" vector-effect="non-scaling-stroke" d="
  M 105.73 142.69
  A 0.78 0.78 0.0 0 0 106.45 141.60
  Q 104.39 136.91 99.27 137.19
  C 94.90 137.42 91.22 139.74 92.85 144.62
  C 93.73 147.25 98.78 148.05 101.52 148.67
  A 1.65 1.65 0.0 0 1 102.18 151.57
  C 100.24 153.12 97.72 152.46 96.02 150.46
  Q 95.03 149.30 92.90 149.54
  A 0.99 0.99 0.0 0 0 92.04 150.72
  C 93.35 157.27 106.58 157.34 106.87 150.05
  Q 107.01 146.60 104.46 145.65
  Q 102.72 145.01 97.60 143.59
  A 1.40 1.39 37.7 0 1 97.27 141.04
  Q 100.33 139.24 102.58 142.32
  A 0.91 0.90 -18.0 0 0 103.31 142.69
  L 105.73 142.69"
/>
<path stroke="#636465" vector-effect="non-scaling-stroke" d="
  M 124.81 149.65
  L 122.66 149.65
  A 1.11 1.09 22.0 0 0 121.88 149.97
  L 120.12 151.73
  A 0.31 0.24 -70.5 0 1 120.01 151.80
  Q 115.37 153.27 113.32 149.01
  A 1.13 1.13 0.0 0 1 114.34 147.39
  L 125.29 147.39
  A 0.58 0.57 -89.0 0 0 125.86 146.83
  C 126.26 132.23 106.40 135.03 109.47 149.02
  C 111.18 156.79 122.12 158.02 125.52 150.76
  A 0.78 0.78 0.0 0 0 124.81 149.65"
/>
<path stroke="#636465" vector-effect="non-scaling-stroke" d="
  M 83.75 27.99
  C 81.05 28.02 79.19 28.89 76.51 31.54
  Q 69.41 38.56 63.00 45.00
  Q 61.41 46.60 60.75 47.69
  A 0.52 0.51 -74.3 0 0 61.18 48.47
  L 67.86 48.47
  A 2.12 2.10 -67.3 0 0 69.35 47.85
  L 80.69 36.52
  A 5.50 5.45 -67.4 0 1 84.57 34.90
  L 106.11 34.90
  A 1.35 1.34 -0.0 0 0 107.46 33.56
  L 107.46 29.95
  A 1.95 1.95 0.0 0 0 105.53 28.00
  Q 93.62 27.86 83.75 27.99"
/>
<path stroke="#636465" vector-effect="non-scaling-stroke" d="
  M 107.26 54.95
  L 60.62 54.87
  A 0.23 0.23 0.0 0 0 60.39 55.10
  L 60.36 72.14
  A 3.11 2.81 0.1 0 0 63.46 74.95
  L 104.34 75.03
  A 3.11 2.81 0.1 0 0 107.46 72.22
  L 107.49 55.18
  A 0.23 0.23 0.0 0 0 107.26 54.95"
/>
<path stroke="#636465" vector-effect="non-scaling-stroke" d="
  M 80.8500 140.6200
  A 5.76 4.63 -90.0 0 0 76.2200 146.3800
  A 5.76 4.63 -90.0 0 0 80.8500 152.1400
  A 5.76 4.63 -90.0 0 0 85.4800 146.3800
  A 5.76 4.63 -90.0 0 0 80.8500 140.6200"
/>
<path stroke="#636465" vector-effect="non-scaling-stroke" d="
  M 113.65 144.54
  L 121.71 144.52
  A 0.18 0.18 0.0 0 0 121.89 144.34
  L 121.89 144.24
  A 3.99 3.60 -0.2 0 0 117.88 140.65
  L 117.44 140.65
  A 3.99 3.60 -0.2 0 0 113.47 144.26
  L 113.47 144.36
  A 0.18 0.18 0.0 0 0 113.65 144.54"
/>
</g>
<path fill="#161719" d="
  M 175.00 0.00
  L 175.00 175.00
  L 0.00 175.00
  L 0.00 0.00
  L 175.00 0.00
  Z
  M 65.67 33.15
  Q 64.80 34.02 63.93 34.86
  Q 61.57 37.15 57.67 41.19
  Q 54.32 44.66 54.30 49.50
  Q 54.24 66.54 54.19 71.59
  Q 54.16 74.97 54.89 76.43
  C 56.97 80.63 59.91 81.20 65.02 81.23
  Q 95.78 81.41 106.78 81.13
  Q 109.11 81.07 111.27 78.92
  Q 113.43 76.78 113.49 74.45
  Q 113.82 63.45 113.76 32.69
  C 113.75 27.58 113.19 24.63 109.00 22.54
  Q 107.54 21.80 104.16 21.82
  Q 99.11 21.85 82.07 21.84
  Q 77.23 21.84 73.75 25.18
  Q 69.69 29.06 67.39 31.41
  Q 66.55 32.28 65.67 33.15
  Z
  M 41.13 142.89
  C 41.06 152.71 50.06 158.80 58.81 153.96
  Q 61.77 152.32 62.98 147.82
  A 0.77 0.76 7.8 0 0 62.24 146.85
  L 59.89 146.85
  A 1.19 1.19 0.0 0 0 58.79 147.59
  C 56.93 152.10 51.98 152.80 48.45 150.15
  C 46.28 148.53 45.51 145.71 45.53 142.93
  C 45.55 140.15 46.37 137.33 48.56 135.74
  C 52.13 133.15 57.06 133.92 58.86 138.46
  A 1.19 1.19 0.0 0 0 59.95 139.22
  L 62.30 139.25
  A 0.77 0.76 -6.9 0 0 63.05 138.29
  Q 61.91 133.78 58.97 132.09
  C 50.29 127.13 41.20 133.08 41.13 142.89
  Z
  M 69.37 130.92
  A 0.73 0.73 0.0 0 0 68.64 130.19
  L 65.92 130.19
  A 0.73 0.73 0.0 0 0 65.19 130.92
  L 65.19 154.32
  A 0.73 0.73 0.0 0 0 65.92 155.05
  L 68.64 155.05
  A 0.73 0.73 0.0 0 0 69.37 154.32
  L 69.37 130.92
  Z
  M 80.8923 137.1001
  A 9.26 8.89 -89.8 0 0 71.9701 146.3290
  A 9.26 8.89 -89.8 0 0 80.8277 155.6199
  A 9.26 8.89 -89.8 0 0 89.7499 146.3910
  A 9.26 8.89 -89.8 0 0 80.8923 137.1001
  Z
  M 105.73 142.69
  A 0.78 0.78 0.0 0 0 106.45 141.60
  Q 104.39 136.91 99.27 137.19
  C 94.90 137.42 91.22 139.74 92.85 144.62
  C 93.73 147.25 98.78 148.05 101.52 148.67
  A 1.65 1.65 0.0 0 1 102.18 151.57
  C 100.24 153.12 97.72 152.46 96.02 150.46
  Q 95.03 149.30 92.90 149.54
  A 0.99 0.99 0.0 0 0 92.04 150.72
  C 93.35 157.27 106.58 157.34 106.87 150.05
  Q 107.01 146.60 104.46 145.65
  Q 102.72 145.01 97.60 143.59
  A 1.40 1.39 37.7 0 1 97.27 141.04
  Q 100.33 139.24 102.58 142.32
  A 0.91 0.90 -18.0 0 0 103.31 142.69
  L 105.73 142.69
  Z
  M 124.81 149.65
  L 122.66 149.65
  A 1.11 1.09 22.0 0 0 121.88 149.97
  L 120.12 151.73
  A 0.31 0.24 -70.5 0 1 120.01 151.80
  Q 115.37 153.27 113.32 149.01
  A 1.13 1.13 0.0 0 1 114.34 147.39
  L 125.29 147.39
  A 0.58 0.57 -89.0 0 0 125.86 146.83
  C 126.26 132.23 106.40 135.03 109.47 149.02
  C 111.18 156.79 122.12 158.02 125.52 150.76
  A 0.78 0.78 0.0 0 0 124.81 149.65
  Z"
/>
<path fill="#b0b0b0" d="
  M 111.27 78.92
  Q 109.11 81.07 106.78 81.13
  Q 95.78 81.41 65.02 81.23
  C 59.91 81.20 56.97 80.63 54.89 76.43
  Q 54.16 74.97 54.19 71.59
  Q 54.24 66.54 54.30 49.50
  Q 54.32 44.66 57.67 41.19
  Q 61.57 37.15 63.93 34.86
  Q 64.80 34.02 65.67 33.15
  Q 66.55 32.28 67.39 31.41
  Q 69.69 29.06 73.75 25.18
  Q 77.23 21.84 82.07 21.84
  Q 99.11 21.85 104.16 21.82
  Q 107.54 21.80 109.00 22.54
  C 113.19 24.63 113.75 27.58 113.76 32.69
  Q 113.82 63.45 113.49 74.45
  Q 113.43 76.78 111.27 78.92
  Z
  M 83.75 27.99
  C 81.05 28.02 79.19 28.89 76.51 31.54
  Q 69.41 38.56 63.00 45.00
  Q 61.41 46.60 60.75 47.69
  A 0.52 0.51 -74.3 0 0 61.18 48.47
  L 67.86 48.47
  A 2.12 2.10 -67.3 0 0 69.35 47.85
  L 80.69 36.52
  A 5.50 5.45 -67.4 0 1 84.57 34.90
  L 106.11 34.90
  A 1.35 1.34 -0.0 0 0 107.46 33.56
  L 107.46 29.95
  A 1.95 1.95 0.0 0 0 105.53 28.00
  Q 93.62 27.86 83.75 27.99
  Z
  M 107.26 54.95
  L 60.62 54.87
  A 0.23 0.23 0.0 0 0 60.39 55.10
  L 60.36 72.14
  A 3.11 2.81 0.1 0 0 63.46 74.95
  L 104.34 75.03
  A 3.11 2.81 0.1 0 0 107.46 72.22
  L 107.49 55.18
  A 0.23 0.23 0.0 0 0 107.26 54.95
  Z"
/>
<path fill="#161719" d="
  M 76.51 31.54
  C 79.19 28.89 81.05 28.02 83.75 27.99
  Q 93.62 27.86 105.53 28.00
  A 1.95 1.95 0.0 0 1 107.46 29.95
  L 107.46 33.56
  A 1.35 1.34 0.0 0 1 106.11 34.90
  L 84.57 34.90
  A 5.50 5.45 -67.4 0 0 80.69 36.52
  L 69.35 47.85
  A 2.12 2.10 -67.3 0 1 67.86 48.47
  L 61.18 48.47
  A 0.52 0.51 -74.3 0 1 60.75 47.69
  Q 61.41 46.60 63.00 45.00
  Q 69.41 38.56 76.51 31.54
  Z"
/>
<path fill="#161719" d="
  M 107.26 54.95
  A 0.23 0.23 0.0 0 1 107.49 55.18
  L 107.46 72.22
  A 3.11 2.81 0.1 0 1 104.34 75.03
  L 63.46 74.95
  A 3.11 2.81 0.1 0 1 60.36 72.14
  L 60.39 55.10
  A 0.23 0.23 0.0 0 1 60.62 54.87
  L 107.26 54.95
  Z"
/>
<path fill="#b0b0b0" d="
  M 45.53 142.93
  C 45.51 145.71 46.28 148.53 48.45 150.15
  C 51.98 152.80 56.93 152.10 58.79 147.59
  A 1.19 1.19 0.0 0 1 59.89 146.85
  L 62.24 146.85
  A 0.77 0.76 7.8 0 1 62.98 147.82
  Q 61.77 152.32 58.81 153.96
  C 50.06 158.80 41.06 152.71 41.13 142.89
  C 41.20 133.08 50.29 127.13 58.97 132.09
  Q 61.91 133.78 63.05 138.29
  A 0.77 0.76 -6.9 0 1 62.30 139.25
  L 59.95 139.22
  A 1.19 1.19 0.0 0 1 58.86 138.46
  C 57.06 133.92 52.13 133.15 48.56 135.74
  C 46.37 137.33 45.55 140.15 45.53 142.93
  Z"
/>
<rect fill="#b0b0b0" x="65.19" y="130.19" width="4.18" height="24.86" rx="0.73"/>
<path fill="#b0b0b0" d="
  M 80.8923 137.1001
  A 9.26 8.89 -89.8 0 1 89.7499 146.3910
  A 9.26 8.89 -89.8 0 1 80.8277 155.6199
  A 9.26 8.89 -89.8 0 1 71.9701 146.3290
  A 9.26 8.89 -89.8 0 1 80.8923 137.1001
  Z
  M 80.8500 140.6200
  A 5.76 4.63 -90.0 0 0 76.2200 146.3800
  A 5.76 4.63 -90.0 0 0 80.8500 152.1400
  A 5.76 4.63 -90.0 0 0 85.4800 146.3800
  A 5.76 4.63 -90.0 0 0 80.8500 140.6200
  Z"
/>
<path fill="#b0b0b0" d="
  M 105.73 142.69
  L 103.31 142.69
  A 0.91 0.90 -18.0 0 1 102.58 142.32
  Q 100.33 139.24 97.27 141.04
  A 1.40 1.39 37.7 0 0 97.60 143.59
  Q 102.72 145.01 104.46 145.65
  Q 107.01 146.60 106.87 150.05
  C 106.58 157.34 93.35 157.27 92.04 150.72
  A 0.99 0.99 0.0 0 1 92.90 149.54
  Q 95.03 149.30 96.02 150.46
  C 97.72 152.46 100.24 153.12 102.18 151.57
  A 1.65 1.65 0.0 0 0 101.52 148.67
  C 98.78 148.05 93.73 147.25 92.85 144.62
  C 91.22 139.74 94.90 137.42 99.27 137.19
  Q 104.39 136.91 106.45 141.60
  A 0.78 0.78 0.0 0 1 105.73 142.69
  Z"
/>
<path fill="#b0b0b0" d="
  M 124.81 149.65
  A 0.78 0.78 0.0 0 1 125.52 150.76
  C 122.12 158.02 111.18 156.79 109.47 149.02
  C 106.40 135.03 126.26 132.23 125.86 146.83
  A 0.58 0.57 -89.0 0 1 125.29 147.39
  L 114.34 147.39
  A 1.13 1.13 0.0 0 0 113.32 149.01
  Q 115.37 153.27 120.01 151.80
  A 0.31 0.24 -70.5 0 0 120.12 151.73
  L 121.88 149.97
  A 1.11 1.09 22.0 0 1 122.66 149.65
  L 124.81 149.65
  Z
  M 113.65 144.54
  L 121.71 144.52
  A 0.18 0.18 0.0 0 0 121.89 144.34
  L 121.89 144.24
  A 3.99 3.60 -0.2 0 0 117.88 140.65
  L 117.44 140.65
  A 3.99 3.60 -0.2 0 0 113.47 144.26
  L 113.47 144.36
  A 0.18 0.18 0.0 0 0 113.65 144.54
  Z"
/>
<path fill="#161719" d="
  M 113.65 144.54
  A 0.18 0.18 0.0 0 1 113.47 144.36
  L 113.47 144.26
  A 3.99 3.60 -0.2 0 1 117.44 140.65
  L 117.88 140.65
  A 3.99 3.60 -0.2 0 1 121.89 144.24
  L 121.89 144.34
  A 0.18 0.18 0.0 0 1 121.71 144.52
  L 113.65 144.54
  Z"
/>
<ellipse fill="#161719" cx="0.00" cy="0.00" transform="translate(80.85,146.38) rotate(-90.0)" rx="5.76" ry="4.63"/>
</svg>
